<?xml version="1.0" encoding="UTF-8" standalone="no"?>
<svg xmlns:dc="http://purl.org/dc/elements/1.1/" xmlns:cc="http://creativecommons.org/ns#" xmlns:rdf="http://www.w3.org/1999/02/22-rdf-syntax-ns#" xmlns:svg="http://www.w3.org/2000/svg" xmlns="http://www.w3.org/2000/svg" width="100%" height="100%" viewBox="0 0 80 60" id="ppvs" version="1.1">
 <defs id="defs5015" />
 <g id="layer1">
 <rect style="fill:#42aa26;fill-opacity:1" id="rect0001" width="80" height="60" x="0" y="0" />
 <path style="fill:#065c06;fill-opacity:0.264;fill-rule:nonzero;stroke-width:0.5;stroke-linecap:round;stroke-linejoin:round;marker:none" d="m 33.003,52.809 c -4.765,2.72 -14.995,0.68 -15.857,-0.86 -0.857,-1.539 11.381,-2.814 14.625,-1.924 3.239,0.888 2.818,1.878 1.232,2.787 z" id="path6884" />
 <path style="fill:#065c06;fill-opacity:0.375;fill-rule:nonzero;stroke-width:0.5;stroke-linecap:round;stroke-linejoin:round;marker:none" d="M 112.003,5.275 -7.996,17.111 l 0,36.844 c 0.793,-0.536 2.132,-1.615 3.516,-2.922 -0.027,1.885 0.276,3.375 0.531,3.393 0.274,0.018 1.462,-1.91 2.412,-4.139 0.968,2.079 2.358,3.77 2.678,3.705 0.246,-0.05 0.484,-1.49 0.473,-3.256 0.612,0.304 1.179,0.554 1.676,0.748 0.039,1.555 0.289,2.707 0.513,2.723 0.222,0.015 1.036,-1.253 1.849,-2.922 1.068,1.318 2.124,2.232 2.371,2.162 0.372,-0.105 0.254,-3.346 -0.693,-5.984 1.528,0.597 3.250,1.046 4.637,1.322 0.047,0.36 0.119,0.601 0.223,0.598 0.096,-0.003 0.322,-0.2 0.59,-0.469 0.955,0.153 1.709,0.227 1.822,0.135 0.117,-0.096 -0.271,-0.551 -0.951,-1.143 0.407,-0.514 0.841,-1.097 1.269,-1.767 0.492,2.288 1.556,4.361 1.897,4.289 0.404,-0.086 1.539,-3.033 1.621,-5.715 2.557,1.891 6.195,3.501 6.49,3.297 0.196,-0.136 -0.349,-1.288 -1.345,-2.639 2.284,0.232 4.113,0.272 4.201,0.113 0.088,-0.16 -1.11,-0.874 -2.862,-1.634 0.013,-0.432 -0.001,-0.936 -0.058,-1.497 2.005,0.84 3.758,1.356 3.931,1.211 0.226,-0.188 -1.049,-1.935 -2.961,-3.576 2.987,0.402 5.745,0.5 5.852,0.305 0.076,-0.139 -0.801,-0.695 -2.168,-1.334 0.416,-0.28 0.925,-0.664 1.522,-1.172 0.453,-0.095 0.884,-0.186 1.244,-0.273 -0.052,1.984 0.271,3.691 0.576,3.679 0.414,-0.016 2.381,-2.739 3.256,-5.375 1.899,2.296 4.923,4.495 5.267,4.342 0.229,-0.101 0.047,-1.331 -0.511,-2.832 2.129,0.611 3.874,0.957 4.005,0.814 0.133,-0.143 -0.807,-1.049 -2.267,-2.093 0.14,-0.424 0.276,-0.925 0.387,-1.489 0.889,0.617 1.721,1.118 2.353,1.45 -0.92,0.192 -1.52,0.369 -1.488,0.463 0.072,0.21 2.881,0.745 6.092,0.99 -2.573,1.562 -4.612,3.351 -4.366,3.517 0.142,0.096 1.202,-0.08 2.623,-0.445 -1.365,1.128 -2.243,2.08 -2.062,2.19 0.221,0.134 2.387,-0.397 4.771,-1.288 -1.603,2.076 -2.607,4.257 -2.296,4.364 0.367,0.127 3.721,-1.694 6.081,-3.809 0.242,2.756 1.513,5.809 1.904,5.787 0.259,-0.014 0.851,-1.202 1.283,-2.769 1.466,1.29 2.763,2.204 2.963,2.119 0.202,-0.087 -0.059,-1.236 -0.684,-2.694 0.38,-0.34 0.801,-0.753 1.241,-1.232 0.741,1.644 1.578,2.907 1.828,2.875 0.325,-0.042 0.892,-2.062 0.906,-4.305 1.831,1.767 3.758,3.18 4.004,3.075 0.23,-0.099 -0.124,-1.579 -0.951,-3.323 2.673,1.119 5.174,1.871 5.322,1.707 0.013,-0.014 0.002,-0.049 -0.01,-0.082 0.241,-0.017 0.688,-0.113 1.262,-0.259 0.718,0.209 1.214,0.315 1.275,0.248 0.047,-0.052 -0.088,-0.247 -0.316,-0.508 0.502,-0.146 1.048,-0.312 1.633,-0.504 -0.664,1.53 -0.929,2.771 -0.707,2.861 0.334,0.136 3.514,-2.211 5.576,-4.601 0.692,2.596 2.473,5.227 2.889,5.228 0.349,-0.008 0.912,-2.254 0.869,-4.588 1.534,1.512 3.114,2.634 3.402,2.58 0.235,-0.044 0.09,-1.158 -0.375,-2.576 1.026,0.753 1.851,1.229 2.041,1.186 0.275,-0.062 -0.132,-1.606 -0.986,-3.366 0.358,-0.1 0.933,-0.321 1.625,-0.611 0.971,0.19 1.776,0.311 2.455,0.395 -0.443,1.295 -0.602,2.296 -0.403,2.365 0.224,0.077 1.622,-0.972 3.113,-2.404 0.191,0.538 0.396,1.011 0.595,1.406 -1.291,1.275 -2.086,2.325 -1.934,2.445 0.15,0.119 1.822,-0.513 3.837,-1.472 -0.335,1.576 -0.337,2.821 -0.096,2.882 0.363,0.093 3.030,-2.586 4.575,-5.172 1.245,2.458 3.583,4.819 3.994,4.766 0.348,-0.045 0.427,-2.312 -0.115,-4.592 1.852,1.294 3.666,2.203 3.942,2.116 0.225,-0.072 -0.158,-1.145 -0.924,-2.475 1.148,0.594 2.042,0.949 2.26,0.91 l 0,-0.449 c -0.268,-0.737 -1.19,-2.256 -2.459,-3.717 0.859,0.098 1.684,0.167 2.459,0.217 l 0,-1.766 c -0.378,-0.132 -0.737,-0.263 -1.143,-0.392 0.378,-0.03 0.761,-0.074 1.143,-0.116 l 0,-27.911 z M 45.585,33.943 c 1.237,0.509 2.637,1.02 4.041,1.42 -1.211,0.129 -2.293,0.292 -3.237,0.457 -0.12,-0.451 -0.389,-1.106 -0.804,-1.877 z m 17.512,1.502 c 0.65,0.044 1.619,0.06 2.807,0.031 -0.416,0.154 -0.746,0.288 -0.992,0.401 -0.406,-0.055 -0.803,-0.098 -1.178,-0.115 -0.19,-0.108 -0.427,-0.211 -0.637,-0.317 z m 27.576,0.549 c 0.127,0.004 0.256,0.005 0.383,0.008 -0.1,0.094 -0.18,0.179 -0.275,0.271 -0.151,-0.075 -0.282,-0.149 -0.438,-0.224 0.112,-0.019 0.217,-0.035 0.33,-0.055 z m -20.291,0.225 c -0.369,0.253 -0.691,0.495 -1.009,0.734 -0.723,-0.233 -1.459,-0.447 -2.19,-0.629 0.947,-0.005 2.015,-0.031 3.199,-0.105 z m -38.071,0.422 c 0,0.005 10e-4,0.01 0,0.015 -0.007,-0.001 -0.009,-0.003 -0.016,-0.004 0.004,-0.003 0.007,-0.004 0.01,-0.008 0.003,0 0.003,-0.003 0.006,-0.003 z m 61.626,0.082 c -0.177,0.358 -0.308,0.7 -0.449,1.044 -0.214,-0.134 -0.502,-0.297 -0.762,-0.449 0.401,-0.193 0.797,-0.38 1.211,-0.595 z m -20.994,0.636 c -0.184,0.248 -0.323,0.482 -0.486,0.725 -0.248,-0.102 -0.483,-0.2 -0.748,-0.303 0.409,-0.137 0.809,-0.267 1.234,-0.422 z m 15.578,0.403 c 0.245,0.06 0.47,0.101 0.711,0.156 -0.169,0.207 -0.271,0.361 -0.371,0.512 -0.117,-0.225 -0.209,-0.442 -0.34,-0.668 z m -59.710,0.441 c -0.036,0.134 -0.081,0.288 -0.105,0.402 -0.214,-0.092 -0.402,-0.183 -0.631,-0.275 0.259,-0.04 0.485,-0.085 0.736,-0.127 z m 42.265,1.322 c 0.167,0.022 0.309,0.033 0.472,0.053 -0.037,0.071 -0.084,0.147 -0.119,0.215 -0.124,-0.091 -0.226,-0.177 -0.353,-0.268 z m 2.832,0.283 c 0.209,0.015 0.419,0.03 0.597,0.038 0.064,0.386 0.128,0.776 0.209,1.084 -0.354,0.257 -0.672,0.502 -0.962,0.734 -0.346,-0.312 -0.726,-0.641 -1.174,-1 0.407,-0.245 0.849,-0.529 1.33,-0.856 z m -2.205,2.395 c 0.364,0.133 0.696,0.248 1.021,0.357 -0.144,0.142 -0.278,0.279 -0.346,0.372 -0.141,-0.183 -0.368,-0.43 -0.675,-0.729 z" id="path12528-4" />
 <g id="g5239" transform="matrix(1.09,0,0,1.091,-99.945,40.247)">
 <rect y="-35.477" x="49.091" height="21.978" width="178.55" id="rect5103" style="fill:#800000;stroke:#000000;stroke-width:0.456;stroke-linecap:butt;marker:none" />
 <rect style="fill:#a02c2c;stroke-width:0.5;marker:none" id="use3339-9" width="9.637" height="4.441" x="58.206" y="-29.025" />
 <rect style="fill:#a02c2c;stroke-width:0.5;marker:none" id="use3341" width="9.637" height="4.441" x="63.193" y="-34.136" />
 <rect style="fill:#a02c2c;stroke-width:0.5;marker:none" id="use3343" width="9.637" height="4.441" x="68.806" y="-29.025" />
 <rect style="fill:#a02c2c;stroke-width:0.5;marker:none" id="use3345" width="9.637" height="4.441" x="73.793" y="-34.136" />
 <rect style="fill:#a02c2c;stroke-width:0.5;marker:none" id="use3347" width="9.637" height="4.441" x="79.410" y="-29.025" />
 <rect style="fill:#a02c2c;stroke-width:0.5;marker:none" id="use3349" width="9.637" height="4.441" x="84.397" y="-34.136" />
 <rect style="fill:#a02c2c;stroke-width:0.5;marker:none" id="use3351" width="9.637" height="4.441" x="90.012" y="-29.025" />
 <rect style="fill:#a02c2c;stroke-width:0.5;marker:none" id="use3353" width="9.637" height="4.441" x="94.999" y="-34.136" />
 <rect style="fill:#a02c2c;stroke-width:0.5;marker:none" id="use3355" width="9.637" height="4.441" x="100.614" y="-29.025" />
 <rect style="fill:#a02c2c;stroke-width:0.5;marker:none" id="use3357" width="9.637" height="4.441" x="105.601" y="-34.136" />
 <rect style="fill:#a02c2c;stroke-width:0.5;marker:none" id="use3359" width="9.637" height="4.441" x="111.216" y="-29.025" />
 <rect style="fill:#a02c2c;stroke-width:0.5;marker:none" id="use3361" width="9.637" height="4.441" x="116.203" y="-34.136" />
 <rect style="fill:#a02c2c;stroke-width:0.5;marker:none" id="use3363" width="9.637" height="4.441" x="121.818" y="-29.025" />
 <rect style="fill:#a02c2c;stroke-width:0.5;marker:none" id="use3365" width="9.637" height="4.441" x="126.805" y="-34.136" />
 <rect style="fill:#a02c2c;stroke-width:0.5;marker:none" id="use3367" width="9.637" height="4.441" x="132.42" y="-29.025" />
 <rect y="-34.136" x="52.591" height="4.441" width="9.637" id="rect3301" style="fill:#a02c2c;stroke-width:0.5;marker:none" />
 <rect y="-18.837" x="58.206" height="4.441" width="9.637" id="rect3400" style="fill:#a02c2c;stroke-width:0.5;marker:none" />
 <rect y="-23.948" x="63.193" height="4.441" width="9.637" id="rect3402" style="fill:#a02c2c;stroke-width:0.5;marker:none" />
 <rect y="-18.837" x="68.806" height="4.441" width="9.637" id="rect3404" style="fill:#a02c2c;stroke-width:0.5;marker:none" />
 <rect y="-23.948" x="73.793" height="4.441" width="9.637" id="rect3406" style="fill:#a02c2c;stroke-width:0.5;marker:none" />
 <rect y="-18.837" x="79.410" height="4.441" width="9.637" id="rect3408" style="fill:#a02c2c;stroke-width:0.5;marker:none" />
 <rect y="-23.948" x="84.397" height="4.441" width="9.637" id="rect3410" style="fill:#a02c2c;stroke-width:0.5;marker:none" />
 <rect y="-18.837" x="90.012" height="4.441" width="9.637" id="rect3412" style="fill:#a02c2c;stroke-width:0.5;marker:none" />
 <rect y="-23.948" x="94.999" height="4.441" width="9.637" id="rect3414" style="fill:#a02c2c;stroke-width:0.5;marker:none" />
 <rect y="-18.837" x="100.614" height="4.441" width="9.637" id="rect3416" style="fill:#a02c2c;stroke-width:0.5;marker:none" />
 <rect y="-23.948" x="105.601" height="4.441" width="9.637" id="rect3418" style="fill:#a02c2c;stroke-width:0.5;marker:none" />
 <rect y="-18.837" x="111.216" height="4.441" width="9.637" id="rect3420" style="fill:#a02c2c;stroke-width:0.5;marker:none" />
 <rect y="-23.948" x="116.203" height="4.441" width="9.637" id="rect3422" style="fill:#a02c2c;stroke-width:0.5;marker:none" />
 <rect y="-18.837" x="121.818" height="4.441" width="9.637" id="rect3424" style="fill:#a02c2c;stroke-width:0.5;marker:none" />
 <rect y="-23.948" x="126.805" height="4.441" width="9.637" id="rect3426" style="fill:#a02c2c;stroke-width:0.5;marker:none" />
 <rect y="-18.837" x="132.42" height="4.441" width="9.637" id="rect3428" style="fill:#a02c2c;stroke-width:0.5;marker:none" />
 <rect style="fill:#a02c2c;stroke-width:0.5;marker:none" id="rect3430" width="9.637" height="4.441" x="52.591" y="-23.948" />
 <rect y="-29.025" x="142.858" height="4.441" width="9.637" id="rect5173" style="fill:#a02c2c;stroke-width:0.5;marker:none" />
 <rect y="-34.136" x="147.845" height="4.441" width="9.637" id="rect5175" style="fill:#a02c2c;stroke-width:0.5;marker:none" />
 <rect y="-29.025" x="153.460" height="4.441" width="9.637" id="rect5177" style="fill:#a02c2c;stroke-width:0.5;marker:none" />
 <rect y="-34.136" x="158.447" height="4.441" width="9.637" id="rect5179" style="fill:#a02c2c;stroke-width:0.5;marker:none" />
 <rect y="-29.025" x="164.062" height="4.441" width="9.637" id="rect5181" style="fill:#a02c2c;stroke-width:0.5;marker:none" />
 <rect y="-34.136" x="169.049" height="4.441" width="9.637" id="rect5183" style="fill:#a02c2c;stroke-width:0.5;marker:none" />
 <rect y="-29.025" x="174.664" height="4.441" width="9.637" id="rect5185" style="fill:#a02c2c;stroke-width:0.5;marker:none" />
 <rect y="-34.136" x="179.651" height="4.441" width="9.637" id="rect5187" style="fill:#a02c2c;stroke-width:0.5;marker:none" />
 <rect y="-29.025" x="185.266" height="4.441" width="9.637" id="rect5189" style="fill:#a02c2c;stroke-width:0.5;marker:none" />
 <rect y="-34.136" x="190.253" height="4.441" width="9.637" id="rect5191" style="fill:#a02c2c;stroke-width:0.5;marker:none" />
 <rect y="-29.025" x="195.868" height="4.441" width="9.637" id="rect5193" style="fill:#a02c2c;stroke-width:0.5;marker:none" />
 <rect y="-34.136" x="200.855" height="4.441" width="9.637" id="rect5195" style="fill:#a02c2c;stroke-width:0.5;marker:none" />
 <rect y="-29.025" x="206.47" height="4.441" width="9.637" id="rect5197" style="fill:#a02c2c;stroke-width:0.5;marker:none" />
 <rect y="-34.136" x="211.457" height="4.441" width="9.637" id="rect5199" style="fill:#a02c2c;stroke-width:0.5;marker:none" />
 <rect y="-29.025" x="217.072" height="4.441" width="9.637" id="rect5201" style="fill:#a02c2c;stroke-width:0.5;marker:none" />
 <rect style="fill:#a02c2c;stroke-width:0.5;marker:none" id="rect5203" width="9.637" height="4.441" x="137.243" y="-34.136" />
 <rect style="fill:#a02c2c;stroke-width:0.5;marker:none" id="rect5205" width="9.637" height="4.441" x="142.858" y="-18.837" />
 <rect style="fill:#a02c2c;stroke-width:0.5;marker:none" id="rect5207" width="9.637" height="4.441" x="147.845" y="-23.948" />
 <rect style="fill:#a02c2c;stroke-width:0.5;marker:none" id="rect5209" width="9.637" height="4.441" x="153.460" y="-18.837" />
 <rect style="fill:#a02c2c;stroke-width:0.5;marker:none" id="rect5211" width="9.637" height="4.441" x="158.447" y="-23.948" />
 <rect style="fill:#a02c2c;stroke-width:0.5;marker:none" id="rect5213" width="9.637" height="4.441" x="164.062" y="-18.837" />
 <rect style="fill:#a02c2c;stroke-width:0.5;marker:none" id="rect5215" width="9.637" height="4.441" x="169.049" y="-23.948" />
 <rect style="fill:#a02c2c;stroke-width:0.5;marker:none" id="rect5217" width="9.637" height="4.441" x="174.664" y="-18.837" />
 <rect style="fill:#a02c2c;stroke-width:0.5;marker:none" id="rect5219" width="9.637" height="4.441" x="179.651" y="-23.948" />
 <rect style="fill:#a02c2c;stroke-width:0.5;marker:none" id="rect5221" width="9.637" height="4.441" x="185.266" y="-18.837" />
 <rect style="fill:#a02c2c;stroke-width:0.5;marker:none" id="rect5223" width="9.637" height="4.441" x="190.253" y="-23.948" />
 <rect style="fill:#a02c2c;stroke-width:0.5;marker:none" id="rect5225" width="9.637" height="4.441" x="195.868" y="-18.837" />
 <rect style="fill:#a02c2c;stroke-width:0.5;marker:none" id="rect5227" width="9.637" height="4.441" x="200.855" y="-23.948" />
 <rect style="fill:#a02c2c;stroke-width:0.5;marker:none" id="rect5229" width="9.637" height="4.441" x="206.47" y="-18.837" />
 <rect style="fill:#a02c2c;stroke-width:0.5;marker:none" id="rect5231" width="9.637" height="4.441" x="211.457" y="-23.948" />
 <rect style="fill:#a02c2c;stroke-width:0.5;marker:none" id="rect5233" width="9.637" height="4.441" x="217.072" y="-18.837" />
 <rect y="-23.948" x="137.243" height="4.441" width="9.637" id="rect5235" style="fill:#a02c2c;stroke-width:0.5;marker:none" />
 <rect style="fill:#800000;stroke:#000000;stroke-width:0.456;stroke-linecap:butt;marker:none" id="rect5237" width="178.55" height="4.604" x="49.091" y="-39.448" />
 </g>
 <path style="fill:#000000;fill-opacity:0.298;stroke-width:0.5;stroke-linecap:round" d="M -10.367,-0.706 C -5.972,9.370 -2.677,16.577 -0.258,21.256 -3.092,18.524 -7.476,14.706 -13.749,9.514 c 2.859,3.598 5.241,6.492 7.236,8.858 -4.879,-2.877 -10.895,-6.219 -18.409,-10.335 9.575,7.657 16.490,13.045 21.571,16.733 -4.446,-1.031 -10.121,-2.186 -17.495,-3.586 4.588,1.717 8.419,3.13 11.742,4.327 l 25.317,0 c 1.941,-1.391 4.245,-3.156 7.063,-5.432 2.462,-0.287 5.379,-0.576 7.6,-0.291 -4.627,1.071 -10.777,4.392 -11.95,5.723 l 105.054,0 c 0.39,-0.546 0.625,-1.211 0.625,-1.942 0,-1.369 -0.823,-2.567 -1.994,-3.084 -0.676,-1.609 -2.252,-2.747 -4.082,-2.803 -0.976,-1.853 -2.877,-3.128 -5.104,-3.128 -0.184,0 -0.376,0.03 -0.556,0.046 -0.437,-1.713 -1.965,-2.943 -3.803,-2.943 -0.339,0 -0.661,0.013 -0.975,0.094 -0.59,-0.626 -1.339,-1.101 -2.181,-1.356 -0.712,-2.421 -2.932,-4.202 -5.567,-4.202 -1.271,0 -2.428,0.469 -3.385,1.168 -0.696,-0.473 -1.51,-0.748 -2.412,-0.748 -1.82,0 -3.383,1.158 -4.035,2.756 -0.684,-0.285 -1.44,-0.467 -2.226,-0.467 -0.144,0 -0.277,0.037 -0.418,0.047 -0.838,-1.03 -2.102,-1.682 -3.526,-1.682 -2.267,0 -4.098,1.648 -4.453,3.830 -2.518,0.413 -4.477,2.441 -4.804,5 -0.287,0.246 -0.572,0.489 -0.934,0.849 0.582,-1.932 0.845,-3.461 0.645,-3.533 -0.246,-0.089 -1.769,1.382 -3.299,3.391 0.325,-3.22 0.108,-6.349 -0.198,-6.37 -0.362,-0.024 -2.245,3.518 -3.171,7.067 -1.514,-3.398 -4.013,-6.793 -4.323,-6.621 -0.205,0.113 -0.124,1.835 0.27,3.978 -1.818,-1.092 -3.318,-1.77 -3.442,-1.588 -0.124,0.184 0.638,1.545 1.846,3.159 -0.149,0.57 -0.298,1.249 -0.43,2.017 -1.392,-1.807 -2.679,-3.096 -2.869,-2.963 -0.247,0.174 0.251,2.938 1.309,5.782 -2.345,-1.56 -4.599,-2.633 -4.75,-2.409 -0.142,0.21 0.857,1.955 2.367,3.856 -2.726,-0.428 -5.138,-0.459 -5.182,-0.197 -0.021,0.13 0.437,0.51 1.166,1 -0.06,-0.006 -0.108,-0.007 -0.168,-0.012 -2.058,-0.685 -4.618,-1.366 -7.215,-1.832 3.548,-2.874 11.933,-4.924 11.811,-5.768 -0.12,-0.832 -7.685,-0.07 -12.721,1.815 2.548,-3.751 6.997,-7.790 6.583,-8.368 -0.29,-0.404 -2.630,0.877 -5.240,2.811 2.337,-3.912 5.037,-7.477 4.562,-7.960 -0.442,-0.45 -3.224,1.717 -6.138,4.717 -0.794,-4.3 -2.251,-8.357 -2.863,-8.192 -0.732,0.198 0.318,6.895 -0.301,11.468 -0.615,-1.226 -1.367,-2.489 -2.176,-3.729 0.636,-2.706 1.247,-4.911 0.856,-5.104 -0.34,-0.167 -1.263,1.087 -2.297,2.989 -2.675,-3.698 -5.524,-6.673 -6.295,-6.610 -0.044,0.004 -0.081,0.021 -0.111,0.045 -0.628,0.499 2.527,5.703 4.474,10.659 -0.078,0.192 -0.158,0.382 -0.234,0.576 -2.937,-3.465 -6.478,-6.456 -6.938,-5.987 -0.386,0.394 1.78,3.283 3.68,6.468 -0.621,0.367 -1.123,0.668 -1.717,1.019 -1.789,-0.881 -3.595,-1.613 -5.105,-2.115 0.701,-0.726 1.347,-1.386 2.084,-2.157 -0.986,0.718 -1.775,1.301 -2.674,1.958 -0.759,-0.233 -1.364,-0.368 -1.846,-0.437 2.159,-2.202 4.455,-4.567 6.979,-7.216 -7.999,5.911 -13.97,10.465 -18.619,14.131 2.457,-4.111 5.498,-9.837 9.332,-17.391 l -1.955,0 c -1.513,1.985 -2.916,3.842 -4.215,5.580 0.66,-1.772 1.351,-3.637 2.064,-5.580 l -1.496,0 C 13.204,4.619 10.579,9.359 8.663,13.029 9.656,9.757 10.750,5.159 11.985,-0.706 l -2.991,0 c -1.201,3.499 -2.228,6.593 -3,9.096 -0.257,-1.091 -0.514,-2.114 -0.842,-3.375 -0.005,-0.02 0.005,-0.051 0,-0.071 -0.044,-1.742 -0.112,-3.67 -0.186,-5.650 l -4.428,0 c 0.334,2.197 0.656,4.261 0.960,6.072 -0.022,0.518 -0.052,1.053 -0.071,1.547 -0.840,-2.295 -1.839,-4.886 -2.914,-7.619 l -3.535,0 c 0.96,3.974 1.854,7.565 2.654,10.572 -1.883,-3.055 -4.184,-6.674 -6.691,-10.572 l -1.306,0 z m 33.874,11.085 c 0.246,0.232 0.591,0.508 1.057,0.84 -2.614,1.918 -5.029,3.7 -7.187,5.326 1.866,-1.858 3.912,-3.908 6.13,-6.166 z m 9.922,1.246 c 0.533,0.898 1.044,1.815 1.465,2.707 -0.862,-0.556 -1.822,-1.082 -2.801,-1.58 0.456,-0.386 0.865,-0.727 1.336,-1.127 z m -8.154,0.086 c 1.03,0.704 2.295,1.545 3.58,2.467 -2.404,1.432 -4.564,2.731 -6.48,3.9 -2.408,0.903 -4.129,1.824 -3.987,2.221 0.021,0.058 0.097,0.097 0.198,0.127 -2.641,1.661 -4.831,3.091 -6.338,4.205 3.345,-3.113 7.674,-7.396 13.027,-12.92 z m 4.412,3.07 c 0.485,0.363 0.962,0.735 1.412,1.111 -1.091,0.107 -2.277,0.335 -3.467,0.61 0.653,-0.543 1.363,-1.14 2.055,-1.721 z" id="path6711" />
 <path d="m 29.145,1.967 c -0.044,0.003 -0.08,0.02 -0.111,0.044 -0.627,0.499 2.525,5.703 4.473,10.659 -0.078,0.192 -0.157,0.381 -0.233,0.575 -2.936,-3.465 -6.477,-6.456 -6.937,-5.988 -0.499,0.509 3.28,5.196 5.217,9.298 -4.493,-2.898 -11.444,-5.254 -11.744,-4.483 -0.245,0.631 4.551,3.209 7.947,6.044 -5.39,0.527 -13.005,3.583 -12.709,4.406 0.274,0.764 7.891,-1.098 12.487,-0.509 -5.279,1.221 -12.543,5.374 -12.132,6.155 0.122,0.233 1.022,0.076 2.275,-0.232 -2.293,1.146 -3.979,2.29 -3.796,2.645 0.361,0.7 8.41,-2.515 12.043,-1.66 0.181,0.042 0.338,0.072 0.51,0.11 -2.19,1.466 -3.987,3.065 -3.885,3.476 0.128,0.515 3.466,-1.299 6.249,-2.048 0.902,0.602 2.135,0.593 3.896,0.066 0.939,0.18 1.63,0.18 2.153,-0.099 0.755,-0.034 1.676,-0.163 2.741,-0.365 2.623,0.825 5.464,2.323 5.583,1.848 0.068,-0.275 -0.721,-1.09 -1.909,-2.036 4.587,0.513 10.728,3.013 11.088,2.358 0.283,-0.515 -2.822,-2.588 -6.481,-4.306 4.523,0.129 8.737,0.642 8.923,-0.01 0.236,-0.831 -5.582,-2.967 -11.432,-4.018 3.548,-2.874 11.931,-4.923 11.809,-5.767 -0.119,-0.832 -7.683,-0.068 -12.719,1.815 2.548,-3.75 6.997,-7.79 6.582,-8.369 -0.289,-0.403 -2.629,0.877 -5.239,2.811 2.336,-3.913 5.037,-7.475 4.562,-7.958 -0.439,-0.45 -3.221,1.715 -6.135,4.715 -0.794,-4.300 -2.251,-8.357 -2.863,-8.192 -0.732,0.198 0.319,6.895 -0.3,11.468 -0.615,-1.226 -1.367,-2.49 -2.176,-3.73 0.636,-2.705 1.246,-4.910 0.855,-5.103 -0.34,-0.167 -1.264,1.088 -2.298,2.989 -2.674,-3.698 -5.523,-6.672 -6.294,-6.609 z" id="path4243" style="fill:#2b6c2b;stroke:#000000;stroke-width:0.5;stroke-linecap:round" />
 <path d="m 0.194,-26.298 c -0.624,8.946 -1.106,15.999 -1.475,22.430 -1.185,-4.009 -2.561,-8.351 -4.146,-13.430 1.406,10.81 2.572,18.863 3.584,24.891 -0.022,0.517 -0.052,1.052 -0.071,1.547 -2.588,-7.058 -6.257,-16.093 -11.099,-27.704 3.008,13.420 5.366,23.374 7.305,30.657 C -8.551,7.477 -12.060,1.961 -16.386,-4.641 c 5.838,13.554 9.888,22.519 12.786,28.124 -2.833,-2.732 -7.214,-6.551 -13.488,-11.743 2.859,3.599 5.241,6.493 7.236,8.859 -4.879,-2.876 -10.895,-6.219 -18.408,-10.336 9.575,7.658 16.488,13.046 21.570,16.734 -4.445,-1.031 -10.121,-2.186 -17.495,-3.586 10.038,3.755 16.813,6.219 21.359,7.594 0.031,0.073 0.088,0.147 0.14,0.21 0.337,0.412 0.844,0.509 1.616,0.281 0.078,0.021 0.134,0.049 0.210,0.07 -0.435,0.717 -0.510,1.213 -0.210,1.546 0.515,0.574 1.553,0.357 3.091,-0.562 1.684,0.786 2.684,0.916 3.090,0.351 -0.09,-0.66 0.234,-1.312 0.351,-1.968 1.315,1.829 8.442,-3.308 25.294,-17.649 -11.301,6.677 -18.150,10.841 -21.850,13.574 4.025,-3.746 9.386,-9.076 16.371,-16.383 -4.491,3.272 -8.006,5.86 -11.242,8.297 3.816,-3.797 8.324,-8.347 13.701,-13.992 -7.998,5.911 -13.97,10.466 -18.619,14.132 3.194,-5.348 7.348,-13.356 12.998,-24.678 -3.97,5.082 -7.085,9.185 -9.837,12.866 1.453,-3.897 3.008,-8.099 4.778,-13.077 -5.123,9.052 -8.948,15.897 -11.734,21.233 1.85,-6.093 4.004,-16.393 6.885,-31.992 -4.664,12.551 -7.684,21.295 -9.555,27.351 -0.256,-1.089 -0.515,-2.112 -0.843,-3.374 -0.005,-0.019 0.005,-0.05 0,-0.07 -0.211,-8.311 -0.761,-19.268 -1.615,-33.469 z" id="path4049" style="fill:#438e2f;stroke:#000000;stroke-width:0.499;stroke-linecap:round;stroke-linejoin:round" />
 <path d="m 22.664,9.254 c -0.062,-0.018 -0.138,-0.021 -0.205,-0.021 -0.225,9.59e-4 -0.429,0.128 -0.548,0.32 -0.119,0.191 -0.138,0.42 -0.04,0.622 0,0 0.658,1.471 1.318,3.156 0.33,0.842 0.663,1.732 0.916,2.508 0.24,0.736 0.368,1.372 0.399,1.675 -0.155,0.593 -0.715,1.915 -1.488,3.556 -0.247,0.526 -0.538,1.128 -0.819,1.708 l -0.96,-6.841 c -0.024,-0.239 -0.205,-0.433 -0.443,-0.472 -0.171,-0.029 -0.359,0.027 -0.483,0.151 -0.123,0.123 -0.166,0.297 -0.135,0.469 l 1.206,8.379 c -0.382,0.773 -0.78,1.548 -1.177,2.336 -1.009,2.005 -2.021,3.979 -2.807,5.597 -0.172,0.355 -0.188,0.454 -0.336,0.765 -0.062,-0.706 -0.123,-1.431 -0.201,-2.183 -0.11,-1.05 -0.215,-2.078 -0.3,-2.892 -0.084,-0.814 -0.143,-1.489 -0.142,-1.536 6.8e-4,-0.03 0.102,-0.62 0.247,-1.287 0.145,-0.667 0.323,-1.501 0.517,-2.332 0.193,-0.83 0.393,-1.643 0.542,-2.326 0.148,-0.682 0.262,-1.134 0.275,-1.518 0.016,-0.498 -0.042,-1.535 -0.163,-2.913 -0.12,-1.377 -0.317,-3.082 -0.602,-4.756 -0.025,-0.244 -0.196,-0.457 -0.425,-0.547 -0.228,-0.089 -0.473,-0.051 -0.657,0.11 -0.184,0.162 -0.266,0.425 -0.207,0.663 0.277,1.627 0.457,3.297 0.576,4.645 0.057,0.655 0.102,1.245 0.126,1.717 -0.512,-0.393 -0.871,-0.642 -1.807,-1.397 -0.724,-0.584 -1.474,-1.209 -2.093,-1.754 -0.619,-0.544 -1.135,-1.04 -1.289,-1.25 -0.099,-0.148 -0.266,-0.236 -0.445,-0.235 -0.198,0.006 -0.382,0.133 -0.468,0.312 -0.086,0.179 -0.06,0.381 0.058,0.541 0.288,0.393 0.79,0.879 1.428,1.441 0.638,0.561 1.412,1.176 2.143,1.766 1.274,1.028 2.167,1.698 2.45,1.916 -0.035,0.24 -0.086,0.57 -0.177,0.987 -0.145,0.667 -0.343,1.47 -0.536,2.301 -0.193,0.83 -0.399,1.668 -0.548,2.351 -0.006,0.029 -0.011,0.046 -0.017,0.075 -0.316,-0.434 -0.66,-0.9 -1.049,-1.484 -0.973,-1.461 -1.983,-3.26 -2.163,-4.276 -0.034,-0.264 -0.257,-0.462 -0.523,-0.465 -0.163,-0.006 -0.332,0.063 -0.438,0.187 -0.106,0.124 -0.136,0.289 -0.105,0.45 0.251,1.421 1.33,3.182 2.331,4.685 0.806,1.209 1.434,2.054 1.705,2.402 -0.007,0.365 0.055,0.875 0.137,1.667 0.085,0.821 0.215,1.853 0.325,2.898 0.109,1.045 0.21,2.108 0.276,2.992 0.065,0.884 0.068,1.626 0.041,1.856 l 1.291,0.222 c 9.4e-4,-0.004 0.01,-0.045 0.011,-0.05 0.082,-0.325 0.628,-1.578 1.394,-3.156 0.61,-1.256 1.422,-2.834 2.209,-4.391 0.51,-0.217 0.995,-0.602 1.539,-1.065 0.71,-0.604 1.476,-1.336 2.226,-2.092 0.75,-0.755 1.474,-1.524 2.126,-2.115 0.652,-0.591 1.249,-1.008 1.52,-1.096 0.27,-0.056 0.458,-0.311 0.426,-0.586 -0.031,-0.274 -0.272,-0.478 -0.548,-0.47 -0.065,-6.63e-4 -0.13,0.011 -0.192,0.034 -0.629,0.203 -1.226,0.696 -1.915,1.32 -0.688,0.624 -1.441,1.401 -2.188,2.153 -0.698,0.703 -1.378,1.385 -2.005,1.932 0.877,-1.742 1.745,-3.474 2.449,-4.968 0.809,-1.719 1.404,-3.085 1.606,-3.951 l 0.023,-0.1 -0.008,-0.08 c -0.002,-0.026 -0.004,-0.053 -0.007,-0.08 l 2.23,-4.256 c 0.084,-0.158 0.07,-0.346 -0.014,-0.504 -0.085,-0.157 -0.23,-0.264 -0.408,-0.28 -0.217,-0.015 -0.423,0.104 -0.518,0.301 l -1.662,3.173 c -0.046,-0.145 -0.086,-0.273 -0.137,-0.427 -0.266,-0.815 -0.587,-1.732 -0.923,-2.589 -0.671,-1.713 -1.331,-3.211 -1.331,-3.211 -0.076,-0.187 -0.223,-0.33 -0.41,-0.385 z" id="path5801" style="fill:#6b5532;stroke:#000000;stroke-width:0.5;stroke-linecap:round;stroke-linejoin:round" />
 <path d="m 7.886,34.710 c -0.949,-2.601 2.405,-4.981 3.623,-4.625 1.218,0.355 -0.253,4.715 -1.482,5.371 -1.227,0.656 -1.825,0.12 -2.141,-0.746 z" id="path12525" style="fill:#1a951a;stroke:#000000;stroke-width:0.5;stroke-linecap:round;stroke-linejoin:round" />
 <path d="m 7.322,10.034 c -0.064,-0.004 -0.139,0.01 -0.205,0.025 -0.219,0.052 -0.388,0.222 -0.461,0.436 -0.072,0.213 -0.039,0.44 0.102,0.616 0,0 0.975,1.283 2.001,2.774 0.512,0.745 1.039,1.536 1.461,2.234 0.401,0.662 0.67,1.252 0.769,1.541 -0.016,0.613 -0.261,2.028 -0.641,3.802 -0.121,0.568 -0.268,1.221 -0.409,1.849 l -2.488,-6.448 c -0.078,-0.227 -0.298,-0.375 -0.538,-0.359 -0.174,0.01 -0.344,0.108 -0.436,0.256 -0.092,0.148 -0.094,0.327 -0.025,0.488 l 3.078,7.886 c -0.197,0.84 -0.408,1.684 -0.615,2.543 -0.527,2.182 -1.064,4.334 -1.462,6.088 -0.087,0.384 -0.079,0.485 -0.153,0.822 -0.22,-0.674 -0.445,-1.366 -0.692,-2.08 -0.345,-0.998 -0.681,-1.975 -0.949,-2.748 -0.267,-0.773 -0.478,-1.418 -0.487,-1.464 -0.006,-0.029 -0.041,-0.627 -0.051,-1.31 -0.01,-0.682 -0.025,-1.535 -0.025,-2.389 0,-0.853 0.01,-1.69 0,-2.389 -0.01,-0.698 -0.002,-1.164 -0.077,-1.541 -0.097,-0.489 -0.389,-1.485 -0.819,-2.8 -0.43,-1.314 -1.009,-2.929 -1.667,-4.495 -0.08,-0.232 -0.295,-0.401 -0.538,-0.436 -0.243,-0.035 -0.472,0.056 -0.615,0.256 -0.142,0.199 -0.163,0.474 -0.051,0.693 0.64,1.522 1.194,3.106 1.616,4.392 0.204,0.625 0.382,1.19 0.513,1.644 -0.598,-0.263 -1.005,-0.424 -2.088,-0.946 -0.837,-0.405 -1.709,-0.843 -2.437,-1.234 -0.727,-0.39 -1.342,-0.755 -1.539,-0.924 -0.131,-0.122 -0.314,-0.17 -0.488,-0.129 -0.191,0.051 -0.341,0.216 -0.384,0.411 -0.043,0.194 0.027,0.385 0.179,0.513 0.37,0.318 0.969,0.676 1.718,1.078 0.749,0.402 1.642,0.824 2.488,1.233 1.473,0.711 2.497,1.161 2.822,1.31 0.02,0.242 0.045,0.575 0.051,1.001 0.01,0.682 0,1.51 0,2.363 0,0.853 -0.01,1.716 0,2.414 4.5e-4,0.029 -4.6e-4,0.047 0,0.077 -0.405,-0.347 -0.845,-0.722 -1.358,-1.203 -1.280,-1.202 -2.672,-2.725 -3.078,-3.674 -0.094,-0.249 -0.356,-0.391 -0.616,-0.334 -0.16,0.03 -0.309,0.137 -0.384,0.282 -0.075,0.145 -0.067,0.313 0,0.462 0.567,1.326 2.018,2.797 3.335,4.033 1.059,0.994 1.863,1.674 2.206,1.952 0.076,0.357 0.252,0.84 0.512,1.592 0.27,0.78 0.629,1.755 0.973,2.748 0.344,0.992 0.684,2.005 0.949,2.851 0.265,0.846 0.436,1.568 0.461,1.798 l 1.308,-0.077 c 0,-0.004 -1.3e-4,-0.046 0,-0.051 0.006,-0.335 0.253,-1.68 0.641,-3.391 0.309,-1.362 0.741,-3.083 1.154,-4.778 0.446,-0.327 0.831,-0.812 1.256,-1.387 0.554,-0.749 1.134,-1.637 1.693,-2.543 0.559,-0.906 1.089,-1.819 1.590,-2.543 0.5,-0.723 0.987,-1.266 1.231,-1.412 0.25,-0.116 0.375,-0.407 0.282,-0.667 -0.093,-0.26 -0.374,-0.403 -0.641,-0.333 -0.064,0.014 -0.124,0.04 -0.179,0.077 -0.567,0.34 -1.036,0.956 -1.564,1.721 -0.528,0.764 -1.085,1.692 -1.641,2.594 -0.52,0.843 -1.028,1.662 -1.513,2.337 0.458,-1.896 0.911,-3.78 1.257,-5.394 0.398,-1.858 0.667,-3.323 0.667,-4.213 l 0,-0.102 -0.025,-0.077 c -0.008,-0.025 -0.016,-0.051 -0.025,-0.077 l 1.205,-4.649 c 0.046,-0.173 -0.01,-0.353 -0.128,-0.488 -0.118,-0.134 -0.284,-0.204 -0.461,-0.179 -0.215,0.034 -0.388,0.197 -0.436,0.411 l -0.897,3.468 c -0.077,-0.131 -0.146,-0.246 -0.23,-0.385 -0.444,-0.733 -0.966,-1.553 -1.487,-2.312 -1.043,-1.516 -2.026,-2.825 -2.026,-2.825 -0.117,-0.164 -0.292,-0.27 -0.487,-0.282 z" id="path2506" style="fill:#6b5532;stroke:#000000;stroke-width:0.5;stroke-linecap:round;stroke-linejoin:round" />
 <path d="m 4.059,9.144 c -0.817,-0.31 -1.639,-0.134 -1.838,0.39 -0.108,0.286 -0.307,1.403 -0.33,2.408 -0.339,-0.946 -0.879,-1.945 -1.071,-2.182 -0.354,-0.434 -1.189,-0.335 -1.866,0.218 -0.677,0.551 -0.938,1.350 -0.584,1.784 0.194,0.237 1.066,0.966 1.927,1.488 -0.992,-0.18 -2.128,-0.207 -2.432,-0.158 -0.552,0.089 -0.886,0.86 -0.746,1.723 0.14,0.862 0.698,1.49 1.251,1.4 0.302,-0.049 1.369,-0.44 2.250,-0.922 -0.649,0.767 -1.242,1.735 -1.351,2.021 -0.198,0.523 0.299,1.2 1.116,1.51 0.815,0.309 1.643,0.135 1.842,-0.387 0.108,-0.286 0.307,-1.404 0.330,-2.409 0.339,0.945 0.878,1.946 1.072,2.183 0.354,0.433 1.187,0.334 1.864,-0.217 0.676,-0.552 0.938,-1.351 0.584,-1.784 -0.194,-0.238 -1.068,-0.973 -1.928,-1.496 0.990,0.18 2.130,0.214 2.433,0.165 0.552,-0.089 0.886,-0.86 0.746,-1.723 -0.14,-0.862 -0.698,-1.49 -1.251,-1.4 -0.302,0.049 -1.368,0.44 -2.249,0.922 0.648,-0.767 1.241,-1.735 1.350,-2.021 0.198,-0.523 -0.304,-1.201 -1.120,-1.511 z M 2.149,13.507 c 0.054,0.076 0.117,0.131 0.193,0.16 0.076,0.029 0.164,0.031 0.256,0.01 -0.04,0.087 -0.053,0.169 -0.039,0.252 0.013,0.08 0.055,0.156 0.119,0.225 -0.095,0.008 -0.176,0.042 -0.241,0.094 -0.063,0.051 -0.109,0.124 -0.137,0.214 -0.054,-0.076 -0.122,-0.133 -0.199,-0.162 -0.076,-0.029 -0.159,-0.029 -0.251,-0.008 0.039,-0.086 0.052,-0.171 0.039,-0.252 -0.013,-0.081 -0.051,-0.161 -0.117,-0.23 0.094,-0.009 0.175,-0.037 0.238,-0.089 0.064,-0.052 0.109,-0.122 0.137,-0.214 z" id="path2598" style="fill:#d35f5f;stroke:#000000;stroke-width:0.5;stroke-linecap:round;stroke-linejoin:round" />
 <path d="m 3.817,14.577 a 1.724,1.724 0 1 1 -3.225,-1.223 1.724,1.724 0 0 1 3.225,1.223 z" id="path2629" style="fill:#fdff06;stroke:#000000;stroke-width:0.5;stroke-linecap:round;stroke-linejoin:round" />
 <path d="m 8.434,18.290 c -0.871,0.054 -1.548,0.553 -1.513,1.112 0.019,0.305 0.298,1.406 0.691,2.331 -0.698,-0.722 -1.602,-1.411 -1.876,-1.548 -0.501,-0.249 -1.220,0.184 -1.609,0.966 -0.389,0.782 -0.298,1.617 0.203,1.867 0.273,0.136 1.367,0.441 2.367,0.563 -0.977,0.243 -2.023,0.687 -2.279,0.857 -0.465,0.309 -0.452,1.149 0.029,1.877 0.481,0.728 1.249,1.07 1.716,0.76 0.255,-0.169 1.066,-0.965 1.671,-1.767 -0.275,0.966 -0.417,2.093 -0.398,2.398 0.034,0.558 0.767,0.97 1.639,0.916 0.871,-0.054 1.553,-0.553 1.518,-1.112 -0.018,-0.305 -0.298,-1.406 -0.690,-2.331 0.697,0.722 1.601,1.411 1.875,1.548 0.501,0.249 1.221,-0.184 1.61,-0.966 0.389,-0.782 0.298,-1.617 -0.203,-1.867 -0.275,-0.136 -1.374,-0.447 -2.374,-0.568 0.977,-0.243 2.03,-0.681 2.286,-0.851 0.466,-0.309 0.453,-1.149 -0.029,-1.877 -0.482,-0.728 -1.25,-1.07 -1.717,-0.76 -0.255,0.169 -1.066,0.965 -1.670,1.767 0.275,-0.966 0.416,-2.093 0.397,-2.398 -0.034,-0.558 -0.772,-0.97 -1.644,-0.916 z m 0.056,4.762 c 0.081,0.047 0.16,0.071 0.242,0.066 0.081,-0.005 0.163,-0.039 0.238,-0.096 -10e-4,0.096 0.021,0.176 0.067,0.246 0.045,0.068 0.114,0.119 0.201,0.156 -0.083,0.047 -0.143,0.111 -0.18,0.185 -0.036,0.073 -0.048,0.158 -0.036,0.252 -0.081,-0.047 -0.166,-0.071 -0.248,-0.066 -0.081,0.005 -0.157,0.038 -0.232,0.095 1.6e-4,-0.094 -0.022,-0.177 -0.067,-0.246 -0.045,-0.069 -0.113,-0.125 -0.202,-0.162 0.082,-0.046 0.144,-0.106 0.18,-0.179 0.037,-0.074 0.049,-0.156 0.036,-0.252 z" id="path5784" style="fill:#d3aa5f;stroke:#000000;stroke-width:0.5;stroke-linecap:round;stroke-linejoin:round" />
 <path d="m 10.451,23.340 a 1.724,1.724 0 1 1 -3.441,0.213 1.724,1.724 0 0 1 3.441,-0.213 z" id="path5786" style="fill:#fdff06;stroke:#000000;stroke-width:0.5;stroke-linecap:round;stroke-linejoin:round" />
 <path d="m 6.956,37.105 c 2.324,-4.663 -3.985,-8.043 -5.236,-7.167 -1.249,0.876 -1.616,9.152 5.236,7.167 z" id="path3326" style="fill:#1ca21c;stroke:#000000;stroke-width:0.5;stroke-linecap:round;stroke-linejoin:round" />
 <path d="m 5.545,35.912 c 0.476,0.626 1.065,1.04 1.321,1.064" id="path3328" style="fill:none;stroke:#000000;stroke-width:0.5;stroke-linecap:round" />
 <path d="m 22.768,14.260 c -0.711,-0.507 -1.551,-0.545 -1.876,-0.09 -0.177,0.249 -0.654,1.28 -0.931,2.246 -0.087,-1.001 -0.355,-2.105 -0.482,-2.384 -0.232,-0.509 -1.064,-0.625 -1.859,-0.263 -0.795,0.362 -1.25,1.068 -1.018,1.577 0.127,0.279 0.784,1.205 1.484,1.929 -0.912,-0.426 -2.005,-0.741 -2.31,-0.771 -0.557,-0.053 -1.076,0.607 -1.16,1.476 -0.083,0.869 0.297,1.618 0.854,1.672 0.304,0.029 1.436,-0.077 2.411,-0.32 -0.823,0.576 -1.642,1.362 -1.82,1.612 -0.325,0.455 -0.015,1.237 0.695,1.744 0.711,0.507 1.555,0.549 1.881,0.093 0.177,-0.249 0.654,-1.28 0.931,-2.246 0.087,1.001 0.355,2.105 0.482,2.384 0.232,0.509 1.064,0.625 1.859,0.263 0.795,-0.362 1.25,-1.068 1.018,-1.577 -0.127,-0.279 -0.785,-1.213 -1.485,-1.937 0.912,0.426 2.006,0.749 2.312,0.779 0.557,0.053 1.076,-0.607 1.16,-1.476 0.083,-0.869 -0.297,-1.618 -0.854,-1.672 -0.304,-0.029 -1.436,0.077 -2.411,0.32 0.823,-0.576 1.642,-1.362 1.82,-1.612 0.325,-0.455 0.01,-1.24 -0.7,-1.748 z m -2.956,3.734 c 0.033,0.088 0.079,0.156 0.146,0.204 0.066,0.047 0.151,0.072 0.245,0.075 -0.061,0.074 -0.094,0.15 -0.102,0.233 -0.008,0.081 0.013,0.165 0.058,0.248 -0.094,-0.016 -0.181,-0.003 -0.257,0.03 -0.074,0.033 -0.137,0.092 -0.187,0.172 -0.033,-0.088 -0.084,-0.16 -0.151,-0.207 -0.066,-0.047 -0.146,-0.069 -0.241,-0.072 0.059,-0.073 0.094,-0.152 0.102,-0.233 0.008,-0.082 -0.009,-0.168 -0.054,-0.253 0.093,0.015 0.179,0.008 0.253,-0.025 0.075,-0.034 0.137,-0.09 0.187,-0.172 z" id="path5803" style="fill:#cf7a63;stroke:#000000;stroke-width:0.5;stroke-linecap:round;stroke-linejoin:round" />
 <path d="m 21.153,19.453 a 1.724,1.724 0 0 1 -2.807,-2.003 1.724,1.724 0 1 1 2.807,2.003 z" id="path5805" style="fill:#fdff06;stroke:#000000;stroke-width:0.5;stroke-linecap:round;stroke-linejoin:round" />
 <path d="m 26.144,5.065 c -0.626,-0.609 -1.45,-0.775 -1.841,-0.374 -0.214,0.22 -0.841,1.166 -1.262,2.079 0.065,-1.003 -0.031,-2.135 -0.115,-2.43 -0.152,-0.539 -0.957,-0.78 -1.798,-0.543 -0.84,0.238 -1.398,0.866 -1.246,1.405 0.083,0.295 0.592,1.31 1.174,2.132 -0.837,-0.559 -1.869,-1.037 -2.167,-1.112 -0.542,-0.137 -1.156,0.436 -1.371,1.283 -0.214,0.846 0.047,1.645 0.59,1.782 0.296,0.075 1.431,0.141 2.432,0.049 -0.901,0.445 -1.83,1.096 -2.044,1.316 -0.39,0.401 -0.203,1.22 0.422,1.83 0.625,0.609 1.454,0.779 1.845,0.377 0.213,-0.219 0.841,-1.166 1.261,-2.078 -0.065,1.002 0.031,2.135 0.114,2.43 0.152,0.538 0.957,0.78 1.798,0.542 0.84,-0.237 1.398,-0.866 1.246,-1.404 -0.083,-0.295 -0.592,-1.318 -1.174,-2.14 0.837,0.56 1.869,1.045 2.167,1.121 0.542,0.137 1.156,-0.436 1.371,-1.283 0.214,-0.845 -0.047,-1.644 -0.59,-1.781 -0.296,-0.075 -1.431,-0.141 -2.432,-0.049 0.901,-0.445 1.83,-1.097 2.044,-1.317 0.39,-0.401 0.198,-1.224 -0.427,-1.834 z m -3.489,3.242 c 0.019,0.092 0.055,0.167 0.113,0.224 0.058,0.057 0.138,0.094 0.231,0.111 -0.072,0.064 -0.116,0.134 -0.136,0.215 -0.02,0.079 -0.011,0.165 0.019,0.254 -0.091,-0.03 -0.179,-0.031 -0.258,-0.008 -0.078,0.022 -0.15,0.07 -0.211,0.142 -0.019,-0.092 -0.059,-0.171 -0.118,-0.228 -0.058,-0.057 -0.134,-0.09 -0.227,-0.107 0.07,-0.063 0.116,-0.136 0.136,-0.215 0.02,-0.08 0.016,-0.168 -0.015,-0.258 0.089,0.029 0.176,0.035 0.254,0.013 0.08,-0.022 0.149,-0.068 0.211,-0.142 z" id="path5807" style="fill:#ea9e39;stroke:#000000;stroke-width:0.5;stroke-linecap:round;stroke-linejoin:round" />
 <path d="m 23.760,9.953 a 1.724,1.724 0 0 1 -2.471,-2.406 1.724,1.724 0 1 1 2.471,2.406 z" id="path5809" style="fill:#fdff06;stroke:#000000;stroke-width:0.5;stroke-linecap:round;stroke-linejoin:round" />
 <path d="m 30.301,17.767 c -0.625,-0.609 -1.45,-0.774 -1.841,-0.373 -0.213,0.219 -0.841,1.165 -1.261,2.078 0.065,-1.002 -0.031,-2.135 -0.114,-2.43 -0.152,-0.538 -0.957,-0.78 -1.798,-0.542 -0.84,0.237 -1.398,0.866 -1.246,1.404 0.083,0.295 0.592,1.31 1.174,2.132 -0.837,-0.559 -1.869,-1.037 -2.167,-1.112 -0.542,-0.137 -1.156,0.436 -1.371,1.283 -0.214,0.846 0.047,1.645 0.59,1.782 0.296,0.075 1.431,0.141 2.432,0.049 -0.901,0.445 -1.83,1.097 -2.044,1.317 -0.39,0.401 -0.203,1.22 0.422,1.83 0.625,0.609 1.454,0.779 1.845,0.377 0.213,-0.219 0.841,-1.166 1.261,-2.078 -0.065,1.002 0.031,2.135 0.114,2.43 0.152,0.538 0.957,0.78 1.798,0.542 0.84,-0.237 1.398,-0.866 1.246,-1.404 -0.083,-0.295 -0.592,-1.318 -1.174,-2.14 0.837,0.56 1.869,1.045 2.167,1.121 0.542,0.137 1.156,-0.436 1.371,-1.283 0.214,-0.846 -0.047,-1.645 -0.59,-1.782 -0.296,-0.075 -1.431,-0.141 -2.432,-0.049 0.901,-0.445 1.83,-1.097 2.044,-1.317 0.39,-0.401 0.198,-1.224 -0.427,-1.834 z m -3.489,3.242 c 0.019,0.092 0.055,0.167 0.113,0.224 0.058,0.057 0.138,0.094 0.231,0.111 -0.072,0.064 -0.116,0.134 -0.136,0.215 -0.02,0.079 -0.011,0.165 0.019,0.254 -0.091,-0.03 -0.179,-0.031 -0.258,-0.008 -0.078,0.022 -0.15,0.07 -0.211,0.142 -0.019,-0.092 -0.059,-0.171 -0.118,-0.228 -0.058,-0.057 -0.134,-0.09 -0.227,-0.107 0.07,-0.063 0.116,-0.136 0.136,-0.215 0.02,-0.08 0.016,-0.168 -0.015,-0.258 0.089,0.029 0.176,0.035 0.254,0.013 0.08,-0.022 0.149,-0.068 0.211,-0.142 z" id="path5811" style="fill:#cad35f;stroke:#000000;stroke-width:0.5;stroke-linecap:round;stroke-linejoin:round" />
 <path d="m 27.917,22.654 a 1.724,1.724 0 1 1 -2.471,-2.406 1.724,1.724 0 0 1 2.471,2.406 z" id="path5813" style="fill:#fdff06;stroke:#000000;stroke-width:0.5;stroke-linecap:round;stroke-linejoin:round" />
 <path d="m 14.875,32.114 c -0.076,0.003 -0.139,0.03 -0.208,0.069 -0.643,0.359 -1.13,1.863 -0.926,3.298 -0.812,-0.403 -1.543,-0.55 -1.807,-0.138 -0.681,1.066 0.678,4.937 3.452,4.751 0.924,-0.062 1.612,-0.487 1.32,-1.845 -0.009,-0.042 -0.03,-0.093 -0.046,-0.138 0.341,-0.139 0.645,-0.481 0.834,-1.13 0.363,-1.25 -1.475,-4.921 -2.618,-4.866 z" id="path12521" style="fill:#2ec021;stroke:#000000;stroke-width:0.5;stroke-linecap:round;stroke-linejoin:round" />
 <path d="m 28.234,30.007 c -2.78,-0.497 -6.51,-1.443 -6.435,2.526 0.009,0.472 0.087,0.932 0.244,1.363 0.67,0.982 2.523,2.003 5.446,2.003 2.324,0 4.316,-0.553 5.134,-1.338 0.354,-0.615 0.729,-1.322 0.555,-2.028 -0.273,-1.112 -2.164,-2.029 -4.944,-2.526 z" id="path3482" style="fill:#717171;stroke:#000000;stroke-width:0.5" />
 <path d="m 24.149,29.158 c 0.011,0.041 0.017,0.083 0.031,0.125 -0.203,0.175 -0.343,0.399 -0.343,0.656 0,0.542 0.566,0.999 1.25,1 0.261,0 0.487,-0.077 0.687,-0.187 0.042,0.018 0.081,0.045 0.125,0.062 -0.374,0.33 -0.593,0.729 -0.593,1.187 0,0.21 0.068,0.404 0.156,0.593 -0.613,0.045 -1.093,0.471 -1.093,1.031 0,0.589 0.527,1.062 1.187,1.062 0.633,0 1.115,-0.443 1.156,-1 0.381,0.148 0.816,0.25 1.281,0.25 0.266,0 0.507,-0.042 0.75,-0.093 0.171,0.491 0.835,0.843 1.625,0.843 0.297,0 0.57,-0.065 0.812,-0.156 0.096,0.431 0.307,0.808 0.593,1.093 0.63,-0.233 1.137,-0.525 1.468,-0.843 0.397,-0.691 0.819,-1.487 0.625,-2.281 -0.306,-1.249 -2.418,-2.285 -5.531,-2.843 -1.331,-0.238 -2.883,-0.547 -4.187,-0.5 z" id="path2585" style="fill:#1ca21c;stroke:#000000;stroke-width:0.5;stroke-linecap:round;stroke-linejoin:round" />
 <path d="m 31.074,33.391 c 2.574,-1.019 5.044,2.27 4.721,3.498 -0.322,1.227 -4.72,-0.125 -5.409,-1.336 -0.689,-1.21 -0.17,-1.822 0.687,-2.162 z" id="path12525-9" style="fill:#1a951a;stroke:#000000;stroke-width:0.5;stroke-linecap:round;stroke-linejoin:round" />
 <path d="m 16.985,44.020 c -0.882,0 -1.598,0.591 -1.598,1.321 0,0.132 0.024,0.261 0.068,0.382 0.188,0.275 0.708,0.561 1.529,0.561 0.652,0 1.212,-0.155 1.442,-0.375 0.099,-0.172 0.156,-0.364 0.156,-0.568 0,-0.729 -0.716,-1.321 -1.598,-1.321 z" id="path6601-8" style="fill:#6c5353;stroke:#000000;stroke-width:0.5" />
 <path d="m 9.741,5.226 c -0.871,0.054 -1.548,0.553 -1.513,1.112 0.018,0.305 0.298,1.406 0.691,2.331 -0.698,-0.722 -1.602,-1.411 -1.876,-1.548 -0.501,-0.249 -1.221,0.184 -1.61,0.966 -0.389,0.782 -0.298,1.617 0.203,1.867 0.274,0.135 1.368,0.440 2.368,0.562 -0.977,0.243 -2.024,0.687 -2.28,0.857 -0.466,0.309 -0.453,1.149 0.029,1.877 0.482,0.728 1.25,1.07 1.717,0.76 0.255,-0.169 1.066,-0.965 1.671,-1.767 -0.275,0.966 -0.417,2.093 -0.398,2.398 0.034,0.558 0.767,0.97 1.638,0.916 0.871,-0.054 1.554,-0.553 1.519,-1.112 -0.019,-0.305 -0.298,-1.406 -0.691,-2.331 0.698,0.722 1.602,1.411 1.876,1.548 0.501,0.249 1.221,-0.184 1.610,-0.966 0.389,-0.782 0.298,-1.617 -0.203,-1.867 -0.275,-0.136 -1.374,-0.447 -2.374,-0.568 0.977,-0.243 2.030,-0.680 2.286,-0.850 0.467,-0.309 0.454,-1.149 -0.029,-1.877 -0.483,-0.728 -1.250,-1.07 -1.717,-0.761 -0.255,0.169 -1.067,0.965 -1.671,1.768 0.276,-0.966 0.417,-2.093 0.398,-2.399 -0.035,-0.559 -0.773,-0.97 -1.644,-0.916 z m 0.056,4.762 c 0.081,0.047 0.16,0.071 0.241,0.066 0.081,-0.005 0.163,-0.039 0.238,-0.096 -0.001,0.096 0.021,0.175 0.067,0.245 0.045,0.068 0.114,0.119 0.201,0.156 -0.083,0.047 -0.143,0.111 -0.18,0.185 -0.036,0.073 -0.048,0.158 -0.036,0.252 -0.081,-0.047 -0.166,-0.071 -0.248,-0.066 -0.081,0.005 -0.156,0.038 -0.231,0.095 1.6e-4,-0.094 -0.022,-0.177 -0.067,-0.246 -0.045,-0.069 -0.113,-0.125 -0.202,-0.162 0.082,-0.046 0.144,-0.106 0.18,-0.179 0.037,-0.074 0.049,-0.156 0.036,-0.251 z" id="path5788" style="fill:#dc8256;stroke:#000000;stroke-width:0.5;stroke-linecap:round;stroke-linejoin:round" />
 <path d="m 11.758,10.276 a 1.724,1.724 0 1 1 -3.441,0.213 1.724,1.724 0 0 1 3.441,-0.213 z" id="path5790" style="fill:#fdff06;stroke:#000000;stroke-width:0.5;stroke-linecap:round;stroke-linejoin:round" />
 <g transform="translate(-5.398,-1.814)" id="g5890">
 <path d="m 47.432,35.06 c 0,1.36 -1.305,1.75 -2.913,1.75 -1.608,0 -2.913,-0.389 -2.913,-1.75 0,-1.36 1.305,-2.464 2.913,-2.464 1.608,0 2.913,1.104 2.913,2.464 z" id="path3719" style="fill:#b62c28;stroke-width:0.5" />
 <path d="m 44.509,32.59 c -0.89,0 -1.662,0.344 -2.196,0.877 0.958,1.017 4.287,1.771 4.843,0.531 -0.469,-0.829 -1.488,-1.409 -2.646,-1.409 z" id="path3714" style="fill:#e38280;fill-rule:evenodd" />
 <path d="m 47.432,35.06 c 0,1.36 -1.305,1.75 -2.913,1.75 -1.608,0 -2.913,-0.389 -2.913,-1.75 0,-1.36 1.305,-2.464 2.913,-2.464 1.608,0 2.913,1.104 2.913,2.464 z" id="path3693" style="fill:none;stroke:#000000;stroke-width:0.5;stroke-linecap:round" />
 <path d="m 44.697,15.709 c 2.255,3.051 1.713,7.613 1.159,8.962 0.501,-0.543 2.543,-0.781 -0.882,4.158 -4.178,-2.402 -2.852,-5.385 -1.948,-4.586 -0.875,-2.989 1.004,-7.32 1.672,-8.535 z" id="path3703" style="fill:#1ca21c;stroke:#000000;stroke-width:0.5;stroke-linecap:round;stroke-linejoin:round" />
 <path d="m 48.417,17.873 c -2.878,1.714 -3.445,5.438 -3.234,6.653 -0.343,-0.558 -2.145,-1.31 -0.259,3.194 -0.432,1.302 -0.604,2.542 -0.668,3.5 -0.059,-0.182 -0.115,-0.348 -0.177,-0.527 -0.226,-0.658 -0.463,-1.286 -0.818,-1.764 1.509,-3.64 0.055,-3.034 -0.218,-2.583 0.167,-0.979 -0.27,-3.979 -2.565,-5.361 -0.279,0.921 -0.904,4.094 0.327,5.764 -0.804,-0.275 -1.234,1.722 1.924,2.347 l -0.081,0.069 c 0.327,0.363 0.609,1.006 0.859,1.736 0.25,0.729 0.472,1.532 0.764,2.236 l 0.586,-0.152 c 0,0 -0.23,-2.394 0.641,-5.042 4.055,-0.755 3.513,-3.261 2.497,-2.917 1.544,-2.071 0.774,-6.01 0.423,-7.153 z" id="path3697" style="fill:#1ca21c;stroke:#000000;stroke-width:0.5;stroke-linecap:round;stroke-linejoin:round" />
 <path d="m 43.239,28.91 c 0,0 -0.738,-0.877 -1.483,-3.201" id="path3710" style="fill:none;stroke:#000000;stroke-width:0.5;stroke-linecap:round" />
 <path d="m 44.929,27.688 c 0.447,-0.606 0.748,-0.212 1.294,-2.889" id="path3712" style="fill:none;stroke:#000000;stroke-width:0.5;stroke-linecap:round" />
 </g>
 <path d="m 98.273,13.768 -1.052,1.191 c -0.262,-0.109 -0.524,-0.2 -0.794,-0.261 -0.181,-0.041 -0.359,-0.05 -0.541,-0.069 l -0.595,-1.049 -0.389,1.039 c -0.094,0.01 -0.191,0.017 -0.284,0.034 -1.071,0.195 -2.04,0.772 -2.757,1.548 l -1.816,-0.256 1.1,1.284 c -0.366,0.716 -0.556,1.515 -0.447,2.364 l 1.518,-0.193 c -0.162,-1.259 0.763,-2.552 2.024,-3.073 l 0.636,0.946 0.292,-1.169 c 0.697,-0.066 1.413,0.091 2.12,0.618 0.44,0.328 0.879,0.836 1.28,1.506 l -0.353,0.725 0.876,0.354 c 0.124,0.303 0.256,0.598 0.363,0.955 0.53,1.77 0.253,3.186 -0.484,4.236 -0.295,0.419 -0.678,0.776 -1.124,1.072 l -1.127,-0.995 0.108,1.511 c -0.428,0.155 -0.89,0.262 -1.384,0.307 -0.781,0.072 -1.639,0.005 -2.538,-0.249 l -0.349,-2.028 -1.429,1.307 c -1.808,-0.958 -3.636,-2.683 -5.248,-5.352 l 1.283,-0.947 -2.069,-0.448 c -0.021,-0.041 -0.05,-0.076 -0.071,-0.118 -0.045,-0.09 -0.087,-0.174 -0.133,-0.263 l 0.323,-0.947 -0.877,-0.055 c -0.982,-1.663 -2.131,-3.032 -3.351,-4.172 l 0.137,-0.932 -1.172,0.004 c -0.856,-0.684 -1.758,-1.263 -2.659,-1.74 l 0.222,-1.586 -1.495,0.951 c -0.891,-0.378 -1.793,-0.66 -2.677,-0.873 -0.038,-0.118 -0.008,-0.201 -0.05,-0.32 -0.156,-0.442 -0.341,-0.858 -0.549,-1.241 l 0.495,-0.998 -1.26,-0.15 c -0.516,-0.644 -1.121,-1.189 -1.776,-1.618 l -0.276,-2.058 -1.682,1.116 c -0.326,-0.104 -0.67,-0.193 -1.006,-0.258 -1.844,-0.358 -3.798,-0.165 -5.62,0.39 l -1.117,-1.021 -0.361,1.561 c -0.25,0.109 -0.493,0.207 -0.734,0.331 -0.117,0.06 -0.231,0.125 -0.346,0.189 l -2.413,-1.306 0.367,2.725 c -0.93,0.833 -1.648,1.816 -2.049,2.913 l -0.697,0.017 0.456,0.872 c -0.002,0.009 -0.008,0.016 -0.01,0.025 -0.251,1.337 0.045,2.753 0.93,4.15 l -0.784,1.269 1.801,0.07 c 0.548,0.583 1.22,1.159 2.007,1.711 l 0.861,-1.238 c -2.281,-1.602 -3.198,-3.137 -3.355,-4.533 l 0.585,-0.481 -0.571,-0.59 c 0.005,-0.029 10e-6,-0.058 0.005,-0.087 0.317,-1.688 1.836,-3.314 3.903,-4.378 0.063,-0.032 0.127,-0.07 0.191,-0.102 l 1.092,0.711 0.273,-1.267 c 0.809,-0.275 1.655,-0.453 2.501,-0.544 l 0.633,0.436 0.569,-0.518 c 0.54,0.005 1.073,0.063 1.584,0.162 1.998,0.388 3.659,1.509 4.629,3.611 -0.582,-0.07 -1.165,-0.099 -1.725,-0.1 l -1.521,-1.874 -0.451,2.003 c -0.913,0.141 -1.759,0.391 -2.512,0.719 -0.458,0.199 -0.893,0.44 -1.277,0.71 l -2.583,-0.956 1.313,2.238 c -0.33,0.485 -0.573,1.027 -0.656,1.621 -0.095,0.684 0.009,1.331 0.277,1.909 l -0.4,0.915 0.857,-0.191 c 0.37,0.49 0.85,0.916 1.384,1.249 0.088,0.055 0.171,0.114 0.262,0.166 l 0.257,1.512 1.237,-0.906 c 0.556,0.165 1.144,0.271 1.733,0.312 l 0.822,1.081 0.189,-1.061 c 0.08,-0.004 0.167,-0.012 0.247,-0.019 1.264,-0.114 2.509,-0.589 3.449,-1.478 l 1.731,0.703 -0.736,-2.036 c 0.524,-1.153 0.524,-2.7 0.191,-4.474 1.504,0.437 3.039,1.132 4.5,2.151 l -0.196,1.448 1.339,-0.565 c 0.298,0.252 0.586,0.52 0.874,0.803 l -0.925,1.841 2.268,-0.339 c 0.601,0.751 1.162,1.58 1.684,2.509 l -0.236,1.102 0.805,-0.063 c 0.85,1.656 1.796,3.045 2.804,4.19 l -0.158,1.133 0.946,-0.335 c 1.731,1.714 3.566,2.759 5.358,3.217 l 0.584,1.224 0.581,-0.992 c 0.583,0.07 1.147,0.079 1.697,0.028 0.083,-0.007 0.165,-0.009 0.247,-0.019 l 0.611,0.786 0.406,-1.003 c 1.385,-0.378 2.562,-1.15 3.347,-2.268 0.084,-0.12 0.168,-0.252 0.244,-0.38 l 1.839,-0.393 -1.334,-0.779 c 0.135,-0.441 0.205,-0.912 0.237,-1.401 l 0.779,-0.073 -0.776,-0.823 c -0.037,-0.555 -0.122,-1.121 -0.298,-1.708 -0.193,-0.645 -0.423,-1.22 -0.675,-1.741 l 0.601,-0.595 -0.979,-0.097 c -0.479,-0.802 -1.025,-1.435 -1.635,-1.89 -0.078,-0.058 -0.157,-0.103 -0.237,-0.155 l 0.31,-1.581 z m -26.208,-3.603 c 0.101,0.4 0.145,0.771 0.202,1.13 l -0.766,0.558 0.916,0.7 c 0.01,0.85 -0.14,1.541 -0.435,2.039 -0.023,0.041 -0.052,0.078 -0.077,0.118 l -1.144,-0.583 -0.078,1.675 c -0.53,0.286 -1.139,0.467 -1.803,0.527 -1.329,0.119 -2.803,-0.224 -3.823,-0.859 -1.019,-0.634 -1.535,-1.438 -1.401,-2.394 0.082,-0.587 0.404,-1.139 0.955,-1.619 l 1,0.345 0.391,-1.189 c 1.391,-0.596 3.311,-0.882 5.413,-0.622 0.211,0.025 0.435,0.135 0.65,0.172 z" id="path3532" style="fill:#599c00;stroke:#000000;stroke-width:0.5;stroke-linecap:round;stroke-linejoin:round" />
 <path d="m 97.005,8.419 c -1.272,0 -2.427,0.468 -3.385,1.167 -0.695,-0.473 -1.51,-0.747 -2.412,-0.747 -1.82,0 -3.384,1.158 -4.035,2.755 -0.683,-0.285 -1.44,-0.467 -2.226,-0.467 -0.144,0 -0.275,0.036 -0.417,0.046 -0.837,-1.029 -2.101,-1.680 -3.525,-1.680 -2.267,0 -4.098,1.646 -4.453,3.829 -2.761,0.452 -4.871,2.838 -4.871,5.745 0,0.294 0.05,0.604 0.092,0.887 -1.699,0.254 -3.015,1.721 -3.015,3.503 0,0.781 0.271,1.469 0.695,2.055 -0.013,0.124 -0.046,0.245 -0.046,0.373 0,1.91 1.535,3.456 3.432,3.456 l 43.142,0 c 0.497,0 0.965,-0.136 1.391,-0.326 0.197,0.045 0.394,0.093 0.603,0.093 1.832,0 3.293,-1.47 3.293,-3.316 0,-1.369 -0.823,-2.566 -1.994,-3.082 -0.676,-1.609 -2.252,-2.747 -4.082,-2.802 -0.975,-1.853 -2.876,-3.129 -5.102,-3.129 -0.184,0 -0.376,0.029 -0.556,0.046 -0.436,-1.713 -1.966,-2.942 -3.804,-2.942 -0.338,0 -0.66,0.012 -0.974,0.093 -0.59,-0.624 -1.338,-1.099 -2.18,-1.353 -0.711,-2.421 -2.930,-4.204 -5.565,-4.204 z" id="path3529" style="fill:#349211;stroke:#000000;stroke-width:0.499;stroke-linecap:round" />
 <path d="m 78.044,25.766 a 1.19,1.163 77.671 0 1 -2.265,0.528 1.19,1.163 77.671 1 1 2.265,-0.528 z" id="path3383-3-1-5-3" style="fill:#a02c2c;stroke:#000000;stroke-width:0.5;stroke-linecap:round;stroke-linejoin:round" />
 <path d="m 67.958,12.661 c -0.362,-0.024 -2.246,3.517 -3.173,7.066 -1.513,-3.398 -4.01,-6.791 -4.32,-6.62 -0.205,0.113 -0.124,1.835 0.268,3.979 -1.817,-1.091 -3.318,-1.77 -3.442,-1.588 -0.124,0.183 0.638,1.544 1.846,3.158 -0.148,0.57 -0.298,1.248 -0.43,2.016 -1.392,-1.807 -2.678,-3.095 -2.868,-2.962 -0.246,0.173 0.25,2.938 1.308,5.781 -2.344,-1.559 -4.599,-2.633 -4.75,-2.409 -0.141,0.209 0.855,1.953 2.366,3.854 -2.725,-0.427 -5.136,-0.458 -5.180,-0.196 -0.021,0.13 0.436,0.509 1.165,0.999 -1.801,-0.17 -3.158,-0.141 -3.191,0.053 -0.049,0.294 2.24,1.861 4.982,3.105 -2.265,0.526 -4.023,1.18 -3.978,1.409 0.097,0.499 7.852,2.104 11.795,0.642 3.852,1.232 10.617,0.681 10.846,0.231 3.591,0.335 7.468,-0.071 7.475,-0.41 0.005,-0.216 -1.314,-0.93 -3.137,-1.623 2.652,-0.476 4.847,-1.206 4.804,-1.463 -0.063,-0.375 -4.386,-1.48 -8.228,-1.445 2.419,-1.583 4.347,-3.303 4.195,-3.533 -0.159,-0.24 -2.717,0.123 -5.467,0.999 1.364,-2.928 2.181,-5.947 1.9,-6.067 -0.161,-0.068 -0.944,0.547 -1.936,1.534 0.581,-1.931 0.846,-3.46 0.645,-3.533 -0.245,-0.088 -1.768,1.382 -3.298,3.39 0.324,-3.219 0.108,-6.349 -0.197,-6.37 z" id="path12528" style="fill:#178717;stroke:#000000;stroke-width:0.499;stroke-linecap:round" />
 <path d="m 65.408,30.104 c -2.37,0 -4.295,1.567 -4.295,3.5 0,0.351 0.066,0.692 0.184,1.012 0.506,0.729 1.905,1.487 4.11,1.487 1.754,0 3.257,-0.411 3.875,-0.993 0.267,-0.456 0.419,-0.966 0.419,-1.506 0,-1.933 -1.924,-3.5 -4.295,-3.5 z" id="path2693" style="fill:#717171;stroke:#000000;stroke-width:0.5" />
 <path d="m 48.144,20.931 c 1.248,2.26 1.578,5.396 1.584,8.539 -1.31,-1.32 -3.23,-2.612 -6.031,-3.806 1.199,0.845 2.259,2.08 3.203,3.502 -1.867,-1.105 -4.552,-1.828 -8.588,-1.768 1.786,0.353 3.615,1.33 5.384,2.582 -1.54,0.08 -3.336,0.416 -5.455,1.103 2.912,-0.301 6.404,0.909 9.646,2.356 0.006,0.005 0.015,0.008 0.021,0.014 -1.926,0.229 -4.223,1.022 -7.025,2.702 2.676,-0.915 6.208,-0.576 9.59,0.063 0.217,0.516 0.429,1.025 0.632,1.514 0.243,0.084 1.021,-0.192 1.433,-0.594 10e-6,-0.16 -0.004,-0.324 -0.007,-0.488 0.864,0.19 1.717,0.385 2.514,0.573 0.165,-0.115 0.334,-0.629 0.362,-1.117 2.714,0.264 5.321,0.818 7.217,2.023 -1.721,-1.692 -3.282,-2.848 -4.716,-3.608 2.509,-0.064 4.925,0.16 6.819,1.018 -5.179,-3.826 -8.732,-4.027 -11.458,-3.183 0.016,-0.033 0.032,-0.065 0.049,-0.099 2.226,-2.567 4.742,-4.979 7.38,-5.914 -1.878,0.245 -3.43,0.621 -4.731,1.089 1.374,-2.19 2.947,-4.149 4.773,-5.27 -2.698,0.954 -4.618,2.044 -5.995,3.197 0.522,-1.257 1.157,-2.394 1.946,-3.297 -2.323,1.734 -3.84,3.368 -4.809,4.895 -0.599,-1.754 -1.752,-3.741 -3.742,-6.028 z" id="path3486" style="fill:#448b18;stroke:#000000;stroke-width:0.5;stroke-linecap:round;stroke-linejoin:round" />
 <path d="m 69.772,34.227 c -1.897,0 -3.438,1.382 -3.438,2.111 0,0.279 0.052,0.551 0.147,0.805 0.405,0.58 1.524,1.183 3.29,1.183 1.404,0 2.607,-0.327 3.102,-0.79 0.214,-0.363 0.335,-0.768 0.335,-1.198 0,-1.538 -1.54,-2.111 -3.438,-2.111 z" id="path3480" style="fill:#717171;stroke:#000000;stroke-width:0.5" />
 <path id="path6766-8-4" d="m 64.604,50.633 c 1.486,-1.11 3.7,0.53 3.717,1.367 0.016,0.836 -3.093,0.771 -3.765,0.127 -0.671,-0.643 -0.447,-1.124 0.048,-1.495 z" style="fill:#49c222;stroke-width:0.5;stroke-linecap:round;stroke-linejoin:round;marker:none;text-rendering:auto" />
 <path d="m 77.069,17.693 a 1.19,1.163 77.671 0 1 -2.265,0.528 1.19,1.163 77.671 1 1 2.265,-0.528 z" id="path3383-3-1-5" style="fill:#a02c2c;stroke:#000000;stroke-width:0.5;stroke-linecap:round;stroke-linejoin:round" />
 <path d="m 82.637,20.059 a 1.19,1.163 77.671 0 1 -2.265,0.528 1.19,1.163 77.671 1 1 2.265,-0.528 z" id="path3383-3-1-5-8" style="fill:#a02c2c;stroke:#000000;stroke-width:0.5;stroke-linecap:round;stroke-linejoin:round" />
 <path d="m 55.043,53.000 c -2.295,0 -4.159,1.013 -4.159,2.263 0,0.227 0.064,0.448 0.178,0.654 0.49,0.472 1.844,0.962 3.98,0.962 1.698,0 3.154,-0.265 3.753,-0.642 0.259,-0.295 0.406,-0.625 0.406,-0.974 0,-1.25 -1.863,-2.263 -4.159,-2.263 z" id="path6572" style="fill:#6c5353;stroke:#000000;stroke-width:0.5" />
 <path id="path10041-7" d="m 9.401,54.549 c -0.007,0.073 0.007,0.138 0.033,0.21 0.244,0.672 1.610,1.372 3.016,1.4 -0.512,0.715 -0.767,1.392 -0.413,1.709 0.916,0.818 4.836,0.118 5.089,-2.567 0.084,-0.894 -0.216,-1.62 -1.563,-1.551 -0.042,0.002 -0.094,0.014 -0.139,0.022 -0.08,-0.349 -0.361,-0.692 -0.953,-0.974 -1.141,-0.542 -4.945,0.648 -5.070,1.75 z" style="fill:#49c222;stroke-width:0.5;stroke-linecap:round;stroke-linejoin:round;marker:none" />
 <path d="m 49.637,49.143 c -0.882,0 -1.598,0.591 -1.598,1.321 0,0.132 0.024,0.261 0.068,0.382 0.188,0.275 0.708,0.561 1.529,0.561 0.652,0 1.212,-0.155 1.442,-0.375 0.099,-0.172 0.156,-0.364 0.156,-0.568 0,-0.729 -0.716,-1.321 -1.598,-1.321 z" id="path6599" style="fill:#6c5353;stroke:#000000;stroke-width:0.5" />
 <path d="m 75.565,48.584 c 1.368,0 2.478,0.978 2.478,1.495 0,0.197 -0.038,0.39 -0.106,0.57 -0.292,0.411 -1.099,0.838 -2.372,0.838 -1.012,0 -1.88,-0.231 -2.236,-0.56 -0.154,-0.257 -0.242,-0.544 -0.242,-0.848 0,-1.089 1.11,-1.495 2.478,-1.495 z" id="path6603" style="fill:#6c5353;stroke:#000000;stroke-width:0.5" />
 <path d="m 2.150,40.828 c 1.991,-1.408 4.794,0.848 4.774,1.954 -0.019,1.105 -4.067,0.896 -4.911,0.019 -0.842,-0.877 -0.525,-1.504 0.137,-1.973 z" id="path12525-2" style="fill:#21a835;stroke:#000000;stroke-width:0.5;stroke-linecap:round;stroke-linejoin:round" />
 <g id="g5445" transform="translate(44.889,-34.177)">
 <path style="fill:#9d9d9d;stroke-width:0.5;marker:none;" d="m -22.356,83.194 c -1.343,0 -2.437,0.841 -2.437,1.875 0,0.173 0.036,0.964 0.093,1.123 1.562,0.420 3.125,0.411 4.687,0 0.056,-0.157 0.093,-0.952 0.093,-1.123 0,-1.033 -1.094,-1.875 -2.437,-1.875 z" id="path3739-9" />
 <path style="fill:#476181;stroke-width:0.5;marker:none;" d="m -22.368,83.205 c -1.343,0 -2.437,0.841 -2.437,1.875 0,0.057 0.023,0.225 0.031,0.375 1.608,0.402 3.235,0.396 4.843,0 0.007,-0.149 0,-0.317 0,-0.375 0,-1.033 -1.094,-1.875 -2.437,-1.875 z" id="path3741-3" />
 <path id="path3743-0" d="m -22.356,83.194 c -1.343,0 -2.437,0.841 -2.437,1.875 0,0.173 0.036,0.964 0.093,1.123 1.562,0.420 3.125,0.411 4.687,0 0.056,-0.157 0.093,-0.952 0.093,-1.123 0,-1.033 -1.094,-1.875 -2.437,-1.875 z" style="fill:none;stroke:#000000;stroke-width:0.5;stroke-linecap:round;marker:none;" />
 <path id="path3745-1" d="m -15.322,83.194 c -1.343,0 -2.437,0.841 -2.437,1.875 0,0.173 0.036,0.964 0.093,1.123 1.562,0.420 3.125,0.411 4.687,0 0.056,-0.157 0.093,-0.952 0.093,-1.123 0,-1.033 -1.094,-1.875 -2.437,-1.875 z" style="fill:#9d9d9d;stroke-width:0.5;marker:none;" />
 <path id="path3747-4" d="m -15.334,83.205 c -1.343,0 -2.437,0.841 -2.437,1.875 0,0.057 0.023,0.225 0.031,0.375 1.608,0.402 3.235,0.396 4.843,0 0.007,-0.149 0,-0.317 0,-0.375 0,-1.033 -1.094,-1.875 -2.437,-1.875 z" style="fill:#476181;stroke-width:0.5;marker:none;" />
 <path style="fill:none;stroke:#000000;stroke-width:0.5;stroke-linecap:round;marker:none;" d="m -15.322,83.194 c -1.343,0 -2.437,0.841 -2.437,1.875 0,0.173 0.036,0.964 0.093,1.123 1.562,0.420 3.125,0.411 4.687,0 0.056,-0.157 0.093,-0.952 0.093,-1.123 0,-1.033 -1.094,-1.875 -2.437,-1.875 z" id="path3749-1" />
 <path id="path3759-2" d="m -21.593,73.622 c -1.068,0.040 -1.533,0.233 -1.875,1.031 -0.546,1.275 -2.305,4.613 -2.062,6.375 0.243,1.761 0.567,2.802 0.75,3.531 1.604,0 3.208,0 4.812,0 0.048,-0.412 0.512,-0.75 1.093,-0.75 0.581,0 1.044,0.337 1.093,0.75 1.614,0 3.229,0 4.843,0 0.182,-0.729 0.475,-1.769 0.718,-3.531 0.243,-1.761 -1.515,-5.099 -2.062,-6.375 -0.546,-1.275 -1.403,-1.031 -4.562,-1.031 l -0.062,0 c -1.184,0 -2.046,-0.024 -2.687,0 z" style="fill:#213e78;stroke-width:0.5;marker:none;" />
 <path id="path3945-2" d="m -24.204,76.283 c -0.251,0.559 -0.519,1.156 -0.75,1.781 l 0,5.812 c 0.059,0.227 0.141,0.505 0.187,0.687 l 1.031,0 0,-8.281 -0.468,0 z m 1.687,0 0,8.281 1.187,0 0,-8.281 -1.187,0 z m 2.406,0 0,8.281 0.156,0 c 0.047,-0.405 0.495,-0.738 1.062,-0.75 l 0,-7.531 -1.218,0 z m 2.437,0 0,8.281 1.218,0 0,-8.281 -1.218,0 z m 2.406,0 0,8.281 1.218,0 0,-8.281 -1.218,0 z m 2.437,1.718 0,6.156 c 0.180,-0.707 0.417,-1.623 0.625,-3.125 0.110,-0.797 -0.212,-1.925 -0.625,-3.031 z" style="fill:#216b9f;stroke-width:0.5;marker:none;" />
 <path id="path3881-6" d="m -27.126,72.542 c -0.449,0.050 -0.735,0.798 -1.025,1.716 -0.330,1.049 -0.623,1.884 0.035,2.093 l 2.921,0.927 c 0.183,0.058 0.367,0.078 0.550,0.083 -0.345,0.835 -0.669,1.716 -0.818,2.501 l 5.531,2 1.062,-1.25 1.062,1.25 5.5,-1.968 c -0.146,-0.792 -0.468,-1.686 -0.810,-2.533 0.145,-0.012 0.293,-0.037 0.439,-0.083 l 2.921,-0.927 c 0.658,-0.208 0.365,-1.044 0.035,-2.093 -0.330,-1.049 -0.657,-1.874 -1.228,-1.693 l -2.923,0.925 c -0.346,0.109 -0.633,0.309 -0.861,0.558 -0.413,-0.349 -1.028,-0.408 -2.134,-0.402 -0.533,0.003 -1.178,0.031 -1.968,0.031 l -0.062,0 c -1.184,0 -2.046,-0.024 -2.687,0 -0.722,0.027 -1.157,0.140 -1.476,0.447 -0.236,-0.287 -0.555,-0.513 -0.937,-0.634 l -2.921,-0.925 c -0.071,-0.022 -0.138,-0.030 -0.203,-0.023 z" style="fill:#e573de;stroke-width:0.5;stroke-linecap:butt;marker:none;" />
 <path style="fill:none;stroke:#000000;stroke-width:0.5;stroke-linecap:butt;marker:none;" d="m -25.463,79.866 5.531,2 1.062,-1.25 1.062,1.25 5.5,-1.968" id="path3881-3" />
 <path style="fill:none;stroke:#000000;stroke-width:0.5;stroke-linecap:butt;stroke-opacity:1" d="m -18.932,73.679 -1.843,3.312 -2.906,-1.781 0.502,-1.206" id="path3883" />
 <path id="path3885-0" d="m -18.797,73.679 1.843,3.312 2.906,-1.781 -0.527,-1.512" style="fill:none;stroke:#000000;stroke-width:0.5;stroke-linecap:butt;marker:none;" />
 <path id="path3105" d="m -27.126,72.542 c -0.449,0.050 -0.735,0.798 -1.025,1.716 -0.330,1.049 -0.623,1.884 0.035,2.093 l 2.921,0.927 c 0.175,0.055 0.352,0.077 0.527,0.083 -0.533,1.303 -0.995,2.707 -0.863,3.664 0.243,1.761 0.567,2.802 0.75,3.531 l 4.812,0 c 0.048,-0.412 0.512,-0.75 1.093,-0.75 0.581,0 1.044,0.337 1.093,0.75 l 4.843,0 c 0.182,-0.729 0.475,-1.769 0.718,-3.531 0.131,-0.956 -0.327,-2.360 -0.861,-3.664 0.133,-0.013 0.268,-0.041 0.402,-0.083 l 2.921,-0.927 c 0.658,-0.208 0.365,-1.044 0.035,-2.093 -0.330,-1.049 -0.657,-1.874 -1.228,-1.693 l -2.923,0.925 c -0.334,0.106 -0.612,0.297 -0.837,0.535 -0.607,-0.542 -1.664,-0.404 -4.132,-0.404 l -0.062,0 c -1.184,0 -2.046,-0.024 -2.687,0 -0.742,0.028 -1.183,0.144 -1.503,0.470 -0.233,-0.269 -0.537,-0.485 -0.904,-0.601 l -2.921,-0.925 c -0.071,-0.022 -0.138,-0.030 -0.203,-0.023 z" style="fill:none;stroke:#000000;stroke-width:0.5;marker:none;" />
 <path style="fill:#ffffff;stroke:#000000;stroke-width:0.5;stroke-linecap:round;stroke-linejoin:round;marker:none;" d="m -18.950,55.854 c -5.284,0 -9.571,4.375 -9.571,9.768 0,1.113 0.089,2.037 0.299,2.838 -0.182,0.369 -0.299,0.732 -0.299,1.129 0,2.049 2.595,4.098 6.221,4.914 0.452,0.824 1.873,1.434 3.559,1.434 1.767,0 3.216,-0.670 3.589,-1.556 3.401,-0.875 5.772,-2.823 5.772,-4.792 0,-0.408 -0.106,-0.781 -0.299,-1.159 0.204,-0.795 0.299,-1.708 0.299,-2.808 0,-5.393 -4.287,-9.768 -9.571,-9.768 z" id="path3890-2" />
 <path id="path4519-1" d="m -22.606,74.108 c -9.8e-5,0.012 0,0.026 0,0.039 0,2.384 1.668,3.706 3.731,3.706 2.045,0 3.703,-1.301 3.731,-3.647" style="fill:#ffffff;stroke:#000000;stroke-width:0.5;stroke-linecap:round;stroke-linejoin:round;marker:none;" />
 <path style="fill:#ffffff;stroke-width:0.5;marker:none;" d="m -21.392,57.483 c 0.069,-3.947 1.381,-8.600 -0.552,-11.349 -1.934,-2.749 -4.628,-0.916 -4.835,2.678 -0.207,3.595 2.555,6.908 3.315,9.234 0.621,-0.211 2.141,-0.563 2.072,-0.563 z" id="path3892-0" />
 <path style="fill:#9dd0cc;stroke:#000000;stroke-width:0.5;stroke-linecap:round;stroke-linejoin:round;marker:none;" d="m -24.915,67.775 c 0.552,-1.480 2.901,-1.339 3.868,1.057 0.207,0.352 -0.345,0.704 -0.621,0.281 -0.690,1.268 -3.661,0.493 -3.246,-1.339 z" id="path3894-6" />
 <path id="path4514-6" d="m -18.926,72.233 c -1.589,0 -2.424,0.443 -2.635,0.897 -0.211,0.453 0.360,2.210 0.890,2.947 0.529,0.736 1.322,0.787 1.745,0.787 l 0.102,0 c 0.423,0 1.216,-0.050 1.745,-0.787 0.529,-0.736 1.101,-2.494 0.890,-2.947 -0.211,-0.453 -1.046,-0.897 -2.635,-0.897 0,0 -0.105,-0.003 -0.102,0 z" style="fill:#321a1a;stroke:#000000;stroke-width:0.5;stroke-opacity:1" />
 <path id="path4587-9" d="m -19.437,74.149 c -0.139,-0.002 -0.314,0.045 -0.513,0.117 -0.770,0.278 -0.106,2.267 1.184,2.000 1.284,0.255 1.933,-1.722 1.164,-2.000 -0.607,-0.219 -0.923,-0.134 -1.176,0.237 -0.193,-0.324 -0.373,-0.350 -0.659,-0.355 z" style="fill:#4d1a1a;stroke:none" />
 <rect style="fill:#ffffff;stroke:#000000;stroke-width:0.5;stroke-linecap:round;stroke-linejoin:round;marker:none;" id="rect3896-9" width="3.541" height="1.855" x="-20.705" y="72.983" ry="0.786" />
 <path style="fill:#ecdfd2;stroke:#000000;stroke-width:0.5;stroke-linecap:round;stroke-linejoin:round;marker:none;" d="m -20.524,69.709 c -1.186,0 -2.123,0.987 -2.123,2.197 0,1.210 0.937,2.197 2.123,2.197 0.659,0 1.250,-0.315 1.645,-0.793 0.394,0.478 0.985,0.793 1.645,0.793 1.186,0 2.153,-0.987 2.153,-2.197 0,-1.210 -0.967,-2.197 -2.153,-2.197 -0.659,0 -1.250,0.315 -1.645,0.793 -0.394,-0.478 -0.985,-0.793 -1.645,-0.793 z" id="path3898-0" />
 <path style="fill:#70130a;stroke:#000000;stroke-width:0.5;stroke-linecap:round;stroke-linejoin:round;marker:none;" d="m -17.774,69.962 c 0,0.632 -0.503,1.694 -1.123,1.694 -0.620,0 -1.123,-1.061 -1.123,-1.694 0,-0.632 0.503,-0.498 1.123,-0.498 0.620,0 1.123,-0.134 1.123,0.498 z" id="path3900-4" />
 <path style="fill:#d1c6bc;stroke-width:0.5;marker:none;" d="m -23.526,52.588 c -0.787,0.213 -1.044,1.829 -0.687,3.754 0.313,0.608 0.578,1.190 0.747,1.709 0.621,-0.211 2.132,-0.580 2.063,-0.580 0.013,-0.774 0.104,-1.572 0.179,-2.380 -0.632,-1.627 -1.573,-2.701 -2.303,-2.503 z" id="path3902-1" />
 <path id="path3904-5" d="m -21.392,57.483 c 0.069,-3.947 1.381,-8.600 -0.552,-11.349 -1.934,-2.749 -4.628,-0.916 -4.835,2.678 -0.207,3.595 2.555,6.908 3.315,9.235 0.621,-0.211 2.141,-0.563 2.072,-0.563 z" style="fill:none;stroke:#000000;stroke-width:0.5;stroke-linecap:round;stroke-linejoin:round;marker:none;" />
 <path id="path3906-0" d="m -16.327,57.483 c -0.069,-3.947 -1.381,-8.600 0.552,-11.349 1.934,-2.749 4.628,-0.916 4.835,2.678 0.207,3.595 -2.555,6.908 -3.315,9.234 -0.621,-0.211 -2.141,-0.563 -2.072,-0.563 z" style="fill:#ffffff;stroke-width:0.5;marker:none;" />
 <path id="path3908-9" d="m -14.193,52.588 c 0.787,0.213 1.044,1.829 0.687,3.754 -0.313,0.608 -0.578,1.190 -0.747,1.709 -0.621,-0.211 -2.132,-0.580 -2.063,-0.580 -0.013,-0.774 -0.104,-1.572 -0.179,-2.380 0.632,-1.627 1.573,-2.701 2.303,-2.503 z" style="fill:#d1c6bc;stroke-width:0.5;marker:none;" />
 <path style="fill:none;stroke:#000000;stroke-width:0.5;stroke-linecap:round;stroke-linejoin:round;marker:none;" d="m -16.327,57.483 c -0.069,-3.947 -1.381,-8.600 0.552,-11.349 1.934,-2.749 4.628,-0.916 4.835,2.678 0.207,3.595 -2.555,6.908 -3.315,9.235 -0.621,-0.211 -2.141,-0.563 -2.072,-0.563 z" id="path3910-0" />
 <ellipse style="fill:#000000;stroke-width:0.5;marker:none;" id="path3912-7" cx="-23.039" cy="68.200" rx="1.053" ry="1.074" />
 <path id="path3914-9" d="m -12.837,67.775 c -0.552,-1.480 -2.901,-1.339 -3.868,1.057 -0.207,0.352 0.345,0.704 0.621,0.281 0.690,1.268 3.661,0.493 3.246,-1.339 z" style="fill:#9dd0cc;stroke:#000000;stroke-width:0.5;stroke-linecap:round;stroke-linejoin:round;marker:none;" />
 <ellipse transform="scale(-1,1)" id="path3916-7" style="fill:#000000;stroke-width:0.5;marker:none;" cx="14.712" cy="68.200" rx="1.053" ry="1.074" />
 <ellipse style="fill:#ffffff;stroke-width:0.5;marker:none;" id="path3918-7" cx="-23.287" cy="67.872" rx="0.407" ry="0.415" />
 <ellipse id="path3920-6" style="fill:#ffffff;stroke-width:0.5;marker:none;" cx="-15.029" cy="67.872" rx="0.407" ry="0.415" />
 <path style="fill:none;stroke:#000000;stroke-width:0.5;stroke-linecap:round;stroke-opacity:1" d="m -18.895,74.553 0,0.206" id="path3922-0" />
 <path style="fill:none;stroke:#000000;stroke-width:0.5;stroke-linecap:round;stroke-opacity:1" d="m -21.901,71.221 -2.311,-0.589" id="path3924-3" />
 <path style="fill:none;stroke:#000000;stroke-width:0.5;stroke-linecap:round;stroke-opacity:1" d="m -22.132,72.164 -1.791,0.294" id="path3926-0" />
 <path id="path3928-0" d="m -15.890,71.221 2.311,-0.589" style="fill:none;stroke:#000000;stroke-width:0.5;stroke-linecap:round;stroke-opacity:1" />
 <path id="path3930-5" d="m -15.658,72.164 1.791,0.294" style="fill:none;stroke:#000000;stroke-width:0.5;stroke-linecap:round;stroke-opacity:1" />
 <path id="path5347" d="m -12.670,67.655 c -0.263,-0.144 -2.878,-0.652 -2.878,-0.652 0,0 0.642,-2.661 1.941,-2.144 1.299,0.516 0.936,2.796 0.936,2.796 z" style="fill:#ffffff;stroke:none" />
 <path style="fill:none;stroke:#000000;stroke-width:0.5;stroke-linecap:round;stroke-opacity:1" d="m -12.875,67.725 c -0.237,-0.130 -2.597,-0.588 -2.597,-0.588" id="path5349" />
 <g transform="matrix(0.961,-0.275,0.275,0.961,-61.758,30.975)" id="g6321">
 <path d="m 19.666,53.344 -0.516,0.269 c 0,0 0.339,0.566 0.269,1.39 -0.03,-0.027 -0.057,-0.056 -0.089,-0.084 -2,2.366 -1.019,2.373 -0.74,2.12 -0.366,0.671 -0.971,3.03 -0.14,4.775 0.339,-0.491 1.238,-2.051 1.431,-3.495 0.214,0.75 0.618,1.572 1.33,2.141 0.178,-0.599 0.586,-2.69 -0.145,-3.908 0.477,0.242 0.763,-1.024 -1.049,-1.692 0.018,-0.895 -0.347,-1.517 -0.347,-1.517 z" id="path3463" style="fill:#1ca21c;stroke:#000000;stroke-width:0.5;stroke-linecap:round;stroke-linejoin:round" />
 <path d="m 21.697,51.441 c 0,1.447 -0.941,2.621 -2.101,2.621 -1.16,0 -2.101,-1.173 -2.101,-2.621 0,-1.447 0.941,-9.029 2.101,-9.029 1.16,0 2.101,7.581 2.101,9.029 z" id="path3411" style="fill:#c04f2e;stroke-width:0.5" />
 <path d="m 18.899,59.577 c 1.122,-0.979 1.263,-2.73 1.15,-3.277 0.154,0.24 0.938,0.479 -0.024,-1.624 -1.827,0.595 -1.538,1.811 -1.121,1.577 -0.575,1.057 -0.173,2.819 -0.004,3.324 z" id="path3461" style="fill:#1ca21c;stroke:#000000;stroke-width:0.5;stroke-linecap:round;stroke-linejoin:round" />
 <path d="m 20.405,43.593 c -0.204,0.052 -0.449,0.092 -0.702,0.092 a 0.256,0.242 0 1 0 0,0.483 c 0.303,0 0.594,-0.032 0.853,-0.096 -0.049,-0.168 -0.099,-0.33 -0.151,-0.479 z m 0.386,1.403 c -0.196,0.119 -0.651,0.252 -1.129,0.252 a 0.256,0.242 0 1 0 0,0.483 c 0.469,0 0.909,-0.068 1.244,-0.231 -0.036,-0.172 -0.077,-0.339 -0.115,-0.504 z m 0.28,1.328 a 0.256,0.242 0 0 0 -0.053,0.042 c -0.136,0.128 -0.654,0.298 -1.2,0.298 a 0.257,0.243 0 1 0 0,0.487 c 0.519,0 1.002,-0.085 1.346,-0.29 -0.03,-0.18 -0.06,-0.359 -0.093,-0.538 z m 0.226,1.387 a 0.256,0.242 0 0 0 -0.124,0.071 c -0.136,0.128 -0.649,0.298 -1.195,0.298 a 0.257,0.243 0 1 0 0,0.487 c 0.546,0 1.053,-0.095 1.4,-0.323 -0.024,-0.176 -0.048,-0.353 -0.075,-0.533 a 0.256,0.242 0 0 0 -0.004,0 z m 0.186,1.487 a 0.256,0.242 0 0 0 -0.151,0.071 c -0.136,0.128 -0.654,0.302 -1.2,0.302 a 0.256,0.242 0 1 0 0,0.483 c 0.562,0 1.084,-0.098 1.431,-0.34 -0.018,-0.166 -0.036,-0.337 -0.057,-0.517 a 0.256,0.242 0 0 0 -0.022,0 z m 0.155,1.378 a 0.256,0.242 0 0 0 -0.151,0.075 c -0.136,0.128 -0.649,0.302 -1.195,0.302 a 0.256,0.242 0 1 0 0,0.483 c 0.542,0 1.044,-0.095 1.391,-0.319 -0.007,-0.154 -0.018,-0.336 -0.035,-0.542 a 0.256,0.242 0 0 0 -0.008,0 z" id="path4242" style="font-style:normal;font-variant:normal;font-weight:normal;font-stretch:normal;font-size:medium;line-height:normal;font-family:Sans;-inkscape-font-specification:Sans;text-indent:0;text-align:start;text-decoration:none;text-decoration-line:none;letter-spacing:normal;word-spacing:normal;text-transform:none;direction:ltr;block-progression:tb;writing-mode:lr-tb;baseline-shift:baseline;text-anchor:start;fill:#913d26;stroke-width:3.598" />
 <path d="m 21.697,51.441 c 0,1.447 -0.941,2.621 -2.101,2.621 -1.16,0 -2.101,-1.173 -2.101,-2.621 0,-1.447 0.941,-9.029 2.101,-9.029 1.16,0 2.101,7.581 2.101,9.029 z" id="path4284" style="fill:none;stroke:#000000;stroke-width:0.5;stroke-linecap:round;stroke-linejoin:round" />
 </g>
 <path d="m -27.092,73.546 a 1.510,1.072 66.241 1 1 -1.217,-2.764 1.510,1.072 66.241 1 1 1.217,2.764 z" id="path3527" style="fill:#ffffff;stroke:#000000;stroke-width:0.498;stroke-linecap:round" />
 <path d="m -31.702,70.361 c -0.64,-0.047 -1.215,0.665 -1.281,1.562 -0.053,0.723 0.237,1.348 0.687,1.593 -0.166,0.38 -0.201,0.87 -0.093,1.375 0.216,1.009 0.962,1.715 1.687,1.562 0.724,-0.153 1.153,-1.115 0.937,-2.125 -0.158,-0.737 -0.61,-1.275 -1.125,-1.468 0.115,-0.231 0.196,-0.485 0.218,-0.781 0.066,-0.897 -0.391,-1.67 -1.031,-1.718 z" id="path3247" style="fill:#ffffff;stroke:#000000;stroke-width:0.5;stroke-linecap:round" />
 <path style="fill:#ffffff;stroke:#000000;stroke-width:0.5;stroke-linecap:round;marker:none;" d="m -4.245,71.231 c 0.049,0.071 0.069,0.162 0.103,0.245 0.274,0.665 -0.003,1.306 -0.715,1.879 0.654,0.326 1.033,0.651 0.994,1.322 -0.039,0.670 -0.969,1.532 -2.553,1.711 -1.633,0.234 -4.049,0.085 -5.102,-0.975 -0.952,-1.004 -0.910,-2.581 0.093,-3.534 0.070,-0.066 0.149,-0.113 0.225,-0.170 -0.112,-0.487 0.069,-1.160 0.510,-1.732 0.646,-0.840 1.623,-1.191 2.187,-0.781 0.545,0.396 0.487,1.384 -0.102,2.207 0.275,0.127 0.515,0.316 0.736,0.550 0.021,0.023 0.043,0.044 0.064,0.068 0.341,-0.301 0.756,-0.586 1.237,-0.829 1.245,-0.627 1.977,-0.458 2.319,0.039 z" id="path7356" />
 <path style="fill:none;stroke:#000000;stroke-width:0.5;stroke-linecap:round;stroke-opacity:1" d="m -4.815,73.275 c -0.542,0.100 -0.728,0.150 -1.135,0.352" id="path7358" />
 <ellipse transform="matrix(0.991,-0.127,0.127,0.991,0,0)" ry="1.476" rx="1.819" cy="71.541" cx="-18.958" id="path7370" style="fill:#d6ba9e;fill-rule:nonzero;stroke-width:0.5;stroke-linecap:round;stroke-linejoin:round;marker:none;" />
 </g>
 <path id="path3512" d="M 48.871 5.199 C 47.209 5.210 45.695 6.325 45.503 7.960 C 45.421 8.662 45.614 9.327 45.970 9.906 C 40.515 9.995 36.087 14.437 36.087 19.914 C 36.087 22.334 36.950 24.558 38.384 26.294 L 36.845 29.455 L 40.421 28.162 C 42.043 29.288 44.009 29.953 46.126 29.953 C 47.817 29.953 49.412 29.527 50.812 28.785 C 50.856 29.289 51.049 29.786 51.378 30.208 L 51.380 30.210 L 51.382 30.212 C 51.893 30.856 52.642 31.280 53.525 31.490 C 53.871 31.572 54.246 31.622 54.654 31.646 L 54.656 31.646 C 55.688 31.704 56.697 31.628 57.675 31.419 L 57.677 31.419 L 57.679 31.419 C 58.266 31.290 58.747 31.131 59.148 30.898 C 59.549 30.665 59.905 30.316 60.019 29.835 C 60.195 29.097 59.805 28.364 59.208 27.833 L 59.207 27.833 C 58.551 27.243 57.674 26.847 56.607 26.593 C 56.372 26.537 56.113 26.587 55.873 26.550 C 56.273 26.470 56.721 26.391 57.320 26.335 C 57.990 26.279 58.548 26.243 58.990 26.226 L 59.625 26.203 L 59.691 25.572 C 59.800 24.530 59.981 23.470 60.238 22.392 C 60.731 20.320 61.381 18.320 62.187 16.390 L 62.187 16.388 C 63.000 14.427 63.825 12.904 64.632 11.828 L 64.837 11.554 L 64.761 11.220 C 64.712 11.008 64.463 10.659 64.138 10.582 L 63.968 10.541 L 63.796 10.583 C 62.769 10.835 61.202 11.005 59.144 11.072 C 57.014 11.137 55.457 11.040 54.566 10.828 C 54.544 10.822 54.470 10.803 54.369 10.771 L 54.369 10.769 C 54.257 10.734 54.263 10.730 54.130 10.699 C 54.019 10.672 53.874 10.638 53.646 10.710 C 53.419 10.782 53.169 11.062 53.115 11.283 L 53.113 11.285 C 53.037 11.481 52.968 11.683 52.917 11.894 C 52.856 12.154 52.819 12.358 52.781 12.568 C 52.168 12.027 51.494 11.546 50.757 11.156 C 51.702 10.701 52.481 10.003 52.609 8.916 C 52.825 7.065 51.323 5.504 49.457 5.240 L 49.455 5.240 C 49.262 5.212 49.067 5.198 48.873 5.199 L 48.871 5.199 z M 54.310 14.267 C 54.513 14.281 54.655 14.287 54.849 14.300 C 54.796 14.465 54.727 14.601 54.671 14.767 C 54.562 14.593 54.430 14.434 54.310 14.267 z M 54.576 25.312 C 54.623 25.555 54.660 25.810 54.714 26.044 L 54.820 26.488 C 54.463 26.476 54.117 26.420 53.759 26.416 C 54.056 26.067 54.328 25.698 54.576 25.312 z " style="fill:#ffffff;stroke:#000000;stroke-width:0.5;stroke-linecap:butt;marker:none;" />
 <path id="path5508" d="m 43.450,28.639 c -3.14,-1.002 -5.127,-3.15 -6.198,-6.696 -0.143,-0.47 -0.263,-1.417 -0.271,-2.105 -0.011,-2.179 1.007,-4.725 2.546,-6.335 1.678,-1.762 4.789,-3.018 6.885,-2.783 1.103,0.129 1.312,0.111 1.363,-0.089 0.026,-0.105 -0.121,-0.282 -0.335,-0.39 -0.212,-0.112 -0.568,-0.465 -0.793,-0.784 -0.365,-0.526 -0.392,-0.672 -0.264,-1.455 0.13,-0.771 0.206,-0.923 0.694,-1.368 0.655,-0.6 1.126,-0.658 2.455,-0.317 1.822,0.466 2.464,1.341 2.082,2.852 -0.248,0.982 -0.638,1.339 -1.651,1.485 -0.839,0.119 -1.092,0.27 -0.758,0.456 0.089,0.049 0.581,0.307 1.096,0.582 3.075,1.619 4.822,4.376 5.001,7.889 0.064,1.27 -0.453,3.487 -1.11,4.752 -1.233,2.373 -4.423,4.579 -6.887,4.76 -0.999,0.074 -2.861,-0.155 -3.843,-0.467 z m 2.171,-0.549 c 2.389,0.218 4.884,-0.871 6.654,-2.906 0.997,-1.146 1.347,-1.894 1.738,-3.693 0.312,-1.427 0.333,-1.764 0.179,-2.49 -0.098,-0.459 -0.17,-0.873 -0.157,-0.924 0.011,-0.045 -0.163,-0.561 -0.39,-1.149 -1.041,-2.664 -3.258,-4.479 -6.185,-5.053 -4.009,-0.788 -8.178,1.915 -9.198,5.972 -0.918,3.632 0.781,7.487 4.117,9.349 0.874,0.483 1.946,0.781 3.241,0.899 z m -2.976,-1.338 c -1.231,-0.686 -1.766,-1.132 -2.422,-2.016 -0.767,-1.035 -1.268,-2.127 -1.52,-3.295 -0.21,-0.969 -0.18,-3.079 0.046,-3.15 0.064,-0.021 0.068,0.301 0.011,0.715 -0.328,2.232 0.687,5.04 2.348,6.484 1.872,1.625 4.464,2.275 6.917,1.732 1.016,-0.225 2.763,-1.3 3.62,-2.231 0.361,-0.391 0.637,-0.61 0.603,-0.479 -0.087,0.369 -1.946,1.973 -2.749,2.37 -1.134,0.565 -2.78,0.84 -4.097,0.684 -1.453,-0.169 -1.711,-0.25 -2.756,-0.825 z m 1.398,-0.761 c 0.183,-0.725 0.332,-0.977 0.49,-0.814 0.115,0.115 -0.414,1.637 -0.55,1.603 -0.07,-0.017 -0.04,-0.369 0.065,-0.787 z m 0.51,0.589 c 0.088,-0.159 0.266,-0.522 0.39,-0.801 0.119,-0.28 0.274,-0.493 0.335,-0.478 0.131,0.033 0.388,1.39 0.314,1.682 -0.089,0.352 -0.301,0.132 -0.362,-0.37 l -0.055,-0.501 -0.257,0.422 c -0.284,0.469 -0.631,0.526 -0.368,0.056 z m -2.292,-1.088 0.21,-0.493 -0.429,0.234 c -0.705,0.395 -0.61,0.06 0.143,-0.483 1.03,-0.747 1.091,-0.689 0.501,0.539 -0.398,0.832 -0.78,1.008 -0.43,0.196 z m 5.23,0.518 c -0.003,-0.494 0.052,-0.887 0.123,-0.869 0.166,0.042 1.128,1.368 1.091,1.514 -0.053,0.211 -0.359,0.021 -0.633,-0.379 -0.166,-0.251 -0.262,-0.318 -0.245,-0.174 0.067,0.794 0.047,0.912 -0.133,0.866 -0.11,-0.028 -0.19,-0.412 -0.194,-0.949 z m -6.411,-0.956 c -0.064,-0.107 0.765,-1.076 1.149,-1.344 0.337,-0.231 0.244,0.136 -0.145,0.574 -0.571,0.648 -0.916,0.91 -1.003,0.764 z m -0.346,-0.667 c 0.311,-0.446 1.212,-1.189 1.223,-1.02 0.015,0.213 -1.04,1.275 -1.228,1.233 -0.065,-0.016 -0.064,-0.107 0.01,-0.211 z m 4.739,0.549 c -0.016,-0.063 0.001,-0.449 0.043,-0.851 0.042,-0.401 0.053,-0.806 0.022,-0.894 -0.026,-0.087 -0.02,-0.321 0.024,-0.519 0.233,-1.071 0.262,-2.141 0.072,-2.447 -0.115,-0.179 -0.153,-0.408 -0.088,-0.499 0.068,-0.1 -0.078,-0.368 -0.392,-0.672 -0.284,-0.275 -0.628,-0.823 -0.769,-1.218 -0.362,-1.024 -0.623,-1.497 -0.95,-1.73 -0.154,-0.108 -0.265,-0.286 -0.238,-0.392 0.025,-0.1 -0.102,-0.422 -0.28,-0.714 -0.179,-0.286 -0.362,-0.665 -0.403,-0.841 -0.041,-0.176 0.103,-0.027 0.338,0.337 0.224,0.362 0.572,0.766 0.769,0.902 0.191,0.134 0.328,0.334 0.3,0.445 -0.056,0.221 0.403,0.927 1.215,1.851 0.291,0.331 0.568,0.824 0.613,1.093 0.052,0.324 0.181,0.512 0.377,0.561 0.408,0.103 0.741,0.734 0.464,0.899 -0.195,0.116 -0.616,2.014 -0.566,2.536 0.029,0.286 -0.371,2.318 -0.457,2.296 -0.03,-0.007 -0.074,-0.067 -0.094,-0.136 z m -5.65,-1.61 c -0.023,-0.075 0.135,-0.281 0.361,-0.455 l 0.406,-0.315 -0.438,-0.003 c -0.24,-0.001 -0.471,-0.001 -0.515,0.003 -0.042,-1.18e-4 -0.066,-0.054 -0.046,-0.134 0.033,-0.152 1.644,-0.334 1.732,-0.194 0.048,0.082 -1.285,1.288 -1.396,1.26 -0.025,-0.006 -0.066,-0.075 -0.095,-0.152 z m 9.948,1.577 c -0.157,-0.457 -0.248,-0.861 -0.199,-0.886 0.044,-0.026 0.44,0.186 0.874,0.483 0.489,0.332 0.724,0.569 0.622,0.634 -0.101,0.06 -0.259,0.009 -0.413,-0.125 -0.431,-0.393 -0.576,-0.328 -0.379,0.166 0.166,0.422 0.117,0.656 -0.121,0.585 -0.045,-0.011 -0.21,-0.396 -0.367,-0.859 z m -10.514,-2.942 c -0.027,-0.082 0.391,-0.254 0.931,-0.375 0.539,-0.12 0.939,-0.153 0.887,-0.075 -0.141,0.221 -1.766,0.625 -1.819,0.451 z m 11.404,2.159 c -0.538,-0.521 -0.691,-0.807 -0.383,-0.729 0.196,0.049 1.229,1.114 1.198,1.24 -0.044,0.176 -0.205,0.071 -0.81,-0.505 z m -11.637,-2.743 c 0.034,-0.136 1.918,-0.485 1.956,-0.357 0.019,0.069 -0.348,0.212 -0.825,0.316 -0.837,0.174 -1.162,0.188 -1.125,0.042 z m -0.023,-0.499 c 0.031,-0.125 1.491,-0.405 1.763,-0.336 0.352,0.089 -0.034,0.264 -0.74,0.343 -0.441,0.049 -0.861,0.098 -0.928,0.108 -0.066,0.009 -0.103,-0.036 -0.084,-0.112 z m 13.819,2.405 c 0.133,-0.336 0.311,-0.66 0.401,-0.718 0.174,-0.116 -0.161,0.661 -0.461,1.083 -0.107,0.149 -0.087,0.004 0.058,-0.36 z m -13.767,-4.391 c 0.019,-0.075 0.408,-0.046 0.877,0.071 0.458,0.115 0.861,0.282 0.891,0.375 0.028,0.098 -0.292,0.076 -0.877,-0.071 -0.524,-0.132 -0.911,-0.294 -0.891,-0.375 z m 11.973,3.005 c -0.016,-0.063 0.034,-0.136 0.116,-0.163 0.215,-0.068 1.694,0.508 1.658,0.649 -0.034,0.136 -1.719,-0.322 -1.776,-0.481 z m -11.898,-3.581 c -0.027,-0.082 0.107,-0.192 0.301,-0.239 0.32,-0.079 0.338,-0.107 0.155,-0.319 -0.345,-0.414 -0.142,-0.604 0.238,-0.223 0.325,0.323 0.376,0.336 0.769,0.199 0.475,-0.163 0.726,-0.137 0.672,0.073 -0.019,0.075 -0.224,0.168 -0.461,0.194 l -0.424,0.048 0.349,0.313 c 0.231,0.208 0.292,0.347 0.172,0.418 -0.113,0.067 -0.272,-0.004 -0.475,-0.216 -0.274,-0.294 -0.339,-0.31 -0.783,-0.208 -0.278,0.063 -0.499,0.045 -0.53,-0.043 z m 12.156,2.917 c 0.019,-0.075 0.433,-0.04 0.952,0.09 0.519,0.131 0.901,0.292 0.881,0.372 -0.019,0.075 -0.433,0.04 -0.952,-0.09 -0.519,-0.131 -0.901,-0.292 -0.881,-0.372 z m 2.218,0.26 c 0.038,-0.193 0.097,-0.618 0.136,-0.941 0.064,-0.509 0.08,-0.531 0.13,-0.197 0.032,0.211 -0.026,0.636 -0.136,0.941 -0.104,0.305 -0.163,0.392 -0.13,0.197 z m -14.732,-3.879 c 0.019,-0.075 0.096,-0.125 0.176,-0.105 0.075,0.019 0.125,0.096 0.105,0.176 -0.019,0.075 -0.096,0.125 -0.176,0.105 -0.075,-0.019 -0.125,-0.096 -0.105,-0.176 z m 12.694,2.909 c 0.019,-0.075 0.408,-0.046 0.877,0.071 0.458,0.115 0.861,0.282 0.891,0.375 0.028,0.098 -0.292,0.076 -0.877,-0.071 -0.523,-0.132 -0.911,-0.294 -0.891,-0.375 z m -12.356,-3.59 c 0.045,-0.202 0.315,-0.74 0.603,-1.198 2.785,-4.398 9.054,-4.765 12.309,-0.72 0.591,0.733 1.314,2.16 1.449,2.853 0.06,0.331 0.039,0.31 -0.133,-0.108 -0.117,-0.276 -0.534,-1.046 -0.924,-1.707 -0.864,-1.456 -2.029,-2.49 -3.55,-3.132 -3.396,-1.453 -7.612,0.165 -9.423,3.594 -0.23,0.445 -0.378,0.627 -0.331,0.42 z m 14.506,2.359 c -0.021,-0.509 -0.009,-0.533 0.109,-0.24 0.116,0.281 0.088,0.858 -0.042,0.825 -0.025,-0.006 -0.056,-0.266 -0.067,-0.579 z m -11.928,-3.224 c -0.126,-0.455 -0.183,-0.502 -0.669,-0.533 -0.4,-0.026 -0.506,-0.074 -0.42,-0.202 0.055,-0.093 0.277,-0.144 0.49,-0.117 0.336,0.047 0.371,0.013 0.285,-0.26 -0.162,-0.502 0.126,-0.498 0.351,0.008 0.166,0.379 0.288,0.469 0.644,0.484 0.513,0.027 0.43,0.333 -0.084,0.332 -0.24,-10e-4 -0.298,0.058 -0.238,0.245 0.097,0.292 0.033,0.608 -0.112,0.571 -0.055,-0.014 -0.166,-0.251 -0.241,-0.527 z m 9.671,2.756 c -0.064,-0.209 -0.125,-0.181 0.905,-0.441 1.047,-0.26 1.209,-0.096 0.248,0.245 -1.043,0.374 -1.094,0.382 -1.152,0.19 z m -0.136,-0.625 c -0.049,-0.162 1.397,-0.691 1.701,-0.62 0.287,0.072 0.193,0.124 -0.748,0.459 -0.494,0.175 -0.919,0.244 -0.952,0.161 z m -7.44,-3.692 c 0.081,-0.322 0.022,-0.492 -0.266,-0.748 -0.201,-0.179 -0.316,-0.38 -0.252,-0.444 0.072,-0.072 0.201,-0.034 0.355,0.1 0.196,0.178 0.247,0.164 0.307,-0.072 0.039,-0.156 0.133,-0.271 0.213,-0.251 0.075,0.019 0.101,0.191 0.053,0.383 -0.061,0.241 0.021,0.444 0.279,0.676 0.35,0.308 0.466,0.761 0.132,0.515 -0.583,-0.426 -0.567,-0.427 -0.589,-0.041 -0.013,0.221 -0.09,0.357 -0.176,0.336 -0.085,-0.021 -0.109,-0.225 -0.05,-0.457 z m 6.04,1.575 c -0.067,-0.113 0.959,-1.081 1.257,-1.177 0.372,-0.114 0.244,0.136 -0.359,0.723 -0.624,0.603 -0.759,0.671 -0.891,0.45 z m -4.959,-2.438 c -0.098,-0.48 -0.121,-0.856 -0.045,-0.837 0.115,0.029 0.529,1.489 0.476,1.696 -0.071,0.282 -0.272,-0.111 -0.427,-0.853 z m 1.365,0.725 c 0.017,-0.07 0.145,-0.279 0.292,-0.456 0.212,-0.267 0.231,-0.407 0.123,-0.805 -0.143,-0.491 0.03,-0.608 0.243,-0.158 0.1,0.218 0.164,0.218 0.46,0.003 0.367,-0.266 0.399,-0.032 0.044,0.354 -0.141,0.157 -0.186,0.354 -0.137,0.629 0.113,0.612 0.273,0.53 0.523,-0.269 0.123,-0.402 0.274,-0.702 0.324,-0.668 0.051,0.029 0.089,0.092 0.079,0.132 l -0.214,0.846 c -0.183,0.725 -0.216,0.77 -0.533,0.69 -0.186,-0.047 -0.349,-0.184 -0.364,-0.317 -0.035,-0.325 -0.271,-0.347 -0.461,-0.041 -0.162,0.259 -0.452,0.303 -0.389,0.056 z m 1.925,0.122 c 0.168,-0.665 0.495,-1.322 0.641,-1.285 0.141,0.035 0.017,0.588 -0.301,1.317 -0.272,0.633 -0.508,0.611 -0.345,-0.033 z m 1.778,-4.953 c 0.658,-0.337 0.888,-0.949 0.59,-1.549 -0.21,-0.417 -0.374,-0.534 -1.097,-0.77 -0.801,-0.266 -0.881,-0.265 -1.393,0.039 -0.606,0.361 -0.825,0.911 -0.599,1.499 0.142,0.368 0.579,0.591 0.784,0.396 0.056,-0.055 0.004,-0.165 -0.132,-0.237 -0.348,-0.19 -0.311,-0.888 0.06,-1.233 0.58,-0.534 2.043,-0.067 2.003,0.64 -0.028,0.432 -0.339,0.916 -0.565,0.859 -0.11,-0.028 -0.238,0.073 -0.277,0.229 -0.093,0.367 0.09,0.403 0.638,0.123 z m -1.112,-1.112 c 0.014,-0.226 -0.023,-0.332 -0.083,-0.24 -0.1,0.162 -0.105,0.605 8.39e-4,0.632 0.03,0.007 0.063,-0.166 0.083,-0.391 z m 0.543,-0.093 c -0.011,-0.104 -0.069,-0.001 -0.122,0.231 -0.058,0.231 -0.048,0.32 0.027,0.189 0.069,-0.127 0.113,-0.319 0.102,-0.424 z m 0.458,-0.034 c -0.011,-0.104 -0.069,-10e-4 -0.122,0.231 -0.058,0.231 -0.048,0.32 0.027,0.189 0.069,-0.127 0.113,-0.319 0.102,-0.424 z m -1.358,-0.225 c 0.083,-0.182 0.089,-0.309 0.018,-0.284 -0.133,0.041 -0.334,0.58 -0.223,0.608 0.025,0.006 0.12,-0.135 0.208,-0.317 z" style="fill:#d18708;fill-rule:nonzero;stroke-width:0.862px;stroke-linecap:butt;" />
 <path id="path6766-8-4-8" d="m 38.416,45.487 c -1.486,-1.11 -3.7,0.53 -3.717,1.367 -0.016,0.836 3.093,0.771 3.765,0.127 0.671,-0.643 0.447,-1.124 -0.048,-1.495 z" style="fill:#49c222;stroke-width:0.5;stroke-linecap:round;stroke-linejoin:round;marker:none;text-rendering:auto" />
 <path id="path6766-8-4-3" d="m 38.375,59.184 c 3.663,-1.619 9.122,0.773 9.164,1.994 0.039,1.219 -7.625,1.124 -9.282,0.185 -1.654,-0.937 -1.102,-1.639 0.118,-2.180 z" style="fill:#49c222;stroke-width:0.5;stroke-linecap:round;stroke-linejoin:round;marker:none;text-rendering:auto" />
 <path d="m 3.607,55.802 c -0.882,0 -1.598,0.591 -1.598,1.321 0,0.132 0.024,0.261 0.068,0.382 0.188,0.275 0.708,0.561 1.529,0.561 0.652,0 1.212,-0.155 1.442,-0.375 0.099,-0.172 0.156,-0.364 0.156,-0.568 0,-0.729 -0.716,-1.321 -1.598,-1.321 z" id="path6599-7" style="fill:#6c5353;stroke:#000000;stroke-width:0.5" />
 <path d="m 64.048,11.388 q -1.293,1.723 -2.536,4.721 -1.231,2.949 -1.984,6.114 -0.394,1.659 -0.564,3.272 -0.687,0.025 -1.704,0.111 -1.109,0.101 -1.830,0.270 -0.688,-2.939 -0.529,-7.002 0.089,-2.338 0.444,-3.830 0.224,-0.943 0.525,-1.414 -1.683,-0.135 -2.425,-0.148 -0.058,-0.392 0.186,-1.419 0.076,-0.322 0.195,-0.609 0.017,-0.071 0.136,-0.043 0.023,0.005 0.188,0.057 0.164,0.051 0.247,0.071 1.528,0.363 4.769,0.264 3.127,-0.101 4.802,-0.510 0.059,0.014 0.078,0.094 z m -4.739,18.278 q -0.161,0.680 -1.786,1.038 -1.369,0.292 -2.826,0.210 -0.560,-0.032 -1.001,-0.137 -1.146,-0.272 -1.738,-1.019 -0.580,-0.743 -0.395,-1.519 0.213,-0.895 2.003,-1.100 1.501,-0.160 2.874,0.166 1.480,0.352 2.280,1.072 0.739,0.655 0.589,1.288 z" style="font-style:normal;font-variant:normal;font-weight:normal;font-stretch:semi-expanded;font-size:medium;line-height:125%;font-family:Ravie;-inkscape-font-specification:'Ravie Semi-Expanded';letter-spacing:0px;word-spacing:0px;fill:#d18708;fill-rule:nonzero;stroke-width:0.862px;stroke-linecap:butt;" id="path4338" />
 <path id="path4397" d="M 65.167 13.187 C 64.905 13.217 64.568 13.470 64.464 13.699 C 64.374 13.846 64.286 13.995 64.212 14.156 C 63.959 14.713 63.790 15.079 63.767 15.568 L 63.734 16.273 L 64.425 16.419 C 64.578 16.452 64.975 16.564 65.228 16.628 C 65.194 16.698 65.149 16.734 65.115 16.808 C 64.736 17.642 64.408 18.685 64.109 19.957 C 63.588 22.159 63.351 24.122 63.416 25.861 L 63.417 25.921 C 63.148 25.870 62.910 25.743 62.630 25.718 L 62.626 25.718 L 62.625 25.718 C 62.070 25.674 61.584 25.693 61.130 25.837 C 60.677 25.982 60.236 26.309 60.027 26.769 C 59.742 27.397 59.806 28.147 60.121 28.767 L 60.123 28.771 L 60.125 28.773 C 60.460 29.421 61.041 29.914 61.75 30.236 C 62.029 30.363 62.334 30.465 62.667 30.550 C 63.504 30.763 64.345 30.864 65.181 30.849 L 65.183 30.849 L 65.187 30.849 C 65.691 30.837 66.121 30.786 66.515 30.650 C 66.909 30.513 67.314 30.253 67.515 29.810 C 67.814 29.152 67.573 28.399 67.152 27.845 L 67.150 27.843 C 66.798 27.376 66.225 27.053 65.652 26.728 C 65.659 26.729 65.662 26.727 65.669 26.728 L 65.664 26.726 C 66.206 26.785 66.655 26.843 67.005 26.898 L 67.716 27.011 L 67.929 26.322 C 68.177 25.515 68.483 24.705 68.853 23.892 C 69.566 22.323 70.393 20.838 71.332 19.431 L 71.332 19.429 L 71.333 19.429 C 72.284 17.999 73.172 16.921 73.964 16.207 L 74.251 15.947 L 74.238 15.558 C 74.229 15.329 74.036 14.895 73.703 14.744 L 73.521 14.662 L 73.320 14.671 C 72.488 14.710 71.220 14.604 69.574 14.337 L 69.572 14.337 C 67.869 14.058 66.650 13.736 66.009 13.445 C 66.003 13.442 65.948 13.415 65.875 13.375 C 65.791 13.329 65.817 13.335 65.681 13.273 C 65.575 13.225 65.430 13.157 65.167 13.187 z " style="font-style:normal;font-variant:normal;font-weight:normal;font-stretch:semi-expanded;font-size:medium;line-height:125%;font-family:Ravie;-inkscape-font-specification:'Ravie Semi-Expanded';text-indent:0;text-align:start;text-decoration:none;text-decoration-line:none;text-decoration-style:letter-spacing:0px;word-spacing:0px;text-transform:none;direction:ltr;block-progression:tb;writing-mode:lr-tb;baseline-shift:baseline;text-anchor:start;white-space:normal;fill:#ffffff;fill-rule:nonzero;stroke:#000000;stroke-width:0.5;stroke-linecap:butt;" />
 <path d="m 73.407,15.589 q -1.303,1.176 -2.766,3.379 -1.446,2.166 -2.543,4.579 -0.575,1.265 -0.962,2.529 -0.553,-0.086 -1.380,-0.177 -0.903,-0.091 -1.506,-0.069 -0.090,-2.458 0.671,-5.683 0.437,-1.856 0.954,-2.994 0.327,-0.719 0.641,-1.048 -1.325,-0.371 -1.916,-0.497 0.014,-0.322 0.370,-1.106 0.111,-0.245 0.251,-0.456 0.024,-0.054 0.115,-0.013 0.018,0.008 0.141,0.075 0.123,0.067 0.187,0.096 1.165,0.529 3.773,0.957 2.517,0.408 3.920,0.342 0.045,0.020 0.048,0.087 z m -6.649,13.877 q -0.235,0.519 -1.591,0.551 -1.140,0.019 -2.293,-0.273 -0.442,-0.113 -0.779,-0.266 -0.874,-0.397 -1.230,-1.087 -0.347,-0.685 -0.078,-1.277 0.310,-0.682 1.774,-0.567 1.226,0.106 2.273,0.582 1.129,0.513 1.656,1.214 0.489,0.639 0.269,1.122 z" style="font-style:normal;font-variant:normal;font-weight:normal;font-stretch:semi-expanded;font-size:medium;line-height:125%;font-family:Ravie;-inkscape-font-specification:'Ravie Semi-Expanded';letter-spacing:0px;word-spacing:0px;fill:#d18708;fill-rule:nonzero;stroke-width:0.862px;stroke-linecap:butt;" id="path4338-6" />
 </g>
</svg>
