<?xml version="1.0" encoding="UTF-8" standalone="no"?>
<svg xmlns:dc="http://purl.org/dc/elements/1.1/" xmlns:cc="http://creativecommons.org/ns#" xmlns:rdf="http://www.w3.org/1999/02/22-rdf-syntax-ns#" xmlns:svg="http://www.w3.org/2000/svg" xmlns="http://www.w3.org/2000/svg" height="100%" width="100%" version="1.1" id="svg2" viewBox="0 0 40 30">
 <defs id="defs4" />
 <g id="layer1">
 <rect ry="0" rx="0" y="0" x="0" height="30" width="40" id="rect4625" style="fill:#2b3338;stroke-width:4.300;stroke-linecap:butt;marker:none;" />
 <path id="path3586-9" d="M 24.927 0.404 C 23.267 0.404 21.916 2.727 21.894 5.605 C 21.317 6.234 20.825 6.927 20.412 7.664 C 18.394 4.501 14.804 2.388 10.701 2.388 C 7.615 2.388 4.819 3.585 2.761 5.521 C 1.504 4.438 0.533 4.079 -0.126 4.210 C -1.541 4.492 -1.566 6.827 -0.132 8.066 C -0.908 8.952 -0.767 9.778 -0.216 10.201 C -0.553 11.249 -0.734 12.363 -0.734 13.519 C -0.734 14.444 -0.767 15.248 -0.767 16.238 L -0.767 20.318 C -0.767 22.533 0.584 24.409 2.529 25.25 A 2.506 2.506 0 0 0 2.548 25.421 A 2.506 2.506 0 0 0 4.503 27.503 C 4.327 28.149 4.207 28.756 4.207 29.244 C 4.207 31.142 4.269 32.021 4.269 32.755 L 17.457 32.755 C 17.457 32.021 17.519 31.142 17.519 29.244 C 17.519 28.858 17.429 28.385 17.310 27.890 C 17.621 27.530 17.713 27.107 17.490 26.818 C 17.482 26.808 17.467 26.804 17.458 26.794 A 2.506 2.506 0 0 0 18.119 25.507 C 18.573 25.380 18.994 25.184 19.392 24.957 C 19.562 25.059 19.754 25.145 19.976 25.191 C 20.168 25.231 20.357 25.242 20.533 25.226 C 20.945 25.499 21.432 25.659 21.955 25.691 L 23.644 27.296 C 23.755 27.402 23.877 27.489 24.003 27.564 C 23.733 28.415 23.564 29.233 23.650 29.853 C 23.893 31.615 24.218 32.655 24.400 33.384 L 29.212 33.384 C 29.261 32.972 29.725 32.634 30.306 32.634 C 30.888 32.634 31.351 32.972 31.400 33.384 L 36.244 33.384 C 36.391 32.797 36.609 31.986 36.816 30.779 C 37.103 30.807 37.392 30.738 37.648 30.548 C 38.503 29.791 39.137 28.292 38.083 26.718 C 38.079 26.712 38.066 26.714 38.058 26.710 C 38.046 26.646 38.020 26.583 37.976 26.521 L 36.195 24.025 C 36.110 23.906 36.013 23.802 35.910 23.708 C 35.958 23.679 36.010 23.653 36.058 23.623 C 36.433 24.372 37.068 25.201 38.099 25.345 C 38.024 24.754 37.435 23.830 37.140 22.837 C 38.452 21.771 39.513 20.429 40.201 18.878 C 40.863 19.341 41.538 19.176 41.996 18.818 C 41.527 18.589 41.187 17.577 40.943 16.429 C 41.047 15.836 41.097 15.238 41.097 14.617 C 41.097 13.993 41.036 13.384 40.931 12.791 C 41.102 12.680 41.208 12.566 41.240 12.449 L 41.240 12.240 C 41.229 12.087 41.206 11.938 41.189 11.787 L 41.867 11.787 C 41.676 10.382 41.214 9.046 40.578 7.841 L 39.990 7.841 C 39.617 7.130 39.173 6.461 38.660 5.851 C 38.661 5.793 38.660 5.734 38.660 5.675 C 38.660 2.764 37.303 0.404 35.628 0.404 C 34.694 0.404 33.849 1.168 33.292 2.324 C 32.274 2.018 31.201 1.871 30.085 1.871 C 29.082 1.936 28.150 2.107 27.263 2.359 C 26.707 1.183 25.871 0.404 24.927 0.404 z " style="fill:none;stroke:#f4f4f4;stroke-width:2.6;stroke-linecap:butt;marker:none;" />
 <g transform="translate(-0.906,25.071)" id="g3500">
 <path style="fill:#2c2ea0;stroke:#000000;stroke-width:0.5;stroke-linecap:butt;marker:none;" d="m 11.607,-22.681 c -6.312,0 -11.435,4.986 -11.435,11.129 0,0.924 -0.032,1.729 -0.032,2.719 l 0,4.078 c 0,3.011 2.493,5.406 5.587,5.406 l 11.727,0 c 3.094,0 5.587,-2.395 5.587,-5.406 l 0,-4.078 c 0,-0.838 0,-1.725 0,-2.719 0,-6.143 -5.122,-11.129 -11.435,-11.129 z" id="path3586" />
 <path style="fill:#61411f;stroke-width:0.5;marker:none;" d="m 8.042,6.331 c -1.343,0 -2.437,0.841 -2.437,1.875 0,0.173 0.036,0.964 0.093,1.123 1.562,0.420 3.124,0.411 4.687,0 0.056,-0.157 0.093,-0.952 0.093,-1.123 0,-1.033 -1.094,-1.875 -2.437,-1.875 z" id="path3624" />
 <path style="fill:#ffc78f;stroke-width:0.5;marker:none;" d="m 8.030,6.343 c -1.343,0 -2.437,0.841 -2.437,1.875 0,0.057 0.023,0.225 0.031,0.375 1.608,0.402 3.235,0.396 4.843,0 0.007,-0.149 0,-0.317 0,-0.375 0,-1.033 -1.094,-1.874 -2.437,-1.875 z" id="path3626" />
 <path id="path3628" d="m 8.042,6.331 c -1.343,0 -2.437,0.841 -2.437,1.875 0,0.173 0.036,0.964 0.093,1.123 1.562,0.420 3.124,0.411 4.687,0 0.056,-0.157 0.093,-0.952 0.093,-1.123 0,-1.033 -1.094,-1.875 -2.437,-1.875 z" style="fill:none;stroke:#000000;stroke-width:0.5;stroke-linecap:round;marker:none;" />
 <path id="path3630" d="m 15.421,6.331 c 1.343,0 2.437,0.841 2.437,1.875 0,0.173 -0.036,0.964 -0.093,1.123 -1.562,0.420 -3.125,0.411 -4.687,0 -0.056,-0.157 -0.093,-0.952 -0.093,-1.123 0,-1.033 1.094,-1.875 2.437,-1.875 z" style="fill:#61411f;stroke-width:0.5;marker:none;" />
 <path id="path3632" d="m 15.433,6.343 c 1.343,0 2.437,0.841 2.437,1.875 0,0.057 -0.023,0.225 -0.031,0.375 -1.608,0.402 -3.235,0.396 -4.843,0 -0.007,-0.149 0,-0.317 0,-0.375 0,-1.033 1.094,-1.874 2.437,-1.875 z" style="fill:#ffc78f;stroke-width:0.5;marker:none;" />
 <path style="fill:none;stroke:#000000;stroke-width:0.5;stroke-linecap:round;marker:none;" d="m 15.421,6.331 c 1.343,0 2.437,0.841 2.437,1.875 0,0.173 -0.036,0.964 -0.093,1.123 -1.562,0.420 -3.125,0.411 -4.687,0 -0.056,-0.157 -0.093,-0.952 -0.093,-1.123 0,-1.033 1.094,-1.875 2.437,-1.875 z" id="path3634" />
 <path id="path3576" transform="translate(0.906,-25.071)" d="M 8.144 21.837 C 7.075 21.878 6.611 22.071 6.269 22.869 C 6.268 22.871 6.266 22.876 6.265 22.878 A 2.506 2.506 0 0 0 4.660 22.576 A 2.506 2.506 0 0 0 2.548 25.421 A 2.506 2.506 0 0 0 4.503 27.503 C 4.327 28.149 4.207 28.756 4.207 29.244 C 4.207 31.142 4.269 32.021 4.269 32.755 L 17.457 32.755 C 17.457 32.021 17.519 31.142 17.519 29.244 C 17.519 28.656 17.346 27.896 17.105 27.101 A 2.506 2.506 0 0 0 18.134 24.689 A 2.506 2.506 0 0 0 15.289 22.576 A 2.506 2.506 0 0 0 15.287 22.576 C 14.956 22.042 14.491 21.872 13.582 21.837 C 12.686 21.833 11.790 21.826 10.894 21.837 C 10.873 21.837 10.852 21.838 10.832 21.837 C 9.936 21.826 9.040 21.833 8.144 21.837 z " style="fill:#447821;stroke-width:0.5;marker:none;" />
 <path id="path3146" transform="translate(0.906,-25.071)" d="M 14.527 21.986 C 14.366 22.286 14.369 22.615 14.617 22.740 C 14.831 22.847 15.075 22.737 15.234 22.511 C 15.055 22.252 14.829 22.087 14.527 21.986 z M 5.070 22.550 A 2.506 2.506 0 0 0 4.916 22.554 C 5.067 22.826 5.099 23.159 4.937 23.439 C 4.690 23.866 4.120 23.999 3.693 23.751 C 3.493 23.636 3.364 23.447 3.302 23.238 A 2.506 2.506 0 0 0 2.648 24.271 C 2.916 24.349 3.252 24.289 3.537 24.062 C 3.460 24.610 3.685 25.071 4.121 25.072 C 4.563 25.072 4.865 24.617 4.781 24.062 C 5.217 24.403 5.768 24.400 5.986 24.023 C 6.207 23.641 5.924 23.179 5.402 22.974 C 5.575 22.903 5.711 22.798 5.822 22.681 A 2.506 2.506 0 0 0 5.070 22.550 z M 15.714 22.550 A 2.506 2.506 0 0 0 15.570 22.554 C 15.744 22.712 15.958 22.776 16.132 22.662 C 16.154 22.647 16.162 22.623 16.179 22.605 A 2.506 2.506 0 0 0 15.714 22.550 z M 4.638 22.580 A 2.506 2.506 0 0 0 3.548 23.035 C 3.570 23.229 3.669 23.414 3.847 23.517 C 4.141 23.687 4.532 23.579 4.703 23.285 C 4.834 23.058 4.796 22.776 4.638 22.580 z M 12.664 23.462 C 12.632 23.455 12.598 23.470 12.566 23.468 L 11.996 24.414 C 12.019 24.504 12.041 24.594 12.089 24.683 C 12.010 24.657 11.934 24.655 11.857 24.644 L 11.222 25.697 C 11.393 25.831 11.629 25.920 11.894 25.927 C 11.482 26.298 11.368 26.813 11.701 27.093 C 12.039 27.378 12.535 27.184 12.828 26.705 C 12.943 27.246 13.352 27.630 13.761 27.482 C 14.177 27.332 14.301 26.770 14.033 26.277 C 14.560 26.448 15.083 26.278 15.160 25.849 C 15.237 25.414 14.789 25.047 14.228 25.033 C 14.637 24.662 14.754 24.147 14.421 23.867 C 14.083 23.582 13.587 23.776 13.294 24.255 C 13.208 23.849 12.957 23.533 12.664 23.462 z M 8.785 23.556 C 8.528 23.585 8.302 23.801 8.203 24.140 C 7.990 23.728 7.568 23.542 7.269 23.751 C 6.965 23.965 7.021 24.420 7.347 24.761 C 6.882 24.738 6.499 24.981 6.531 25.345 C 6.563 25.715 6.966 25.922 7.423 25.812 C 7.171 26.203 7.209 26.667 7.541 26.822 C 7.877 26.979 8.263 26.729 8.396 26.277 C 8.608 26.691 8.991 26.876 9.291 26.666 C 9.595 26.452 9.578 25.997 9.251 25.656 C 9.689 25.678 10.041 25.459 10.056 25.130 L 9.789 24.679 C 9.613 24.582 9.378 24.548 9.134 24.607 C 9.322 24.316 9.370 23.984 9.246 23.769 L 9.240 23.759 C 9.197 23.690 9.137 23.633 9.056 23.595 C 8.972 23.556 8.870 23.547 8.785 23.556 z M 17.941 24.035 C 17.852 24.209 17.793 24.410 17.804 24.644 C 17.368 24.229 16.760 24.145 16.482 24.529 C 16.199 24.920 16.442 25.454 16.988 25.734 C 16.408 25.903 16.055 26.388 16.25 26.822 C 16.391 27.138 16.748 27.262 17.128 27.189 C 17.119 27.159 17.114 27.132 17.105 27.101 A 2.506 2.506 0 0 0 17.671 26.542 C 17.490 26.339 17.386 26.065 17.416 25.773 C 17.459 25.344 17.766 25.030 18.160 24.945 A 2.506 2.506 0 0 0 18.134 24.689 A 2.506 2.506 0 0 0 17.941 24.035 z M 8.318 24.451 C 8.415 24.454 8.534 24.485 8.628 24.529 C 9.005 24.704 9.155 25.162 8.980 25.539 C 8.805 25.915 8.344 26.064 7.968 25.888 C 7.592 25.713 7.443 25.255 7.619 24.878 C 7.750 24.596 8.025 24.440 8.318 24.451 z M 12.867 24.607 C 12.980 24.581 13.095 24.585 13.216 24.607 C 13.702 24.694 14.041 25.170 13.955 25.656 C 13.868 26.142 13.392 26.442 12.906 26.355 C 12.420 26.268 12.120 25.831 12.207 25.345 C 12.271 24.981 12.527 24.684 12.867 24.607 z M 8.318 24.683 C 8.116 24.676 7.903 24.801 7.812 24.996 C 7.691 25.255 7.827 25.574 8.085 25.695 C 8.344 25.816 8.664 25.682 8.785 25.423 C 8.905 25.164 8.771 24.843 8.513 24.722 C 8.448 24.692 8.385 24.686 8.318 24.683 z M 12.945 24.878 C 12.711 24.932 12.523 25.133 12.478 25.384 C 12.418 25.719 12.610 26.024 12.945 26.083 C 13.280 26.143 13.623 25.951 13.683 25.617 C 13.743 25.282 13.512 24.938 13.177 24.878 C 13.094 24.863 13.023 24.861 12.945 24.878 z M 18.152 25.248 C 17.924 25.337 17.753 25.551 17.726 25.812 C 17.709 25.981 17.757 26.138 17.845 26.267 A 2.506 2.506 0 0 0 18.152 25.248 z M 4.666 26.431 C 4.613 26.439 4.561 26.454 4.509 26.472 C 4.157 26.599 4.057 26.996 4.193 27.414 A 2.506 2.506 0 0 0 4.503 27.503 C 4.327 28.149 4.207 28.756 4.207 29.244 C 4.207 29.660 4.216 29.877 4.220 30.205 C 4.505 30.203 4.814 30.024 5.013 29.699 C 5.129 30.240 5.537 30.585 5.947 30.437 C 6.362 30.287 6.448 29.764 6.179 29.271 C 6.706 29.442 7.232 29.272 7.308 28.843 C 7.386 28.408 6.974 28.041 6.414 28.027 C 6.822 27.656 6.939 27.102 6.607 26.822 C 6.269 26.537 5.734 26.731 5.441 27.210 C 5.354 26.804 5.113 26.499 4.820 26.433 C 4.771 26.422 4.718 26.423 4.666 26.431 z M 5.052 27.599 C 5.166 27.573 5.280 27.577 5.402 27.599 C 5.888 27.686 6.190 28.125 6.103 28.611 C 6.016 29.097 5.577 29.436 5.091 29.349 C 4.605 29.262 4.266 28.784 4.353 28.298 C 4.418 27.934 4.712 27.677 5.052 27.599 z M 10.417 27.716 C 9.938 27.667 9.571 28.154 9.601 28.765 C 9.165 28.350 8.595 28.266 8.318 28.650 C 8.035 29.041 8.278 29.614 8.824 29.894 C 8.244 30.064 7.852 30.548 8.046 30.982 C 8.244 31.421 8.854 31.469 9.369 31.138 C 9.226 31.725 9.478 32.295 9.951 32.343 C 10.430 32.392 10.758 31.904 10.728 31.292 C 11.165 31.710 11.772 31.795 12.050 31.410 C 12.333 31.019 12.090 30.445 11.544 30.166 C 12.124 29.996 12.477 29.511 12.283 29.078 C 12.085 28.637 11.516 28.589 11.001 28.921 C 11.145 28.334 10.890 27.765 10.417 27.716 z M 5.091 27.873 C 4.857 27.926 4.669 28.086 4.625 28.337 C 4.565 28.672 4.796 29.018 5.130 29.078 C 5.465 29.137 5.770 28.906 5.830 28.572 C 5.889 28.237 5.698 27.932 5.363 27.873 C 5.279 27.858 5.169 27.855 5.091 27.873 z M 16.132 27.988 C 15.811 28.045 15.533 28.367 15.433 28.804 C 15.134 28.297 14.591 28.049 14.228 28.337 C 13.860 28.629 13.946 29.214 14.382 29.621 C 13.793 29.626 13.305 29.979 13.373 30.437 C 13.441 30.902 14.007 31.118 14.578 30.943 C 14.288 31.456 14.340 32.055 14.771 32.226 C 15.209 32.399 15.688 32.031 15.822 31.449 C 16.121 31.956 16.664 32.164 17.027 31.876 C 17.396 31.584 17.308 31.000 16.871 30.593 C 17.119 30.591 17.331 30.525 17.501 30.425 C 17.507 30.081 17.516 29.807 17.517 29.357 C 17.297 29.221 17.000 29.172 16.677 29.271 C 16.964 28.759 16.912 28.197 16.482 28.027 C 16.373 27.984 16.239 27.969 16.132 27.988 z M 10.300 29.039 C 10.836 29.093 11.211 29.590 11.156 30.126 C 11.101 30.662 10.643 31.037 10.107 30.982 C 9.571 30.927 9.157 30.467 9.212 29.931 C 9.267 29.395 9.764 28.984 10.300 29.039 z M 15.511 29.193 C 16.031 29.116 16.483 29.450 16.560 29.970 C 16.637 30.490 16.303 30.983 15.783 31.060 C 15.263 31.137 14.772 30.803 14.695 30.283 C 14.618 29.763 14.991 29.270 15.511 29.193 z M 10.261 29.349 C 9.892 29.311 9.561 29.562 9.523 29.931 C 9.485 30.300 9.738 30.634 10.107 30.671 C 10.476 30.709 10.807 30.456 10.845 30.087 C 10.883 29.718 10.630 29.387 10.261 29.349 z M 15.548 29.466 C 15.190 29.519 14.952 29.847 15.005 30.205 C 15.058 30.563 15.386 30.840 15.744 30.787 C 16.102 30.734 16.341 30.406 16.289 30.048 C 16.236 29.690 15.906 29.413 15.548 29.466 z M 7.230 31.720 C 6.974 31.749 6.707 31.965 6.607 32.304 C 6.394 31.892 6.013 31.667 5.714 31.876 C 5.457 32.057 5.442 32.435 5.638 32.755 L 6.285 32.755 C 6.427 32.661 6.597 32.609 6.763 32.615 C 6.861 32.618 6.941 32.649 7.035 32.693 C 7.069 32.709 7.092 32.736 7.123 32.755 L 7.587 32.755 C 7.829 32.368 7.790 31.912 7.462 31.759 C 7.378 31.720 7.315 31.711 7.230 31.720 z M 13.177 32.226 C 12.946 32.252 12.715 32.465 12.597 32.755 L 13.683 32.755 C 13.678 32.558 13.594 32.389 13.412 32.304 C 13.327 32.265 13.263 32.216 13.177 32.226 z M 11.865 32.341 C 11.780 32.343 11.697 32.367 11.623 32.419 C 11.510 32.498 11.461 32.622 11.443 32.755 L 12.490 32.755 C 12.326 32.504 12.090 32.336 11.865 32.341 z M 7.908 32.738 C 7.853 32.735 7.792 32.749 7.734 32.755 L 7.984 32.755 C 7.957 32.751 7.936 32.739 7.908 32.738 z " style="fill:#a3a532;stroke-width:1;stroke-linecap:butt;filter-blend-mode:normal;filter-gaussianBlur-deviation:0;" />
 <path style="fill:#ffc78f;stroke:none" d="m 8.993,-3.245 2.718,4.562 2.75,-4.562 c -0.885,-0.004 -1.770,-0.011 -2.656,0 -0.020,-2.9e-4 -0.041,2.8e-4 -0.062,0 -0.895,-0.011 -1.791,-0.004 -2.687,0 -0.023,9.2e-4 -0.039,-10e-4 -0.062,0 z" id="path3580" />
 <path id="path3582" d="m 8.993,-3.245 2.718,4.562 2.75,-4.562" style="fill:none;stroke:#000000;stroke-width:0.5;stroke-linecap:butt;stroke-linejoin:round;stroke-opacity:1" />
 <path id="path3584" transform="translate(0.906,-25.071)" d="M 8.144 21.837 C 7.075 21.878 6.611 22.071 6.269 22.869 C 6.268 22.871 6.266 22.876 6.265 22.878 A 2.506 2.506 0 0 0 4.660 22.576 A 2.506 2.506 0 0 0 2.548 25.421 A 2.506 2.506 0 0 0 4.503 27.503 C 4.327 28.149 4.207 28.756 4.207 29.244 C 4.207 31.142 4.269 32.021 4.269 32.755 L 17.457 32.755 C 17.457 32.021 17.519 31.142 17.519 29.244 C 17.519 28.656 17.346 27.896 17.105 27.101 A 2.506 2.506 0 0 0 18.134 24.689 A 2.506 2.506 0 0 0 15.289 22.576 A 2.506 2.506 0 0 0 15.287 22.576 C 14.956 22.042 14.491 21.872 13.582 21.837 C 12.686 21.833 11.790 21.826 10.894 21.837 C 10.873 21.837 10.852 21.838 10.832 21.837 C 9.936 21.826 9.040 21.833 8.144 21.837 z " style="fill:none;stroke:#000000;stroke-width:0.5;stroke-linecap:butt;marker:none;" />
 <path id="path3588" d="m 4.932,-16.112 c -0.249,1.170 0.329,5.840 -1.213,10.351 1.767,2.702 4.583,4.653 7.791,4.653 3.249,0 6.125,-1.992 7.887,-4.748 -1.542,-3.007 -1.364,-5.230 -1.500,-6.014 -2.473,0.185 -10.871,-2.568 -12.964,-4.241 z" style="fill:#ffc78f;stroke:#000000;stroke-width:0.5;stroke-linecap:round;stroke-linejoin:round;marker:none;" />
 <ellipse ry="1.592" rx="1.606" cy="-5.695" cx="6.115" style="fill:#fa9763;stroke-width:0.500;marker:none;" id="path3590" />
 <path style="fill:none;stroke:#000000;stroke-width:0.500;stroke-linecap:round;stroke-opacity:1" d="m 10.562,-5.461 c 0,0.298 0.129,0.597 0.345,0.726" id="path3593" />
 <path style="fill:#ffffff;stroke:#000000;stroke-width:0.500;stroke-linecap:round;stroke-linejoin:round;marker:none;" d="m 9.295,-8.650 c 0.496,1.746 0.210,1.562 -1.090,1.924 -0.837,0.233 -1.708,-0.250 -1.943,-1.079 -0.235,-0.829 0.253,-1.691 1.090,-1.924 0.837,-0.233 1.708,0.250 1.943,1.079 z" id="path3597" />
 <ellipse ry="1.040" rx="1.050" cy="-8.235" cx="8.384" style="fill:#000000;stroke-width:0.5;marker:none;" id="path3599" />
 <ellipse ry="0.417" rx="0.442" cy="-8.538" cx="8.121" style="fill:#ffffff;stroke-width:0.5;marker:none;" id="path3601" />
 <ellipse ry="1.592" rx="1.606" cy="-5.695" cx="-16.865" transform="scale(-1,1)" id="path3605" style="fill:#fa9763;stroke-width:0.500;marker:none;" />
 <path id="path3607" d="m 13.685,-8.650 c -0.496,1.746 -0.210,1.562 1.090,1.924 0.837,0.233 1.708,-0.250 1.943,-1.079 0.235,-0.829 -0.253,-1.691 -1.090,-1.924 -0.837,-0.233 -1.708,0.250 -1.943,1.079 z" style="fill:#ffffff;stroke:#000000;stroke-width:0.500;stroke-linecap:round;stroke-linejoin:round;marker:none;" />
 <ellipse ry="1.040" rx="1.050" cy="-8.235" cx="-15.659" transform="scale(-1,1)" id="path3609" style="fill:#000000;stroke-width:0.5;marker:none;" />
 <ellipse ry="0.417" rx="0.442" cy="-8.538" cx="-15.239" transform="scale(-1,1)" id="path3611" style="fill:#ffffff;stroke-width:0.5;marker:none;" />
 <path style="fill:#d40000;stroke-width:0.5;marker:none;" d="m 0.778,-20.860 c -1.414,0.281 -1.438,2.617 -0.005,3.856 -1.945,2.223 1.829,4.109 3.557,0.027 0.184,0.236 0.490,0.377 0.811,0.325 l 0.721,-0.116 c 0.344,-0.055 0.610,-0.311 0.694,-0.624 2.940,3.406 5.971,0.403 3.412,-1.100 1.454,-2.441 -0.996,-6.173 -3.750,-1.220 -0.158,-0.328 -0.523,-0.518 -0.906,-0.456 l -0.721,0.116 c -0.369,0.059 -0.642,0.335 -0.704,0.680 -1.371,-1.246 -2.408,-1.627 -3.109,-1.488 z" id="rect3649" />
 <path style="fill:none;stroke:#000000;stroke-width:0.5;stroke-linecap:butt;stroke-opacity:1" d="m 0.778,-20.860 c -1.414,0.281 -1.438,2.616 -0.005,3.855 -1.945,2.223 1.829,4.109 3.557,0.027 0.184,0.236 0.490,0.377 0.811,0.325 l 0.721,-0.116 c 0.344,-0.055 0.610,-0.311 0.694,-0.624 2.940,3.406 5.971,0.403 3.412,-1.100 1.454,-2.441 -0.996,-6.173 -3.750,-1.220 -0.158,-0.328 -0.523,-0.518 -0.906,-0.456 l -0.721,0.116 c -0.369,0.059 -0.642,0.335 -0.704,0.680 -1.371,-1.246 -2.408,-1.627 -3.109,-1.488 z" id="path3643" />
 <path style="fill:none;stroke:#000000;stroke-width:0.5;stroke-linecap:round;stroke-linejoin:round;stroke-opacity:1" d="m 2.260,-18.459 c 0.708,-0.195 1.720,-0.035 1.720,-0.035 l 0,0 c -0.087,-0.382 -0.086,-0.801 -0.067,-0.894" id="path3659" />
 <path style="fill:none;stroke:#000000;stroke-width:0.5;stroke-linecap:round;stroke-linejoin:round;stroke-opacity:1" d="m 6.334,-19.237 c 0.039,0.242 -0.036,0.481 0.302,0.313 0.339,-0.168 1.145,-0.434 1.534,-0.293" id="path3661" />
 <path id="path3754-34" d="m 7.887,-3.831 c 0.640,1.188 2.013,2.005 3.624,2.005 1.610,0 3.013,-0.817 3.653,-2.005 -1.149,0.115 -2.374,0.195 -3.653,0.195 -1.278,0 -2.475,-0.079 -3.624,-0.195 z" style="fill:#ffffff;stroke:#000000;stroke-width:0.5;stroke-linecap:round;stroke-linejoin:round;marker:none;" />
 <path id="path3759-6" d="m 8.358,-3.221 c 1.574,0.511 4.487,0.551 6.219,0.039" style="fill:none;stroke:#000000;stroke-width:0.400;stroke-linecap:butt;stroke-opacity:1" />
 <path id="path4531" d="m 5.914,-9.211 3.957,0.832 0.627,-0.593 c 0,0 0.415,-1.561 -1.957,-2.153 C 6.168,-11.716 4.627,-9.555 5.914,-9.211 Z" style="fill:#ffc78f;stroke:none" />
 <path id="path4529" d="m 5.702,-9.220 c 0,0 2.870,0.585 3.570,0.800 0.699,0.214 1.055,-0.200 1.188,-0.538" style="fill:none;stroke:#000000;stroke-width:0.5;stroke-linecap:round;stroke-opacity:1" />
 <path style="fill:#ffc78f;stroke:none" d="m 16.908,-9.733 -3.912,1.022 -0.655,-0.562 c 0,0 -0.490,-1.539 1.851,-2.245 2.341,-0.705 3.984,1.378 2.716,1.784 z" id="path3656" />
 <path style="fill:none;stroke:#000000;stroke-width:0.5;stroke-linecap:round;stroke-opacity:1" d="m 17.119,-9.753 c 0,0 -2.839,0.723 -3.527,0.971 -0.688,0.248 -1.063,-0.149 -1.212,-0.480" id="path3658" />
 <circle transform="matrix(0.146,0.989,-0.989,0.146,0,0)" id="path3522" style="fill:#ffc78f;stroke:#000000;stroke-width:0.5;stroke-linecap:round;marker:none;" cx="2.097" cy="-7.644" r="2.588" />
 <circle r="2.588" cy="12.536" cx="-9.077" style="fill:#ffc78f;stroke:#000000;stroke-width:0.5;stroke-linecap:round;marker:none;" id="circle3739" transform="matrix(-0.682,0.731,0.731,0.682,0,0)" />
 <g id="g3759">
 <path id="path3927" d="m 6.221,18.247 0,4.061 c 0,2.553 1.571,4.617 3.516,4.617 l 1.677,0 c 1.945,0 3.500,-2.063 3.500,-4.617 l 0,-4.061 -8.694,0 z" style="fill:#64a6a6;fill-rule:nonzero;stroke-width:0.5;marker:none;" />
 <path id="path3929" d="M 5.890,0.650 C 5.755,1.102 5.679,1.585 5.679,2.082 c 0,2.424 1.741,4.433 4.021,4.852 l 0,12.698 c 0.643,0.644 1.230,0.662 1.756,0 l 0,-12.698 c 2.280,-0.418 4.000,-2.428 4.000,-4.852 0,-0.496 -0.076,-0.980 -0.211,-1.432 z m 1.672,1.646 6.011,0 c 0.087,0.234 0.148,0.490 0.148,0.748 0,1.417 -1.413,2.565 -3.153,2.565 -1.740,0 -3.153,-1.148 -3.153,-2.565 0,-0.258 0.061,-0.513 0.148,-0.748 z" style="fill:#916f6f;fill-rule:nonzero;stroke-width:0.5;marker:none;" />
 <path id="path3931" d="m 7.499,0.650 0,1.859 c 0.020,-0.072 0.037,-0.144 0.063,-0.213 l 6.011,0 c 0.015,0.041 0.028,0.085 0.042,0.128 l 0,-1.774 -6.117,0 z m 0,2.950 0,0.128 0.042,0 c -0.014,-0.043 -0.030,-0.084 -0.042,-0.128 z m 6.117,0.064 c -0.006,0.022 -0.013,0.042 -0.021,0.064 l 0.021,0 0,-0.064 z" style="fill:#784421;fill-rule:nonzero;stroke-width:0.5;marker:none;" />
 <ellipse ry="0.408" rx="0.404" cy="19.103" cx="10.568" id="path3933" style="fill:#4d4d4d;fill-rule:nonzero;stroke-width:0.5;marker:none;" />
 <path id="path3935" d="M 5.890,0.650 C 5.755,1.102 5.679,1.585 5.679,2.082 c 0,2.424 1.741,4.433 4.021,4.852 l 0,11.308 -3.471,0 0,4.061 c 0,2.553 1.568,4.617 3.513,4.617 l 1.672,0 c 1.945,0 3.492,-2.063 3.492,-4.617 l 0,-4.061 -3.450,0 0,-11.308 c 2.280,-0.418 4.000,-2.428 4.000,-4.852 0,-0.496 -0.076,-0.980 -0.211,-1.432 l -9.355,0 z m 1.672,1.646 6.011,0 c 0.087,0.234 0.148,0.490 0.148,0.748 0,1.417 -1.413,2.565 -3.153,2.565 -1.740,0 -3.153,-1.148 -3.153,-2.565 0,-0.258 0.061,-0.513 0.148,-0.748 z" style="fill:none;stroke:#000000;stroke-width:0.5;marker:none;" />
 </g>
 <path id="path3525" d="m 11.025,-0.149 c -0.078,-0.781 -0.568,-1.357 -1.075,-1.293 -0.215,0.026 -0.403,0.184 -0.541,0.396 -0.276,-0.693 -0.819,-1.145 -1.317,-1.005 -0.348,0.097 -0.569,0.459 -0.653,0.918 -0.322,-0.317 -0.740,-0.475 -1.093,-0.343 -0.374,0.139 -0.554,0.571 -0.569,1.063 -0.176,-0.084 -0.379,-0.139 -0.548,-0.076 -0.424,0.156 -0.564,0.740 -0.337,1.345 0.226,0.604 0.741,0.994 1.166,0.838 0.212,-0.078 0.365,-0.256 0.430,-0.505 0.290,0.216 0.647,0.286 0.942,0.176 0.265,-0.098 0.420,-0.336 0.505,-0.643 0.281,0.316 0.613,0.490 0.943,0.397 0.189,-0.053 0.361,-0.206 0.479,-0.386 0.199,0.431 0.533,0.703 0.887,0.658 0.507,-0.064 0.861,-0.755 0.783,-1.537 z" style="fill:#ffc78f;stroke:#000000;stroke-width:0.5;stroke-linecap:round;marker:none;" />
 <ellipse style="fill:#ffc78f;stroke:#000000;stroke-width:0.5;stroke-linecap:round;marker:none;" id="path3527" transform="matrix(0.462,0.886,-0.886,0.462,0,0)" cx="5.924" cy="-7.732" rx="1.511" ry="1.074" />
 <path style="fill:#ffc78f;stroke:#000000;stroke-width:0.5;stroke-linecap:round;marker:none;" d="m 13.303,-1.049 c 0.482,-0.620 1.203,-0.847 1.599,-0.523 0.168,0.137 0.243,0.370 0.247,0.623 0.602,-0.440 1.303,-0.533 1.650,-0.150 0.243,0.268 0.237,0.691 0.065,1.125 0.442,-0.097 0.879,-0.008 1.108,0.290 0.243,0.317 0.165,0.779 -0.083,1.203 0.194,0.021 0.395,0.084 0.505,0.226 0.276,0.358 0.084,0.927 -0.429,1.318 -0.513,0.391 -1.157,0.447 -1.433,0.089 C 16.395,2.975 16.360,2.742 16.438,2.496 16.077,2.525 15.738,2.395 15.546,2.145 15.374,1.919 15.370,1.636 15.461,1.331 15.054,1.450 14.681,1.420 14.451,1.166 14.318,1.020 14.255,0.799 14.250,0.583 13.852,0.843 13.425,0.895 13.149,0.669 12.753,0.344 12.821,-0.428 13.303,-1.049 Z" id="path3741" />
 <ellipse ry="1.074" rx="1.511" cy="8.145" cx="-10.821" transform="matrix(-0.883,0.467,0.467,0.883,0,0)" id="ellipse3743" style="fill:#ffc78f;stroke:#000000;stroke-width:0.5;stroke-linecap:round;marker:none;" />
 </g>
 <g transform="translate(18.425,-12.988)" id="g3537">
 <path style="fill:#ffaf00;stroke:#000000;stroke-width:0.5;stroke-linecap:butt;marker:none;" d="m 16.333,14.972 c -0.991,0.775 -1.316,1.465 -1.236,2.448 -1.063,-0.336 -2.193,-0.513 -3.370,-0.513 -6.044,0 -10.946,4.791 -10.946,10.698 0,0.061 -0.001,0.120 0,0.181 -0.543,1.668 -1.286,3.006 -2.102,3.626 0.684,0.133 1.927,-0.116 2.628,-0.513 -0.947,1.346 -0.969,2.678 -2.071,3.082 1.196,0.389 2.549,0.472 3.896,0.211 0.134,0.166 0.289,0.324 0.432,0.483 0.062,1.503 -0.103,2.664 -0.711,2.961 1.132,0.276 2.505,-0.033 3.803,-0.574 1.516,0.785 3.234,1.239 5.071,1.239 2.176,0 4.201,-0.622 5.906,-1.692 0.374,0.749 1.009,1.578 2.040,1.722 -0.075,-0.590 -0.663,-1.515 -0.958,-2.508 1.311,-1.066 2.373,-2.408 3.061,-3.959 0.662,0.462 1.335,0.297 1.793,-0.060 -0.468,-0.229 -0.807,-1.240 -1.051,-2.387 0.104,-0.592 0.154,-1.191 0.154,-1.813 0,-2.819 -1.111,-5.380 -2.937,-7.283 0.384,-0.477 0.649,-0.942 0.649,-1.148 -0.552,0.216 -1.131,0.170 -2.102,-0.060 -0.217,-0.159 -0.420,-0.339 -0.649,-0.483 -0.658,-1.160 -1.511,-3.032 -1.298,-3.656 z" id="path2591" />
 <path style="fill:#ffc78f;stroke:#000000;stroke-width:0.5;stroke-linecap:butt;marker:none;" d="m 16.466,41.970 0.836,1.130 c 0.510,0.690 1.31,0.888 1.920,0.437 0.854,-0.757 1.489,-2.256 0.435,-3.830 -0.218,-0.293 -3.192,2.263 -3.192,2.263 z" id="path3537-4" />
 <path style="fill:#9d9d9d;stroke-width:0.5;marker:none;" d="m 8.341,44.794 c -1.343,0 -2.437,0.841 -2.437,1.875 0,0.173 0.036,0.964 0.093,1.123 1.562,0.420 3.125,0.411 4.687,0 0.056,-0.157 0.093,-0.952 0.093,-1.123 0,-1.033 -1.094,-1.875 -2.437,-1.875 z" id="path4386" />
 <path style="fill:#476181;stroke-width:0.5;marker:none;" d="m 8.329,44.806 c -1.343,0 -2.437,0.841 -2.437,1.875 0,0.057 0.023,0.225 0.031,0.375 1.608,0.402 3.235,0.396 4.843,0 0.007,-0.149 0,-0.317 0,-0.375 0,-1.033 -1.094,-1.875 -2.437,-1.875 z" id="path4388" />
 <path id="path4390" d="m 8.341,44.794 c -1.343,0 -2.437,0.841 -2.437,1.875 0,0.173 0.036,0.964 0.093,1.123 1.562,0.420 3.125,0.411 4.687,0 0.056,-0.157 0.093,-0.952 0.093,-1.123 0,-1.033 -1.094,-1.875 -2.437,-1.875 z" style="fill:none;stroke:#000000;stroke-width:0.5;stroke-linecap:round;marker:none;" />
 <path id="path4392" d="m 15.212,44.794 c 1.343,0 2.437,0.841 2.437,1.875 0,0.173 -0.036,0.964 -0.093,1.123 -1.562,0.420 -3.125,0.411 -4.687,0 -0.056,-0.157 -0.093,-0.952 -0.093,-1.123 0,-1.033 1.094,-1.875 2.437,-1.875 z" style="fill:#9d9d9d;stroke-width:0.5;marker:none;" />
 <path id="path4394" d="m 15.224,44.806 c 1.343,0 2.437,0.841 2.437,1.875 0,0.057 -0.023,0.225 -0.031,0.375 -1.608,0.402 -3.235,0.396 -4.843,0 -0.007,-0.149 0,-0.317 0,-0.375 0,-1.033 1.094,-1.875 2.437,-1.875 z" style="fill:#476181;stroke-width:0.5;marker:none;" />
 <path style="fill:none;stroke:#000000;stroke-width:0.5;stroke-linecap:round;marker:none;" d="m 15.212,44.794 c 1.343,0 2.437,0.841 2.437,1.875 0,0.173 -0.036,0.964 -0.093,1.123 -1.562,0.420 -3.125,0.411 -4.687,0 -0.056,-0.157 -0.093,-0.952 -0.093,-1.123 0,-1.033 1.094,-1.875 2.437,-1.875 z" id="path4396" />
 <path id="path4305-2" transform="translate(-18.425,12.988)" d="M 23.789 22.167 C 23.385 22.199 22.874 22.685 22.306 23.285 C 21.550 24.084 20.921 24.709 21.421 25.185 L 23.644 27.296 C 23.755 27.402 23.877 27.489 24.003 27.564 C 23.733 28.415 23.564 29.233 23.650 29.853 C 23.893 31.615 24.218 32.655 24.400 33.384 L 29.212 33.384 C 29.261 32.972 29.725 32.634 30.306 32.634 C 30.888 32.634 31.351 32.972 31.400 33.384 L 36.244 33.384 C 36.426 32.655 36.719 31.615 36.962 29.853 C 37.027 29.384 36.945 28.801 36.787 28.177 C 37.660 27.554 38.318 27.000 37.976 26.521 L 36.195 24.025 C 35.842 23.530 35.308 23.251 34.75 23.201 C 34.188 22.256 33.230 22.447 30.337 22.447 L 30.275 22.447 C 29.090 22.447 28.229 22.422 27.587 22.447 C 26.519 22.488 26.054 22.681 25.712 23.478 C 25.690 23.530 25.643 23.630 25.617 23.689 L 24.154 22.300 C 24.045 22.197 23.923 22.157 23.789 22.167 z " style="fill:#3cab5a;stroke-width:0.5;marker:none;" />
 <path style="fill:#315a7a;stroke-width:0.5;marker:none;" d="m 9.167,39.287 c -0.488,0 -0.875,0.386 -0.875,0.875 l 0,1.093 c -0.491,1.269 -1.537,0.458 -3.031,0.714 -0.041,0.318 -0.067,0.613 -0.031,0.875 0.243,1.761 0.567,2.802 0.75,3.531 1.604,0 3.208,0 4.812,0 0.048,-0.412 0.512,-0.75 1.093,-0.75 0.581,0 1.044,0.337 1.093,0.75 1.614,0 3.229,0 4.843,0 0.182,-0.729 0.475,-1.769 0.718,-3.531 0.037,-0.269 0.013,-0.576 -0.031,-0.906 -1.491,-0.258 -2.540,0.585 -3.031,-0.682 l 0,-1.093 c 0,-0.488 -0.386,-0.875 -0.875,-0.875 l -5.437,0 z" id="path4307-7" />
 <path style="fill:#376e91;stroke-width:0.5;marker:none;" d="m 13.729,35.408 0,3.968 c -1e-5,0.488 0.417,0.906 0.906,0.906 l 0.312,0 c 0.488,0 0.875,-0.417 0.875,-0.906 l 0,-3.718 c -0.427,-0.233 -1.075,-0.258 -2.093,-0.25 z m -4.562,0.031 c -0.534,0.020 -0.926,0.065 -1.218,0.218 l 0,3.718 c 0,0.488 0.386,0.906 0.875,0.906 l 0.343,0 c 0.488,0 0.874,-0.417 0.875,-0.906 l 0,-3.937 c -0.259,1.2e-4 -0.666,-0.008 -0.875,0 z" id="path4309-5" />
 <path style="fill:#376e91;stroke:#000000;stroke-width:0.5;stroke-linecap:round;stroke-linejoin:round;marker:none;" d="m 10.323,40.720 c -0.488,0 -0.875,0.298 -0.875,0.674 l 0,0.699 c 0,0.376 0.416,0.545 0.875,0.674 l 1.601,0.451 1.523,-0.451 c 0.456,-0.135 0.875,-0.298 0.875,-0.674 l 0,-0.699 c 0,-0.376 -0.386,-0.674 -0.875,-0.674 l -3.125,0 z" id="path4311-6" />
 <path style="fill:none;stroke:#000000;stroke-width:0.5;stroke-linecap:round;stroke-linejoin:round;marker:none;" d="m 18.512,41.936 c -1.491,-0.258 -2.540,0.581 -3.031,-0.687 l 0,-1.093 c 0,-0.021 10e-4,-0.041 0,-0.062 0.212,-0.167 0.343,-0.429 0.343,-0.718 l 0,-3.718 m -2.093,-0.25 0,3.875 -3.687,0 0,-3.843 m -2.093,0.218 0,3.718 c 0,0.289 0.131,0.551 0.343,0.718 -10e-4,0.021 0,0.041 0,0.062 l 0,1.093 c -0.491,1.269 -1.537,0.462 -3.031,0.718" id="path4313-5" />
 <path id="path4315-5" transform="translate(-18.425,12.988)" d="M 23.789 22.167 C 23.385 22.199 22.874 22.685 22.306 23.285 C 21.550 24.084 20.921 24.709 21.421 25.185 L 23.644 27.296 C 23.755 27.402 23.877 27.489 24.003 27.564 C 23.733 28.415 23.564 29.233 23.650 29.853 C 23.893 31.615 24.218 32.655 24.400 33.384 L 29.212 33.384 C 29.261 32.972 29.725 32.634 30.306 32.634 C 30.888 32.634 31.351 32.972 31.400 33.384 L 36.244 33.384 C 36.426 32.655 36.719 31.615 36.962 29.853 C 37.027 29.384 36.945 28.801 36.787 28.177 C 37.660 27.554 38.318 27.000 37.976 26.521 L 36.195 24.025 C 35.842 23.530 35.308 23.251 34.75 23.201 C 34.188 22.256 33.230 22.447 30.337 22.447 L 30.275 22.447 C 29.090 22.447 28.229 22.422 27.587 22.447 C 26.519 22.488 26.054 22.681 25.712 23.478 C 25.690 23.530 25.643 23.630 25.617 23.689 L 24.154 22.300 C 24.045 22.197 23.923 22.157 23.789 22.167 z " style="fill:none;stroke:#000000;stroke-width:0.5;stroke-linecap:butt;marker:none;" />
 <path style="fill:#ffc78f;stroke:#000000;stroke-width:0.5;stroke-linecap:round;stroke-linejoin:round;marker:none;" d="m 12.253,22.716 c -1.427,1.047 -4.504,1.280 -5.813,1.397 -0.088,0.776 0.237,4.937 -2.386,8.504 1.66,2.841 4.508,4.950 7.771,4.950 3.208,0 6.038,-2.029 7.710,-4.798 0.004,-0.008 -0.004,-0.022 0,-0.030 -2.343,-3.841 -3.100,-7.038 -2.753,-8.990 -0.356,0.465 -1.805,1.746 -2.875,1.397 0.118,-0.465 0.244,-0.941 0.244,-0.941 0,0 -0.486,0.820 -2.508,0.820 0.237,-0.581 0.374,-1.610 0.611,-2.308 z" id="path2593" />
 <ellipse ry="1.527" rx="1.538" cy="33.075" cx="6.633" style="fill:#fa9763;stroke-width:0.500;marker:none;" id="path2595" />
 <path style="fill:none;stroke:#000000;stroke-width:0.500;stroke-linecap:round;stroke-opacity:1" d="m 10.893,33.299 c 0,0.286 0.124,0.573 0.330,0.696" id="path2597" />
 <path style="fill:#ffffff;stroke:#000000;stroke-width:0.500;stroke-linecap:round;stroke-linejoin:round;marker:none;" d="m 9.679,30.240 c 0.475,1.676 0.201,1.498 -1.045,1.846 -0.802,0.223 -1.636,-0.240 -1.862,-1.035 -0.225,-0.795 0.242,-1.622 1.045,-1.846 0.802,-0.223 1.636,0.240 1.862,1.036 z" id="path2602" />
 <ellipse ry="0.997" rx="1.006" cy="30.639" cx="8.479" style="fill:#000000;stroke-width:0.5;marker:none;" id="path2604" />
 <ellipse ry="0.400" rx="0.423" cy="30.348" cx="8.227" style="fill:#ffffff;stroke-width:0.5;marker:none;" id="path2606" />
 <path style="fill:none;stroke:#000000;stroke-width:0.500;stroke-linecap:butt;stroke-opacity:1" d="m 6.799,28.440 c 0.490,-0.539 1.307,-0.787 1.785,-0.555" id="path2608" />
 <ellipse ry="1.527" rx="1.538" cy="33.075" cx="-16.932" transform="scale(-1,1)" id="path2610" style="fill:#fa9763;stroke-width:0.500;marker:none;" />
 <path id="path2612" d="m 13.886,30.240 c -0.475,1.676 -0.201,1.498 1.045,1.846 0.802,0.223 1.636,-0.240 1.862,-1.035 0.225,-0.795 -0.242,-1.622 -1.045,-1.846 -0.802,-0.223 -1.636,0.240 -1.862,1.036 z" style="fill:#ffffff;stroke:#000000;stroke-width:0.500;stroke-linecap:round;stroke-linejoin:round;marker:none;" />
 <ellipse ry="0.997" rx="1.006" cy="30.639" cx="-15.086" transform="scale(-1,1)" id="path2614" style="fill:#000000;stroke-width:0.5;marker:none;" />
 <ellipse ry="0.400" rx="0.423" cy="30.348" cx="-14.692" transform="scale(-1,1)" id="path2616" style="fill:#ffffff;stroke-width:0.5;marker:none;" />
 <path id="path2618" d="m 16.766,28.440 c -0.490,-0.539 -1.307,-0.787 -1.785,-0.555" style="fill:none;stroke:#000000;stroke-width:0.500;stroke-linecap:butt;stroke-opacity:1" />
 <path id="path4356" d="m 6.501,13.392 c -1.660,0 -3.010,2.324 -3.032,5.202 -1.700,1.851 -2.718,4.230 -2.893,6.773 0,0.966 5.008,1.745 11.154,1.745 5.986,0 10.836,-0.744 11.084,-1.675 l 0,-0.209 c -0.170,-2.421 -1.105,-4.639 -2.579,-6.389 0.001,-0.058 0,-0.116 0,-0.174 0,-2.910 -1.357,-5.272 -3.032,-5.272 -0.934,0 -1.778,0.765 -2.335,1.920 -1.018,-0.305 -2.090,-0.453 -3.206,-0.453 -1.003,0.065 -1.936,0.237 -2.823,0.488 -0.556,-1.176 -1.391,-1.955 -2.335,-1.955 z" style="fill:#782121;stroke-width:0.5;marker:none;" />
 <path style="fill:#d35f5f;stroke:none" d="m 7.825,16.674 c -2.024,0.230 -4.217,2.502 -5.367,9.671 2.002,0.469 5.407,0.768 9.271,0.768 4.049,0 7.544,-0.329 9.480,-0.837 -2.118,-13.125 -7.734,-9.566 -9.376,-7.786 -0.755,-0.813 -2.318,-2.008 -4.008,-1.815 z" id="path4358" />
 <path style="fill:#c83737;stroke-width:0.5;marker:none;" d="m 20.234,18.839 c 0.167,0.198 0.301,0.420 0.453,0.628 0.019,0.017 0.047,0.021 0.069,0.034 -0.166,-0.232 -0.338,-0.444 -0.522,-0.663 z m -17.463,0.593 c -0.220,0.294 -0.402,0.594 -0.592,0.907 0.029,-0.049 0.074,-0.090 0.104,-0.139 0.156,-0.254 0.312,-0.522 0.487,-0.768 z m -0.592,0.907 c -0.363,0.600 -0.662,1.260 -0.906,1.920 0.249,-0.676 0.572,-1.303 0.941,-1.920 -0.009,-0.004 -0.025,0.004 -0.034,0 z m -0.906,1.920 c -0.367,0.994 -0.622,2.025 -0.697,3.107 0,0.966 5.008,1.745 11.154,1.745 5.986,0 10.836,-0.744 11.084,-1.675 l 0,-0.209 c -0.079,-1.121 -0.313,-2.204 -0.697,-3.212 l -0.104,0.034 c 0.020,0.037 0.034,0.066 0.034,0.104 0,0.808 -4.664,1.466 -10.422,1.466 -5.469,0 -9.917,-0.609 -10.352,-1.361 z m 19.728,-2.374 c 0.187,0.280 0.360,0.575 0.522,0.872 -0.157,-0.295 -0.339,-0.594 -0.522,-0.872 z" id="path4360" />
 <path style="fill:none;stroke:#000000;stroke-width:0.499;stroke-linecap:butt;marker:none;" d="m 6.501,13.392 c -1.660,0 -3.010,2.324 -3.032,5.202 -1.700,1.851 -2.718,4.230 -2.893,6.773 0,0.966 5.008,1.745 11.154,1.745 5.986,0 10.836,-0.744 11.084,-1.675 l 0,-0.209 c -0.170,-2.421 -1.105,-4.639 -2.579,-6.389 0.001,-0.058 0,-0.116 0,-0.174 0,-2.910 -1.357,-5.272 -3.032,-5.272 -0.934,0 -1.778,0.765 -2.335,1.920 -1.018,-0.305 -2.090,-0.453 -3.206,-0.453 -1.003,0.065 -1.936,0.237 -2.823,0.488 -0.556,-1.176 -1.391,-1.955 -2.335,-1.955 z" id="path4362" />
 <path style="fill:#946344;stroke:#000000;stroke-width:0.499;stroke-linecap:round;stroke-linejoin:round;marker:none;" d="m 1.307,20.829 c -0.666,1.226 -1.121,2.540 -1.324,3.945 l 9.934,0 c -0.004,-0.057 0,-0.116 0,-0.174 0,-1.224 0.864,-2.234 1.951,-2.234 1.086,0 1.986,1.009 1.986,2.234 0,0.059 -0.030,0.116 -0.034,0.174 l 9.620,0 c -0.191,-1.404 -0.653,-2.740 -1.289,-3.945 l -20.844,0 z" id="path4364" />
 <ellipse ry="3.489" rx="3.845" cy="22.436" cx="7.409" style="fill:#916f6f;stroke:#000000;stroke-width:0.5;stroke-linecap:round;marker:none;" id="path4366" />
 <ellipse ry="2.694" rx="2.994" cy="22.267" cx="7.409" id="path4368" style="fill:#3c444f;stroke-width:0.669;marker:none;" />
 <path style="fill:#495760;stroke-width:0.669;marker:none;" d="m 7.407,19.572 c -1.160,0 -2.152,0.596 -2.649,1.466 0.491,0.883 1.476,1.536 2.649,1.536 1.172,0 2.157,-0.652 2.649,-1.536 -0.496,-0.869 -1.488,-1.466 -2.649,-1.466 z" id="path4370" />
 <ellipse ry="1.373" rx="1.370" cy="21.401" cx="6.359" style="fill:#98a1a6;stroke-width:0.5;marker:none;" id="path4372" />
 <ellipse ry="3.489" rx="3.845" cy="22.436" cx="16.270" id="path4374" style="fill:#916f6f;stroke:#000000;stroke-width:0.5;stroke-linecap:round;marker:none;" />
 <ellipse ry="2.694" rx="2.994" cy="22.267" cx="16.270" style="fill:#3c444f;stroke-width:0.669;marker:none;" id="path4376" />
 <path id="path4378" d="m 16.269,19.572 c -1.160,0 -2.152,0.596 -2.649,1.466 0.491,0.883 1.476,1.536 2.649,1.536 1.172,0 2.157,-0.652 2.649,-1.536 -0.496,-0.869 -1.488,-1.466 -2.649,-1.466 z" style="fill:#495760;stroke-width:0.669;marker:none;" />
 <ellipse ry="1.111" rx="1.109" cy="21.488" cx="14.960" id="path4380" style="fill:#98a1a6;stroke-width:0.5;marker:none;" />
 <ellipse ry="0.695" rx="0.694" cy="23.004" cx="9.129" id="path4382" style="fill:#98a1a6;stroke-width:0.5;marker:none;" />
 <ellipse ry="0.695" rx="0.694" cy="23.004" cx="17.990" style="fill:#98a1a6;stroke-width:0.5;marker:none;" id="path4384" />
 <path style="fill:#2a2a2a;stroke:none" d="m 9.096,34.738 c -1.076,0 -0.544,1.869 2.328,2.015 0.329,0 0.585,0 0.876,0 2.882,-0.141 3.406,-2.015 2.328,-2.015 -1.844,0 -3.689,0 -5.534,0 z" id="path3208" />
 <path style="fill:#5b1f1f;stroke-width:0.5;marker:none;" d="m 11.809,35.490 c -0.880,0 -1.605,0.388 -1.917,0.940 0.412,0.159 0.904,0.290 1.534,0.322 0.329,0 0.585,0 0.876,0 0.604,-0.029 1.075,-0.146 1.479,-0.295 -0.300,-0.568 -1.075,-0.967 -1.972,-0.967 z" id="path3210" />
 <path style="fill:#f3f3f3;stroke:none" d="m 9.534,34.738 c 0.313,0.448 0.933,0.873 1.972,0.940 0.257,0 0.484,0 0.712,0 1.042,-0.065 1.659,-0.491 1.972,-0.940 -1.552,0 -3.105,0 -4.657,0 z" id="path3212" />
 <path id="path3214" d="m 9.096,34.738 c -1.076,0 -0.544,1.869 2.328,2.015 0.329,0 0.585,0 0.876,0 2.882,-0.141 3.406,-2.015 2.328,-2.015 -1.844,0 -3.689,0 -5.534,0 z" style="fill:none;stroke:#000000;stroke-width:0.5;stroke-linecap:butt;stroke-opacity:1" />
 <path id="path4802" d="m 3.220,28.440 c -1.115,0.304 -1.067,1.403 -0.705,2.497 0.277,0.804 0.624,1.510 1.002,2.032 -1.505,0.095 -2.710,1.322 -2.710,2.845 0,1.585 1.302,2.882 2.895,2.882 1.593,0 2.895,-1.296 2.895,-2.882 0,-0.954 -0.339,-1.824 -0.836,-2.401 C 5.654,32.529 5.596,31.519 5.151,30.013 4.855,29.012 4.336,28.135 3.220,28.440 Z" style="fill:#ffc78f;stroke:#000000;stroke-width:0.5;stroke-linecap:round;marker:none;" />
 <path id="path4823" d="m 2.181,32.230 c -0.398,-0.015 -0.750,0.128 -0.965,0.406 -0.338,0.437 -0.221,1.101 0.222,1.663 -0.670,0.056 -1.190,0.409 -1.299,0.923 -0.098,0.462 0.183,0.930 0.668,1.256 -0.197,0.122 -0.363,0.272 -0.408,0.480 -0.112,0.523 0.399,1.064 1.150,1.219 0.751,0.155 1.446,-0.141 1.559,-0.665 0.056,-0.261 -0.013,-0.516 -0.222,-0.739 0.401,-0.153 0.702,-0.448 0.779,-0.813 0.057,-0.272 -0.050,-0.568 -0.222,-0.813 0.254,-0.050 0.480,-0.137 0.631,-0.332 C 4.504,34.261 4.229,33.313 3.443,32.711 3.050,32.410 2.579,32.245 2.181,32.230 Z" style="fill:#ffc78f;stroke:#000000;stroke-width:0.5;stroke-linecap:round;marker:none;" />
 <ellipse style="fill:#ffc78f;stroke:#000000;stroke-width:0.5;stroke-linecap:round;marker:none;" id="path4821" transform="matrix(0.999,0.017,-0.017,0.999,0,0)" cx="5.638" cy="35.007" rx="1.796" ry="1.270" />
 </g>
 </g>
</svg>
