<?xml version="1.0" encoding="UTF-8" standalone="no"?>
<svg
   xmlns:dc="http://purl.org/dc/elements/1.1/"
   xmlns:cc="http://creativecommons.org/ns#"
   xmlns:rdf="http://www.w3.org/1999/02/22-rdf-syntax-ns#"
   xmlns:svg="http://www.w3.org/2000/svg"
   xmlns="http://www.w3.org/2000/svg"
   height="100%"
   width="100%"
   version="1.1"
   id="svg2"
   viewBox="0 0 40 30">
  <defs
     id="defs4" />
  <metadata
     id="metadata7">
    <rdf:RDF>
      <cc:Work
         rdf:about="">
        <dc:format>image/svg+xml</dc:format>
        <dc:type
           rdf:resource="http://purl.org/dc/dcmitype/StillImage" />
        <dc:title></dc:title>
      </cc:Work>
    </rdf:RDF>
  </metadata>
  <g
     id="layer1">
    <rect
       ry="0"
       rx="0"
       y="0"
       x="0"
       height="30"
       width="40"
       id="rect4625"
       style="color:#000000;clip-rule:nonzero;display:inline;overflow:visible;visibility:visible;opacity:1;isolation:auto;mix-blend-mode:normal;color-interpolation:sRGB;color-interpolation-filters:linearRGB;solid-color:#000000;solid-opacity:1;fill:#2b3338;fill-opacity:1;fill-rule:evenodd;stroke:none;stroke-width:4.30000019;stroke-linecap:butt;stroke-linejoin:miter;stroke-miterlimit:4;stroke-dasharray:none;stroke-dashoffset:0;stroke-opacity:1;marker:none;marker-start:none;marker-mid:none;marker-end:none;color-rendering:auto;image-rendering:auto;shape-rendering:auto;text-rendering:auto;enable-background:accumulate" />
    <path
       id="path3586-9"
       d="M 24.927734 0.40429688 C 23.267053 0.40429688 21.916891 2.7279397 21.894531 5.6054688 C 21.31717 6.2342024 20.825809 6.927908 20.412109 7.6640625 C 18.394265 4.5019936 14.804072 2.3886719 10.701172 2.3886719 C 7.6155687 2.3886719 4.8194852 3.5857758 2.7617188 5.5214844 C 1.5045651 4.4381176 0.53337433 4.0796301 -0.12695312 4.2109375 C -1.5416731 4.4922275 -1.5663825 6.8274063 -0.1328125 8.0664062 C -0.90827716 8.9528795 -0.76744305 9.7787782 -0.21679688 10.201172 C -0.55314397 11.249424 -0.734375 12.363886 -0.734375 13.519531 C -0.734375 14.444341 -0.76757813 15.248391 -0.76757812 16.238281 L -0.76757812 20.318359 C -0.76757812 22.533454 0.58465193 24.409603 2.5292969 25.25 A 2.5066662 2.5066662 0 0 0 2.5488281 25.421875 A 2.5066662 2.5066662 0 0 0 4.5039062 27.503906 C 4.3271311 28.149712 4.2070312 28.75631 4.2070312 29.244141 C 4.2070312 31.142091 4.2695312 32.021379 4.2695312 32.755859 L 17.457031 32.755859 C 17.457031 32.021379 17.519531 31.142091 17.519531 29.244141 C 17.519531 28.858296 17.429924 28.385913 17.310547 27.890625 C 17.621225 27.53089 17.71346 27.1078 17.490234 26.818359 C 17.482364 26.808156 17.467753 26.804317 17.458984 26.794922 A 2.5066662 2.5066662 0 0 0 18.119141 25.507812 C 18.573664 25.380587 18.994297 25.184523 19.392578 24.957031 C 19.562896 25.059893 19.754576 25.145426 19.976562 25.191406 C 20.168933 25.231253 20.357004 25.242336 20.533203 25.226562 C 20.945518 25.499792 21.432954 25.659667 21.955078 25.691406 L 23.644531 27.296875 C 23.755624 27.402451 23.877851 27.489384 24.003906 27.564453 C 23.733871 28.415824 23.564901 29.2337 23.650391 29.853516 C 23.893421 31.615466 24.218121 32.655686 24.400391 33.384766 L 29.212891 33.384766 C 29.261691 32.972056 29.725241 32.634766 30.306641 32.634766 C 30.888051 32.634766 31.351611 32.972056 31.400391 33.384766 L 36.244141 33.384766 C 36.391063 32.797075 36.609645 31.98636 36.816406 30.779297 C 37.103954 30.807155 37.392136 30.738468 37.648438 30.548828 C 38.503217 29.791498 39.137554 28.29253 38.083984 26.71875 C 38.079087 26.712176 38.066191 26.714713 38.058594 26.710938 C 38.046086 26.646713 38.020593 26.583241 37.976562 26.521484 L 36.195312 24.025391 C 36.110719 23.906741 36.013462 23.802653 35.910156 23.708984 C 35.95894 23.679392 36.010321 23.653363 36.058594 23.623047 C 36.433464 24.372297 37.068319 25.201713 38.099609 25.345703 C 38.024049 24.754943 37.435915 23.830831 37.140625 22.837891 C 38.452035 21.771491 39.513322 20.429316 40.201172 18.878906 C 40.863722 19.341026 41.538034 19.176569 41.996094 18.818359 C 41.527154 18.589209 41.187209 17.577039 40.943359 16.429688 C 41.047589 15.836927 41.097656 15.238977 41.097656 14.617188 C 41.097656 13.993658 41.036064 13.384932 40.931641 12.791016 C 41.102097 12.680696 41.208969 12.56659 41.240234 12.449219 L 41.240234 12.240234 C 41.229457 12.087531 41.206244 11.93812 41.189453 11.787109 L 41.867188 11.787109 C 41.676117 10.382819 41.214225 9.0464669 40.578125 7.8417969 L 39.990234 7.8417969 C 39.61726 7.1300884 39.1735 6.4611149 38.660156 5.8515625 C 38.661256 5.7935625 38.660156 5.7342213 38.660156 5.6757812 C 38.660156 2.7648422 37.303526 0.40429687 35.628906 0.40429688 C 34.694816 0.40429688 33.849619 1.1689588 33.292969 2.3242188 C 32.274689 2.0187987 31.201757 1.8710937 30.085938 1.8710938 C 29.082168 1.9361937 28.150122 2.107665 27.263672 2.359375 C 26.707132 1.183135 25.871604 0.40429688 24.927734 0.40429688 z "
       style="display:inline;overflow:visible;visibility:visible;fill:none;fill-opacity:1;fill-rule:evenodd;stroke:#f4f4f4;stroke-width:2.6;stroke-linecap:butt;stroke-linejoin:miter;stroke-miterlimit:4;stroke-dasharray:none;stroke-dashoffset:0;stroke-opacity:1;marker:none;enable-background:accumulate" />
    <g
       transform="translate(-0.90619403,25.071368)"
       id="g3500">
      <path
         style="display:inline;overflow:visible;visibility:visible;fill:#2c2ea0;fill-opacity:1;fill-rule:evenodd;stroke:#000000;stroke-width:0.49999997;stroke-linecap:butt;stroke-linejoin:miter;stroke-miterlimit:4;stroke-dasharray:none;stroke-dashoffset:0;stroke-opacity:1;marker:none;enable-background:accumulate"
         d="m 11.607233,-22.681767 c -6.3122604,0 -11.43526047,4.9862 -11.43526047,11.12991 0,0.92481 -0.03248,1.7293396 -0.03248,2.7192296 l 0,4.07888 c 0,3.01172 2.49332007,5.40685997 5.58768007,5.40685997 l 11.7276404,0 c 3.09435,0 5.58768,-2.39513997 5.58768,-5.40685997 l 0,-4.07888 c 0,-0.83883 0,-1.7253496 0,-2.7192296 0,-6.14371 -5.12299,-11.12991 -11.43526,-11.12991 z"
         id="path3586" />
      <path
         style="display:inline;overflow:visible;visibility:visible;fill:#61411f;fill-opacity:1;fill-rule:evenodd;stroke:none;stroke-width:0.5;marker:none;enable-background:accumulate"
         d="m 8.0422416,6.3319926 c -1.343249,0 -2.437499,0.84173 -2.437499,1.875 0,0.17349 0.03625,0.96449 0.09375,1.12395 1.5625,0.42019 3.1249992,0.41174 4.6875004,0 0.05601,-0.15753 0.09375,-0.95281 0.09375,-1.12395 0,-1.03327 -1.0942512,-1.875 -2.4375014,-1.875 z"
         id="path3624" />
      <path
         style="display:inline;overflow:visible;visibility:visible;fill:#ffc78f;fill-opacity:1;fill-rule:evenodd;stroke:none;stroke-width:0.5;marker:none;enable-background:accumulate"
         d="m 8.0301016,6.3430826 c -1.343249,0 -2.437499,0.84174 -2.437499,1.875 0,0.0579 0.02373,0.22591 0.03125,0.375 1.60859,0.40296 3.2351592,0.39602 4.8437504,0 0.0077,-0.149 0,-0.31795 0,-0.375 0,-1.03326 -1.0942512,-1.87499 -2.4375014,-1.875 z"
         id="path3626" />
      <path
         id="path3628"
         d="m 8.0422416,6.3319926 c -1.343249,0 -2.437499,0.84173 -2.437499,1.875 0,0.17349 0.03625,0.96449 0.09375,1.12395 1.5625,0.42019 3.1249992,0.41174 4.6875004,0 0.05601,-0.15753 0.09375,-0.95281 0.09375,-1.12395 0,-1.03327 -1.0942512,-1.875 -2.4375014,-1.875 z"
         style="display:inline;overflow:visible;visibility:visible;fill:none;stroke:#000000;stroke-width:0.5;stroke-linecap:round;stroke-linejoin:miter;stroke-miterlimit:4;stroke-dasharray:none;stroke-dashoffset:0;stroke-opacity:1;marker:none;enable-background:accumulate" />
      <path
         id="path3630"
         d="m 15.421583,6.3319926 c 1.34325,0 2.4375,0.84173 2.4375,1.875 0,0.17349 -0.03625,0.96449 -0.09375,1.12395 -1.5625,0.42019 -3.125,0.41174 -4.6875,0 -0.05601,-0.15753 -0.09375,-0.95281 -0.09375,-1.12395 0,-1.03327 1.09425,-1.875 2.4375,-1.875 z"
         style="display:inline;overflow:visible;visibility:visible;fill:#61411f;fill-opacity:1;fill-rule:evenodd;stroke:none;stroke-width:0.5;marker:none;enable-background:accumulate" />
      <path
         id="path3632"
         d="m 15.433723,6.3430826 c 1.34325,0 2.4375,0.84174 2.4375,1.875 0,0.0579 -0.02373,0.22591 -0.03125,0.375 -1.60859,0.40296 -3.23516,0.39602 -4.84375,0 -0.0077,-0.149 0,-0.31795 0,-0.375 0,-1.03326 1.09425,-1.87499 2.4375,-1.875 z"
         style="display:inline;overflow:visible;visibility:visible;fill:#ffc78f;fill-opacity:1;fill-rule:evenodd;stroke:none;stroke-width:0.5;marker:none;enable-background:accumulate" />
      <path
         style="display:inline;overflow:visible;visibility:visible;fill:none;stroke:#000000;stroke-width:0.5;stroke-linecap:round;stroke-linejoin:miter;stroke-miterlimit:4;stroke-dasharray:none;stroke-dashoffset:0;stroke-opacity:1;marker:none;enable-background:accumulate"
         d="m 15.421583,6.3319926 c 1.34325,0 2.4375,0.84173 2.4375,1.875 0,0.17349 -0.03625,0.96449 -0.09375,1.12395 -1.5625,0.42019 -3.125,0.41174 -4.6875,0 -0.05601,-0.15753 -0.09375,-0.95281 -0.09375,-1.12395 0,-1.03327 1.09425,-1.875 2.4375,-1.875 z"
         id="path3634" />
      <path
         id="path3576"
         transform="translate(0.90619403,-25.071368)"
         d="M 8.1445312 21.837891 C 7.075941 21.878791 6.6112913 22.071711 6.2695312 22.869141 C 6.2685038 22.871538 6.2666593 22.876494 6.265625 22.878906 A 2.5066662 2.5066662 0 0 0 4.6601562 22.576172 A 2.5066662 2.5066662 0 0 0 2.5488281 25.421875 A 2.5066662 2.5066662 0 0 0 4.5039062 27.503906 C 4.3271311 28.149712 4.2070312 28.75631 4.2070312 29.244141 C 4.2070312 31.142091 4.2695312 32.021379 4.2695312 32.755859 L 17.457031 32.755859 C 17.457031 32.021379 17.519531 31.142091 17.519531 29.244141 C 17.519531 28.656274 17.346912 27.896803 17.105469 27.101562 A 2.5066662 2.5066662 0 0 0 18.134766 24.689453 A 2.5066662 2.5066662 0 0 0 15.289062 22.576172 A 2.5066662 2.5066662 0 0 0 15.287109 22.576172 C 14.956008 22.04209 14.491553 21.872737 13.582031 21.837891 C 12.686271 21.833891 11.790431 21.826191 10.894531 21.837891 C 10.873691 21.837601 10.852861 21.838171 10.832031 21.837891 C 9.9361313 21.826191 9.0402923 21.833891 8.1445312 21.837891 z "
         style="display:inline;overflow:visible;visibility:visible;fill:#447821;fill-opacity:1;fill-rule:evenodd;stroke:none;stroke-width:0.5;marker:none;enable-background:accumulate" />
      <path
         id="path3146"
         transform="translate(0.90619403,-25.071368)"
         d="M 14.527344 21.986328 C 14.366046 22.286646 14.369309 22.615609 14.617188 22.740234 C 14.831065 22.847766 15.075086 22.737477 15.234375 22.511719 C 15.055533 22.252327 14.829656 22.087319 14.527344 21.986328 z M 5.0703125 22.550781 A 2.5066662 2.5066662 0 0 0 4.9160156 22.554688 C 5.0673451 22.826124 5.0996635 23.159433 4.9375 23.439453 C 4.69002 23.866787 4.1206754 23.999421 3.6933594 23.751953 C 3.4936913 23.636321 3.364666 23.447116 3.3027344 23.238281 A 2.5066662 2.5066662 0 0 0 2.6484375 24.271484 C 2.9164337 24.349251 3.2528378 24.289551 3.5371094 24.0625 C 3.4605894 24.610802 3.6856878 25.071674 4.1210938 25.072266 C 4.5632047 25.072847 4.865307 24.617827 4.78125 24.0625 C 5.217998 24.4033 5.7680001 24.400488 5.9863281 24.023438 C 6.2077961 23.641134 5.9244387 23.179763 5.4023438 22.974609 C 5.5757448 22.90372 5.7110722 22.798038 5.8222656 22.681641 A 2.5066662 2.5066662 0 0 0 5.0703125 22.550781 z M 15.714844 22.550781 A 2.5066662 2.5066662 0 0 0 15.570312 22.554688 C 15.744568 22.712498 15.958319 22.776782 16.132812 22.662109 C 16.154526 22.64784 16.162007 22.623004 16.179688 22.605469 A 2.5066662 2.5066662 0 0 0 15.714844 22.550781 z M 4.6386719 22.580078 A 2.5066662 2.5066662 0 0 0 3.5488281 23.035156 C 3.5703293 23.22959 3.6694172 23.41438 3.8476562 23.517578 C 4.1418802 23.687959 4.532745 23.579372 4.703125 23.285156 C 4.8345023 23.058288 4.7964737 22.776426 4.6386719 22.580078 z M 12.664062 23.462891 C 12.632548 23.455258 12.598792 23.470689 12.566406 23.46875 L 11.996094 24.414062 C 12.019427 24.504396 12.041817 24.594967 12.089844 24.683594 C 12.010726 24.65796 11.934921 24.65507 11.857422 24.644531 L 11.222656 25.697266 C 11.393855 25.83184 11.62901 25.920949 11.894531 25.927734 C 11.482936 26.29839 11.36804 26.813069 11.701172 27.09375 C 12.039321 27.378651 12.535241 27.184439 12.828125 26.705078 C 12.943484 27.246523 13.352205 27.630538 13.761719 27.482422 C 14.177452 27.33204 14.30179 26.770613 14.033203 26.277344 C 14.560065 26.448556 15.083659 26.278545 15.160156 25.849609 C 15.237836 25.414694 14.789339 25.047774 14.228516 25.033203 C 14.637222 24.662654 14.754036 24.147068 14.421875 23.867188 C 14.08361 23.582207 13.58776 23.776178 13.294922 24.255859 C 13.208403 23.849776 12.957027 23.533839 12.664062 23.462891 z M 8.7851562 23.556641 C 8.5289852 23.585491 8.302833 23.801362 8.203125 24.140625 C 7.990438 23.728667 7.5686102 23.54257 7.2695312 23.751953 C 6.9650432 23.965148 7.0213642 24.420306 7.3476562 24.761719 C 6.8829823 24.738509 6.499393 24.981098 6.53125 25.345703 C 6.56361 25.715256 6.9660671 25.922935 7.4238281 25.8125 C 7.1716091 26.203251 7.2095026 26.667622 7.5410156 26.822266 C 7.8775926 26.979238 8.2636714 26.729969 8.3964844 26.277344 C 8.6087084 26.691694 8.9911033 26.876007 9.2910156 26.666016 C 9.5954346 26.45289 9.5780121 25.997635 9.2519531 25.65625 C 9.6891919 25.678089 10.041536 25.459863 10.056641 25.130859 L 9.7890625 24.679688 C 9.6134943 24.582264 9.3788054 24.548023 9.1347656 24.607422 C 9.3228963 24.316533 9.370213 23.9844 9.2460938 23.769531 L 9.2402344 23.759766 C 9.1977003 23.690351 9.1377718 23.633546 9.0566406 23.595703 C 8.9724906 23.556473 8.8704853 23.547051 8.7851562 23.556641 z M 17.941406 24.035156 C 17.852844 24.209546 17.793353 24.410888 17.804688 24.644531 C 17.368263 24.229896 16.760001 24.145084 16.482422 24.529297 C 16.19978 24.920509 16.442436 25.454685 16.988281 25.734375 C 16.408479 25.903877 16.055577 26.388674 16.25 26.822266 C 16.391897 27.138501 16.748899 27.262918 17.128906 27.189453 C 17.119857 27.159076 17.114726 27.132053 17.105469 27.101562 A 2.5066662 2.5066662 0 0 0 17.671875 26.542969 C 17.490053 26.33909 17.386083 26.065669 17.416016 25.773438 C 17.45985 25.344588 17.766464 25.030116 18.160156 24.945312 A 2.5066662 2.5066662 0 0 0 18.134766 24.689453 A 2.5066662 2.5066662 0 0 0 17.941406 24.035156 z M 8.3183594 24.451172 C 8.4159194 24.454672 8.5349773 24.485437 8.6289062 24.529297 C 9.0050384 24.704694 9.1558661 25.162948 8.9804688 25.539062 C 8.8050017 25.91518 8.344882 26.06408 7.96875 25.888672 C 7.592665 25.713274 7.4437196 25.255024 7.6191406 24.878906 C 7.7506826 24.596819 8.0255224 24.440639 8.3183594 24.451172 z M 12.867188 24.607422 C 12.980465 24.581622 13.095312 24.585692 13.216797 24.607422 C 13.702925 24.694142 14.041794 25.17013 13.955078 25.65625 C 13.868388 26.142394 13.392378 26.442183 12.90625 26.355469 C 12.420122 26.268749 12.120315 25.831845 12.207031 25.345703 C 12.271991 24.981123 12.527234 24.68484 12.867188 24.607422 z M 8.3183594 24.683594 C 8.1167694 24.676194 7.903076 24.801879 7.8125 24.996094 C 7.691823 25.255061 7.8276845 25.574542 8.0859375 25.695312 C 8.3449065 25.816083 8.6643874 25.682781 8.7851562 25.423828 C 8.9058333 25.164863 8.7719479 24.843429 8.5136719 24.722656 C 8.4489419 24.692466 8.3856324 24.686024 8.3183594 24.683594 z M 12.945312 24.878906 C 12.71131 24.932146 12.523296 25.133722 12.478516 25.384766 C 12.418876 25.719481 12.610564 26.024269 12.945312 26.083984 C 13.280018 26.143674 13.62388 25.951903 13.683594 25.617188 C 13.743234 25.28247 13.51253 24.938606 13.177734 24.878906 C 13.094044 24.863876 13.023429 24.861106 12.945312 24.878906 z M 18.152344 25.248047 C 17.924016 25.337001 17.753238 25.551981 17.726562 25.8125 C 17.709276 25.981813 17.75778 26.138744 17.845703 26.267578 A 2.5066662 2.5066662 0 0 0 18.152344 25.248047 z M 4.6660156 26.431641 C 4.6132978 26.439501 4.5610071 26.454111 4.5097656 26.472656 C 4.1578238 26.599967 4.0574094 26.996349 4.1933594 27.414062 A 2.5066662 2.5066662 0 0 0 4.5039062 27.503906 C 4.3271311 28.149712 4.2070312 28.75631 4.2070312 29.244141 C 4.2070312 29.660269 4.2160117 29.877677 4.2207031 30.205078 C 4.5054909 30.203238 4.8147945 30.024732 5.0136719 29.699219 C 5.1290309 30.240664 5.5377516 30.585613 5.9472656 30.4375 C 6.3629986 30.287117 6.4482735 29.764754 6.1796875 29.271484 C 6.7065495 29.442697 7.2320727 29.272687 7.3085938 28.84375 C 7.3862737 28.408828 6.9748845 28.041916 6.4140625 28.027344 C 6.8227675 27.656795 6.9395829 27.102148 6.6074219 26.822266 C 6.2691579 26.537287 5.7342203 26.731255 5.4414062 27.210938 C 5.3549463 26.804854 5.1139585 26.499971 4.8203125 26.433594 C 4.7714175 26.422499 4.7187335 26.423781 4.6660156 26.431641 z M 5.0527344 27.599609 C 5.1660124 27.573809 5.2808588 27.577879 5.4023438 27.599609 C 5.8884717 27.686329 6.1902546 28.125211 6.1035156 28.611328 C 6.0168256 29.097472 5.5779249 29.436323 5.0917969 29.349609 C 4.6056699 29.262889 4.2667996 28.784971 4.3535156 28.298828 C 4.4184756 27.93425 4.7127824 27.67703 5.0527344 27.599609 z M 10.417969 27.716797 C 9.9384306 27.667697 9.5719015 28.154183 9.6015625 28.765625 C 9.1651385 28.35099 8.5959614 28.266177 8.3183594 28.650391 C 8.0357404 29.041603 8.2783738 29.614842 8.8242188 29.894531 C 8.2444166 30.064034 7.852452 30.54883 8.046875 30.982422 C 8.244073 31.4219 8.8547853 31.469127 9.3691406 31.138672 C 9.2262706 31.725373 9.4785459 32.295357 9.9511719 32.34375 C 10.430872 32.39288 10.758454 31.904699 10.728516 31.292969 C 11.165263 31.710773 11.772416 31.795478 12.050781 31.410156 C 12.333354 31.019051 12.090307 30.44578 11.544922 30.166016 C 12.124748 29.996514 12.477627 29.511718 12.283203 29.078125 C 12.085774 28.637933 11.516909 28.589552 11.001953 28.921875 C 11.145517 28.334668 10.890827 27.765227 10.417969 27.716797 z M 5.0917969 27.873047 C 4.8578189 27.926287 4.669756 28.08684 4.625 28.337891 C 4.56536 28.672604 4.7960864 29.018414 5.1308594 29.078125 C 5.4655634 29.137835 5.7703871 28.906972 5.8300781 28.572266 C 5.8897181 28.237553 5.6980312 27.932747 5.3632812 27.873047 C 5.2795913 27.858017 5.1697279 27.855247 5.0917969 27.873047 z M 16.132812 27.988281 C 15.811516 28.045291 15.53358 28.367394 15.433594 28.804688 C 15.134099 28.297311 14.591701 28.049962 14.228516 28.337891 C 13.860429 28.62975 13.946782 29.214233 14.382812 29.621094 C 13.793878 29.626894 13.305265 29.979151 13.373047 30.4375 C 13.441707 30.902764 14.007061 31.118597 14.578125 30.943359 C 14.288108 31.456568 14.340331 32.055974 14.771484 32.226562 C 15.209064 32.399718 15.688828 32.031992 15.822266 31.449219 C 16.121761 31.956595 16.664158 32.164882 17.027344 31.876953 C 17.396031 31.584627 17.308974 31.000705 16.871094 30.59375 C 17.119367 30.591518 17.331391 30.525155 17.501953 30.425781 C 17.507953 30.081543 17.516811 29.807376 17.517578 29.357422 C 17.297894 29.221897 17.000048 29.172724 16.677734 29.271484 C 16.964861 28.759362 16.912327 28.197463 16.482422 28.027344 C 16.373074 27.984044 16.239919 27.969281 16.132812 27.988281 z M 10.300781 29.039062 C 10.836821 29.093943 11.211155 29.590922 11.15625 30.126953 C 11.10146 30.662983 10.643438 31.037314 10.107422 30.982422 C 9.5714058 30.927512 9.1579856 30.467672 9.2128906 29.931641 C 9.2676806 29.395613 9.7647884 28.98417 10.300781 29.039062 z M 15.511719 29.193359 C 16.0316 29.116489 16.48368 29.450828 16.560547 29.970703 C 16.637297 30.490584 16.303129 30.98369 15.783203 31.060547 C 15.263323 31.137417 14.772158 30.803086 14.695312 30.283203 C 14.618563 29.763342 14.991839 29.270217 15.511719 29.193359 z M 10.261719 29.349609 C 9.8926856 29.311809 9.5612365 29.562574 9.5234375 29.931641 C 9.4855275 30.300708 9.7383648 30.634081 10.107422 30.671875 C 10.476478 30.709675 10.807928 30.456958 10.845703 30.087891 C 10.883613 29.718822 10.6308 29.3874 10.261719 29.349609 z M 15.548828 29.466797 C 15.190867 29.519717 14.952942 29.847119 15.005859 30.205078 C 15.058799 30.56303 15.386203 30.84004 15.744141 30.787109 C 16.102102 30.734189 16.34198 30.406789 16.289062 30.048828 C 16.236123 29.690883 15.906766 29.413878 15.548828 29.466797 z M 7.2304688 31.720703 C 6.9742967 31.749533 6.7071309 31.965423 6.6074219 32.304688 C 6.3947359 31.892728 6.0139238 31.66757 5.7148438 31.876953 C 5.4570394 32.057462 5.4429235 32.435572 5.6386719 32.755859 L 6.2851562 32.755859 C 6.4278906 32.661806 6.5973679 32.609251 6.7636719 32.615234 C 6.8612319 32.618734 6.9410422 32.649499 7.0351562 32.693359 C 7.0691214 32.709198 7.0922783 32.736238 7.1230469 32.755859 L 7.5878906 32.755859 C 7.8298554 32.368198 7.7902678 31.912492 7.4628906 31.759766 C 7.3787406 31.720536 7.3157506 31.711113 7.2304688 31.720703 z M 13.177734 32.226562 C 12.94654 32.252603 12.715411 32.465854 12.597656 32.755859 L 13.683594 32.755859 C 13.678168 32.558012 13.594245 32.389656 13.412109 32.304688 C 13.327959 32.265456 13.263039 32.216952 13.177734 32.226562 z M 11.865234 32.341797 C 11.78036 32.343705 11.697817 32.367576 11.623047 32.419922 C 11.510491 32.498731 11.461974 32.62202 11.443359 32.755859 L 12.490234 32.755859 C 12.32681 32.504477 12.090868 32.336723 11.865234 32.341797 z M 7.9082031 32.738281 C 7.8537453 32.735134 7.7928121 32.749671 7.734375 32.755859 L 7.984375 32.755859 C 7.957688 32.75184 7.9362388 32.739901 7.9082031 32.738281 z "
         style="display:inline;fill:#a3a532;fill-opacity:1;fill-rule:evenodd;stroke:none;color:#000000;clip-rule:nonzero;overflow:visible;visibility:visible;opacity:1;isolation:auto;mix-blend-mode:normal;color-interpolation:sRGB;color-interpolation-filters:linearRGB;solid-color:#000000;solid-opacity:1;stroke-width:1;stroke-linecap:butt;stroke-linejoin:miter;stroke-miterlimit:4;stroke-dasharray:none;stroke-dashoffset:0;stroke-opacity:1;filter-blend-mode:normal;filter-gaussianBlur-deviation:0;color-rendering:auto;image-rendering:auto;shape-rendering:auto;text-rendering:auto;enable-background:accumulate" />
      <path
         style="display:inline;fill:#ffc78f;fill-opacity:1;fill-rule:evenodd;stroke:none"
         d="m 8.9931618,-3.2456874 2.7187512,4.5625 2.75,-4.5625 c -0.88534,-0.004 -1.77076,-0.0115 -2.65625,0 -0.02084,-2.9e-4 -0.04167,2.8e-4 -0.0625,0 -0.8959,-0.0117 -1.7917402,-0.004 -2.6875012,0 -0.02384,9.2e-4 -0.03925,-10e-4 -0.0625,0 z"
         id="path3580" />
      <path
         id="path3582"
         d="m 8.9931618,-3.2456874 2.7187512,4.5625 2.75,-4.5625"
         style="display:inline;fill:none;stroke:#000000;stroke-width:0.5;stroke-linecap:butt;stroke-linejoin:round;stroke-miterlimit:4;stroke-dasharray:none;stroke-opacity:1" />
      <path
         id="path3584"
         transform="translate(0.90619403,-25.071368)"
         d="M 8.1445312 21.837891 C 7.075941 21.878791 6.6112913 22.071711 6.2695312 22.869141 C 6.2685038 22.871538 6.2666593 22.876494 6.265625 22.878906 A 2.5066662 2.5066662 0 0 0 4.6601562 22.576172 A 2.5066662 2.5066662 0 0 0 2.5488281 25.421875 A 2.5066662 2.5066662 0 0 0 4.5039062 27.503906 C 4.3271311 28.149712 4.2070312 28.75631 4.2070312 29.244141 C 4.2070312 31.142091 4.2695312 32.021379 4.2695312 32.755859 L 17.457031 32.755859 C 17.457031 32.021379 17.519531 31.142091 17.519531 29.244141 C 17.519531 28.656274 17.346912 27.896803 17.105469 27.101562 A 2.5066662 2.5066662 0 0 0 18.134766 24.689453 A 2.5066662 2.5066662 0 0 0 15.289062 22.576172 A 2.5066662 2.5066662 0 0 0 15.287109 22.576172 C 14.956008 22.04209 14.491553 21.872737 13.582031 21.837891 C 12.686271 21.833891 11.790431 21.826191 10.894531 21.837891 C 10.873691 21.837601 10.852861 21.838171 10.832031 21.837891 C 9.9361313 21.826191 9.0402923 21.833891 8.1445312 21.837891 z "
         style="display:inline;overflow:visible;visibility:visible;fill:none;stroke:#000000;stroke-width:0.5;stroke-linecap:butt;stroke-linejoin:miter;stroke-miterlimit:4;stroke-dasharray:none;stroke-dashoffset:0;stroke-opacity:1;marker:none;enable-background:accumulate" />
      <path
         id="path3588"
         d="m 4.9320226,-16.112547 c -0.24964,1.17096 0.32984,5.84075 -1.21342,10.3513296 1.76741,2.70205 4.5830892,4.65334 7.7914004,4.65334 3.24953,0 6.12527,-1.99205 7.88718,-4.74832 -1.54201,-3.007 -1.36427,-5.2302696 -1.5008,-6.0145296 -2.47351,0.18594 -10.8713804,-2.5684 -12.9643604,-4.24182 z"
         style="display:inline;overflow:visible;visibility:visible;fill:#ffc78f;fill-opacity:1;fill-rule:evenodd;stroke:#000000;stroke-width:0.49999997;stroke-linecap:round;stroke-linejoin:round;stroke-miterlimit:4;stroke-dasharray:none;stroke-dashoffset:0;stroke-opacity:1;marker:none;enable-background:accumulate" />
      <ellipse
         ry="1.5923119"
         rx="1.6062201"
         cy="-5.6952715"
         cx="6.1157379"
         style="display:inline;overflow:visible;visibility:visible;fill:#fa9763;fill-opacity:1;fill-rule:evenodd;stroke:none;stroke-width:0.50000006;marker:none;enable-background:accumulate"
         id="path3590" />
      <path
         style="display:inline;fill:none;stroke:#000000;stroke-width:0.50000012;stroke-linecap:round;stroke-linejoin:miter;stroke-miterlimit:4;stroke-dasharray:none;stroke-opacity:1"
         d="m 10.562043,-5.4619674 c 0,0.29892 0.12943,0.5979 0.34513,0.726"
         id="path3593" />
      <path
         style="display:inline;overflow:visible;visibility:visible;fill:#ffffff;fill-opacity:1;fill-rule:evenodd;stroke:#000000;stroke-width:0.50000012;stroke-linecap:round;stroke-linejoin:round;stroke-miterlimit:4;stroke-dashoffset:0;stroke-opacity:1;marker:none;enable-background:accumulate"
         d="m 9.2953818,-8.6506674 c 0.496011,1.74696 0.210341,1.56211 -1.09069,1.92415 -0.8374692,0.23304 -1.7081892,-0.25069 -1.9435992,-1.07978 -0.23539,-0.82908 0.25324,-1.69111 1.09071,-1.92415 0.8374592,-0.23303 1.7081892,0.2507 1.9435792,1.07978 z"
         id="path3597" />
      <ellipse
         ry="1.0401137"
         rx="1.0506264"
         cy="-8.2350159"
         cx="8.3841648"
         style="display:inline;overflow:visible;visibility:visible;fill:#000000;fill-opacity:1;fill-rule:evenodd;stroke:none;stroke-width:0.49999997;marker:none;enable-background:accumulate"
         id="path3599" />
      <ellipse
         ry="0.41739324"
         rx="0.44237778"
         cy="-8.5383806"
         cx="8.1215162"
         style="display:inline;overflow:visible;visibility:visible;fill:#ffffff;fill-opacity:1;fill-rule:evenodd;stroke:none;stroke-width:0.5;marker:none;enable-background:accumulate"
         id="path3601" />
      <ellipse
         ry="1.5923119"
         rx="1.6062201"
         cy="-5.6952715"
         cx="-16.865267"
         transform="scale(-1,1)"
         id="path3605"
         style="display:inline;overflow:visible;visibility:visible;fill:#fa9763;fill-opacity:1;fill-rule:evenodd;stroke:none;stroke-width:0.50000006;marker:none;enable-background:accumulate" />
      <path
         id="path3607"
         d="m 13.685613,-8.6506674 c -0.496,1.74696 -0.21033,1.56211 1.0907,1.92415 0.83747,0.23304 1.70819,-0.25069 1.94359,-1.07978 0.2354,-0.82908 -0.25323,-1.69111 -1.0907,-1.92415 -0.83746,-0.23303 -1.70819,0.2507 -1.94359,1.07978 z"
         style="display:inline;overflow:visible;visibility:visible;fill:#ffffff;fill-opacity:1;fill-rule:evenodd;stroke:#000000;stroke-width:0.50000012;stroke-linecap:round;stroke-linejoin:round;stroke-miterlimit:4;stroke-dashoffset:0;stroke-opacity:1;marker:none;enable-background:accumulate" />
      <ellipse
         ry="1.0401137"
         rx="1.0506264"
         cy="-8.2350159"
         cx="-15.659658"
         transform="scale(-1,1)"
         id="path3609"
         style="display:inline;overflow:visible;visibility:visible;fill:#000000;fill-opacity:1;fill-rule:evenodd;stroke:none;stroke-width:0.49999997;marker:none;enable-background:accumulate" />
      <ellipse
         ry="0.41739324"
         rx="0.44237778"
         cy="-8.5383806"
         cx="-15.239055"
         transform="scale(-1,1)"
         id="path3611"
         style="display:inline;overflow:visible;visibility:visible;fill:#ffffff;fill-opacity:1;fill-rule:evenodd;stroke:none;stroke-width:0.5;marker:none;enable-background:accumulate" />
      <path
         style="display:inline;overflow:visible;visibility:visible;fill:#d40000;fill-opacity:1;fill-rule:evenodd;stroke:none;stroke-width:0.5;marker:none;enable-background:accumulate"
         d="m 0.77858263,-20.860447 c -1.41471,0.2813 -1.43866,2.617 -0.0051,3.856 -1.94509003,2.22352 1.82960997,4.10981 3.55749997,0.0271 0.18454,0.2366 0.49012,0.37745 0.81141,0.32544 l 0.72133,-0.11675 c 0.34466,-0.0558 0.61069,-0.31166 0.69474,-0.62404 2.9408102,3.40602 5.9713904,0.40315 3.4120102,-1.10041 1.4543302,-2.44196 -0.996761,-6.17341 -3.7505802,-1.22002 -0.15897,-0.32816 -0.523,-0.51829 -0.9066,-0.4562 l -0.72134,0.11676 c -0.36997,0.0599 -0.64258,0.33593 -0.70413,0.68037 -1.37144,-1.24676 -2.40896,-1.62752 -3.10928997,-1.48827 z"
         id="rect3649" />
      <path
         style="display:inline;fill:none;stroke:#000000;stroke-width:0.5;stroke-linecap:butt;stroke-linejoin:miter;stroke-miterlimit:4;stroke-dasharray:none;stroke-opacity:1"
         d="m 0.77859263,-20.860437 c -1.41472,0.28129 -1.43867,2.61699 -0.0051,3.85599 -1.94508003,2.22352 1.82960997,4.10981 3.55749997,0.0271 0.18455,0.2366 0.49012,0.37745 0.81141,0.32544 l 0.72133,-0.11675 c 0.34466,-0.0558 0.61069,-0.31166 0.69475,-0.62404 2.9408102,3.40602 5.9713804,0.40315 3.4120102,-1.1004 1.4543302,-2.44197 -0.996761,-6.17342 -3.7505902,-1.22003 -0.15897,-0.32816 -0.523,-0.51829 -0.9066,-0.4562 l -0.72133,0.11676 c -0.36997,0.0599 -0.64258,0.33593 -0.70413,0.68037 -1.37144,-1.24676 -2.40897,-1.62752 -3.10928997,-1.48826 z"
         id="path3643" />
      <path
         style="display:inline;fill:none;stroke:#000000;stroke-width:0.5;stroke-linecap:round;stroke-linejoin:round;stroke-miterlimit:4;stroke-dasharray:none;stroke-opacity:1"
         d="m 2.2607726,-18.459627 c 0.70815,-0.19578 1.72062,-0.035 1.72062,-0.035 l 0,0 c -0.08759,-0.38205 -0.08662,-0.80107 -0.06739,-0.89475"
         id="path3659" />
      <path
         style="display:inline;fill:none;stroke:#000000;stroke-width:0.5;stroke-linecap:round;stroke-linejoin:round;stroke-miterlimit:4;stroke-dasharray:none;stroke-opacity:1"
         d="m 6.3349726,-19.237867 c 0.03929,0.2427 -0.03674,0.48142 0.30296,0.31323 0.3397,-0.16819 1.145109,-0.4344 1.5347992,-0.29371"
         id="path3661" />
      <path
         id="path3754-34"
         d="m 7.8877019,-3.8317276 c 0.6400172,1.188111 2.0136352,2.005819 3.6245381,2.005819 1.610902,0 3.01306,-0.817708 3.653077,-2.005819 -1.149344,0.115921 -2.374682,0.19569 -3.653077,0.19569 -1.278396,0 -2.4751939,-0.07976 -3.6245381,-0.19569 z"
         style="color:#000000;display:inline;overflow:visible;visibility:visible;fill:#ffffff;fill-opacity:1;fill-rule:evenodd;stroke:#000000;stroke-width:0.5;stroke-linecap:round;stroke-linejoin:round;stroke-miterlimit:4;stroke-dasharray:none;stroke-dashoffset:0;stroke-opacity:1;marker:none;enable-background:accumulate" />
      <path
         id="path3759-6"
         d="m 8.3580911,-3.2212456 c 1.574534,0.511723 4.4874219,0.551086 6.2194099,0.03936"
         style="display:inline;fill:none;stroke:#000000;stroke-width:0.40000001;stroke-linecap:butt;stroke-linejoin:miter;stroke-miterlimit:4;stroke-dasharray:none;stroke-opacity:1" />
      <path
         id="path4531"
         d="m 5.9142833,-9.2110559 3.9570996,0.832444 0.6271811,-0.593246 c 0,0 0.415414,-1.5615091 -1.9575521,-2.1531081 C 6.168046,-11.716565 4.62758,-9.5553469 5.9142833,-9.2110559 Z"
         style="display:inline;fill:#ffc78f;fill-opacity:1;stroke:none" />
      <path
         id="path4529"
         d="m 5.7025258,-9.2207559 c 0,0 2.870837,0.585135 3.5707676,0.800121 0.6999265,0.214976 1.0555446,-0.200453 1.1880926,-0.538291"
         style="display:inline;fill:none;stroke:#000000;stroke-width:0.5;stroke-linecap:round;stroke-linejoin:miter;stroke-miterlimit:4;stroke-dasharray:none;stroke-opacity:1" />
      <path
         style="display:inline;fill:#ffc78f;fill-opacity:1;stroke:none"
         d="m 16.908841,-9.7337345 -3.912282,1.0225699 -0.655099,-0.5622658 c 0,0 -0.490338,-1.5396256 1.85129,-2.2451306 2.341627,-0.705504 3.984666,1.378799 2.716091,1.7848265 z"
         id="path3656" />
      <path
         style="display:inline;fill:none;stroke:#000000;stroke-width:0.5;stroke-linecap:round;stroke-linejoin:miter;stroke-miterlimit:4;stroke-dasharray:none;stroke-opacity:1"
         d="m 17.119882,-9.7536494 c 0,0 -2.839229,0.7230914 -3.527961,0.9716278 -0.688728,0.2485261 -1.063994,-0.1492445 -1.212702,-0.4802873"
         id="path3658" />
      <circle
         transform="matrix(0.14636665,0.98923041,-0.98923041,0.14636665,0,0)"
         id="path3522"
         style="display:inline;overflow:visible;visibility:visible;fill:#ffc78f;fill-opacity:1;fill-rule:evenodd;stroke:#000000;stroke-width:0.5;stroke-linecap:round;stroke-linejoin:miter;stroke-miterlimit:4;stroke-dasharray:none;stroke-dashoffset:0;stroke-opacity:1;marker:none;enable-background:accumulate"
         cx="2.0978837"
         cy="-7.6441321"
         r="2.5883846" />
      <circle
         r="2.5883846"
         cy="12.536331"
         cx="-9.0771074"
         style="display:inline;overflow:visible;visibility:visible;fill:#ffc78f;fill-opacity:1;fill-rule:evenodd;stroke:#000000;stroke-width:0.5;stroke-linecap:round;stroke-linejoin:miter;stroke-miterlimit:4;stroke-dasharray:none;stroke-dashoffset:0;stroke-opacity:1;marker:none;enable-background:accumulate"
         id="circle3739"
         transform="matrix(-0.68216846,0.73119505,0.73119505,0.68216846,0,0)" />
      <g
         id="g3759">
        <path
           id="path3927"
           d="m 6.2213251,18.24787 0,4.061694 c 0,2.553862 1.5717747,4.617507 3.5169244,4.617507 l 1.6770515,0 c 1.945149,0 3.500641,-2.063645 3.500641,-4.617507 l 0,-4.061694 -8.6946169,0 z"
           style="color:#000000;display:inline;overflow:visible;visibility:visible;fill:#64a6a6;fill-opacity:1;fill-rule:nonzero;stroke:none;stroke-width:0.5;marker:none;enable-background:accumulate" />
        <path
           id="path3929"
           d="M 5.8908743,0.65014436 C 5.7558024,1.1023849 5.6792113,1.5856998 5.6792113,2.0824268 c 0,2.4240581 1.7413388,4.4338652 4.0216028,4.8526575 l 0,12.6981437 c 0.6435949,0.644282 1.2308389,0.662524 1.7568059,0 l 0,-12.6981437 c 2.280264,-0.4187923 4.000437,-2.4285994 4.000437,-4.8526575 0,-0.496727 -0.07659,-0.9800419 -0.211664,-1.43228244 z m 1.6721404,1.64605604 6.0112393,0 c 0.08703,0.2349223 0.148163,0.4901751 0.148163,0.7482072 0,1.4170031 -1.413402,2.5652817 -3.153783,2.5652817 -1.7403807,0 -3.1537831,-1.1482786 -3.1537831,-2.5652817 0,-0.2580321 0.061124,-0.5132849 0.1481638,-0.7482072 z"
           style="color:#000000;display:inline;overflow:visible;visibility:visible;fill:#916f6f;fill-opacity:1;fill-rule:nonzero;stroke:none;stroke-width:0.5;marker:none;enable-background:accumulate" />
        <path
           id="path3931"
           d="m 7.4995159,0.65014436 0,1.85982974 c 0.020244,-0.07229 0.037865,-0.1445688 0.063495,-0.2137737 l 6.0112391,0 c 0.01526,0.041197 0.02885,0.085912 0.04233,0.128264 l 0,-1.77432004 -6.1170702,0 z m 0,2.95007344 0,0.128264 0.04233,0 c -0.014904,-0.043156 -0.030177,-0.084228 -0.04233,-0.128264 z m 6.1170701,0.064133 c -0.0069,0.022168 -0.01356,0.042194 -0.02116,0.064133 l 0.02116,0 0,-0.064133 z"
           style="color:#000000;display:inline;overflow:visible;visibility:visible;fill:#784421;fill-opacity:1;fill-rule:nonzero;stroke:none;stroke-width:0.5;marker:none;enable-background:accumulate" />
        <ellipse
           ry="0.4086127"
           rx="0.40457934"
           cy="19.103113"
           cx="10.568634"
           id="path3933"
           style="color:#000000;display:inline;overflow:visible;visibility:visible;fill:#4d4d4d;fill-opacity:1;fill-rule:nonzero;stroke:none;stroke-width:0.5;marker:none;enable-background:accumulate" />
        <path
           id="path3935"
           d="M 5.8908745,0.65014436 C 5.7558027,1.1023838 5.6792116,1.5856999 5.6792116,2.0824268 c 0,2.4240582 1.7413389,4.4338653 4.0216029,4.8526565 l 0,11.3086177 -3.4712786,0 0,4.061694 c 0,2.553863 1.5684625,4.617507 3.5136122,4.617507 l 1.6721389,0 c 1.94515,0 3.492445,-2.063644 3.492445,-4.617507 l 0,-4.061694 -3.450112,0 0,-11.3086177 c 2.280265,-0.4187912 4.000437,-2.4285983 4.000437,-4.8526565 0,-0.4967269 -0.07659,-0.980043 -0.211664,-1.43228244 l -9.3555185,0 z m 1.6721405,1.64605494 6.011239,0 c 0.08703,0.2349223 0.148164,0.4901763 0.148164,0.7482073 0,1.4170042 -1.413403,2.5652816 -3.153784,2.5652816 -1.7403803,0 -3.1537828,-1.1482774 -3.1537828,-2.5652816 0,-0.258031 0.061125,-0.513285 0.1481638,-0.7482073 z"
           style="color:#000000;display:inline;overflow:visible;visibility:visible;fill:none;stroke:#000000;stroke-width:0.5;stroke-opacity:1;marker:none;enable-background:accumulate" />
      </g>
      <path
         id="path3525"
         d="m 11.025173,-0.1499444 c -0.07829,-0.78182151 -0.568106,-1.3579932 -1.0759783,-1.2939479 -0.2158962,0.026889 -0.4038412,0.184425 -0.5416162,0.3960397 -0.276499,-0.6933063 -0.819565,-1.1454085 -1.317608,-1.0054745 -0.348625,0.097982 -0.569008,0.4591182 -0.653914,0.9180985 -0.322939,-0.317906 -0.740009,-0.4750635 -1.093327,-0.3436745 -0.374514,0.1392156 -0.554666,0.57166109 -0.569217,1.0635179 -0.176275,-0.084762 -0.379551,-0.1390034 -0.548398,-0.07681 -0.424618,0.1564347 -0.564962,0.7405571 -0.337996,1.3452088 0.226956,0.6046328 0.741886,0.9946749 1.16651,0.8382898 0.21231,-0.078218 0.365764,-0.2564374 0.43058,-0.5059716 0.290275,0.2166566 0.647003,0.2862632 0.94223,0.1764897 0.26593,-0.098888 0.420285,-0.3368131 0.505024,-0.6433473 0.281353,0.3167506 0.613557,0.490114 0.943334,0.3974578 0.189724,-0.053344 0.361387,-0.206691 0.479789,-0.3868918 0.19908,0.4319532 0.533282,0.7031176 0.8871855,0.6584873 0.507876,-0.064026 0.86169,-0.7556507 0.783402,-1.5374719 z"
         style="display:inline;overflow:visible;visibility:visible;fill:#ffc78f;fill-opacity:1;fill-rule:evenodd;stroke:#000000;stroke-width:0.5;stroke-linecap:round;stroke-linejoin:miter;stroke-miterlimit:4;stroke-dasharray:none;stroke-dashoffset:0;stroke-opacity:1;marker:none;enable-background:accumulate" />
      <ellipse
         style="display:inline;overflow:visible;visibility:visible;fill:#ffc78f;fill-opacity:1;fill-rule:evenodd;stroke:#000000;stroke-width:0.5;stroke-linecap:round;stroke-linejoin:miter;stroke-miterlimit:4;stroke-dasharray:none;stroke-dashoffset:0;stroke-opacity:1;marker:none;enable-background:accumulate"
         id="path3527"
         transform="matrix(0.46204577,0.88685608,-0.88685607,0.4620458,0,0)"
         cx="5.9244847"
         cy="-7.7327538"
         rx="1.5119574"
         ry="1.0742855" />
      <path
         style="display:inline;overflow:visible;visibility:visible;fill:#ffc78f;fill-opacity:1;fill-rule:evenodd;stroke:#000000;stroke-width:0.5;stroke-linecap:round;stroke-linejoin:miter;stroke-miterlimit:4;stroke-dasharray:none;stroke-dashoffset:0;stroke-opacity:1;marker:none;enable-background:accumulate"
         d="m 13.303628,-1.049293 c 0.48215,-0.620406 1.203408,-0.8477603 1.599407,-0.5233819 0.168517,0.1376082 0.243872,0.3709802 0.247979,0.62345952 0.602918,-0.44001562 1.303267,-0.53398912 1.650574,-0.15057652 0.243096,0.26840999 0.237621,0.69144442 0.06538,1.12527068 0.442563,-0.09742567 0.879332,-0.00866 1.108633,0.29053533 0.243086,0.31709737 0.16561,0.77911749 -0.08369,1.20335959 0.194355,0.021988 0.39534,0.084182 0.505238,0.2266592 0.276355,0.3583295 0.0845,0.9276132 -0.429324,1.3189043 -0.5138,0.39128 -1.15731,0.4476671 -1.433697,0.089376 C 16.395951,2.9751477 16.360803,2.7426075 16.438648,2.496826 16.077601,2.5258884 15.738501,2.3950816 15.546893,2.1450898 15.374304,1.9198994 15.370153,1.6363211 15.461447,1.3316748 15.054713,1.4502422 14.681189,1.4203412 14.45122,1.1664667 14.318937,1.0203779 14.255141,0.79921382 14.25073,0.5836404 13.852387,0.84352329 13.425148,0.89537721 13.149204,0.66933767 12.753193,0.34497328 12.821471,-0.42889179 13.303628,-1.049293 Z"
         id="path3741" />
      <ellipse
         ry="1.0742855"
         rx="1.5119574"
         cy="8.1450682"
         cx="-10.821229"
         transform="matrix(-0.88389705,0.46768151,0.46768149,0.88389707,0,0)"
         id="ellipse3743"
         style="display:inline;overflow:visible;visibility:visible;fill:#ffc78f;fill-opacity:1;fill-rule:evenodd;stroke:#000000;stroke-width:0.5;stroke-linecap:round;stroke-linejoin:miter;stroke-miterlimit:4;stroke-dasharray:none;stroke-dashoffset:0;stroke-opacity:1;marker:none;enable-background:accumulate" />
    </g>
    <g
       transform="translate(18.425945,-12.988781)"
       id="g3537">
      <path
         style="display:inline;overflow:visible;visibility:visible;fill:#ffaf00;fill-opacity:1;fill-rule:evenodd;stroke:#000000;stroke-width:0.49999997;stroke-linecap:butt;stroke-linejoin:miter;stroke-miterlimit:4;stroke-dasharray:none;stroke-dashoffset:0;stroke-opacity:1;marker:none;enable-background:accumulate"
         d="m 16.333153,14.972374 c -0.99197,0.7756 -1.31679,1.46545 -1.23694,2.44807 -1.06323,-0.33668 -2.19317,-0.51378 -3.37067,-0.51378 -6.0447008,0 -10.94696077,4.791199 -10.94696077,10.698959 0,0.0613 -0.0011,0.12024 0,0.18134 -0.54361,1.66833 -1.28666,3.006371 -2.10280003,3.626771 0.68479003,0.13386 1.92744003,-0.11632 2.6285,-0.51378 -0.94756997,1.34679 -0.96939997,2.67869 -2.07187997,3.08275 1.19613,0.38967 2.54961997,0.47227 3.89636997,0.21155 0.13424,0.16698 0.28912,0.32469 0.43293,0.48357 0.06288,1.5033 -0.10325,2.66476 -0.71124,2.96188 1.13245,0.27669 2.50536,-0.0334 3.8036004,-0.57426 1.5160702,0.78563 3.2346502,1.23916 5.0714804,1.23916 2.17616,0 4.20182,-0.622 5.9064,-1.69249 0.37487,0.74925 1.00967,1.57872 2.04096,1.72271 -0.07556,-0.59076 -0.66334,-1.51558 -0.95863,-2.50852 1.31141,-1.0664 2.37359,-2.40881 3.06144,-3.95922 0.66255,0.46212 1.33551,0.29771 1.79357,-0.0605 -0.46894,-0.22915 -0.80756,-1.24027 -1.05141,-2.387621 0.10423,-0.59276 0.15462,-1.1916 0.15462,-1.81339 0,-2.81954 -1.11146,-5.38043 -2.93774,-7.28376 0.38423,-0.4778 0.64939,-0.94206 0.64939,-1.14848 -0.5525,0.21601 -1.13159,0.17029 -2.1028,-0.0605 -0.21718,-0.15963 -0.42012,-0.33944 -0.6494,-0.48356 -0.65848,-1.160529 -1.51191,-3.032129 -1.29879,-3.656999 z"
         id="path2591" />
      <path
         style="display:inline;overflow:visible;visibility:visible;fill:#ffc78f;fill-opacity:1;fill-rule:evenodd;stroke:#000000;stroke-width:0.5;stroke-linecap:butt;stroke-linejoin:miter;stroke-miterlimit:4;stroke-dasharray:none;stroke-dashoffset:0;stroke-opacity:1;marker:none;enable-background:accumulate"
         d="m 16.466468,41.970044 0.83642,1.13046 c 0.5106,0.69009 1.31,0.88871 1.92048,0.43701 0.85478,-0.75733 1.48912,-2.25684 0.43555,-3.83062 -0.21868,-0.29354 -3.19245,2.26315 -3.19245,2.26315 z"
         id="path3537-4" />
      <path
         style="display:inline;overflow:visible;visibility:visible;fill:#9d9d9d;fill-opacity:1;fill-rule:evenodd;stroke:none;stroke-width:0.5;marker:none;enable-background:accumulate"
         d="m 8.3416828,44.794984 c -1.3432502,0 -2.4375006,0.84173 -2.4375006,1.875 0,0.17348 0.03625,0.96449 0.09375,1.12395 1.5625004,0.42019 3.1250006,0.41174 4.6875008,0 0.05601,-0.15753 0.09375,-0.95282 0.09375,-1.12395 0,-1.03327 -1.0942502,-1.875 -2.4375002,-1.875 z"
         id="path4386" />
      <path
         style="display:inline;overflow:visible;visibility:visible;fill:#476181;fill-opacity:1;fill-rule:evenodd;stroke:none;stroke-width:0.5;marker:none;enable-background:accumulate"
         d="m 8.3295428,44.806074 c -1.3432502,0 -2.4375006,0.84173 -2.4375006,1.875 0,0.0579 0.02373,0.22591 0.03125,0.375 1.6085904,0.40296 3.2351606,0.39602 4.8437508,0 0.0077,-0.14901 0,-0.31796 0,-0.375 0,-1.03327 -1.0942502,-1.875 -2.4375002,-1.875 z"
         id="path4388" />
      <path
         id="path4390"
         d="m 8.3416828,44.794984 c -1.3432502,0 -2.4375006,0.84173 -2.4375006,1.875 0,0.17348 0.03625,0.96449 0.09375,1.12395 1.5625004,0.42019 3.1250006,0.41174 4.6875008,0 0.05601,-0.15753 0.09375,-0.95282 0.09375,-1.12395 0,-1.03327 -1.0942502,-1.875 -2.4375002,-1.875 z"
         style="display:inline;overflow:visible;visibility:visible;fill:none;stroke:#000000;stroke-width:0.5;stroke-linecap:round;stroke-linejoin:miter;stroke-miterlimit:4;stroke-dasharray:none;stroke-dashoffset:0;stroke-opacity:1;marker:none;enable-background:accumulate" />
      <path
         id="path4392"
         d="m 15.212183,44.794984 c 1.34325,0 2.4375,0.84173 2.4375,1.875 0,0.17348 -0.03625,0.96449 -0.09375,1.12395 -1.5625,0.42019 -3.125,0.41174 -4.6875,0 -0.05601,-0.15753 -0.09375,-0.95282 -0.09375,-1.12395 0,-1.03327 1.09425,-1.875 2.4375,-1.875 z"
         style="display:inline;overflow:visible;visibility:visible;fill:#9d9d9d;fill-opacity:1;fill-rule:evenodd;stroke:none;stroke-width:0.5;marker:none;enable-background:accumulate" />
      <path
         id="path4394"
         d="m 15.224323,44.806074 c 1.34325,0 2.4375,0.84173 2.4375,1.875 0,0.0579 -0.02373,0.22591 -0.03125,0.375 -1.60859,0.40296 -3.23516,0.39602 -4.84375,0 -0.0077,-0.14901 0,-0.31796 0,-0.375 0,-1.03327 1.09425,-1.875 2.4375,-1.875 z"
         style="display:inline;overflow:visible;visibility:visible;fill:#476181;fill-opacity:1;fill-rule:evenodd;stroke:none;stroke-width:0.5;marker:none;enable-background:accumulate" />
      <path
         style="display:inline;overflow:visible;visibility:visible;fill:none;stroke:#000000;stroke-width:0.5;stroke-linecap:round;stroke-linejoin:miter;stroke-miterlimit:4;stroke-dasharray:none;stroke-dashoffset:0;stroke-opacity:1;marker:none;enable-background:accumulate"
         d="m 15.212183,44.794984 c 1.34325,0 2.4375,0.84173 2.4375,1.875 0,0.17348 -0.03625,0.96449 -0.09375,1.12395 -1.5625,0.42019 -3.125,0.41174 -4.6875,0 -0.05601,-0.15753 -0.09375,-0.95282 -0.09375,-1.12395 0,-1.03327 1.09425,-1.875 2.4375,-1.875 z"
         id="path4396" />
      <path
         id="path4305-2"
         transform="translate(-18.425945,12.988781)"
         d="M 23.789062 22.167969 C 23.385921 22.199723 22.874091 22.685896 22.306641 23.285156 C 21.55003 24.084168 20.921064 24.709601 21.421875 25.185547 L 23.644531 27.296875 C 23.755624 27.402451 23.877851 27.489384 24.003906 27.564453 C 23.733871 28.415824 23.564901 29.2337 23.650391 29.853516 C 23.893421 31.615466 24.218121 32.655686 24.400391 33.384766 L 29.212891 33.384766 C 29.261691 32.972056 29.725241 32.634766 30.306641 32.634766 C 30.888051 32.634766 31.351611 32.972056 31.400391 33.384766 L 36.244141 33.384766 C 36.426411 32.655686 36.719871 31.615466 36.962891 29.853516 C 37.027559 29.384673 36.945362 28.801129 36.787109 28.177734 C 37.660245 27.554602 38.318237 27.000718 37.976562 26.521484 L 36.195312 24.025391 C 35.842638 23.530734 35.308507 23.251593 34.75 23.201172 C 34.188475 22.25682 33.230277 22.447266 30.337891 22.447266 L 30.275391 22.447266 C 29.090631 22.447266 28.229041 22.422666 27.587891 22.447266 C 26.519311 22.488166 26.054651 22.681086 25.712891 23.478516 C 25.690485 23.530796 25.643442 23.630502 25.617188 23.689453 L 24.154297 22.300781 C 24.045677 22.197556 23.923443 22.157384 23.789062 22.167969 z "
         style="display:inline;overflow:visible;visibility:visible;fill:#3cab5a;fill-opacity:1;fill-rule:evenodd;stroke:none;stroke-width:0.5;marker:none;enable-background:accumulate" />
      <path
         style="display:inline;overflow:visible;visibility:visible;fill:#315a7a;fill-opacity:1;fill-rule:evenodd;stroke:none;stroke-width:0.5;marker:none;enable-background:accumulate"
         d="m 9.1672858,39.287614 c -0.48853,0 -0.875,0.38647 -0.875,0.875 l 0,1.09375 c -0.4915702,1.26998 -1.5375902,0.45815 -3.0312506,0.71418 -0.0416,0.31878 -0.0673,0.61366 -0.0313,0.875 0.24303,1.76195 0.56773,2.80217 0.75,3.53125 1.6041704,0 3.2083306,0 4.8125008,0 0.0488,-0.41271 0.51235,-0.75 1.09375,-0.75 0.58141,0 1.04497,0.33729 1.09375,0.75 1.61458,0 3.22917,0 4.84375,0 0.18227,-0.72908 0.47573,-1.7693 0.71875,-3.53125 0.0371,-0.26902 0.0135,-0.57672 -0.0313,-0.90625 -1.49107,-0.2585 -2.54023,0.58565 -3.03125,-0.68293 l 0,-1.09375 c 0,-0.48853 -0.38648,-0.875 -0.875,-0.875 l -5.4375002,0 z"
         id="path4307-7" />
      <path
         style="display:inline;overflow:visible;visibility:visible;fill:#376e91;fill-opacity:1;fill-rule:evenodd;stroke:none;stroke-width:0.49999997;marker:none;enable-background:accumulate"
         d="m 13.729786,35.408044 0,3.96875 c -1e-5,0.48853 0.41772,0.90625 0.90625,0.90625 l 0.3125,0 c 0.48852,0 0.875,-0.41772 0.875,-0.90625 l 0,-3.71875 c -0.42793,-0.23384 -1.07576,-0.25882 -2.09375,-0.25 z m -4.5625002,0.0313 c -0.53429,0.0205 -0.9263,0.0657 -1.2187502,0.21875 l 0,3.71875 c 0,0.48853 0.3864702,0.90625 0.8750002,0.90625 l 0.34375,0 c 0.48852,0 0.8749902,-0.41772 0.8750002,-0.90625 l 0,-3.9375 c -0.2590302,1.2e-4 -0.6662602,-0.008 -0.8750002,0 z"
         id="path4309-5" />
      <path
         style="display:inline;overflow:visible;visibility:visible;fill:#376e91;fill-opacity:1;fill-rule:evenodd;stroke:#000000;stroke-width:0.49999997;stroke-linecap:round;stroke-linejoin:round;stroke-miterlimit:4;stroke-dasharray:none;stroke-dashoffset:0;stroke-opacity:1;marker:none;enable-background:accumulate"
         d="m 10.323536,40.720544 c -0.4885302,0 -0.8750002,0.2981 -0.8750002,0.67492 l 0,0.69902 c 0,0.37682 0.41614,0.5456 0.8750002,0.67492 l 1.60151,0.45135 1.52349,-0.45135 c 0.45604,-0.13511 0.875,-0.2981 0.875,-0.67492 l 0,-0.69902 c 0,-0.37682 -0.38648,-0.67492 -0.875,-0.67492 l -3.125,0 z"
         id="path4311-6" />
      <path
         style="display:inline;overflow:visible;visibility:visible;fill:none;stroke:#000000;stroke-width:0.5;stroke-linecap:round;stroke-linejoin:round;stroke-miterlimit:4;stroke-dasharray:none;stroke-dashoffset:0;stroke-opacity:1;marker:none;enable-background:accumulate"
         d="m 18.512726,41.936994 c -1.49107,-0.2585 -2.54023,0.58107 -3.03125,-0.6875 l 0,-1.09375 c 0,-0.0215 10e-4,-0.0414 0,-0.0625 0.21207,-0.16759 0.34375,-0.42939 0.34375,-0.71875 l 0,-3.71875 m -2.09375,-0.25 0,3.875 -3.6875,0 0,-3.84375 m -2.0937504,0.21875 0,3.71875 c 0,0.28936 0.1316802,0.55116 0.3437502,0.71875 -10e-4,0.0211 0,0.041 0,0.0625 l 0,1.09375 c -0.4915702,1.26997 -1.5375902,0.46272 -3.0312506,0.71875"
         id="path4313-5" />
      <path
         id="path4315-5"
         transform="translate(-18.425945,12.988781)"
         d="M 23.789062 22.167969 C 23.385921 22.199723 22.874091 22.685896 22.306641 23.285156 C 21.55003 24.084168 20.921064 24.709601 21.421875 25.185547 L 23.644531 27.296875 C 23.755624 27.402451 23.877851 27.489384 24.003906 27.564453 C 23.733871 28.415824 23.564901 29.2337 23.650391 29.853516 C 23.893421 31.615466 24.218121 32.655686 24.400391 33.384766 L 29.212891 33.384766 C 29.261691 32.972056 29.725241 32.634766 30.306641 32.634766 C 30.888051 32.634766 31.351611 32.972056 31.400391 33.384766 L 36.244141 33.384766 C 36.426411 32.655686 36.719871 31.615466 36.962891 29.853516 C 37.027559 29.384673 36.945362 28.801129 36.787109 28.177734 C 37.660245 27.554602 38.318237 27.000718 37.976562 26.521484 L 36.195312 24.025391 C 35.842638 23.530734 35.308507 23.251593 34.75 23.201172 C 34.188475 22.25682 33.230277 22.447266 30.337891 22.447266 L 30.275391 22.447266 C 29.090631 22.447266 28.229041 22.422666 27.587891 22.447266 C 26.519311 22.488166 26.054651 22.681086 25.712891 23.478516 C 25.690485 23.530796 25.643442 23.630502 25.617188 23.689453 L 24.154297 22.300781 C 24.045677 22.197556 23.923443 22.157384 23.789062 22.167969 z "
         style="display:inline;overflow:visible;visibility:visible;fill:none;stroke:#000000;stroke-width:0.5;stroke-linecap:butt;stroke-linejoin:miter;stroke-miterlimit:4;stroke-dasharray:none;stroke-dashoffset:0;stroke-opacity:1;marker:none;enable-background:accumulate" />
      <path
         style="display:inline;overflow:visible;visibility:visible;fill:#ffc78f;fill-opacity:1;fill-rule:evenodd;stroke:#000000;stroke-width:0.49999997;stroke-linecap:round;stroke-linejoin:round;stroke-miterlimit:4;stroke-dasharray:none;stroke-dashoffset:0;stroke-opacity:1;marker:none;enable-background:accumulate"
         d="m 12.253823,22.716093 c -1.42738,1.04711 -4.5047304,1.28076 -5.8131604,1.39711 -0.08824,0.7768 0.2377,4.9378 -2.3864504,8.504121 1.66,2.84119 4.5088106,4.9506 7.7712708,4.9506 3.2084,0 6.03831,-2.02904 7.71008,-4.79873 0.0046,-0.008 -0.0046,-0.0227 0,-0.0304 -2.34335,-3.841481 -3.10066,-7.038151 -2.7536,-8.990061 -0.35684,0.46537 -1.80545,1.74613 -2.87598,1.39711 0.11895,-0.46539 0.24476,-0.94154 0.24476,-0.94154 0,0 -0.48673,0.82004 -2.50883,0.82004 0.2379,-0.58171 0.37403,-1.61019 0.61191,-2.30826 z"
         id="path2593" />
      <ellipse
         ry="1.5277451"
         rx="1.5389987"
         cy="33.075874"
         cx="6.6330452"
         style="display:inline;overflow:visible;visibility:visible;fill:#fa9763;fill-opacity:1;fill-rule:evenodd;stroke:none;stroke-width:0.50000006;marker:none;enable-background:accumulate"
         id="path2595" />
      <path
         style="display:inline;fill:none;stroke:#000000;stroke-width:0.50000012;stroke-linecap:round;stroke-linejoin:miter;stroke-miterlimit:4;stroke-dasharray:none;stroke-opacity:1"
         d="m 10.893273,33.299714 c 0,0.28682 0.12402,0.57367 0.3307,0.69656"
         id="path2597" />
      <path
         style="display:inline;overflow:visible;visibility:visible;fill:#ffffff;fill-opacity:1;fill-rule:evenodd;stroke:#000000;stroke-width:0.50000012;stroke-linecap:round;stroke-linejoin:round;stroke-miterlimit:4;stroke-dashoffset:0;stroke-opacity:1;marker:none;enable-background:accumulate"
         d="m 9.6796328,30.240334 c 0.4752502,1.67612 0.20154,1.49875 -1.04505,1.84612 -0.8024102,0.22359 -1.6367002,-0.24053 -1.8622502,-1.03599 -0.22554,-0.79549 0.24264,-1.622541 1.04506,-1.846131 0.8024102,-0.22359 1.6367002,0.24053 1.8622402,1.036001 z"
         id="path2602" />
      <ellipse
         ry="0.99793828"
         rx="1.0066569"
         cy="30.639126"
         cx="8.4792356"
         style="display:inline;overflow:visible;visibility:visible;fill:#000000;fill-opacity:1;fill-rule:evenodd;stroke:none;stroke-width:0.49999997;marker:none;enable-background:accumulate"
         id="path2604" />
      <ellipse
         ry="0.40046838"
         rx="0.42386398"
         cy="30.348053"
         cx="8.2275677"
         style="display:inline;overflow:visible;visibility:visible;fill:#ffffff;fill-opacity:1;fill-rule:evenodd;stroke:none;stroke-width:0.5;marker:none;enable-background:accumulate"
         id="path2606" />
      <path
         style="display:inline;fill:none;stroke:#000000;stroke-width:0.50000012;stroke-linecap:butt;stroke-linejoin:miter;stroke-miterlimit:4;stroke-dasharray:none;stroke-opacity:1"
         d="m 6.7991226,28.440403 c 0.49076,-0.53981 1.3073102,-0.78776 1.7855802,-0.55518"
         id="path2608" />
      <ellipse
         ry="1.5277451"
         rx="1.5389987"
         cy="33.075874"
         cx="-16.932714"
         transform="scale(-1,1)"
         id="path2610"
         style="display:inline;overflow:visible;visibility:visible;fill:#fa9763;fill-opacity:1;fill-rule:evenodd;stroke:none;stroke-width:0.50000006;marker:none;enable-background:accumulate" />
      <path
         id="path2612"
         d="m 13.886133,30.240334 c -0.47525,1.67612 -0.20154,1.49875 1.04505,1.84612 0.80241,0.22359 1.6367,-0.24053 1.86225,-1.03599 0.22554,-0.79549 -0.24264,-1.622541 -1.04505,-1.846131 -0.80242,-0.22359 -1.63671,0.24053 -1.86225,1.036001 z"
         style="display:inline;overflow:visible;visibility:visible;fill:#ffffff;fill-opacity:1;fill-rule:evenodd;stroke:#000000;stroke-width:0.50000012;stroke-linecap:round;stroke-linejoin:round;stroke-miterlimit:4;stroke-dashoffset:0;stroke-opacity:1;marker:none;enable-background:accumulate" />
      <ellipse
         ry="0.99793828"
         rx="1.0066569"
         cy="30.639126"
         cx="-15.08654"
         transform="scale(-1,1)"
         id="path2614"
         style="display:inline;overflow:visible;visibility:visible;fill:#000000;fill-opacity:1;fill-rule:evenodd;stroke:none;stroke-width:0.49999997;marker:none;enable-background:accumulate" />
      <ellipse
         ry="0.40046838"
         rx="0.42386398"
         cy="30.348053"
         cx="-14.692906"
         transform="scale(-1,1)"
         id="path2616"
         style="display:inline;overflow:visible;visibility:visible;fill:#ffffff;fill-opacity:1;fill-rule:evenodd;stroke:none;stroke-width:0.5;marker:none;enable-background:accumulate" />
      <path
         id="path2618"
         d="m 16.766643,28.440403 c -0.49076,-0.53981 -1.30731,-0.78776 -1.78558,-0.55518"
         style="display:inline;fill:none;stroke:#000000;stroke-width:0.50000012;stroke-linecap:butt;stroke-linejoin:miter;stroke-miterlimit:4;stroke-dasharray:none;stroke-opacity:1" />
      <path
         id="path4356"
         d="m 6.5014526,13.392614 c -1.6606804,0 -3.0101404,2.32496 -3.0325004,5.202489 -1.70032,1.85161 -2.71816997,4.23085 -2.89307997,6.7737 0,0.96623 5.00825997,1.7458 11.15402077,1.7458 5.98683,0 10.8362,-0.74452 11.08432,-1.67597 l 0,-0.2095 c -0.17093,-2.42187 -1.10522,-4.63919 -2.57937,-6.38962 0.0011,-0.058 0,-0.11614 0,-0.17458 0,-2.910939 -1.35788,-5.272319 -3.0325,-5.272319 -0.93409,0 -1.77873,0.76512 -2.33538,1.92038 -1.01828,-0.30542 -2.09096,-0.4539 -3.20678,-0.4539 -1.00377,0.0651 -1.9369102,0.23711 -2.8233602,0.48882 -0.55654,-1.17624 -1.3915002,-1.9553 -2.3353702,-1.9553 z"
         style="display:inline;overflow:visible;visibility:visible;fill:#782121;fill-opacity:1;fill-rule:evenodd;stroke:none;stroke-width:0.5;marker:none;enable-background:accumulate" />
      <path
         style="display:inline;fill:#d35f5f;fill-rule:evenodd;stroke:none"
         d="m 7.8259926,16.674724 c -2.0249604,0.23095 -4.2176504,2.502949 -5.3678804,9.671729 2.00257,0.46908 5.4071904,0.76815 9.2717808,0.76815 4.04938,0 7.54413,-0.3293 9.48092,-0.83799 -2.11829,-13.125099 -7.73477,-9.566199 -9.37635,-7.78626 -0.75552,-0.813049 -2.3183102,-2.008409 -4.0084704,-1.815629 z"
         id="path4358" />
      <path
         style="display:inline;overflow:visible;visibility:visible;fill:#c83737;fill-opacity:1;fill-rule:evenodd;stroke:none;stroke-width:0.5;marker:none;enable-background:accumulate"
         d="m 20.234843,18.839513 c 0.16702,0.19832 0.30108,0.42044 0.45313,0.62849 0.01954,0.0173 0.04745,0.0219 0.06971,0.0349 -0.16696,-0.23288 -0.33857,-0.4446 -0.52284,-0.6634 z m -17.4630208,0.59357 c -0.22091,0.29425 -0.40281,0.5941 -0.59256,0.90782 0.02931,-0.0495 0.07435,-0.0905 0.10457,-0.13967 0.1564,-0.25463 0.31226,-0.52258 0.48799,-0.76815 z m -0.59256,0.90782 c -0.36325,0.60057 -0.66269,1.26093 -0.90626,1.92038 0.2498,-0.67632 0.57211,-1.30353 0.94112,-1.92038 -0.0098,-0.004 -0.0251,0.004 -0.03486,0 z m -0.90626,1.92038 c -0.36749997,0.99498 -0.62267997,2.02519 -0.69712997,3.10752 0,0.96623 5.00825997,1.7458 11.15402077,1.7458 5.98683,0 10.8362,-0.74452 11.08432,-1.67597 l 0,-0.2095 c -0.07913,-1.12108 -0.31304,-2.20486 -0.69713,-3.21227 l -0.10457,0.0349 c 0.02096,0.0379 0.03486,0.0661 0.03486,0.10475 0,0.80854 -4.6643,1.46647 -10.42204,1.46647 -5.4698608,0 -9.9177008,-0.60912 -10.3523308,-1.36172 z m 19.7286808,-2.37429 c 0.18723,0.28051 0.36066,0.57566 0.52284,0.8729 -0.15796,-0.29535 -0.33964,-0.59434 -0.52284,-0.8729 z"
         id="path4360" />
      <path
         style="display:inline;overflow:visible;visibility:visible;fill:none;stroke:#000000;stroke-width:0.49999994;stroke-linecap:butt;stroke-linejoin:miter;stroke-miterlimit:4;stroke-dasharray:none;stroke-dashoffset:0;stroke-opacity:1;marker:none;enable-background:accumulate"
         d="m 6.5014526,13.392614 c -1.6606804,0 -3.0101404,2.32496 -3.0325004,5.202489 -1.70032,1.85161 -2.71816997,4.23085 -2.89307997,6.7737 0,0.96623 5.00825997,1.7458 11.15402077,1.7458 5.98683,0 10.8362,-0.74452 11.08432,-1.67597 l 0,-0.2095 c -0.17093,-2.42187 -1.10522,-4.63919 -2.57937,-6.38962 0.0011,-0.058 0,-0.11614 0,-0.17458 0,-2.910939 -1.35788,-5.272319 -3.0325,-5.272319 -0.93409,0 -1.77873,0.76512 -2.33538,1.92038 -1.01828,-0.30542 -2.09096,-0.4539 -3.20678,-0.4539 -1.00377,0.0651 -1.9369102,0.23711 -2.8233602,0.48882 -0.55654,-1.17624 -1.3915002,-1.9553 -2.3353702,-1.9553 z"
         id="path4362" />
      <path
         style="display:inline;overflow:visible;visibility:visible;fill:#946344;fill-opacity:1;fill-rule:evenodd;stroke:#000000;stroke-width:0.49999994;stroke-linecap:round;stroke-linejoin:round;stroke-miterlimit:4;stroke-dasharray:none;stroke-dashoffset:0;stroke-opacity:1;marker:none;enable-background:accumulate"
         d="m 1.3078422,20.829723 c -0.66686997,1.22619 -1.12145997,2.54099 -1.32451997,3.94548 l 9.93405057,0 c -0.004,-0.0574 0,-0.11602 0,-0.17457 0,-1.22491 0.8649902,-2.23462 1.9519602,-2.23462 1.08694,0 1.9868,1.00971 1.9868,2.23462 0,0.0593 -0.0308,0.11647 -0.03488,0.17457 l 9.62036,0 c -0.19107,-1.40429 -0.6536,-2.74081 -1.2897,-3.94548 l -20.8440708,0 z"
         id="path4364" />
      <ellipse
         ry="3.4891882"
         rx="3.8459377"
         cy="22.436562"
         cx="7.4091864"
         style="display:inline;overflow:visible;visibility:visible;fill:#916f6f;fill-opacity:1;fill-rule:evenodd;stroke:#000000;stroke-width:0.49999997;stroke-linecap:round;stroke-linejoin:miter;stroke-miterlimit:4;stroke-dasharray:none;stroke-dashoffset:0;stroke-opacity:1;marker:none;enable-background:accumulate"
         id="path4366" />
      <ellipse
         ry="2.6943021"
         rx="2.9946892"
         cy="22.267746"
         cx="7.4091845"
         id="path4368"
         style="display:inline;overflow:visible;visibility:visible;fill:#3c444f;fill-opacity:1;fill-rule:evenodd;stroke:none;stroke-width:0.66945678;marker:none;enable-background:accumulate" />
      <path
         style="display:inline;overflow:visible;visibility:visible;fill:#495760;fill-opacity:1;fill-rule:evenodd;stroke:none;stroke-width:0.66945678;marker:none;enable-background:accumulate"
         d="m 7.4077126,19.572753 c -1.16087,0 -2.1521604,0.59691 -2.6490904,1.46647 0.4916,0.88364 1.4767104,1.5363 2.6490904,1.5363 1.1724002,0 2.1575202,-0.65266 2.6491004,-1.5363 -0.4969402,-0.86956 -1.4882202,-1.46647 -2.6491004,-1.46647 z"
         id="path4370" />
      <ellipse
         ry="1.3732342"
         rx="1.3708875"
         cy="21.401447"
         cx="6.3599997"
         style="display:inline;overflow:visible;visibility:visible;fill:#98a1a6;fill-opacity:1;fill-rule:evenodd;stroke:none;stroke-width:0.5;marker:none;enable-background:accumulate"
         id="path4372" />
      <ellipse
         ry="3.4891882"
         rx="3.8459377"
         cy="22.436562"
         cx="16.270817"
         id="path4374"
         style="display:inline;overflow:visible;visibility:visible;fill:#916f6f;fill-opacity:1;fill-rule:evenodd;stroke:#000000;stroke-width:0.49999997;stroke-linecap:round;stroke-linejoin:miter;stroke-miterlimit:4;stroke-dasharray:none;stroke-dashoffset:0;stroke-opacity:1;marker:none;enable-background:accumulate" />
      <ellipse
         ry="2.6943021"
         rx="2.9946892"
         cy="22.267746"
         cx="16.270803"
         style="display:inline;overflow:visible;visibility:visible;fill:#3c444f;fill-opacity:1;fill-rule:evenodd;stroke:none;stroke-width:0.66945678;marker:none;enable-background:accumulate"
         id="path4376" />
      <path
         id="path4378"
         d="m 16.269353,19.572753 c -1.16088,0 -2.15219,0.59691 -2.6491,1.46647 0.4916,0.88364 1.47669,1.5363 2.6491,1.5363 1.1724,0 2.15751,-0.65266 2.64907,-1.5363 -0.49693,-0.86956 -1.4882,-1.46647 -2.64907,-1.46647 z"
         style="display:inline;overflow:visible;visibility:visible;fill:#495760;fill-opacity:1;fill-rule:evenodd;stroke:none;stroke-width:0.66945678;marker:none;enable-background:accumulate" />
      <ellipse
         ry="1.1117164"
         rx="1.1098166"
         cy="21.488613"
         cx="14.960554"
         id="path4380"
         style="display:inline;overflow:visible;visibility:visible;fill:#98a1a6;fill-opacity:1;fill-rule:evenodd;stroke:none;stroke-width:0.5;marker:none;enable-background:accumulate" />
      <ellipse
         ry="0.69519043"
         rx="0.69400233"
         cy="23.004082"
         cx="9.1290655"
         id="path4382"
         style="display:inline;overflow:visible;visibility:visible;fill:#98a1a6;fill-opacity:1;fill-rule:evenodd;stroke:none;stroke-width:0.5;marker:none;enable-background:accumulate" />
      <ellipse
         ry="0.69519043"
         rx="0.69400233"
         cy="23.004082"
         cx="17.990116"
         style="display:inline;overflow:visible;visibility:visible;fill:#98a1a6;fill-opacity:1;fill-rule:evenodd;stroke:none;stroke-width:0.5;marker:none;enable-background:accumulate"
         id="path4384" />
      <path
         style="display:inline;fill:#2a2a2a;fill-opacity:1;fill-rule:evenodd;stroke:none"
         d="m 9.0965811,34.738651 c -1.0766362,0 -0.5441529,1.869868 2.3288579,2.015052 0.329323,0 0.585237,0 0.876746,0 2.882358,-0.141101 3.406827,-2.015052 2.328859,-2.015052 -1.844816,0 -3.68964,0 -5.5344629,0 z"
         id="path3208" />
      <path
         style="display:inline;overflow:visible;visibility:visible;fill:#5b1f1f;fill-opacity:1;fill-rule:evenodd;stroke:none;stroke-width:0.5;marker:none;enable-background:accumulate"
         d="m 11.809015,35.490937 c -0.880832,0 -1.605673,0.388096 -1.9178823,0.940357 0.4124393,0.159561 0.9049073,0.290603 1.5343063,0.322409 0.329323,0 0.585237,0 0.876746,0 0.604386,-0.02958 1.075505,-0.146831 1.47951,-0.295541 -0.300978,-0.568819 -1.075242,-0.967225 -1.97268,-0.967225 z"
         id="path3210" />
      <path
         style="display:inline;fill:#f3f3f3;fill-opacity:1;fill-rule:evenodd;stroke:none"
         d="m 9.5349544,34.738651 c 0.3134983,0.448752 0.9337256,0.873297 1.9726796,0.940357 0.257833,0 0.48413,0 0.712356,0 1.042338,-0.06518 1.659761,-0.491214 1.97268,-0.940357 -1.552569,0 -3.105138,0 -4.6577156,0 z"
         id="path3212" />
      <path
         id="path3214"
         d="m 9.0965811,34.738651 c -1.0766362,0 -0.5441528,1.869868 2.3288579,2.015052 0.329323,0 0.585237,0 0.876746,0 2.882358,-0.141101 3.406828,-2.015052 2.328859,-2.015052 -1.844816,0 -3.68964,0 -5.5344629,0 z"
         style="display:inline;fill:none;stroke:#000000;stroke-width:0.5;stroke-linecap:butt;stroke-linejoin:miter;stroke-miterlimit:4;stroke-dasharray:none;stroke-opacity:1" />
      <path
         id="path4802"
         d="m 3.2206778,28.440013 c -1.1153588,0.304721 -1.0674926,1.403046 -0.7054007,2.497124 0.2771942,0.804774 0.6243523,1.510132 1.0024114,2.032734 -1.5059042,0.09589 -2.71022358,1.322507 -2.71022358,2.845828 0,1.585841 1.30282008,2.882787 2.89585548,2.882787 1.5930352,0 2.8958553,-1.296946 2.8958553,-2.882787 0,-0.954147 -0.3393526,-1.824516 -0.8368814,-2.401885 C 5.6540636,32.529353 5.5961702,31.519486 5.151248,30.013166 4.855651,29.012393 4.3360365,28.135291 3.2206778,28.440013 Z"
         style="color:#000000;display:inline;overflow:visible;visibility:visible;fill:#ffc78f;fill-opacity:1;fill-rule:evenodd;stroke:#000000;stroke-width:0.5;stroke-linecap:round;stroke-linejoin:miter;stroke-miterlimit:4;stroke-dasharray:none;stroke-dashoffset:0;stroke-opacity:1;marker:none;enable-background:accumulate" />
      <path
         id="path4823"
         d="m 2.1811399,32.230695 c -0.3984696,-0.01508 -0.7503799,0.12847 -0.9652851,0.406547 -0.33825968,0.437685 -0.22139187,1.101998 0.2227581,1.663147 -0.67079298,0.05614 -1.19019356,0.409329 -1.29942225,0.92397 -0.09813238,0.462347 0.18375464,0.930979 0.66827427,1.256598 -0.19708449,0.122555 -0.36355307,0.272389 -0.40838982,0.480466 -0.1127453,0.523264 0.39971711,1.064042 1.1509168,1.21964 0.7511879,0.155599 1.4465259,-0.141995 1.5593068,-0.665258 0.056432,-0.261633 -0.013425,-0.516578 -0.2227581,-0.739176 0.4019269,-0.15306 0.702288,-0.448627 0.7796534,-0.813094 0.057857,-0.272788 -0.050017,-0.568159 -0.2227582,-0.813094 0.254669,-0.05036 0.4805279,-0.137733 0.631148,-0.33263 C 4.5043941,34.261658 4.2297185,33.313351 3.4434358,32.71116 3.0503005,32.410065 2.5796096,32.24578 2.1811399,32.230695 Z"
         style="display:inline;overflow:visible;visibility:visible;fill:#ffc78f;fill-opacity:1;fill-rule:evenodd;stroke:#000000;stroke-width:0.5;stroke-linecap:round;stroke-linejoin:miter;stroke-miterlimit:4;stroke-dasharray:none;stroke-dashoffset:0;stroke-opacity:1;marker:none;enable-background:accumulate" />
      <ellipse
         style="display:inline;overflow:visible;visibility:visible;fill:#ffc78f;fill-opacity:1;fill-rule:evenodd;stroke:#000000;stroke-width:0.5;stroke-linecap:round;stroke-linejoin:miter;stroke-miterlimit:4;stroke-dasharray:none;stroke-dashoffset:0;stroke-opacity:1;marker:none;enable-background:accumulate"
         id="path4821"
         transform="matrix(0.99985472,0.01704515,-0.01719998,0.99985207,0,0)"
         cx="5.6384311"
         cy="35.007904"
         rx="1.7962685"
         ry="1.2705396" />
    </g>
  </g>
</svg>
