<?xml version="1.0" encoding="UTF-8" standalone="no"?>
<svg xmlns:dc="http://purl.org/dc/elements/1.1/" xmlns:cc="http://creativecommons.org/ns#" xmlns:rdf="http://www.w3.org/1999/02/22-rdf-syntax-ns#" xmlns:svg="http://www.w3.org/2000/svg" xmlns="http://www.w3.org/2000/svg" version="1.1" id="ppvs" viewBox="0 0 40 30" height="100%" width="100%">
 <defs id="defs5015" />
 <g id="layer1">
 <rect y="0" x="0" height="30" width="40" id="rect0001" style="fill:#333333" />
 <path id="path3602" d="M 8.115 -1.191 C 7.682 -1.186 7.257 -1.147 6.847 -1.070 C 7.201 -0.893 7.822 -0.539 7.822 -0.539 C 7.822 -0.539 2.774 -0.626 0.029 2.119 C -2.716 4.864 -5.551 11.240 -4.222 15.580 C -3.673 17.373 -3.158 18.509 -2.707 19.294 L -2.707 20.572 C -2.707 23.154 -1.010 25.326 1.333 26.041 L -0.093 28.716 C -0.132 28.790 -0.151 28.861 -0.156 28.933 C -0.164 28.938 -0.180 28.938 -0.185 28.947 C -1.115 30.819 -0.206 32.369 0.837 33.076 C 1.059 33.199 1.291 33.245 1.519 33.240 C 1.699 34.221 1.881 35.041 2.027 35.613 L 2.027 38.748 L 7.619 38.748 L 7.619 36.011 C 7.619 34.869 10.144 34.899 10.119 36.011 L 10.121 38.748 L 15.712 38.748 L 15.712 35.613 C 15.908 34.844 16.174 33.776 16.404 32.218 C 16.426 32.068 16.447 31.980 16.468 31.820 C 16.499 31.588 16.494 31.329 16.468 31.056 C 16.464 31.013 16.458 30.969 16.453 30.925 A 2.842 2.850 44.181 0 0 17.398 30.283 A 2.842 2.850 44.181 0 0 17.345 26.257 A 2.842 2.850 44.181 0 0 16.781 25.833 C 17.978 25.322 18.948 24.406 19.554 23.261 C 19.677 23.554 19.851 23.820 20.066 24.046 C 19.807 24.943 19.392 25.645 18.603 26.302 C 21.889 26.772 22.828 25.716 24.001 24.425 C 23.980 24.687 24.203 24.899 24.578 25.095 C 24.325 25.294 24.106 25.544 23.943 25.845 L 22.162 29.128 C 22.118 29.209 22.093 29.290 22.087 29.369 C 22.080 29.374 22.065 29.374 22.060 29.382 C 21.020 31.441 22.014 33.157 23.166 33.943 C 23.974 34.397 24.914 34.037 25.429 33.126 L 25.896 32.302 L 28.537 35.423 L 35.691 31.990 L 36.335 33.126 C 36.850 34.037 37.790 34.397 38.599 33.943 C 39.750 33.157 40.745 31.441 39.705 29.382 C 39.700 29.374 39.685 29.374 39.677 29.369 L 39.677 29.367 C 39.671 29.288 39.647 29.209 39.603 29.128 L 37.822 25.845 C 37.638 25.507 37.381 25.238 37.087 25.029 C 37.405 24.798 37.676 24.564 37.835 24.322 C 37.841 24.325 37.847 24.328 37.853 24.332 C 37.884 25.491 39.964 26.302 40.546 26.302 C 40.310 25.514 40.248 24.945 40.222 24.474 C 40.390 24.397 40.545 24.301 40.691 24.191 C 41.362 24.652 41.900 24.894 42.660 24.894 C 42.300 23.970 41.948 23.068 41.726 22.150 C 41.726 21.848 41.666 21.562 41.568 21.294 C 41.446 20.382 41.486 19.443 41.837 18.439 C 42.659 16.092 44.537 9.991 39.960 4.828 C 37.100 1.601 33.015 0.232 29.945 0.216 C 28.102 0.207 26.624 0.685 25.996 1.542 C 23.572 2.603 21.696 3.946 20.359 5.515 C 19.513 3.414 18.150 1.917 15.970 2.119 C 14.575 0.414 11.145 -1.224 8.115 -1.191 z " style="fill:none;stroke:#ffffff;stroke-width:3;stroke-linecap:butt;marker:none;" />
 <g transform="translate(0.444,2.031)" id="g3494">
 <path id="path4540" d="m 12.318,35.519 c -1.580,0 -2.867,0.996 -2.867,2.220 0,0.205 0.042,1.142 0.110,1.330 1.838,0.497 3.676,0.487 5.514,0 0.065,-0.186 0.110,-1.128 0.110,-1.330 0,-1.223 -1.287,-2.220 -2.867,-2.220 z" style="fill:#9d9d9d;stroke-width:0.5;marker:none;" />
 <path id="path4542" d="m 12.304,35.533 c -1.580,0 -2.867,0.996 -2.867,2.220 0,0.068 0.027,0.267 0.036,0.444 1.892,0.477 3.805,0.468 5.698,0 0.009,-0.176 0,-0.376 0,-0.444 0,-1.223 -1.287,-2.220 -2.867,-2.220 z" style="fill:#476181;stroke-width:0.5;marker:none;" />
 <path style="fill:none;stroke:#000000;stroke-width:0.5;stroke-linecap:round;marker:none;" d="m 12.318,35.519 c -1.580,0 -2.867,0.996 -2.867,2.220 0,0.205 0.042,1.142 0.110,1.330 1.838,0.497 3.676,0.487 5.514,0 0.065,-0.186 0.110,-1.128 0.110,-1.330 0,-1.223 -1.287,-2.220 -2.867,-2.220 z" id="path4544" />
 <path style="fill:#9d9d9d;stroke-width:0.5;marker:none;" d="m 4.454,35.519 c -1.580,0 -2.867,0.996 -2.867,2.220 0,0.205 0.042,1.142 0.110,1.330 1.838,0.497 3.676,0.487 5.514,0 0.065,-0.186 0.110,-1.128 0.110,-1.330 0,-1.223 -1.287,-2.220 -2.867,-2.220 z" id="path3507-7" />
 <path style="fill:#476181;stroke-width:0.5;marker:none;" d="m 4.439,35.533 c -1.580,0 -2.867,0.996 -2.867,2.220 0,0.068 0.027,0.267 0.036,0.444 1.892,0.477 3.805,0.468 5.698,0 0.009,-0.176 0,-0.376 0,-0.444 0,-1.223 -1.287,-2.220 -2.867,-2.220 z" id="path3512-6" />
 <path id="path3517-5" d="m 4.454,35.519 c -1.580,0 -2.867,0.996 -2.867,2.220 0,0.205 0.042,1.142 0.110,1.330 1.838,0.497 3.676,0.487 5.514,0 0.065,-0.186 0.110,-1.128 0.110,-1.330 0,-1.223 -1.287,-2.220 -2.867,-2.220 z" style="fill:none;stroke:#000000;stroke-width:0.5;stroke-linecap:round;marker:none;" />
 <path id="path4512" d="m 3.189,28.935 -0.754,1.355 c -0.460,0.827 -1.308,1.159 -2.041,0.752 -1.044,-0.706 -1.953,-2.255 -1.023,-4.127 0.197,-0.352 3.819,2.019 3.819,2.019 z" style="fill:#ffc78f;stroke:#000000;stroke-width:0.5;stroke-linecap:butt;marker:none;" />
 <path id="path4514-1" d="m 1.054,28.357 c 1.073,0.568 1.923,1.053 2.282,0.380 l 1.593,-2.984 c 0.573,-1.073 0.170,-2.395 -0.903,-2.964 -1.073,-0.568 -2.399,-0.162 -2.972,0.911 l -1.593,2.984 c -0.311,0.583 0.519,1.103 1.593,1.672 z" style="fill:#ffffff;stroke:#000000;stroke-width:0.5;stroke-linecap:round;marker:none;" />
 <path id="path4324-3" d="m 10.695,21.010 c -0.609,0.003 -1.334,0.030 -2.237,0.030 l -0.065,0 c -1.354,0 -2.326,-0.029 -3.059,0 -1.221,0.048 -1.780,0.280 -2.171,1.223 -0.532,1.285 -2.034,4.323 -2.303,6.484 -0.011,0.093 -0.026,0.185 -0.033,0.275 -0.025,0.273 -0.030,0.532 0,0.764 0.019,0.147 0.045,0.258 0.065,0.397 0.230,1.557 0.495,2.627 0.690,3.395 l 0,3.133 5.591,0 c 0,0 0.001,-2.722 0.001,-2.735 0,-1.142 2.525,-1.111 2.500,0 l 0.002,2.735 5.590,0 0,-3.133 c 0.195,-0.768 0.460,-1.837 0.690,-3.395 0.022,-0.149 0.044,-0.237 0.065,-0.397 0.030,-0.231 0.025,-0.491 0,-0.764 -0.008,-0.091 -0.021,-0.181 -0.033,-0.275 -0.268,-2.161 -1.770,-5.199 -2.303,-6.484 -0.468,-1.131 -1.166,-1.264 -2.993,-1.254 z" style="fill:#761d1d;stroke-width:0.5;marker:none;" />
 <path style="fill:#ffffff;stroke:none" d="m 10.699,21.000 c -0.609,0.003 -1.331,0.031 -2.234,0.031 l -0.062,0 c -1.354,0 -2.350,-0.029 -3.083,0 -1.221,0.048 -1.780,0.283 -2.171,1.227 -0.519,1.255 -1.948,4.174 -2.265,6.324 1.073,1.805 6.136,2.422 6.136,2.422 l 1.447,-1.856 1.447,1.856 c 0,0 4.886,-0.594 6.073,-2.328 -0.287,-2.157 -1.769,-5.145 -2.297,-6.419 -0.468,-1.131 -1.161,-1.269 -2.989,-1.258 z" id="path4326-8" />
 <path style="fill:none;stroke:#000000;stroke-width:0.5;stroke-linecap:round;marker:none;" d="m 10.695,21.010 c -0.609,0.003 -1.334,0.030 -2.237,0.030 l -0.065,0 c -1.354,0 -2.326,-0.029 -3.059,0 -1.221,0.048 -1.780,0.280 -2.171,1.223 -0.532,1.285 -2.034,4.323 -2.303,6.484 -0.011,0.093 -0.026,0.185 -0.033,0.275 -0.025,0.273 -0.030,0.532 0,0.764 0.019,0.147 0.045,0.258 0.065,0.397 0.230,1.557 0.495,2.627 0.690,3.395 l 0,3.133 5.591,0 c 0,0 0.001,-2.722 0.001,-2.735 0,-1.142 2.525,-1.111 2.500,0 l 0.002,2.735 5.590,0 0,-3.133 c 0.195,-0.768 0.460,-1.837 0.690,-3.395 0.022,-0.149 0.044,-0.237 0.065,-0.397 0.030,-0.231 0.025,-0.491 0,-0.764 -0.008,-0.091 -0.021,-0.181 -0.033,-0.275 -0.268,-2.161 -1.770,-5.199 -2.303,-6.484 -0.468,-1.131 -1.166,-1.264 -2.993,-1.254 z" id="path4322-1" />
 <path id="path4334-2" d="m 0.881,28.583 c 1.073,1.805 6.136,2.422 6.136,2.422 l 1.447,-1.856 1.447,1.856 c 0,0 4.886,-0.594 6.073,-2.328" style="fill:none;stroke:#000000;stroke-width:0.5;stroke-linecap:butt;stroke-opacity:1" />
 <path id="path4238" d="M 15.525,0.087 C 13.931,-1.861 9.680,-3.721 6.403,-3.101 c 0.354,0.177 0.974,0.531 0.974,0.531 0,0 -5.048,-0.088 -7.793,2.656 C -3.160,2.832 -5.994,9.208 -4.666,13.548 c 1.328,4.339 2.479,4.959 2.922,5.579 0.177,-1.239 0.442,-1.505 0.442,-1.505 0,0 3.188,5.756 9.830,5.756 6.642,0 9.299,-5.225 9.299,-5.225 l 0.354,1.594 c 0,0 3.011,-3.542 3.011,-7.970 0,-4.428 -0.885,-12.132 -5.668,-11.690 z" style="fill:#4c3420;stroke:#000000;stroke-width:0.5;stroke-linecap:butt;stroke-opacity:1" />
 <path style="fill:#ffc78f;stroke:#000000;stroke-width:0.5;stroke-linecap:round;stroke-linejoin:round;marker:none;" d="m 5.660,1.977 c -0.469,0.044 -0.956,0.134 -1.5,0.281 -3.456,0.930 -5.313,2.777 -4.249,5.968 0.712,2.138 -0.399,5.581 -2.906,9.187 0.017,2.721 2.212,4.906 4.937,4.906 l 13.031,0 c 2.607,0 4.712,-2.006 4.906,-4.562 -2.670,-3.724 -3.859,-7.328 -3.125,-9.531 0.984,-2.954 -0.556,-4.729 -3.531,-5.718 -1.769,1.919 -3.255,2.823 -6.781,2.937 -1.728,0.132 1.187,-1.187 1.187,-1.187 0,0 -1.178,0.25 -2.375,0.25 -0.650,0 -0.176,-1.311 0.406,-2.531 z" id="rect3413" />
 <g style="display:inline" id="g4444" transform="translate(-48.339,-8.792)">
 <path id="path4429" d="m 55.108,32.523 -0.057,0.034 c -0.311,0.225 -0.311,0.599 0,0.825 l 1.096,0.808 c 0.024,0.017 0.059,0.019 0.086,0.034 -0.557,1.525 -1.586,4.342 -1.586,4.917 0,0.747 1.938,1.667 2.105,1.667 0.167,0 2.163,-0.901 2.163,-1.633 0,-0.573 -1.128,-3.421 -1.730,-4.952 0.026,-0.014 0.062,-0.016 0.086,-0.034 l 1.124,-0.808 c 0.311,-0.225 0.311,-0.599 0,-0.825 l -0.057,-0.034 -3.230,0 z" style="fill:#591313;stroke-width:0.5;marker:none;" />
 <path id="path4427" d="m 56.233,34.225 c -0.557,1.525 -1.586,4.342 -1.586,4.917 0,0.747 1.938,1.667 2.105,1.667 0.167,0 2.163,-0.901 2.163,-1.633 0,-0.573 -1.128,-3.421 -1.730,-4.952" style="fill:none;stroke:#000000;stroke-width:0.5;stroke-linecap:butt;stroke-opacity:1" />
 <path id="rect4422" d="m 55.108,32.523 -0.057,0.034 c -0.311,0.225 -0.311,0.599 0,0.825 l 1.096,0.808 c 0.311,0.225 0.813,0.225 1.124,0 L 58.396,33.383 c 0.311,-0.225 0.311,-0.599 0,-0.825 l -0.057,-0.034 -3.230,0 z" style="fill:none;stroke:#000000;stroke-width:0.5;stroke-linecap:round;stroke-linejoin:round;marker:none;" />
 </g>
 <path style="fill:#4c3420;stroke:#000000;stroke-width:0.5;stroke-linecap:round;stroke-linejoin:round;marker:none;" d="m -2.308,13.977 c -0.527,0.866 -0.843,1.875 -0.843,2.968 l 0,1.593 c 0,3.165 2.553,5.718 5.718,5.718 l 11.531,0 c 3.165,0 5.687,-2.553 5.687,-5.718 l 0,-1.593 c 0,-1.014 -0.258,-1.957 -0.718,-2.781 -0.750,2.196 -1.938,4.003 -3.625,5.031 0,-1.810 -4.040,-2.554 -6.187,-2 -0.296,0.386 -0.540,0.570 -0.75,0.406 -0.027,-0.021 -0.063,-0.042 -0.093,-0.062 -0.029,0.020 -0.066,0.041 -0.093,0.062 -0.211,0.165 -0.481,-0.010 -0.781,-0.406 -2.157,-0.534 -6.156,0.201 -6.156,2 -1.733,-1.057 -2.940,-2.939 -3.687,-5.218 z" id="rect4230" />
 <path style="fill:#4c3420;stroke:#000000;stroke-width:0.5;stroke-linecap:butt;stroke-opacity:1" d="m 6.410,16.540 c -1.748,0.077 -3.051,1.135 -3.5,2.531 0.265,0.132 2.125,0.937 2.125,0.937 0,0 1.146,-0.620 3.281,-0.656 0.063,-0.001 0.122,0 0.187,0 2.135,0.036 3.281,0.656 3.281,0.656 0,0 1.859,-0.804 2.125,-0.937 -0.598,-1.861 -2.716,-3.114 -5.375,-2.25 0,0 -0.092,0.090 -0.125,0.125 -0.03,-0.032 -0.125,-0.125 -0.125,-0.125 -0.664,-0.216 -1.292,-0.307 -1.875,-0.281 z" id="path3457" />
 <path style="fill:#ffc78f;stroke:#000000;stroke-width:0.5;stroke-linecap:round;stroke-opacity:1" d="m 7.113,14.259 c -0.393,2.065 -0.372,3.098 1.103,3.098 1.475,0 1.623,-0.899 1.278,-3.049" id="path4381-4" />
 <path style="fill:#ffc78f;stroke:#000000;stroke-width:0.5;stroke-linecap:butt;stroke-opacity:1" d="m -2.241,12.379 c -2.656,-0.972 -2.055,3.097 -1.578,3.907 0.458,0.777 1.609,1.394 2.196,0.660 -0.513,-1.101 -0.887,-3.477 -0.618,-4.567 z" id="path3688-1" />
 <path style="fill:none;stroke:#000000;stroke-width:0.5;stroke-linecap:butt;stroke-opacity:1" d="m -2.362,13.591 c -0.460,-0.192 -0.883,0.076 -0.883,0.422" id="path3690-5" />
 <path id="path4275" d="m 19.064,12.379 c 2.656,-0.972 2.055,3.097 1.578,3.907 -0.458,0.777 -1.609,1.394 -2.196,0.660 0.513,-1.101 0.887,-3.477 0.618,-4.567 z" style="fill:#ffc78f;stroke:#000000;stroke-width:0.5;stroke-linecap:butt;stroke-opacity:1" />
 <path id="path4277" d="m 19.185,13.591 c 0.460,-0.192 0.883,0.076 0.883,0.422" style="fill:none;stroke:#000000;stroke-width:0.5;stroke-linecap:butt;stroke-opacity:1" />
 <circle transform="matrix(0.767,0.641,-0.641,0.767,0,0)" r="1.963" cy="6.822" cx="10.712" style="fill:#ffffff;stroke:#000000;stroke-width:0.5;stroke-linecap:round;stroke-linejoin:round;marker:none;" id="path4471-9" />
 <ellipse transform="matrix(0.767,0.641,-0.641,0.767,0,0)" ry="1.054" rx="1.054" cy="6.801" cx="10.777" id="path4467-8" style="fill:#000000;stroke-width:0.5;marker:none;" />
 <ellipse transform="matrix(0.767,0.641,-0.641,0.767,0,0)" ry="0.423" rx="0.443" cy="6.493" cx="10.514" id="path4469-7" style="fill:#ffffff;stroke-width:0.5;marker:none;" />
 <circle r="1.963" cy="17.588" cx="-2.081" id="path4490-7" style="fill:#ffffff;stroke:#000000;stroke-width:0.5;stroke-linecap:round;stroke-linejoin:round;marker:none;" transform="matrix(-0.765,0.643,0.643,0.765,0,0)" />
 <ellipse ry="1.054" rx="1.054" cy="17.567" cx="-2.015" style="fill:#000000;stroke-width:0.5;marker:none;" id="path4492-3" transform="matrix(-0.765,0.643,0.643,0.765,0,0)" />
 <ellipse ry="0.423" rx="0.443" cy="17.259" cx="-1.798" style="fill:#ffffff;stroke-width:0.5;marker:none;" id="path4494-6" transform="matrix(-0.765,0.643,0.643,0.765,0,0)" />
 <path id="path4347" d="m 2.350,10.275 c 0.393,0.093 3.880,1.709 3.880,1.709 0,0 0.420,-2.480 -1.433,-3.085 C 2.944,8.294 2.350,10.275 2.350,10.275 Z" style="fill:#ffc78f;stroke:none" />
 <path style="fill:none;stroke:#000000;stroke-width:0.5;stroke-linecap:round;stroke-opacity:1" d="m 2.350,10.275 c 0.393,0.093 3.880,1.709 3.880,1.709" id="path4345" />
 <path style="fill:#ffc78f;stroke:none" d="m 14.459,10.244 c -0.393,0.094 -3.876,1.718 -3.876,1.718 0,0 -0.426,-2.479 1.425,-3.088 1.852,-0.609 2.450,1.370 2.450,1.370 z" id="path4349" />
 <path id="path4351" d="m 14.459,10.244 c -0.393,0.094 -3.876,1.718 -3.876,1.718" style="fill:none;stroke:#000000;stroke-width:0.5;stroke-linecap:round;stroke-opacity:1" />
 <rect style="fill:#4c3420;stroke:#000000;stroke-width:0.5;marker:none;" id="rect4374" width="3.078" height="1.720" x="2.993" y="8.039" rx="0.860" ry="0.860" />
 <rect ry="0.860" rx="0.860" y="8.039" x="-13.829" height="1.720" width="3.078" id="rect4376" style="fill:#4c3420;stroke:#000000;stroke-width:0.5;marker:none;" transform="scale(-1,1)" />
 <ellipse transform="matrix(0.696,-0.717,0.717,0.696,0,0)" ry="2.842" rx="2.850" style="fill:#ffffff;stroke:#000000;stroke-width:0.5;stroke-linecap:round;marker:none;" id="path4486-99" cx="-8.444" cy="29.004" />
 <path id="path4821-8" d="m 7.752,21.994 c 0.060,1.146 1.003,0.682 2.294,1.173 -0.418,0.085 -0.796,0.278 -1.047,0.518 -0.276,0.263 -0.412,0.600 -0.364,0.934 0.068,0.479 0.518,0.826 1.116,0.936 0.011,0.067 0.035,0.133 0.052,0.199 -0.298,0.456 -0.356,0.961 -0.108,1.331 0.252,0.376 0.762,0.496 1.309,0.381 -0.047,0.217 -0.055,0.431 0.058,0.601 0.284,0.427 0.998,0.436 1.606,0.025 0.152,-0.102 0.266,-0.204 0.372,-0.332 0.010,-0.002 0.014,-0.023 0.024,-0.025 0.505,-0.114 1.008,-0.377 1.395,-0.774 0.854,-0.879 1.000,-2.188 0.460,-3.219 0.342,-0.495 0.193,-1.303 -0.401,-1.926 -0.654,-0.684 -1.575,-0.885 -2.063,-0.419 -0.162,0.155 -0.239,0.398 -0.267,0.631 -0.680,-0.516 -0.945,-0.656 -1.921,-1.204 -0.976,-0.547 -2.577,0.021 -2.516,1.168 z" style="fill:#ffc78f;stroke:#000000;stroke-width:0.5;stroke-linecap:round;marker:none;" />
 </g>
 <g transform="translate(-7.002,-35.551)" id="g3543">
 <path style="fill:#6c5353;stroke-width:0.5;marker:none;" d="m 42.827,74.233 c 0.431,0 0.766,0.291 0.875,0.687 0.887,0.437 1.5,1.186 1.5,2.031 0,0.195 -0.034,0.38 -0.093,0.562 -0.01,0.009 -0.021,0.022 -0.031,0.031 -0.660,0.601 -1.793,0.968 -3.062,0.968 -1.522,0 -2.223,-0.500 -2.781,-1.312 -0.009,-0.072 -0.031,-0.144 -0.031,-0.218 0,-0.654 0.231,-1.268 0.656,-1.718 -0.004,-0.033 0,-0.059 0,-0.093 0,-0.517 0.420,-0.937 0.937,-0.937 l 2.031,0 z" id="path4414" />
 <path id="path4416" d="m 39.296,76.243 c 0.547,0.756 1.255,1.218 2.718,1.218 1.269,0 2.401,-0.366 3.062,-0.968 0.010,-0.009 0.021,-0.022 0.031,-0.031 0.046,0.160 0.093,0.330 0.093,0.5 0,0.195 -0.034,0.38 -0.093,0.562 -0.01,0.009 -0.021,0.022 -0.031,0.031 -0.660,0.601 -1.793,0.968 -3.062,0.968 -1.522,0 -2.223,-0.500 -2.781,-1.312 -0.009,-0.072 -0.031,-0.144 -0.031,-0.218 0,-0.256 0.025,-0.513 0.093,-0.75 z" style="fill:#f8ffff;stroke-width:0.5;marker:none;" />
 <path id="path4418" d="m 42.827,74.233 c 0.431,0 0.766,0.291 0.875,0.687 0.887,0.437 1.5,1.186 1.5,2.031 0,0.195 -0.034,0.38 -0.093,0.562 -0.01,0.009 -0.021,0.022 -0.031,0.031 -0.660,0.601 -1.793,0.968 -3.062,0.968 -1.522,0 -2.223,-0.500 -2.781,-1.312 -0.009,-0.072 -0.031,-0.144 -0.031,-0.218 0,-0.654 0.231,-1.268 0.656,-1.718 -0.004,-0.033 0,-0.059 0,-0.093 0,-0.517 0.420,-0.937 0.937,-0.937 l 2.031,0 z" style="fill:none;stroke:#000000;stroke-width:0.5;stroke-linecap:round;marker:none;" />
 <path id="path4420" d="m 43.176,75.511 c -0.528,-0.226 -1.659,-0.150 -1.999,0" style="fill:none;stroke:#000000;stroke-width:0.5;stroke-linecap:round;stroke-opacity:1" />
 <path id="path4550-1-9" d="m 32.942,74.233 c -0.431,0 -0.766,0.291 -0.875,0.687 -0.887,0.437 -1.5,1.186 -1.5,2.031 0,0.195 0.034,0.38 0.093,0.562 0.01,0.009 0.021,0.022 0.031,0.031 0.660,0.601 1.793,0.968 3.062,0.968 1.522,0 2.223,-0.500 2.781,-1.312 0.009,-0.072 0.031,-0.144 0.031,-0.218 0,-0.654 -0.231,-1.268 -0.656,-1.718 0.004,-0.033 0,-0.059 0,-0.093 0,-0.517 -0.420,-0.937 -0.937,-0.937 l -2.031,0 z" style="fill:#6c5353;stroke-width:0.5;marker:none;" />
 <path style="fill:#f8ffff;stroke-width:0.5;marker:none;" d="m 36.474,76.243 c -0.547,0.756 -1.255,1.218 -2.718,1.218 -1.269,0 -2.401,-0.366 -3.062,-0.968 -0.010,-0.009 -0.021,-0.022 -0.031,-0.031 -0.046,0.160 -0.093,0.330 -0.093,0.5 0,0.195 0.034,0.38 0.093,0.562 0.01,0.009 0.021,0.022 0.031,0.031 0.660,0.601 1.793,0.968 3.062,0.968 1.522,0 2.223,-0.500 2.781,-1.312 0.009,-0.072 0.031,-0.144 0.031,-0.218 0,-0.256 -0.025,-0.513 -0.093,-0.75 z" id="path4554-4-2" />
 <path style="fill:none;stroke:#000000;stroke-width:0.5;stroke-linecap:round;marker:none;" d="m 32.942,74.233 c -0.431,0 -0.766,0.291 -0.875,0.687 -0.887,0.437 -1.5,1.186 -1.5,2.031 0,0.195 0.034,0.38 0.093,0.562 0.01,0.009 0.021,0.022 0.031,0.031 0.660,0.601 1.793,0.968 3.062,0.968 1.522,0 2.223,-0.500 2.781,-1.312 0.009,-0.072 0.031,-0.144 0.031,-0.218 0,-0.654 -0.231,-1.268 -0.656,-1.718 0.004,-0.033 0,-0.059 0,-0.093 0,-0.517 -0.420,-0.937 -0.937,-0.937 l -2.031,0 z" id="path4542-5-4-7" />
 <path style="fill:none;stroke:#000000;stroke-width:0.5;stroke-linecap:round;stroke-opacity:1" d="m 32.593,75.511 c 0.528,-0.226 1.659,-0.150 1.999,0" id="path4565-9-6" />
 <path style="fill:#d45500;stroke:#000000;stroke-width:0.5;stroke-linecap:butt;marker:none;" d="m 32.999,37.094 c -5.632,2.464 -8.331,6.453 -8.096,11.264 0.234,4.811 1.290,7.157 -0.821,8.683 0.469,1.056 3.050,0.821 3.402,0 -0.234,2.346 -0.469,3.637 -1.877,4.811 3.285,0.469 4.224,-0.586 5.397,-1.877 -0.117,1.408 6.805,1.408 6.923,5.045 0.469,-2.229 5.867,-3.520 6.923,-5.163 0,1.173 2.112,1.994 2.698,1.994 -0.352,-1.173 -0.352,-1.994 -0.352,-2.464 0.938,0.704 1.525,1.056 2.464,1.056 -0.821,-2.112 -1.642,-4.106 -0.821,-6.453 0.821,-2.346 2.698,-8.448 -1.877,-13.611 -4.576,-5.163 -12.287,-5.571 -13.963,-3.285 z" id="path3439" />
 <path id="path3530" d="m 33.276,67.187 -0.843,1.491 c -0.514,0.910 -1.454,1.270 -2.263,0.816 -1.151,-0.786 -2.146,-2.501 -1.106,-4.560 0.220,-0.387 4.213,2.252 4.213,2.252 z" style="fill:#ffc78f;stroke:#000000;stroke-width:0.5;stroke-linecap:butt;marker:none;" />
 <path id="path3532" d="m 30.916,66.535 c 1.184,0.634 2.121,1.174 2.523,0.435 l 1.781,-3.282 c 0.640,-1.180 0.203,-2.642 -0.981,-3.276 -1.184,-0.634 -2.653,-0.194 -3.294,0.985 l -1.781,3.282 c -0.348,0.641 0.567,1.221 1.752,1.855 z" style="fill:#ffffff;stroke:#000000;stroke-width:0.5;stroke-linecap:round;marker:none;" />
 <path style="fill:#ffc78f;stroke:#000000;stroke-width:0.5;stroke-linecap:butt;marker:none;" d="m 42.494,67.187 0.843,1.491 c 0.514,0.910 1.454,1.270 2.263,0.816 1.151,-0.786 2.146,-2.501 1.106,-4.560 -0.220,-0.387 -4.213,2.252 -4.213,2.252 z" id="path3537-3" />
 <path style="fill:#ffffff;stroke:#000000;stroke-width:0.5;stroke-linecap:round;marker:none;" d="m 44.853,66.535 c -1.184,0.634 -2.121,1.174 -2.523,0.435 l -1.781,-3.282 c -0.640,-1.180 -0.203,-2.642 0.981,-3.276 1.184,-0.634 2.653,-0.194 3.294,0.985 l 1.781,3.282 c 0.348,0.641 -0.567,1.221 -1.752,1.855 z" id="path4398-6" />
 <path style="fill:#333333;stroke-width:0.5;marker:none;" d="m 40.036,59.428 c -0.592,0.003 -1.297,0.029 -2.175,0.029 l -0.064,0 c -1.316,0 -2.262,-0.028 -2.975,0 -1.187,0.047 -1.731,0.272 -2.111,1.189 -0.517,1.249 -1.978,4.204 -2.239,6.306 -0.011,0.091 -0.025,0.180 -0.032,0.267 -0.024,0.265 -0.03,0.518 0,0.743 0.019,0.143 0.044,0.251 0.064,0.386 0.223,1.515 0.481,2.554 0.671,3.301 l 0,3.046 5.438,0 c 0,0 9.7e-4,-2.647 9.7e-4,-2.660 0,-1.111 2.456,-1.081 2.431,0 l 0.002,2.660 5.436,0 0,-3.046 c 0.190,-0.747 0.448,-1.786 0.671,-3.301 0.021,-0.145 0.043,-0.230 0.064,-0.386 0.03,-0.225 0.024,-0.478 0,-0.743 -0.008,-0.088 -0.020,-0.176 -0.032,-0.267 -0.261,-2.102 -1.722,-5.056 -2.239,-6.306 -0.455,-1.100 -1.133,-1.229 -2.911,-1.219 z" id="path3509-5-7-8" />
 <path style="fill:#dce7f3;stroke:none" d="m 40.042,59.418 c -0.592,0.003 -1.301,0.030 -2.179,0.030 l -0.060,0 c -1.316,0 -2.283,-0.028 -2.996,0 -1.187,0.047 -1.708,0.293 -2.088,1.210 -0.467,1.128 -1.690,3.633 -2.118,5.659 1.473,2.118 5.114,3.268 5.114,3.268 l 2.118,-2.148 2.118,2.148 c 0,0 3.641,-1.149 5.114,-3.268 -0.428,-2.025 -1.651,-4.530 -2.118,-5.659 -0.455,-1.100 -1.127,-1.251 -2.905,-1.240 z" id="path4279-2-6-3" />
 <path id="path4287-7-7-7" d="m 30.600,66.317 c 1.473,2.118 5.114,3.268 5.114,3.268 l 2.118,-2.148 2.118,2.148 c 0,0 3.641,-1.149 5.114,-3.268" style="fill:none;stroke:#000000;stroke-width:0.5;stroke-linecap:round;stroke-opacity:1" />
 <path id="path4378-8-1-6-6" d="m 40.036,59.428 c -0.592,0.003 -1.297,0.029 -2.175,0.029 l -0.064,0 c -1.316,0 -2.262,-0.028 -2.975,0 -1.187,0.047 -1.731,0.272 -2.111,1.189 -0.517,1.249 -1.978,4.204 -2.239,6.306 -0.011,0.091 -0.025,0.180 -0.032,0.267 -0.024,0.265 -0.03,0.518 0,0.743 0.019,0.143 0.044,0.251 0.064,0.386 0.223,1.515 0.481,2.554 0.671,3.301 l 0,3.046 5.438,0 c 0,0 9.6e-4,-2.647 9.6e-4,-2.660 0,-1.111 2.456,-1.081 2.431,0 l 0.002,2.660 5.436,0 0,-3.046 c 0.190,-0.747 0.448,-1.786 0.671,-3.301 0.021,-0.145 0.043,-0.230 0.064,-0.386 0.03,-0.225 0.024,-0.478 0,-0.743 -0.008,-0.088 -0.020,-0.176 -0.032,-0.267 -0.261,-2.102 -1.722,-5.056 -2.239,-6.306 -0.455,-1.100 -1.133,-1.229 -2.911,-1.219 z" style="fill:none;stroke:#000000;stroke-width:0.5;stroke-linecap:round;marker:none;" />
 <path style="fill:#1a1a1a;stroke:#000000;stroke-width:0.5;stroke-linecap:butt;stroke-opacity:1" d="m 34.821,59.449 c -1.187,0.047 -1.713,0.301 -2.093,1.218 -0.481,1.162 -1.818,4.094 -2.093,5.156 -0.142,0.549 -0.300,1.191 -0.437,1.812 l 4.780,0.836 0.251,-1.180 c 0.192,-0.903 0.363,-2.224 -0.062,-2.437 -1.243,-0.559 -0.989,-3.337 -0.281,-5.406 -0.022,7.45e-4 -0.040,-8.55e-4 -0.062,0 z m 5.937,0 c 0.708,2.068 0.993,4.846 -0.25,5.406 -0.426,0.213 -0.062,1.514 -0.062,2.437 l 0.292,1.431 4.707,-1.088 c -0.137,-0.620 -0.263,-1.263 -0.406,-1.812 -0.275,-1.061 -1.612,-3.993 -2.093,-5.156 -0.379,-0.917 -0.906,-1.171 -2.093,-1.218 -0.021,-8.55e-4 -0.071,7.45e-4 -0.093,0 z" id="path4303-9-6-1" />
 <g style="display:inline" id="g4369" transform="translate(-18.747,26.275)">
 <path id="path3597" d="m 57.405,33.860 c 0.828,2.248 0.355,7.575 -0.473,8.995 1.538,0.710 3.077,0.710 4.734,0.473 0.118,-2.840 0.118,-7.930 -1.183,-9.705 -1.420,0.118 -3.077,0.236 -3.077,0.236 z" style="fill:#ff5555;stroke:#000000;stroke-width:0.5;stroke-linecap:butt;stroke-opacity:1" />
 <rect ry="2.544" y="31.848" x="50.540" height="5.089" width="11.954" id="rect4367" style="fill:#ff5555;stroke:#000000;stroke-width:0.5;stroke-linecap:butt;marker:none;" />
 </g>
 <path style="fill:#d40000;stroke:#000000;stroke-width:0.5;stroke-linecap:butt;marker:none;" d="m 28.886,55.289 c -1.405,0 -2.531,1.125 -2.531,2.531 0,1.405 1.125,2.562 2.531,2.562 1.405,0 2.562,-1.157 2.562,-2.562 0,-1.405 -1.157,-2.531 -2.562,-2.531 z m 0,1.281 c 0.686,0 1.25,0.563 1.25,1.25 0,0.686 -0.563,1.25 -1.25,1.25 -0.686,0 -1.25,-0.563 -1.25,-1.25 0,-0.686 0.563,-1.25 1.25,-1.25 z" id="path4375" />
 <path id="path4382-4" d="m 46.167,55.170 c -1.405,0 -2.531,1.125 -2.531,2.531 0,1.405 1.125,2.562 2.531,2.562 1.405,0 2.562,-1.157 2.562,-2.562 0,-1.405 -1.157,-2.531 -2.562,-2.531 z m 0,1.281 c 0.686,0 1.25,0.563 1.25,1.25 0,0.686 -0.563,1.25 -1.25,1.25 -0.686,0 -1.25,-0.563 -1.25,-1.25 0,-0.686 0.563,-1.25 1.25,-1.25 z" style="fill:#d40000;stroke:#000000;stroke-width:0.5;stroke-linecap:butt;marker:none;" />
 <path style="fill:#ffc78f;stroke:#000000;stroke-width:0.5;stroke-linecap:round;stroke-linejoin:round;marker:none;" d="m 37.665,44.377 c -0.971,3.646 -7.472,3.869 -8.656,4.906 -0.472,0.413 -0.729,2.909 -0.843,5.875 1.997,3.581 5.550,6.25 9.593,6.25 3.811,0 7.171,-2.382 9.218,-5.656 -0.088,-3.232 -0.275,-6.025 -0.781,-6.468 -1.179,-1.032 -7.333,-1.303 -8.343,-4.906 l -0.187,0 z" id="path3524-5" />
 <path style="fill:#ffffff;stroke:#000000;stroke-width:0.5;stroke-linecap:round;stroke-linejoin:round;marker:none;" d="m 31.380,51.187 c 0.577,-1.515 3.031,-1.371 4.041,1.082 0.216,0.360 -0.360,0.721 -0.649,0.288 -0.721,1.299 -3.824,0.505 -3.391,-1.371 z" id="path3443-9" />
 <circle r="1.100" cy="51.621" cx="33.339" style="fill:#000000;stroke-width:0.5;marker:none;" id="path3446-6" />
 <path id="path3448-7" d="m 44.160,51.187 c -0.577,-1.515 -3.031,-1.371 -4.041,1.082 -0.216,0.360 0.360,0.721 0.649,0.288 0.721,1.299 3.824,0.505 3.391,-1.371 z" style="fill:#ffffff;stroke:#000000;stroke-width:0.5;stroke-linecap:round;stroke-linejoin:round;marker:none;" />
 <circle r="1.100" cy="51.621" cx="-42.200" transform="scale(-1,1)" id="path3450-4" style="fill:#000000;stroke-width:0.5;marker:none;" />
 <circle r="0.425" cy="51.286" cx="33.080" style="fill:#ffffff;stroke-width:0.5;marker:none;" id="path3452-8" />
 <circle r="0.425" cy="51.286" cx="41.869" id="path3454-9" style="fill:#ffffff;stroke-width:0.5;marker:none;" />
 <path style="fill:none;stroke:#000000;stroke-width:0.5;stroke-linecap:round;stroke-opacity:1" d="m 31.408,49.779 c 1.997,0.383 3.353,0.255 4.221,-0.606" id="path4288" />
 <path id="path3335-1" d="m 36.913,55.576 c 0.073,0.464 0.452,0.843 0.937,0.843 0.485,0 0.864,-0.379 0.937,-0.843" style="fill:none;stroke:#000000;stroke-width:0.5;stroke-linecap:round;stroke-linejoin:round;marker:none;" />
 <rect style="fill:#77c1e2;fill-opacity:0.585;stroke:#000000;stroke-width:0.5;stroke-linecap:round;marker:none;" id="rect4328" width="6.878" height="4.444" x="29.915" y="50.707" rx="1.207" ry="1.207" />
 <rect ry="1.207" rx="1.207" y="50.707" x="-45.855" height="4.444" width="6.878" id="rect4330" style="fill:#77c1e2;fill-opacity:0.585;stroke:#000000;stroke-width:0.5;stroke-linecap:round;marker:none;" transform="scale(-1,1)" />
 <path style="fill:none;stroke:#000000;stroke-width:0.5;stroke-linecap:round;stroke-opacity:1" d="m 36.740,51.500 c 0.581,-0.423 1.640,-0.423 2.169,0" id="path4332" />
 <path style="fill:none;stroke:#000000;stroke-width:0.5;stroke-linecap:butt;stroke-opacity:1" d="m 29.862,51.871 -2.169,0" id="path4335" />
 <path id="path4338" d="m 48.168,51.871 -2.169,0" style="fill:none;stroke:#000000;stroke-width:0.5;stroke-linecap:butt;stroke-opacity:1" />
 <path id="path4519-1" d="m 34.361,59.677 c -9.8e-5,0.012 0,0.026 0,0.039 0,2.384 1.668,3.706 3.731,3.706 2.045,0 3.703,-1.301 3.731,-3.647" style="fill:#ffc78f;stroke:#000000;stroke-width:0.5;stroke-linecap:round;stroke-linejoin:round;marker:none;" />
 <path id="path4514-6" d="m 38.033,57.637 c -1.833,0 -2.796,0.475 -3.040,0.961 -0.244,0.485 0.415,2.368 1.026,3.157 0.611,0.789 1.525,0.843 2.013,0.843 l 0.118,0 c 0.488,0 1.402,-0.054 2.013,-0.843 0.611,-0.789 1.271,-2.672 1.026,-3.157 -0.244,-0.485 -1.207,-0.961 -3.040,-0.961 0,0 -0.122,-0.003 -0.118,0 z" style="fill:#321a1a;stroke:none" />
 <path id="path4525-5" d="m 35.881,59.912 c -0.285,0 -0.422,0.059 -0.533,0.549 0.197,0.499 0.429,0.982 0.671,1.294 0.611,0.789 1.525,0.843 2.013,0.843 l 0.118,0 c 0.488,0 1.402,-0.054 2.013,-0.843 0.247,-0.320 0.490,-0.819 0.691,-1.333 -0.114,-0.461 -0.272,-0.509 -0.552,-0.509 -0.373,0 -0.368,0.109 -0.572,0.784 -0.193,0.639 -0.899,0.826 -1.638,0.843 -0.732,-0.020 -1.427,-0.209 -1.618,-0.843 -0.203,-0.674 -0.218,-0.784 -0.592,-0.784 z" style="fill:#ffffff;stroke:none" />
 <path id="path4535-3" d="m 38.033,57.637 c -1.107,0 -1.883,0.187 -2.388,0.431 0.527,0.437 1.375,0.725 2.349,0.725 1.019,0 1.909,-0.311 2.428,-0.784 -0.507,-0.216 -1.244,-0.372 -2.270,-0.372 0,0 -0.122,-0.003 -0.118,0 z" style="fill:#ffffff;fill-rule:nonzero;stroke-width:0.5;marker:none;" />
 <path style="fill:none;stroke:#000000;stroke-width:0.5;stroke-linecap:butt;stroke-opacity:1" d="m 38.033,57.637 c -1.833,0 -2.796,0.475 -3.040,0.961 -0.244,0.485 0.415,2.368 1.026,3.157 0.611,0.789 1.525,0.843 2.013,0.843 l 0.118,0 c 0.488,0 1.402,-0.054 2.013,-0.843 0.611,-0.789 1.271,-2.672 1.026,-3.157 -0.244,-0.485 -1.207,-0.961 -3.040,-0.961 0,0 -0.122,-0.003 -0.118,0 z" id="path4533-5" />
 <path id="path4587-9" d="m 37.460,59.088 c -0.139,-0.002 -0.314,0.045 -0.513,0.117 -0.770,0.278 -0.106,2.267 1.184,2.000 1.284,0.255 1.933,-1.722 1.164,-2.000 -0.607,-0.219 -0.923,-0.134 -1.176,0.237 -0.193,-0.324 -0.373,-0.350 -0.659,-0.355 z" style="fill:#4d1a1a;stroke:none" />
 <path id="path3600" d="m 44.257,49.779 c -1.997,0.383 -3.353,0.255 -4.221,-0.606" style="fill:none;stroke:#000000;stroke-width:0.5;stroke-linecap:round;stroke-opacity:1" />
 </g>
 </g>
</svg>
