<?xml version="1.0" encoding="UTF-8" standalone="no"?>
<svg xmlns:dc="http://purl.org/dc/elements/1.1/" xmlns:cc="http://creativecommons.org/ns#" xmlns:rdf="http://www.w3.org/1999/02/22-rdf-syntax-ns#" xmlns:svg="http://www.w3.org/2000/svg" xmlns="http://www.w3.org/2000/svg" version="1.1" id="ppvs" viewBox="0 0 320 240" height="100%" width="100%">
 <defs id="defs5015" />
 <g id="layer1">
 <rect y="0" x="0" height="240" width="320" id="rect0001" style="fill:#335779;fill-opacity:1" />
 <path transform="matrix(0.591,-0.215,0.215,0.591,-93.445,79.511)" style="fill:#e2ecef;fill-rule:nonzero;stroke-width:1;stroke-linecap:butt;marker:none;" id="path5060-9" d="m 253.964,61.637 1.067,4.365 4.201,1.595 -3.821,2.363 -0.219,4.488 -3.429,-2.904 -4.336,1.178 1.702,-4.158 -2.460,-3.760 4.481,0.333 z" />
 <path id="path5362" d="m 129.806,12.417 c -10.294,0 -19.101,6.550 -22.611,15.769 -2.034,-0.605 -4.251,-0.951 -6.574,-0.951 -9.831,0 -17.789,5.968 -17.789,13.325 0,0.176 0.019,0.339 0.028,0.514 -4.970,0.231 -8.920,4.093 -8.920,8.849 0,2.224 0.865,4.255 2.294,5.813 -0.849,2.665 -1.314,5.512 -1.314,8.489 0,0.077 -5.71e-4,0.155 0,0.231 -3.729,1.386 -6.798,4.684 -8.482,8.978 -2.837,-1.756 -6.208,-2.778 -9.823,-2.778 -10.104,0 -18.279,7.940 -18.279,17.750 0,3.906 1.304,7.511 3.506,10.444 -2.162,1.082 -3.506,2.622 -3.506,4.347 0,2.066 1.949,3.880 4.898,4.939 -7.266,1.621 -16.616,-0.441 -33.594,-9.852 20.768,24.669 55.392,12.818 76.160,0.977 20.768,-11.841 73.187,-0.009 98.900,14.792 -2.744,-1.882 -6.376,-4.290 -10.622,-6.894 1.306,-0.173 2.299,-0.709 2.681,-1.620 0.790,-1.885 -1.317,-4.573 -4.718,-5.993 -0.297,-0.124 -0.606,-0.211 -0.902,-0.308 0.442,-1.046 0.696,-2.200 0.696,-3.421 0,-3.992 -2.637,-7.333 -6.161,-8.180 -1.023,-3.056 -5.664,-5.474 -11.576,-6.019 0.601,-1.291 0.928,-2.655 0.928,-4.064 0,-1.381 -0.322,-2.718 -0.902,-3.987 7.139,-0.610 12.762,-7.210 12.762,-15.255 0,-8.341 -6.047,-15.086 -13.561,-15.255 0.464,-1.907 0.722,-3.913 0.722,-5.968 0,-13.624 -10.853,-24.670 -24.235,-24.670 z" style="fill:#5183a1;stroke-width:0.499;stroke-linecap:round;stroke-linejoin:round;marker:none;" />
 <path style="fill:#e2ecef;fill-rule:nonzero;stroke-width:1;stroke-linecap:butt;marker:none;" id="path5056" d="m 180.564,79.987 1.067,4.365 4.201,1.595 -3.821,2.363 -0.219,4.488 -3.429,-2.904 -4.336,1.178 1.702,-4.158 -2.460,-3.760 4.481,0.333 z" />
 <path id="path4386" d="m 138.265,71.571 c -11.049,0 -19.956,9.275 -19.956,20.674 0,5.212 1.865,9.972 4.955,13.604 -1.393,0.886 -2.307,2.389 -2.307,4.068 0,1.696 0.956,3.184 2.375,4.068 -7.105,4.975 -15.991,6.262 -18.395,13.938 30.010,-19.656 52.716,-10.455 62.720,-5.868 10.003,4.586 34.647,5.913 55.321,-6.535 -7.336,1.310 -33.335,11.095 -41.338,1.267 -0.660,-0.811 -1.311,-1.681 -1.968,-2.600 0.796,-1.324 1.289,-2.912 1.289,-4.601 0,-3.925 -2.511,-7.149 -5.905,-8.136 1.653,-2.248 2.579,-4.951 2.579,-7.869 0,-7.780 -6.869,-14.138 -15.340,-14.138 -2.571,0 -4.998,0.640 -7.127,1.667 -3.556,-5.719 -9.825,-9.536 -16.901,-9.536 z" style="fill:#6292b0;stroke-width:0.499;stroke-linecap:round;stroke-linejoin:round;marker:none;" />
 <path id="rect4819" d="M 6.796 147.548 C 6.496 147.548 6.261 148.241 6.246 149.115 C 5.728 149.257 5.355 149.599 5.355 149.988 C 5.355 150.381 5.737 150.700 6.267 150.839 L 6.267 151.333 C 5.738 151.533 5.355 151.997 5.355 152.564 C 5.355 153.130 5.737 153.611 6.267 153.812 L 6.267 156.783 L 0.966 156.783 L 0.966 154.228 C 1.494 154.027 1.857 153.547 1.857 152.980 C 1.857 152.414 1.495 151.951 0.966 151.75 L 0.966 151.255 C 1.495 151.116 1.857 150.797 1.857 150.404 C 1.857 150.016 1.507 149.674 0.988 149.531 C 0.974 148.657 0.716 147.964 0.416 147.964 C 0.244 147.964 0.100 148.204 0 148.560 L 0 166.662 L 0 240 L 320 240 L 320 165.478 L 317.021 165.478 L 317.021 163.583 L 320 163.583 L 320 162.521 L 317.021 162.521 L 317.021 157.845 L 320 157.845 L 320 156.783 L 317.021 156.783 L 317.021 154.328 C 317.551 154.127 317.933 153.644 317.933 153.078 C 317.933 152.511 317.550 152.049 317.021 151.849 L 317.021 151.355 C 317.551 151.216 317.933 150.894 317.933 150.501 C 317.933 150.112 317.561 149.772 317.042 149.630 C 317.028 148.756 316.792 148.064 316.492 148.064 L 316.490 148.064 C 316.189 148.064 315.933 148.756 315.919 149.630 C 315.400 149.773 315.050 150.113 315.050 150.501 C 315.050 150.894 315.410 151.216 315.939 151.355 L 315.939 151.849 C 315.410 152.050 315.050 152.512 315.050 153.078 C 315.050 153.645 315.411 154.127 315.939 154.328 L 315.939 156.783 L 310.640 156.783 L 310.640 154.982 C 311.170 154.781 311.550 154.300 311.550 153.734 C 311.550 153.167 311.169 152.703 310.640 152.503 L 310.640 152.009 C 311.170 151.870 311.550 151.551 311.550 151.158 C 311.550 150.769 311.180 150.427 310.662 150.285 C 310.647 149.411 310.409 148.720 310.109 148.720 C 309.808 148.720 309.551 149.411 309.537 150.285 C 309.017 150.428 308.669 150.770 308.669 151.158 C 308.669 151.551 309.029 151.870 309.558 152.009 L 309.558 152.503 C 309.029 152.704 308.669 153.168 308.669 153.734 C 308.669 154.301 309.030 154.781 309.558 154.982 L 309.558 156.783 L 304.238 156.783 L 304.238 154.228 C 304.768 154.027 305.148 153.546 305.148 152.980 C 305.148 152.413 304.767 151.95 304.238 151.75 L 304.238 151.255 C 304.768 151.116 305.148 150.797 305.148 150.404 C 305.148 150.015 304.777 149.673 304.259 149.531 C 304.244 148.657 304.007 147.964 303.707 147.964 C 303.406 147.964 303.148 148.657 303.134 149.531 C 302.615 149.674 302.267 150.016 302.267 150.404 C 302.267 150.797 302.627 151.116 303.156 151.255 L 303.156 151.75 C 302.627 151.951 302.267 152.414 302.267 152.980 C 302.267 153.547 302.628 154.027 303.156 154.228 L 303.156 156.783 L 297.857 156.783 L 297.857 153.812 C 298.387 153.611 298.769 153.130 298.769 152.564 C 298.769 151.997 298.386 151.533 297.857 151.333 L 297.857 150.839 C 298.387 150.700 298.769 150.381 298.769 149.988 C 298.769 149.599 298.396 149.257 297.878 149.115 C 297.863 148.241 297.628 147.548 297.328 147.548 L 297.326 147.548 C 297.025 147.548 296.769 148.241 296.755 149.115 C 296.236 149.258 295.886 149.600 295.886 149.988 C 295.886 150.381 296.248 150.700 296.777 150.839 L 296.777 151.333 C 296.248 151.534 295.886 151.998 295.886 152.564 C 295.886 153.131 296.249 153.611 296.777 153.812 L 296.777 156.783 L 291.320 156.783 L 291.320 153.812 C 291.847 153.611 292.210 153.131 292.210 152.564 C 292.210 151.998 291.849 151.534 291.320 151.333 L 291.320 150.839 C 291.849 150.700 292.210 150.381 292.210 149.988 C 292.210 149.600 291.860 149.258 291.341 149.115 C 291.327 148.241 291.070 147.548 290.769 147.548 C 290.468 147.548 290.231 148.241 290.216 149.115 C 289.698 149.257 289.328 149.599 289.328 149.988 C 289.328 150.381 289.708 150.700 290.238 150.839 L 290.238 151.333 C 289.709 151.533 289.328 151.997 289.328 152.564 C 289.328 153.130 289.708 153.611 290.238 153.812 L 290.238 156.783 L 284.939 156.783 L 284.939 154.228 C 285.467 154.027 285.828 153.547 285.828 152.980 C 285.828 152.414 285.468 151.951 284.939 151.75 L 284.939 151.255 C 285.468 151.116 285.828 150.797 285.828 150.404 C 285.828 150.016 285.480 149.674 284.960 149.531 C 284.947 148.657 284.689 147.964 284.388 147.964 C 284.088 147.964 283.850 148.657 283.835 149.531 C 283.317 149.673 282.947 150.015 282.947 150.404 C 282.947 150.797 283.327 151.116 283.857 151.255 L 283.857 151.75 C 283.328 151.95 282.947 152.413 282.947 152.980 C 282.947 153.546 283.327 154.027 283.857 154.228 L 283.857 156.783 L 278.537 156.783 L 278.537 154.982 C 279.064 154.781 279.427 154.301 279.427 153.734 C 279.427 153.168 279.065 152.704 278.537 152.503 L 278.537 152.009 C 279.065 151.870 279.427 151.551 279.427 151.158 C 279.427 150.770 279.077 150.428 278.558 150.285 C 278.544 149.411 278.288 148.720 277.988 148.720 L 277.986 148.720 C 277.685 148.720 277.450 149.411 277.435 150.285 C 276.917 150.427 276.544 150.769 276.544 151.158 C 276.544 151.551 276.927 151.870 277.457 152.009 L 277.457 152.503 C 276.928 152.703 276.544 153.167 276.544 153.734 C 276.544 154.300 276.927 154.781 277.457 154.982 L 277.457 156.783 L 272.156 156.783 L 272.156 154.328 C 272.683 154.127 273.046 153.645 273.046 153.078 C 273.046 152.512 272.684 152.050 272.156 151.849 L 272.156 151.355 C 272.684 151.216 273.046 150.894 273.046 150.501 C 273.046 150.113 272.696 149.773 272.177 149.630 C 272.163 148.756 271.906 148.064 271.605 148.064 C 271.304 148.064 271.069 148.756 271.054 149.630 C 270.536 149.772 270.164 150.112 270.164 150.501 C 270.164 150.894 270.546 151.216 271.076 151.355 L 271.076 151.849 C 270.547 152.049 270.164 152.511 270.164 153.078 C 270.164 153.644 270.546 154.127 271.076 154.328 L 271.076 156.783 L 265.775 156.783 L 265.775 153.812 C 266.303 153.611 266.666 153.131 266.666 152.564 C 266.666 151.998 266.304 151.534 265.775 151.333 L 265.775 150.839 C 266.304 150.700 266.666 150.381 266.666 149.988 C 266.666 149.600 266.316 149.258 265.796 149.115 C 265.782 148.241 265.525 147.548 265.224 147.548 C 264.924 147.548 264.688 148.241 264.673 149.115 C 264.155 149.257 263.783 149.599 263.783 149.988 C 263.783 150.381 264.165 150.700 264.695 150.839 L 264.695 151.333 C 264.166 151.533 263.783 151.997 263.783 152.564 C 263.783 153.130 264.165 153.611 264.695 153.812 L 264.695 156.783 L 259.863 156.783 L 259.863 153.812 C 260.390 153.611 260.753 153.131 260.753 152.564 C 260.753 151.998 260.392 151.534 259.863 151.333 L 259.863 150.839 C 260.392 150.700 260.753 150.381 260.753 149.988 C 260.753 149.600 260.403 149.258 259.884 149.115 C 259.870 148.241 259.613 147.548 259.312 147.548 C 259.011 147.548 258.776 148.241 258.761 149.115 C 258.243 149.257 257.871 149.599 257.871 149.988 C 257.871 150.381 258.253 150.700 258.783 150.839 L 258.783 151.333 C 258.254 151.533 257.871 151.997 257.871 152.564 C 257.871 153.130 258.253 153.611 258.783 153.812 L 258.783 156.783 L 253.482 156.783 L 253.482 154.228 C 254.010 154.027 254.373 153.547 254.373 152.980 C 254.373 152.414 254.011 151.951 253.482 151.75 L 253.482 151.255 C 254.011 151.116 254.373 150.797 254.373 150.404 C 254.373 150.016 254.023 149.674 253.503 149.531 C 253.490 148.657 253.232 147.964 252.931 147.964 C 252.631 147.964 252.395 148.657 252.380 149.531 C 251.862 149.673 251.490 150.015 251.490 150.404 C 251.490 150.797 251.870 151.116 252.400 151.255 L 252.400 151.75 C 251.871 151.95 251.490 152.413 251.490 152.980 C 251.490 153.546 251.870 154.027 252.400 154.228 L 252.400 156.783 L 247.080 156.783 L 247.080 154.982 C 247.607 154.781 247.970 154.301 247.970 153.734 C 247.970 153.168 247.608 152.704 247.080 152.503 L 247.080 152.009 C 247.608 151.870 247.970 151.551 247.970 151.158 C 247.970 150.770 247.620 150.428 247.101 150.285 C 247.087 149.411 246.831 148.720 246.531 148.720 L 246.529 148.720 C 246.228 148.720 245.993 149.411 245.978 150.285 C 245.460 150.427 245.087 150.769 245.087 151.158 C 245.087 151.551 245.470 151.870 246 152.009 L 246 152.503 C 245.471 152.703 245.087 153.167 245.087 153.734 C 245.087 154.300 245.470 154.781 246 154.982 L 246 156.783 L 240.699 156.783 L 240.699 154.328 C 241.226 154.127 241.589 153.645 241.589 153.078 C 241.589 152.512 241.227 152.050 240.699 151.849 L 240.699 151.355 C 241.227 151.216 241.589 150.894 241.589 150.501 C 241.589 150.113 241.239 149.773 240.720 149.630 C 240.706 148.756 240.451 148.064 240.150 148.064 L 240.148 148.064 C 239.847 148.064 239.612 148.756 239.597 149.630 C 239.079 149.772 238.707 150.112 238.707 150.501 C 238.707 150.894 239.089 151.216 239.619 151.355 L 239.619 151.849 C 239.090 152.049 238.707 152.511 238.707 153.078 C 238.707 153.644 239.089 154.127 239.619 154.328 L 239.619 156.783 L 234.123 156.783 L 234.123 153.812 C 234.652 153.611 235.035 153.130 235.035 152.564 C 235.035 151.997 234.651 151.533 234.123 151.333 L 234.123 150.839 C 234.652 150.700 235.035 150.381 235.035 149.988 C 235.035 149.599 234.662 149.257 234.144 149.115 C 234.129 148.241 233.894 147.548 233.593 147.548 L 233.591 147.548 C 233.291 147.548 233.035 148.241 233.021 149.115 C 232.502 149.258 232.152 149.600 232.152 149.988 C 232.152 150.381 232.514 150.700 233.042 150.839 L 233.042 151.333 C 232.514 151.534 232.152 151.998 232.152 152.564 C 232.152 153.131 232.515 153.611 233.042 153.812 L 233.042 156.783 L 227.744 156.783 L 227.744 154.328 C 228.273 154.127 228.654 153.644 228.654 153.078 C 228.654 152.511 228.272 152.049 227.744 151.849 L 227.744 151.355 C 228.273 151.216 228.654 150.894 228.654 150.501 C 228.654 150.112 228.283 149.772 227.765 149.630 C 227.750 148.756 227.513 148.064 227.212 148.064 C 226.912 148.064 226.654 148.756 226.640 149.630 C 226.121 149.773 225.773 150.113 225.773 150.501 C 225.773 150.894 226.133 151.216 226.662 151.355 L 226.662 151.849 C 226.133 152.050 225.773 152.512 225.773 153.078 C 225.773 153.645 226.134 154.127 226.662 154.328 L 226.662 156.783 L 221.363 156.783 L 221.363 154.982 C 221.893 154.781 222.273 154.300 222.273 153.734 C 222.273 153.167 221.892 152.703 221.363 152.503 L 221.363 152.009 C 221.893 151.870 222.273 151.551 222.273 151.158 C 222.273 150.769 221.900 150.427 221.382 150.285 C 221.367 149.411 221.132 148.720 220.832 148.720 C 220.531 148.720 220.273 149.411 220.259 150.285 C 219.740 150.428 219.390 150.770 219.390 151.158 C 219.390 151.551 219.752 151.870 220.281 152.009 L 220.281 152.503 C 219.752 152.704 219.390 153.168 219.390 153.734 C 219.390 154.301 219.753 154.781 220.281 154.982 L 220.281 156.783 L 214.960 156.783 L 214.960 154.228 C 215.490 154.027 215.871 153.546 215.871 152.980 C 215.871 152.413 215.489 151.95 214.960 151.75 L 214.960 151.255 C 215.490 151.116 215.871 150.797 215.871 150.404 C 215.871 150.015 215.498 149.673 214.980 149.531 C 214.965 148.657 214.730 147.964 214.429 147.964 C 214.129 147.964 213.871 148.657 213.857 149.531 C 213.338 149.674 212.988 150.016 212.988 150.404 C 212.988 150.797 213.350 151.116 213.878 151.255 L 213.878 151.75 C 213.350 151.951 212.988 152.414 212.988 152.980 C 212.988 153.547 213.351 154.027 213.878 154.228 L 213.878 156.783 L 208.580 156.783 L 208.580 153.812 C 209.109 153.611 209.492 153.130 209.492 152.564 C 209.492 151.997 209.108 151.533 208.580 151.333 L 208.580 150.839 C 209.109 150.700 209.492 150.381 209.492 149.988 C 209.492 149.599 209.119 149.257 208.601 149.115 C 208.586 148.241 208.351 147.548 208.050 147.548 L 208.048 147.548 C 207.748 147.548 207.492 148.241 207.478 149.115 C 206.959 149.258 206.609 149.600 206.609 149.988 C 206.609 150.381 206.971 150.700 207.5 150.839 L 207.5 151.333 C 206.971 151.534 206.609 151.998 206.609 152.564 C 206.609 153.131 206.972 153.611 207.5 153.812 L 207.5 156.783 L 202.042 156.783 L 202.042 153.812 C 202.570 153.611 202.931 153.131 202.931 152.564 C 202.931 151.998 202.571 151.534 202.042 151.333 L 202.042 150.839 C 202.571 150.700 202.931 150.381 202.931 149.988 C 202.931 149.600 202.583 149.258 202.064 149.115 C 202.050 148.241 201.792 147.548 201.492 147.548 L 201.490 147.548 C 201.189 147.548 200.954 148.241 200.939 149.115 C 200.421 149.257 200.050 149.599 200.050 149.988 C 200.050 150.381 200.431 150.700 200.960 150.839 L 200.960 151.333 C 200.432 151.533 200.050 151.997 200.050 152.564 C 200.050 153.130 200.431 153.611 200.960 153.812 L 200.960 156.783 L 195.662 156.783 L 195.662 154.228 C 196.189 154.027 196.550 153.547 196.550 152.980 C 196.550 152.414 196.190 151.951 195.662 151.75 L 195.662 151.255 C 196.190 151.116 196.550 150.797 196.550 150.404 C 196.550 150.016 196.200 149.674 195.681 149.531 C 195.667 148.657 195.411 147.964 195.111 147.964 L 195.109 147.964 C 194.808 147.964 194.573 148.657 194.558 149.531 C 194.040 149.673 193.667 150.015 193.667 150.404 C 193.667 150.797 194.050 151.116 194.580 151.255 L 194.580 151.75 C 194.051 151.95 193.667 152.413 193.667 152.980 C 193.667 153.546 194.050 154.027 194.580 154.228 L 194.580 156.783 L 189.259 156.783 L 189.259 154.982 C 189.787 154.781 190.150 154.301 190.150 153.734 C 190.150 153.168 189.788 152.704 189.259 152.503 L 189.259 152.009 C 189.788 151.870 190.150 151.551 190.150 151.158 C 190.150 150.770 189.800 150.428 189.281 150.285 C 189.267 149.411 189.009 148.720 188.708 148.720 C 188.408 148.720 188.173 149.411 188.158 150.285 C 187.640 150.427 187.267 150.769 187.267 151.158 C 187.267 151.551 187.649 151.870 188.179 152.009 L 188.179 152.503 C 187.650 152.703 187.267 153.167 187.267 153.734 C 187.267 154.300 187.649 154.781 188.179 154.982 L 188.179 156.783 L 182.878 156.783 L 182.878 154.328 C 183.406 154.127 183.769 153.645 183.769 153.078 C 183.769 152.512 183.407 152.050 182.878 151.849 L 182.878 151.355 C 183.407 151.216 183.769 150.894 183.769 150.501 C 183.769 150.113 183.419 149.773 182.900 149.630 C 182.886 148.756 182.628 148.064 182.328 148.064 C 182.027 148.064 181.792 148.756 181.777 149.630 C 181.259 149.772 180.886 150.112 180.886 150.501 C 180.886 150.894 181.267 151.216 181.796 151.355 L 181.796 151.849 C 181.268 152.049 180.886 152.511 180.886 153.078 C 180.886 153.644 181.267 154.127 181.796 154.328 L 181.796 156.783 L 176.498 156.783 L 176.498 153.812 C 177.025 153.611 177.388 153.131 177.388 152.564 C 177.388 151.998 177.026 151.534 176.498 151.333 L 176.498 150.839 C 177.026 150.700 177.388 150.381 177.388 149.988 C 177.388 149.600 177.038 149.258 176.519 149.115 C 176.505 148.241 176.247 147.548 175.947 147.548 C 175.646 147.548 175.409 148.241 175.394 149.115 C 174.876 149.257 174.505 149.599 174.505 149.988 C 174.505 150.381 174.886 150.700 175.416 150.839 L 175.416 151.333 C 174.887 151.533 174.505 151.997 174.505 152.564 C 174.505 153.130 174.886 153.611 175.416 153.812 L 175.416 156.783 L 170.585 156.783 L 170.585 153.812 C 171.113 153.611 171.476 153.131 171.476 152.564 C 171.476 151.998 171.114 151.534 170.585 151.333 L 170.585 150.839 C 171.114 150.700 171.476 150.381 171.476 149.988 C 171.476 149.600 171.126 149.258 170.607 149.115 C 170.593 148.241 170.335 147.548 170.035 147.548 C 169.734 147.548 169.499 148.241 169.484 149.115 C 168.966 149.257 168.593 149.599 168.593 149.988 C 168.593 150.381 168.974 150.700 169.503 150.839 L 169.503 151.333 C 168.975 151.533 168.593 151.997 168.593 152.564 C 168.593 153.130 168.974 153.611 169.503 153.812 L 169.503 156.783 L 164.205 156.783 L 164.205 154.228 C 164.732 154.027 165.093 153.547 165.093 152.980 C 165.093 152.414 164.733 151.951 164.205 151.75 L 164.205 151.255 C 164.733 151.116 165.093 150.797 165.093 150.404 C 165.093 150.016 164.745 149.674 164.226 149.531 C 164.212 148.657 163.954 147.964 163.654 147.964 C 163.353 147.964 163.116 148.657 163.101 149.531 C 162.583 149.673 162.212 150.015 162.212 150.404 C 162.212 150.797 162.593 151.116 163.123 151.255 L 163.123 151.75 C 162.594 151.95 162.212 152.413 162.212 152.980 C 162.212 153.546 162.593 154.027 163.123 154.228 L 163.123 156.783 L 157.802 156.783 L 157.802 154.982 C 158.330 154.781 158.693 154.301 158.693 153.734 C 158.693 153.168 158.331 152.704 157.802 152.503 L 157.802 152.009 C 158.331 151.870 158.693 151.551 158.693 151.158 C 158.693 150.770 158.343 150.428 157.824 150.285 C 157.810 149.411 157.554 148.720 157.253 148.720 L 157.251 148.720 C 156.951 148.720 156.716 149.411 156.701 150.285 C 156.183 150.427 155.810 150.769 155.810 151.158 C 155.810 151.551 156.192 151.870 156.722 152.009 L 156.722 152.503 C 156.193 152.703 155.810 153.167 155.810 153.734 C 155.810 154.300 156.192 154.781 156.722 154.982 L 156.722 156.783 L 151.421 156.783 L 151.421 154.328 C 151.949 154.127 152.312 153.645 152.312 153.078 C 152.312 152.512 151.950 152.050 151.421 151.849 L 151.421 151.355 C 151.950 151.216 152.312 150.894 152.312 150.501 C 152.312 150.113 151.962 149.773 151.443 149.630 C 151.429 148.756 151.173 148.064 150.873 148.064 L 150.871 148.064 C 150.570 148.064 150.335 148.756 150.320 149.630 C 149.802 149.772 149.429 150.112 149.429 150.501 C 149.429 150.894 149.812 151.216 150.341 151.355 L 150.341 151.849 C 149.813 152.049 149.429 152.511 149.429 153.078 C 149.429 153.644 149.812 154.127 150.341 154.328 L 150.341 156.783 L 145.041 156.783 L 145.041 153.812 C 145.568 153.611 145.931 153.131 145.931 152.564 C 145.931 151.998 145.569 151.534 145.041 151.333 L 145.041 150.839 C 145.569 150.700 145.931 150.381 145.931 149.988 C 145.931 149.600 145.581 149.258 145.062 149.115 C 145.048 148.241 144.790 147.548 144.490 147.548 C 144.189 147.548 143.954 148.241 143.939 149.115 C 143.421 149.257 143.048 149.599 143.048 149.988 C 143.048 150.381 143.431 150.700 143.960 150.839 L 143.960 151.333 C 143.432 151.533 143.048 151.997 143.048 152.564 C 143.048 153.130 143.431 153.611 143.960 153.812 L 143.960 156.783 L 70.884 156.783 L 70.884 153.812 C 71.414 153.611 71.796 153.130 71.796 152.564 C 71.796 151.997 71.413 151.533 70.884 151.333 L 70.884 150.839 C 71.414 150.700 71.796 150.381 71.796 149.988 C 71.796 149.599 71.424 149.257 70.906 149.115 C 70.891 148.241 70.656 147.548 70.355 147.548 C 70.054 147.548 69.797 148.241 69.783 149.115 C 69.264 149.258 68.914 149.600 68.914 149.988 C 68.914 150.381 69.275 150.700 69.804 150.839 L 69.804 151.333 C 69.275 151.534 68.914 151.998 68.914 152.564 C 68.914 153.131 69.277 153.611 69.804 153.812 L 69.804 156.783 L 64.505 156.783 L 64.505 154.328 C 65.035 154.127 65.417 153.644 65.417 153.078 C 65.417 152.511 65.034 152.049 64.505 151.849 L 64.505 151.355 C 65.035 151.216 65.417 150.894 65.417 150.501 C 65.417 150.112 65.045 149.772 64.527 149.630 C 64.512 148.756 64.277 148.064 63.976 148.064 L 63.974 148.064 C 63.673 148.064 63.418 148.756 63.404 149.630 C 62.885 149.773 62.535 150.113 62.535 150.501 C 62.535 150.894 62.895 151.216 63.423 151.355 L 63.423 151.849 C 62.895 152.050 62.535 152.512 62.535 153.078 C 62.535 153.645 62.896 154.127 63.423 154.328 L 63.423 156.783 L 58.125 156.783 L 58.125 154.982 C 58.654 154.781 59.035 154.300 59.035 153.734 C 59.035 153.167 58.653 152.703 58.125 152.503 L 58.125 152.009 C 58.654 151.870 59.035 151.551 59.035 151.158 C 59.035 150.769 58.664 150.427 58.146 150.285 C 58.131 149.411 57.894 148.720 57.593 148.720 C 57.293 148.720 57.035 149.411 57.021 150.285 C 56.502 150.428 56.154 150.770 56.154 151.158 C 56.154 151.551 56.514 151.870 57.042 152.009 L 57.042 152.503 C 56.514 152.704 56.154 153.168 56.154 153.734 C 56.154 154.301 56.515 154.781 57.042 154.982 L 57.042 156.783 L 51.722 156.783 L 51.722 154.228 C 52.252 154.027 52.632 153.546 52.632 152.980 C 52.632 152.413 52.251 151.95 51.722 151.75 L 51.722 151.255 C 52.252 151.116 52.632 150.797 52.632 150.404 C 52.632 150.015 52.262 149.673 51.744 149.531 C 51.729 148.657 51.492 147.964 51.191 147.964 C 50.890 147.964 50.633 148.657 50.619 149.531 C 50.100 149.674 49.751 150.016 49.751 150.404 C 49.751 150.797 50.111 151.116 50.640 151.255 L 50.640 151.75 C 50.111 151.951 49.751 152.414 49.751 152.980 C 49.751 153.547 50.112 154.027 50.640 154.228 L 50.640 156.783 L 45.341 156.783 L 45.341 153.812 C 45.871 153.611 46.253 153.130 46.253 152.564 C 46.253 151.997 45.870 151.533 45.341 151.333 L 45.341 150.839 C 45.871 150.700 46.253 150.381 46.253 149.988 C 46.253 149.599 45.881 149.257 45.363 149.115 C 45.348 148.241 45.113 147.548 44.812 147.548 L 44.810 147.548 C 44.509 147.548 44.254 148.241 44.240 149.115 C 43.721 149.258 43.371 149.600 43.371 149.988 C 43.371 150.381 43.732 150.700 44.261 150.839 L 44.261 151.333 C 43.732 151.534 43.371 151.998 43.371 152.564 C 43.371 153.131 43.734 153.611 44.261 153.812 L 44.261 156.783 L 38.804 156.783 L 38.804 153.812 C 39.332 153.611 39.695 153.131 39.695 152.564 C 39.695 151.998 39.333 151.534 38.804 151.333 L 38.804 150.839 C 39.333 150.700 39.695 150.381 39.695 149.988 C 39.695 149.600 39.345 149.258 38.826 149.115 C 38.812 148.241 38.554 147.548 38.253 147.548 C 37.953 147.548 37.716 148.241 37.701 149.115 C 37.183 149.257 36.812 149.599 36.812 149.988 C 36.812 150.381 37.192 150.700 37.722 150.839 L 37.722 151.333 C 37.193 151.533 36.812 151.997 36.812 152.564 C 36.812 153.130 37.192 153.611 37.722 153.812 L 37.722 156.783 L 32.423 156.783 L 32.423 154.228 C 32.951 154.027 33.312 153.547 33.312 152.980 C 33.312 152.414 32.952 151.951 32.423 151.75 L 32.423 151.255 C 32.952 151.116 33.312 150.797 33.312 150.404 C 33.312 150.016 32.964 149.674 32.445 149.531 C 32.431 148.657 32.173 147.964 31.873 147.964 C 31.572 147.964 31.335 148.657 31.320 149.531 C 30.802 149.673 30.431 150.015 30.431 150.404 C 30.431 150.797 30.811 151.116 31.341 151.255 L 31.341 151.75 C 30.813 151.95 30.431 152.413 30.431 152.980 C 30.431 153.546 30.811 154.027 31.341 154.228 L 31.341 156.783 L 26.021 156.783 L 26.021 154.982 C 26.549 154.781 26.912 154.301 26.912 153.734 C 26.912 153.168 26.550 152.704 26.021 152.503 L 26.021 152.009 C 26.550 151.870 26.912 151.551 26.912 151.158 C 26.912 150.770 26.562 150.428 26.042 150.285 C 26.029 149.411 25.773 148.720 25.472 148.720 L 25.470 148.720 C 25.170 148.720 24.934 149.411 24.919 150.285 C 24.401 150.427 24.029 150.769 24.029 151.158 C 24.029 151.551 24.411 151.870 24.941 152.009 L 24.941 152.503 C 24.412 152.703 24.029 153.167 24.029 153.734 C 24.029 154.300 24.411 154.781 24.941 154.982 L 24.941 156.783 L 19.640 156.783 L 19.640 154.328 C 20.168 154.127 20.531 153.645 20.531 153.078 C 20.531 152.512 20.169 152.050 19.640 151.849 L 19.640 151.355 C 20.169 151.216 20.531 150.894 20.531 150.501 C 20.531 150.113 20.181 149.773 19.662 149.630 C 19.648 148.756 19.390 148.064 19.089 148.064 C 18.789 148.064 18.553 148.756 18.539 149.630 C 18.020 149.772 17.648 150.112 17.648 150.501 C 17.648 150.894 18.030 151.216 18.560 151.355 L 18.560 151.849 C 18.031 152.049 17.648 152.511 17.648 153.078 C 17.648 153.644 18.030 154.127 18.560 154.328 L 18.560 156.783 L 13.259 156.783 L 13.259 153.812 C 13.787 153.611 14.150 153.131 14.150 152.564 C 14.150 151.998 13.788 151.534 13.259 151.333 L 13.259 150.839 C 13.788 150.700 14.150 150.381 14.150 149.988 C 14.150 149.600 13.800 149.258 13.281 149.115 C 13.267 148.241 13.009 147.548 12.708 147.548 C 12.408 147.548 12.173 148.241 12.158 149.115 C 11.640 149.257 11.267 149.599 11.267 149.988 C 11.267 150.381 11.649 150.700 12.179 150.839 L 12.179 151.333 C 11.650 151.533 11.267 151.997 11.267 152.564 C 11.267 153.130 11.649 153.611 12.179 153.812 L 12.179 156.783 L 7.347 156.783 L 7.347 153.812 C 7.875 153.611 8.238 153.131 8.238 152.564 C 8.238 151.998 7.876 151.534 7.347 151.333 L 7.347 150.839 C 7.876 150.700 8.238 150.381 8.238 149.988 C 8.238 149.600 7.888 149.258 7.369 149.115 C 7.355 148.241 7.097 147.548 6.796 147.548 z M 0.966 157.845 L 6.267 157.845 L 6.267 162.521 L 0.966 162.521 L 0.966 157.845 z M 7.347 157.845 L 12.179 157.845 L 12.179 162.521 L 7.347 162.521 L 7.347 157.845 z M 13.259 157.845 L 18.560 157.845 L 18.560 162.521 L 13.259 162.521 L 13.259 157.845 z M 19.640 157.845 L 24.941 157.845 L 24.941 162.521 L 19.640 162.521 L 19.640 157.845 z M 26.021 157.845 L 31.341 157.845 L 31.341 162.521 L 26.021 162.521 L 26.021 157.845 z M 32.423 157.845 L 37.722 157.845 L 37.722 162.521 L 32.423 162.521 L 32.423 157.845 z M 38.804 157.845 L 44.261 157.845 L 44.261 162.521 L 38.804 162.521 L 38.804 157.845 z M 45.341 157.845 L 50.640 157.845 L 50.640 162.521 L 45.341 162.521 L 45.341 157.845 z M 51.722 157.845 L 57.042 157.845 L 57.042 162.521 L 51.722 162.521 L 51.722 157.845 z M 58.125 157.845 L 63.423 157.845 L 63.423 162.521 L 58.125 162.521 L 58.125 157.845 z M 64.505 157.845 L 69.804 157.845 L 69.804 162.521 L 64.505 162.521 L 64.505 157.845 z M 70.884 157.845 L 143.960 157.845 L 143.960 162.521 L 70.884 162.521 L 70.884 157.845 z M 145.041 157.845 L 150.341 157.845 L 150.341 162.521 L 145.041 162.521 L 145.041 157.845 z M 151.421 157.845 L 156.722 157.845 L 156.722 162.521 L 151.421 162.521 L 151.421 157.845 z M 157.802 157.845 L 163.123 157.845 L 163.123 162.521 L 157.802 162.521 L 157.802 157.845 z M 164.205 157.845 L 169.503 157.845 L 169.503 162.521 L 164.205 162.521 L 164.205 157.845 z M 170.585 157.845 L 175.416 157.845 L 175.416 162.521 L 170.585 162.521 L 170.585 157.845 z M 176.498 157.845 L 181.796 157.845 L 181.796 162.521 L 176.498 162.521 L 176.498 157.845 z M 182.878 157.845 L 188.179 157.845 L 188.179 162.521 L 182.878 162.521 L 182.878 157.845 z M 189.259 157.845 L 194.580 157.845 L 194.580 162.521 L 189.259 162.521 L 189.259 157.845 z M 195.662 157.845 L 200.960 157.845 L 200.960 162.521 L 195.662 162.521 L 195.662 157.845 z M 202.042 157.845 L 207.5 157.845 L 207.5 162.521 L 202.042 162.521 L 202.042 157.845 z M 208.580 157.845 L 213.878 157.845 L 213.878 162.521 L 208.580 162.521 L 208.580 157.845 z M 214.960 157.845 L 220.281 157.845 L 220.281 162.521 L 214.960 162.521 L 214.960 157.845 z M 221.363 157.845 L 226.662 157.845 L 226.662 162.521 L 221.363 162.521 L 221.363 157.845 z M 227.744 157.845 L 233.042 157.845 L 233.042 162.521 L 227.744 162.521 L 227.744 157.845 z M 234.123 157.845 L 239.619 157.845 L 239.619 162.521 L 234.123 162.521 L 234.123 157.845 z M 240.699 157.845 L 246 157.845 L 246 162.521 L 240.699 162.521 L 240.699 157.845 z M 247.080 157.845 L 252.400 157.845 L 252.400 162.521 L 247.080 162.521 L 247.080 157.845 z M 253.482 157.845 L 258.783 157.845 L 258.783 162.521 L 253.482 162.521 L 253.482 157.845 z M 259.863 157.845 L 264.695 157.845 L 264.695 162.521 L 259.863 162.521 L 259.863 157.845 z M 265.775 157.845 L 271.076 157.845 L 271.076 162.521 L 265.775 162.521 L 265.775 157.845 z M 272.156 157.845 L 277.457 157.845 L 277.457 162.521 L 272.156 162.521 L 272.156 157.845 z M 278.537 157.845 L 283.857 157.845 L 283.857 162.521 L 278.537 162.521 L 278.537 157.845 z M 284.939 157.845 L 290.238 157.845 L 290.238 162.521 L 284.939 162.521 L 284.939 157.845 z M 291.320 157.845 L 296.777 157.845 L 296.777 162.521 L 291.320 162.521 L 291.320 157.845 z M 297.857 157.845 L 303.156 157.845 L 303.156 162.521 L 297.857 162.521 L 297.857 157.845 z M 304.238 157.845 L 309.558 157.845 L 309.558 162.521 L 304.238 162.521 L 304.238 157.845 z M 310.640 157.845 L 315.939 157.845 L 315.939 162.521 L 310.640 162.521 L 310.640 157.845 z M 0.966 163.583 L 6.267 163.583 L 6.267 165.478 L 0.966 165.478 L 0.966 163.583 z M 7.347 163.583 L 12.179 163.583 L 12.179 165.478 L 7.347 165.478 L 7.347 163.583 z M 13.259 163.583 L 18.560 163.583 L 18.560 165.478 L 13.259 165.478 L 13.259 163.583 z M 19.640 163.583 L 24.941 163.583 L 24.941 165.478 L 19.640 165.478 L 19.640 163.583 z M 26.021 163.583 L 31.341 163.583 L 31.341 165.478 L 26.021 165.478 L 26.021 163.583 z M 32.423 163.583 L 37.722 163.583 L 37.722 165.478 L 32.423 165.478 L 32.423 163.583 z M 38.804 163.583 L 44.261 163.583 L 44.261 165.478 L 38.804 165.478 L 38.804 163.583 z M 45.341 163.583 L 50.640 163.583 L 50.640 165.478 L 45.341 165.478 L 45.341 163.583 z M 51.722 163.583 L 57.042 163.583 L 57.042 165.478 L 51.722 165.478 L 51.722 163.583 z M 58.125 163.583 L 63.423 163.583 L 63.423 165.478 L 58.125 165.478 L 58.125 163.583 z M 64.505 163.583 L 69.804 163.583 L 69.804 165.478 L 64.505 165.478 L 64.505 163.583 z M 70.884 163.583 L 143.960 163.583 L 143.960 165.478 L 70.884 165.478 L 70.884 163.583 z M 145.041 163.583 L 150.341 163.583 L 150.341 165.478 L 145.041 165.478 L 145.041 163.583 z M 151.421 163.583 L 156.722 163.583 L 156.722 165.478 L 151.421 165.478 L 151.421 163.583 z M 157.802 163.583 L 163.123 163.583 L 163.123 165.478 L 157.802 165.478 L 157.802 163.583 z M 164.205 163.583 L 169.503 163.583 L 169.503 165.478 L 164.205 165.478 L 164.205 163.583 z M 170.585 163.583 L 175.416 163.583 L 175.416 165.478 L 170.585 165.478 L 170.585 163.583 z M 176.498 163.583 L 181.796 163.583 L 181.796 165.478 L 176.498 165.478 L 176.498 163.583 z M 182.878 163.583 L 188.179 163.583 L 188.179 165.478 L 182.878 165.478 L 182.878 163.583 z M 189.259 163.583 L 194.580 163.583 L 194.580 165.478 L 189.259 165.478 L 189.259 163.583 z M 195.662 163.583 L 200.960 163.583 L 200.960 165.478 L 195.662 165.478 L 195.662 163.583 z M 202.042 163.583 L 207.5 163.583 L 207.5 165.478 L 202.042 165.478 L 202.042 163.583 z M 208.580 163.583 L 213.878 163.583 L 213.878 165.478 L 208.580 165.478 L 208.580 163.583 z M 214.960 163.583 L 220.281 163.583 L 220.281 165.478 L 214.960 165.478 L 214.960 163.583 z M 221.363 163.583 L 226.662 163.583 L 226.662 165.478 L 221.363 165.478 L 221.363 163.583 z M 227.744 163.583 L 233.042 163.583 L 233.042 165.478 L 227.744 165.478 L 227.744 163.583 z M 234.123 163.583 L 239.619 163.583 L 239.619 165.478 L 234.123 165.478 L 234.123 163.583 z M 240.699 163.583 L 246 163.583 L 246 165.478 L 240.699 165.478 L 240.699 163.583 z M 247.080 163.583 L 252.400 163.583 L 252.400 165.478 L 247.080 165.478 L 247.080 163.583 z M 253.482 163.583 L 258.783 163.583 L 258.783 165.478 L 253.482 165.478 L 253.482 163.583 z M 259.863 163.583 L 264.695 163.583 L 264.695 165.478 L 259.863 165.478 L 259.863 163.583 z M 265.775 163.583 L 271.076 163.583 L 271.076 165.478 L 265.775 165.478 L 265.775 163.583 z M 272.156 163.583 L 277.457 163.583 L 277.457 165.478 L 272.156 165.478 L 272.156 163.583 z M 278.537 163.583 L 283.857 163.583 L 283.857 165.478 L 278.537 165.478 L 278.537 163.583 z M 284.939 163.583 L 290.238 163.583 L 290.238 165.478 L 284.939 165.478 L 284.939 163.583 z M 291.320 163.583 L 296.777 163.583 L 296.777 165.478 L 291.320 165.478 L 291.320 163.583 z M 297.857 163.583 L 303.156 163.583 L 303.156 165.478 L 297.857 165.478 L 297.857 163.583 z M 304.238 163.583 L 309.558 163.583 L 309.558 165.478 L 304.238 165.478 L 304.238 163.583 z M 310.640 163.583 L 315.939 163.583 L 315.939 165.478 L 310.640 165.478 L 310.640 163.583 z " style="fill:#28445f;fill-opacity:1" />
 <path id="rect4574" d="M 133.759 77.730 A 0.513 0.514 4.585 0 0 133.291 78.167 L 130.613 94.769 L 130.156 94.695 C 129.955 94.662 129.768 94.797 129.736 94.998 L 129.398 97.085 C 129.366 97.286 129.502 97.473 129.703 97.505 L 130.160 97.580 L 129.734 100.216 L 129.277 100.142 C 129.077 100.110 128.889 100.244 128.857 100.445 L 128.740 101.169 L 126.214 101.169 C 126.098 99.693 125.947 98.589 125.738 98.589 L 121.414 98.589 C 121.205 98.589 121.053 99.693 120.937 101.169 L 118.328 101.169 C 118.218 98.056 118.021 94.779 117.650 94.779 L 113.326 94.779 C 112.955 94.779 112.757 98.056 112.648 101.169 L 105.144 101.169 L 105.144 100.921 C 105.144 100.541 104.843 100.236 104.470 100.236 L 104.062 100.236 L 104.062 98.957 L 106.244 98.957 C 104.854 98.005 102.360 96.050 102.029 96.054 C 101.698 96.058 98.933 98.154 97.761 98.957 L 99.826 98.957 L 99.826 100.236 L 99.539 100.236 C 99.166 100.236 98.865 100.540 98.865 100.921 L 98.865 101.169 L 93.357 101.169 C 93.250 100.113 93.117 99.400 92.947 99.400 L 88.623 99.400 C 88.453 99.400 88.319 100.113 88.212 101.169 L 85.509 101.169 C 85.394 98.334 85.196 95.589 84.859 95.589 L 80.535 95.589 C 80.198 95.589 80.000 98.334 79.884 101.169 L 77.333 101.169 L 77.162 84.021 L 79.152 83.994 L 79.740 89.875 A 0.249 0.249 0 1 0 80.236 89.824 L 79.652 83.988 L 81.634 83.962 L 82.226 89.875 A 0.249 0.249 0 1 0 82.722 89.824 L 82.136 83.955 L 84.117 83.929 L 84.710 89.875 A 0.249 0.249 0 1 0 85.207 89.824 L 84.617 83.923 L 86.597 83.896 L 87.197 89.875 A 0.249 0.249 0 1 0 87.693 89.824 L 87.099 83.890 L 89.080 83.863 L 89.681 89.875 A 0.249 0.249 0 1 0 90.177 89.824 L 89.582 83.857 L 91.064 83.837 A 0.499 0.499 0 1 0 91.052 82.839 L 89.482 82.861 L 89.275 80.798 A 0.249 0.249 0 0 0 89.023 80.570 A 0.249 0.249 0 0 0 88.779 80.847 L 88.980 82.867 L 86.998 82.892 L 86.789 80.798 A 0.249 0.249 0 0 0 86.537 80.570 A 0.249 0.249 0 0 0 86.292 80.847 L 86.498 82.900 L 84.517 82.925 L 84.304 80.798 A 0.249 0.249 0 0 0 84.052 80.570 A 0.249 0.249 0 0 0 83.808 80.847 L 84.017 82.933 L 82.037 82.958 L 81.820 80.798 A 0.249 0.249 0 0 0 81.568 80.570 A 0.249 0.249 0 0 0 81.324 80.847 L 81.535 82.964 L 79.552 82.992 L 79.333 80.798 A 0.249 0.249 0 0 0 79.082 80.570 A 0.249 0.249 0 0 0 78.837 80.847 L 79.052 82.998 L 77.152 83.023 L 77.150 82.753 A 0.671 0.678 0 0 0 76.462 82.070 A 0.671 0.678 0 0 0 76.394 82.076 L 76.392 82.076 A 0.671 0.678 0 0 0 75.806 82.783 L 75.808 83.041 L 74.898 83.052 C 74.882 82.702 74.600 82.421 74.246 82.421 L 73.943 82.421 C 73.578 82.421 73.285 82.717 73.285 83.082 L 73.285 83.849 C 73.285 84.120 73.448 84.351 73.681 84.453 C 72.984 87.283 72.075 91.960 72.195 96.476 C 72.228 97.709 72.548 99.323 73.013 101.169 L 71.166 101.169 C 70.773 101.134 70.376 101.412 70.335 101.753 C 70.294 102.094 70.615 102.436 71.009 102.472 L 71.009 102.470 C 71.061 102.474 71.114 102.474 71.166 102.470 L 73.359 102.470 C 73.852 104.297 74.433 106.279 75.035 108.384 C 75.257 109.162 75.473 109.961 75.691 110.755 L 73.402 110.755 L 73.402 115.240 L 74.419 115.240 C 71.529 129.001 69.969 137.229 65.675 145.298 C 65.538 145.273 65.403 145.241 65.273 145.210 L 65.273 147.033 C 65.273 148.034 65.822 148.891 66.630 149.347 L 66.630 155.076 C 66.630 155.538 66.953 155.906 67.380 156.013 L 67.380 186.632 L 66.845 186.632 L 65.406 186.632 L 65.406 188.052 L 61.964 188.052 C 63.391 187.455 64.550 186.711 64.445 186.080 C 64.304 185.236 61.997 184.884 59.880 184.957 C 60.148 182.779 59.975 180.253 59.101 180.046 C 58.768 179.968 58.383 180.258 57.982 180.736 C 57.676 179.751 57.278 179.031 56.800 179.013 C 55.934 178.980 55.105 181.199 54.761 183.306 C 53.729 182.236 52.604 181.423 52.095 181.746 C 51.756 181.961 51.769 182.643 51.964 183.484 C 50.797 183.165 49.807 183.110 49.521 183.560 C 49.045 184.309 50.652 186.213 52.351 187.582 C 52.068 187.732 51.805 187.891 51.560 188.052 L 47.373 188.052 C 46.993 185.690 46.818 183.125 47.210 180.849 C 50.679 180.429 53.443 178.641 55.826 177.357 C 55.407 177.178 54.984 176.991 54.560 176.800 C 57.334 176.183 59.659 174.784 61.699 173.740 C 60.744 173.308 59.781 172.830 58.785 172.382 C 60.921 171.190 62.624 169.586 64.169 168.296 C 61.707 167.790 59.141 167.016 56.345 167.166 C 58.400 165.960 60.035 164.388 61.531 163.111 C 60.290 162.869 59.026 162.566 57.718 162.341 C 59.432 160.322 60.432 157.998 61.423 156.085 C 60.021 156.353 58.559 156.570 57.091 156.914 C 58.810 153.767 58.853 150.398 59.121 147.658 C 58.147 148.272 57.129 148.872 56.117 149.527 C 58.036 146.448 58.239 143.047 58.648 140.300 C 57.325 141.046 55.915 141.742 54.560 142.607 C 55.129 139.53 54.501 136.608 54.164 134.150 C 53.907 134.411 53.636 134.673 53.371 134.933 C 53.328 132.158 52.440 129.654 51.845 127.486 C 51.267 128.250 50.649 129.013 50.044 129.806 C 50.949 127.049 50.863 124.280 50.960 121.953 C 50.145 122.532 49.292 123.099 48.443 123.701 C 48.807 121.206 48.509 118.816 48.382 116.751 C 47.750 117.305 47.077 117.843 46.416 118.410 C 45.772 116.311 44.702 114.453 43.822 112.621 C 43.047 114.154 42.081 115.855 41.396 117.777 C 41.007 117.212 40.622 116.658 40.253 116.103 C 39.209 119.162 37.534 122.887 38.576 127.259 C 37.309 126.246 35.966 125.387 34.716 124.5 C 34.800 126.495 34.756 128.820 35.310 131.179 C 34.315 130.289 33.274 129.486 32.306 128.662 C 32.202 130.850 31.920 133.417 32.429 136.064 C 31.373 135.222 30.265 134.473 29.240 133.697 C 29.266 136.111 29.093 138.999 30.019 141.884 C 29.504 144.396 29.084 147.245 30.003 150.265 C 28.635 149.608 27.238 149.098 25.916 148.533 C 26.502 150.751 27.006 153.419 28.431 155.890 C 26.637 155.377 24.828 155.148 23.109 154.820 C 24.413 157.336 25.748 160.541 28.675 162.855 C 27.219 163.264 25.843 163.796 24.482 164.242 C 25.871 165.155 27.392 166.275 29.148 167.167 C 27.331 167.040 25.550 167.156 23.841 167.181 C 25.300 168.972 26.861 171.231 29.195 172.910 C 28.149 173.508 27.152 174.151 26.160 174.734 C 28.441 175.610 31.090 176.851 34.152 177.072 C 33.069 177.681 32.034 178.344 31.009 178.941 C 33.354 179.850 36.084 181.152 39.259 181.328 C 39.480 182.531 39.593 183.665 39.664 184.765 C 39.335 184.793 38.972 184.854 38.570 184.964 C 38.745 184.211 38.756 183.597 38.453 183.404 C 37.997 183.114 36.989 183.845 36.064 184.804 C 35.756 182.916 35.010 180.927 34.234 180.957 C 33.805 180.973 33.451 181.617 33.177 182.5 C 32.817 182.071 32.472 181.810 32.173 181.880 C 31.543 182.029 31.334 183.528 31.396 185.125 C 29.911 184.881 28.098 184.685 26.367 184.699 C 28.758 183.324 30.664 181.830 30.513 181.630 C 30.356 181.422 27.827 181.739 25.109 182.5 C 26.458 179.957 27.266 177.334 26.988 177.230 C 26.828 177.170 26.054 177.707 25.074 178.564 C 25.649 176.887 25.911 175.558 25.712 175.496 C 25.470 175.419 23.964 176.695 22.451 178.439 C 22.772 175.643 22.557 172.926 22.255 172.908 C 21.897 172.886 20.036 175.961 19.121 179.042 C 17.625 176.092 15.156 173.146 14.849 173.294 C 14.646 173.393 14.726 174.888 15.115 176.75 C 13.318 175.801 11.834 175.213 11.712 175.371 C 11.589 175.530 12.344 176.711 13.539 178.113 C 13.392 178.608 13.243 179.198 13.113 179.865 C 11.736 178.295 10.464 177.177 10.277 177.292 C 10.033 177.443 10.524 179.845 11.570 182.314 C 9.252 180.960 7.024 180.026 6.875 180.220 C 6.734 180.402 7.721 181.917 9.214 183.568 C 6.520 183.196 4.136 183.170 4.093 183.398 C 4.072 183.511 4.523 183.840 5.244 184.265 C 3.463 184.117 2.121 184.143 2.089 184.312 C 2.041 184.567 4.306 185.927 7.017 187.007 C 5.265 187.365 3.834 187.788 3.308 188.052 L 0 188.052 L 0 240 L 320 240 L 320 188.052 L 314.056 188.052 C 314.671 187.492 315.234 186.826 315.687 186.021 C 314.775 185.750 312.413 185.292 310.164 185.572 C 310.213 185.470 310.291 185.348 310.322 185.265 C 310.616 184.809 310.895 184.230 311.132 183.554 C 315.368 183.655 315.837 180.604 314.666 180.724 C 317.160 178.667 318.066 173.689 318.199 172.207 C 316.281 172.846 314.781 174.318 313.724 175.792 C 314.526 172.428 313.980 168.209 313.697 166.826 C 310.565 169.965 309.844 175.698 310.033 177.501 C 309.817 177.020 309.030 176.556 308.880 177.755 C 308.864 177.025 307.954 177.136 307.599 177.417 C 308.390 176.027 309.452 171.136 306.996 167.470 C 306.724 167.833 306.313 168.504 305.871 169.320 C 306.320 166.962 306.350 163.905 304.982 161.222 C 303.885 162.546 300.629 167.426 301.160 171.421 C 301.019 171.244 300.857 171.175 300.689 171.169 C 300.603 169.491 300.324 168.009 300.138 167.330 C 298.579 168.686 297.678 170.642 297.208 172.431 C 296.786 168.989 294.836 165.280 294.093 164.109 C 293.518 165.425 293.279 166.883 293.214 168.318 C 290.649 171.548 290.040 176.569 290.214 178.236 C 290.039 177.843 289.486 177.477 289.207 178.001 C 288.856 177.778 288.487 177.579 288.105 177.398 C 288.793 175.451 289.303 171.375 287.179 168.205 C 286.907 168.567 286.495 169.238 286.052 170.054 C 286.501 167.697 286.531 164.639 285.164 161.957 C 284.067 163.281 280.811 168.160 281.341 172.156 C 281.201 171.978 281.038 171.910 280.871 171.904 C 280.785 170.226 280.508 168.744 280.322 168.064 C 278.824 169.367 277.942 171.220 277.458 172.951 C 277.422 172.978 277.401 172.992 277.365 173.019 C 277.275 172.353 277.126 171.683 276.945 171.021 C 277.864 170.062 278.696 169.213 279.687 168.164 C 278.580 168.988 277.774 169.609 276.761 170.371 C 275.996 167.904 274.816 165.696 274.275 164.841 C 273.177 167.352 273.224 170.383 273.605 172.751 C 271.196 174.581 269.068 176.221 267.191 177.691 C 266.898 177.597 266.600 177.515 266.292 177.453 C 266.321 177.646 266.400 177.978 266.458 178.259 C 265.941 178.667 265.274 179.176 264.792 179.558 C 267.349 175.246 270.671 168.788 275.191 159.658 C 272.015 163.757 269.523 167.066 267.322 170.035 C 268.484 166.892 269.728 163.501 271.144 159.488 C 267.046 166.787 263.986 172.308 261.757 176.611 C 263.237 171.697 264.960 163.391 267.265 150.814 C 263.533 160.935 261.117 167.985 259.621 172.869 C 259.415 171.989 259.209 171.165 258.947 170.148 C 258.943 170.131 258.951 170.106 258.947 170.091 C 258.778 163.389 258.338 154.554 257.654 143.103 C 257.154 150.316 256.767 156.003 256.472 161.189 C 255.524 157.957 254.424 154.456 253.156 150.361 C 254.281 159.077 255.213 165.571 256.023 170.431 C 256.006 170.849 255.981 171.279 255.966 171.677 C 253.896 165.987 250.959 158.701 247.085 149.339 C 249.492 160.160 251.380 168.187 252.931 174.060 C 250.655 170.339 247.849 165.891 244.388 160.566 C 249.058 171.496 252.300 178.725 254.619 183.244 C 252.352 181.041 248.845 177.963 243.826 173.777 C 246.113 176.679 248.018 179.011 249.615 180.919 C 246.168 178.871 241.860 176.454 236.798 173.650 C 238.109 172.704 239.443 171.916 240.800 171.400 C 238.610 171.708 236.699 172.134 234.994 172.644 C 234.955 172.623 234.927 172.607 234.888 172.585 C 234.920 172.611 234.939 172.626 234.970 172.652 C 234.219 172.877 233.494 173.112 232.826 173.371 C 235.142 169.408 237.795 165.863 240.873 163.835 C 236.325 165.561 233.089 167.535 230.767 169.621 C 231.648 167.345 232.716 165.290 234.046 163.658 C 230.130 166.795 227.574 169.751 225.941 172.513 C 224.928 169.339 222.985 165.748 219.632 161.613 C 221.736 165.701 222.293 171.373 222.302 177.058 C 220.269 174.859 217.348 172.706 213.218 170.693 C 213.218 169.915 213.024 168.738 212.746 167.673 C 213.805 169.119 215.405 170.513 215.804 170.238 C 216.071 170.054 215.716 169.187 215.134 168.207 C 216.116 168.800 217.020 169.142 217.234 168.902 C 217.521 168.579 216.455 167.343 215.240 166.275 C 216.786 166.759 218.452 166.935 218.615 166.537 C 218.746 166.215 217.855 165.625 216.720 165.093 C 217.978 165.049 219.056 164.816 219.099 164.474 C 219.136 164.186 218.433 163.901 217.480 163.687 C 218.417 163.395 219.112 163.040 219.087 162.753 C 219.056 162.392 217.898 162.280 216.572 162.341 C 217.737 161.693 218.674 160.937 218.546 160.599 C 218.438 160.311 217.582 160.413 216.558 160.708 C 217.315 159.949 217.824 159.225 217.654 158.970 C 217.411 158.607 215.906 159.345 214.554 160.267 C 215.424 158.877 216.033 157.267 215.683 157.007 C 215.397 156.795 214.566 157.565 213.748 158.574 C 214.027 157.299 214.075 156.135 213.744 156.007 C 213.427 155.885 212.870 156.752 212.369 157.861 C 212.303 156.636 212.062 155.606 211.726 155.568 C 211.380 155.528 211.059 156.563 210.853 157.806 C 210.470 156.597 209.952 155.609 209.609 155.660 C 209.402 155.690 209.300 156.094 209.279 156.679 C 208.942 156.198 208.629 155.901 208.433 155.960 C 207.983 156.098 208.344 158.005 208.908 159.664 C 207.758 158.339 206.160 157.148 205.791 157.441 C 205.698 157.515 205.717 157.694 205.781 157.912 C 205.338 157.891 204.717 157.959 204.017 158.101 C 205.001 157.316 205.727 156.488 205.558 156.187 C 205.416 155.934 204.681 156.121 203.789 156.517 C 204.367 155.725 204.713 155.026 204.523 154.810 C 204.283 154.538 203.286 155.141 202.257 155.980 C 202.808 154.765 203.110 153.598 202.806 153.402 C 202.547 153.235 201.922 153.828 201.275 154.675 C 201.431 153.614 201.407 152.730 201.119 152.626 C 200.708 152.480 199.939 153.967 199.402 155.513 C 199.273 153.878 198.803 152.222 198.367 152.222 C 198.010 152.222 197.802 153.337 197.746 154.634 C 197.211 153.444 196.557 152.479 196.214 152.574 C 195.887 152.664 195.957 153.694 196.214 154.882 C 195.432 153.938 194.622 153.254 194.330 153.423 C 194.028 153.598 194.387 154.621 194.962 155.742 C 193.934 154.999 192.931 154.512 192.685 154.757 C 192.537 154.905 192.695 155.290 193.027 155.773 C 192.470 155.587 192.041 155.536 191.919 155.701 C 191.640 156.079 193.067 157.393 194.507 158.390 C 192.795 158.011 190.799 158.007 190.677 158.462 C 190.580 158.826 191.715 159.346 193.046 159.746 C 191.671 159.967 190.461 160.397 190.470 160.771 C 190.477 161.052 191.168 161.226 192.095 161.298 C 191.255 161.710 190.655 162.145 190.718 162.416 C 190.809 162.803 192.200 162.689 193.648 162.375 C 192.464 163.276 191.510 164.342 191.712 164.683 C 191.815 164.855 192.193 164.812 192.707 164.630 C 192.415 165.092 192.273 165.472 192.396 165.625 C 192.597 165.873 193.421 165.469 194.341 164.828 C 193.832 165.837 193.561 166.746 193.814 166.939 C 194.018 167.095 194.515 166.740 195.085 166.162 C 194.911 166.96 194.890 167.590 195.117 167.705 C 195.371 167.833 195.859 167.273 196.369 166.470 C 196.402 166.491 196.447 166.516 196.482 166.537 C 196.466 167.481 196.583 168.227 196.855 168.294 C 197.091 168.352 197.374 167.886 197.652 167.197 C 197.802 167.933 198.014 168.454 198.253 168.470 C 198.440 168.483 198.604 168.175 198.742 167.707 C 198.895 167.780 199.034 167.854 199.185 167.927 C 200.394 168.512 201.233 168.882 201.5 169.003 C 201.516 169.203 201.535 169.475 201.541 169.826 C 201.549 170.386 201.541 171.066 201.541 171.767 C 201.541 172.468 201.533 173.178 201.541 173.751 C 201.541 173.776 201.540 173.790 201.541 173.814 C 201.424 173.713 201.275 173.575 201.150 173.466 C 201.317 172.681 201.399 172.108 201.242 172.031 C 201.095 171.959 200.790 172.278 200.417 172.812 C 199.370 171.826 198.234 170.583 197.902 169.806 C 197.825 169.601 197.609 169.483 197.396 169.531 C 197.265 169.556 197.143 169.644 197.082 169.763 C 197.020 169.883 197.026 170.020 197.082 170.142 C 197.547 171.232 198.736 172.441 199.816 173.457 C 199.862 173.500 199.890 173.524 199.935 173.566 C 199.811 173.775 199.689 173.978 199.558 174.218 C 197.599 171.511 195.511 169.334 194.947 169.380 C 194.914 169.382 194.887 169.397 194.865 169.414 C 194.405 169.779 196.715 173.589 198.142 177.218 C 198.085 177.359 198.028 177.498 197.972 177.640 C 195.821 175.102 193.225 172.912 192.888 173.255 C 192.522 173.628 195.292 177.059 196.710 180.062 C 193.418 177.940 188.324 176.217 188.105 176.781 C 187.925 177.243 191.441 179.129 193.929 181.205 C 189.980 181.591 184.400 183.829 184.617 184.431 C 184.818 184.991 190.399 183.627 193.767 184.058 C 190.569 184.798 186.424 186.987 185.238 188.052 L 180.570 188.052 C 182.016 186.947 183.000 186.009 182.888 185.841 C 182.721 185.590 180.038 185.971 177.154 186.886 C 178.585 183.828 179.443 180.675 179.148 180.550 C 178.978 180.478 178.157 181.121 177.117 182.152 C 177.727 180.135 178.003 178.538 177.792 178.462 C 177.535 178.370 175.939 179.906 174.333 182.003 C 174.674 178.641 174.447 175.373 174.126 175.351 C 173.747 175.325 171.770 179.024 170.798 182.730 C 169.211 179.182 166.592 175.637 166.267 175.816 C 166.051 175.935 166.136 177.734 166.548 179.972 C 165.305 179.229 164.249 178.701 163.597 178.455 C 163.696 178.407 163.797 178.356 163.896 178.310 C 161.862 177.263 159.435 175.708 156.277 175.947 C 158.707 173.647 158.972 170.829 159.542 168.314 C 158.475 168.819 157.239 169.325 156.050 170.062 C 156.492 168.184 156.309 166.340 156.287 164.599 C 154.446 166.086 151.934 167.743 150.923 170.937 C 150.129 169.615 149.095 168.525 148.193 167.417 C 147.697 169.639 146.815 172.369 147.796 175.351 C 146.852 175.003 145.908 174.736 145.001 174.435 C 145.360 175.434 145.703 176.574 146.216 177.705 C 144.202 176.145 142.123 175.873 140.125 175.798 L 140.125 149.701 L 140.248 149.701 C 141.726 149.701 142.910 148.514 142.910 147.033 L 142.910 145.343 L 142.533 145.343 C 138.220 137.260 136.661 129.025 133.767 115.240 L 134.791 115.240 L 134.791 110.755 L 129.060 110.755 L 129.558 107.667 L 129.988 107.738 C 130.188 107.770 130.375 107.633 130.408 107.433 L 130.531 106.666 C 130.563 106.465 130.428 106.278 130.228 106.246 L 129.798 106.175 L 130.396 102.470 L 132.964 102.470 C 133.361 102.475 133.728 102.164 133.728 101.820 C 133.728 101.476 133.361 101.165 132.964 101.169 L 131.417 101.169 L 131.466 100.867 C 131.499 100.666 131.364 100.479 131.164 100.447 L 130.732 100.376 L 131.158 97.740 L 131.589 97.810 C 131.790 97.842 131.977 97.708 132.009 97.507 L 132.119 96.833 L 133.828 97.103 L 133.626 98.343 A 0.350 0.350 0 0 0 134.318 98.455 L 134.517 97.212 L 136.185 97.476 L 135.984 98.724 A 0.350 0.350 0 0 0 136.675 98.835 L 136.876 97.585 L 138.542 97.847 L 138.339 99.103 A 0.349 0.349 0 1 0 139.029 99.214 L 139.232 97.957 L 140.896 98.218 L 140.691 99.484 A 0.350 0.350 0 1 0 141.382 99.595 L 141.587 98.328 L 143.251 98.591 L 143.046 99.865 A 0.349 0.349 0 1 0 143.736 99.976 L 143.941 98.701 L 145.607 98.962 L 145.400 100.244 A 0.349 0.349 0 1 0 146.089 100.355 L 146.296 99.072 L 147.960 99.335 L 147.753 100.625 A 0.349 0.349 0 1 0 148.443 100.736 L 148.652 99.443 L 150.316 99.707 L 150.107 101.005 A 0.349 0.349 0 1 0 150.796 101.117 L 151.005 99.816 L 151.728 99.929 A 0.500 0.500 0 0 0 151.884 98.941 L 151.166 98.828 L 151.277 98.134 A 0.349 0.349 0 0 0 150.914 97.726 A 0.349 0.349 0 0 0 150.587 98.023 L 150.476 98.718 L 148.810 98.457 L 148.923 97.755 A 0.349 0.349 0 0 0 148.560 97.345 A 0.349 0.349 0 0 0 148.234 97.644 L 148.121 98.347 L 146.455 98.083 L 146.570 97.375 A 0.349 0.349 0 0 0 146.207 96.964 A 0.349 0.349 0 0 0 145.880 97.263 L 145.765 97.976 L 144.101 97.712 L 144.216 96.994 A 0.349 0.349 0 0 0 143.853 96.585 A 0.349 0.349 0 0 0 143.527 96.882 L 143.410 97.603 L 141.746 97.341 L 141.863 96.615 A 0.349 0.349 0 0 0 141.5 96.205 A 0.349 0.349 0 0 0 141.173 96.503 L 141.056 97.232 L 139.390 96.970 L 139.509 96.234 A 0.349 0.349 0 0 0 139.146 95.824 A 0.349 0.349 0 0 0 138.820 96.123 L 138.701 96.861 L 137.037 96.599 L 137.156 95.853 A 0.349 0.349 0 0 0 136.792 95.445 A 0.349 0.349 0 0 0 136.464 95.742 L 136.343 96.490 L 134.677 96.226 L 134.798 95.472 A 0.349 0.349 0 0 0 134.435 95.064 A 0.349 0.349 0 0 0 134.109 95.361 L 133.986 96.117 L 132.277 95.847 L 132.345 95.419 C 132.378 95.219 132.243 95.032 132.042 95 L 131.611 94.929 L 134.291 78.330 A 0.513 0.514 4.585 0 0 133.861 77.734 A 0.513 0.514 4.585 0 0 133.810 77.730 A 0.513 0.514 4.585 0 0 133.759 77.730 z M 75.818 84.039 L 75.990 101.169 L 73.642 101.169 C 73.161 99.274 72.824 97.635 72.792 96.460 C 72.674 91.986 73.596 87.282 74.287 84.5 C 74.560 84.482 74.781 84.301 74.863 84.050 L 75.818 84.039 z M 100.863 98.957 L 101.613 98.957 L 102.394 98.957 L 103.029 98.957 L 103.029 100.236 L 100.863 100.236 L 100.863 98.957 z M 73.986 102.470 L 76.003 102.470 L 76.078 109.906 C 75.921 109.344 75.769 108.772 75.611 108.220 C 75.026 106.175 74.466 104.248 73.986 102.470 z M 77.347 102.470 L 79.843 102.470 C 79.795 103.977 79.763 105.148 79.75 106.044 L 78.722 106.044 L 78.722 109.244 L 79.634 109.244 L 79.634 110.755 L 77.429 110.755 L 77.347 102.470 z M 85.550 102.470 L 88.109 102.470 C 88.032 103.594 87.979 104.789 87.937 106.044 L 85.644 106.044 C 85.630 105.148 85.599 103.977 85.550 102.470 z M 93.460 102.470 L 98.865 102.470 L 98.865 103.958 C 98.865 104.338 99.166 104.644 99.539 104.644 L 99.724 104.644 L 99.724 110.755 L 94.246 110.755 L 94.246 109.244 L 95.160 109.244 L 95.160 106.044 L 93.632 106.044 C 93.590 104.789 93.538 103.594 93.460 102.470 z M 105.144 102.470 L 112.611 102.470 C 112.578 103.646 112.552 104.512 112.541 105.236 L 111.513 105.236 L 111.513 108.433 L 112.441 108.433 L 112.441 110.755 L 104.285 110.755 L 104.285 104.644 L 104.470 104.644 C 104.843 104.644 105.144 104.339 105.144 103.958 L 105.144 102.470 z M 118.365 102.470 L 120.843 102.470 C 120.792 103.378 120.760 104.285 120.728 105.236 L 118.435 105.236 C 118.424 104.512 118.397 103.646 118.365 102.470 z M 126.308 102.470 L 129.371 102.470 L 128.798 106.013 L 128.341 105.939 C 128.170 105.911 128.014 106.012 127.951 106.166 L 127.951 105.236 L 126.423 105.236 C 126.392 104.285 126.359 103.378 126.308 102.470 z M 127.951 107.369 C 127.994 107.399 128.045 107.424 128.101 107.433 L 128.558 107.507 L 128.033 110.755 L 127.044 110.755 C 127.044 110.058 127.043 109.332 127.042 108.433 L 127.951 108.433 L 127.951 107.369 z M 206.093 158.603 C 206.311 158.993 206.591 159.428 206.929 159.882 C 206.317 159.565 205.708 159.314 205.222 159.177 C 205.586 158.978 205.889 158.785 206.093 158.603 z M 204.351 159.601 C 204.394 159.672 204.442 159.744 204.507 159.824 C 204.486 159.819 204.467 159.806 204.445 159.804 C 204.392 159.801 204.330 159.813 204.277 159.826 C 204.172 159.851 204.088 159.913 204.019 159.992 C 203.854 159.973 203.698 159.947 203.531 159.933 C 203.814 159.835 204.083 159.717 204.351 159.601 z M 202.361 162.541 C 202.647 162.629 202.946 162.692 203.244 162.759 C 203.067 162.842 202.949 162.933 202.927 163.033 C 202.738 162.867 202.554 162.696 202.361 162.541 z M 203.417 163.464 C 203.526 163.511 203.607 163.560 203.746 163.603 C 203.691 163.624 203.665 163.648 203.615 163.669 C 203.544 163.600 203.491 163.534 203.417 163.464 z M 204.560 164.710 C 204.688 164.718 204.807 164.732 204.943 164.736 C 204.845 164.785 204.764 164.834 204.671 164.884 C 204.634 164.827 204.606 164.773 204.560 164.710 z M 203.550 165.283 C 203.625 165.318 203.675 165.323 203.746 165.353 C 203.722 165.397 203.709 165.444 203.703 165.492 C 203.693 165.500 203.685 165.507 203.675 165.515 C 203.634 165.438 203.599 165.365 203.550 165.283 z M 202.154 165.666 C 202.944 166.300 203.664 166.69 203.892 166.503 C 203.937 166.467 203.960 166.410 203.964 166.335 L 204.160 166.839 C 203.916 167.126 203.781 167.369 203.851 167.507 C 203.916 167.637 204.143 167.657 204.458 167.605 L 204.882 168.691 C 204.847 168.833 204.843 168.950 204.898 169.017 C 204.926 169.052 204.978 169.061 205.029 169.070 L 206.253 172.210 C 206.164 172.591 206.069 172.979 205.976 173.363 C 205.301 173.329 204.593 173.317 203.865 173.316 C 203.425 171.762 202.943 170.517 202.615 170.189 C 202.614 170.069 202.616 169.918 202.615 169.806 C 202.607 169.232 202.612 168.848 202.550 168.539 C 202.507 168.320 202.410 167.959 202.279 167.517 C 202.337 167.528 202.391 167.529 202.433 167.507 C 202.697 167.374 202.525 166.600 202.154 165.666 z M 199.080 165.687 C 199.299 166.280 199.558 166.817 199.812 167.259 C 199.704 167.208 199.693 167.208 199.564 167.146 C 199.349 167.042 199.153 166.937 198.937 166.830 C 198.997 166.472 199.046 166.089 199.080 165.687 z M 200.900 166.748 C 201.042 167.185 201.174 167.601 201.267 167.927 C 201.167 167.882 201.007 167.807 200.914 167.765 C 200.950 167.508 200.945 167.164 200.900 166.748 z M 205.787 167.191 C 205.651 167.359 205.535 167.520 205.423 167.679 L 205.302 167.369 C 205.460 167.313 205.616 167.260 205.787 167.191 z M 208.238 168.248 C 208.222 168.303 208.214 168.355 208.199 168.410 C 208.209 168.359 208.218 168.307 208.228 168.257 C 208.231 168.254 208.235 168.251 208.238 168.248 z M 206.191 168.611 C 206.105 168.794 206.035 168.964 205.978 169.123 L 205.855 168.802 C 205.963 168.744 206.072 168.684 206.191 168.611 z M 206.832 169.623 C 206.753 169.980 206.675 170.343 206.591 170.712 L 206.302 169.960 C 206.454 169.892 206.631 169.780 206.832 169.623 z M 209.341 169.697 C 209.345 169.842 209.358 169.971 209.367 170.107 C 208.989 170.676 208.603 171.301 208.210 171.937 C 207.879 172.474 207.558 172.981 207.244 173.449 C 207.186 173.444 207.125 173.442 207.068 173.437 C 207.369 172.182 207.661 170.948 207.904 169.839 C 207.807 170.572 207.826 171.143 208.044 171.236 C 208.331 171.357 208.845 170.655 209.341 169.697 z M 210.718 170.062 C 210.976 171.042 211.323 171.785 211.617 171.771 C 211.849 171.760 211.997 171.276 212.070 170.585 C 212.403 171.200 212.736 171.605 212.960 171.556 C 213.091 171.528 213.164 171.342 213.197 171.066 C 214.790 172.519 216.230 174.396 217.537 176.507 C 215.361 175.125 212.504 174.087 208.714 173.605 C 208.972 173.128 209.132 172.755 209.025 172.646 C 208.986 172.606 208.919 172.597 208.833 172.611 C 208.878 172.539 208.924 172.472 208.968 172.400 C 209.181 172.054 209.388 171.711 209.591 171.378 C 209.663 171.556 209.745 171.691 209.847 171.708 C 210.139 171.759 210.460 171.034 210.718 170.062 z M 277.421 173.068 C 277.413 173.1 277.398 173.132 277.390 173.164 C 277.388 173.145 277.383 173.127 277.380 173.109 C 277.394 173.094 277.407 173.083 277.421 173.068 z M 203.931 173.533 C 204.545 173.706 205.162 173.924 205.779 174.179 C 205.769 174.220 205.759 174.259 205.75 174.300 C 205.681 174.585 205.627 174.813 205.558 175.095 C 205.217 175.420 204.881 175.735 204.527 176.099 C 204.360 175.197 204.152 174.337 203.931 173.533 z M 236.5 173.869 C 243.229 179.276 248.407 183.345 252.144 186.080 C 249.240 185.401 245.459 184.624 241.041 183.759 C 235.704 181.072 231.618 181.169 228.277 182.279 C 228.305 182.218 228.330 182.160 228.359 182.099 C 230.879 178.980 233.625 176.010 236.5 173.869 z M 273.894 174.201 C 273.999 174.633 274.108 175.023 274.220 175.357 C 272.624 176.539 270.914 177.801 269.544 178.835 C 269.500 178.806 269.456 178.778 269.412 178.75 C 270.803 177.351 272.267 175.872 273.894 174.201 z M 200.919 174.460 C 201.237 174.739 201.483 174.944 201.626 175.060 C 201.689 175.354 201.833 175.748 202.046 176.367 C 202.124 176.591 202.234 176.900 202.326 177.158 C 202.302 177.621 202.266 178.072 202.208 178.498 C 201.758 177.599 201.207 176.675 200.615 175.767 C 200.734 175.261 200.815 174.900 200.919 174.460 z M 294.171 174.972 C 294.242 175.156 294.314 175.354 294.380 175.486 C 294.313 175.420 294.223 175.367 294.130 175.322 C 294.147 175.206 294.157 175.089 294.171 174.972 z M 300.400 174.980 C 300.755 175.623 301.292 176.295 302.023 177.027 L 300.636 181.314 L 300.060 178.820 C 301.008 177.480 300.503 176.245 299.798 176.634 C 300.072 176.138 300.256 175.569 300.400 174.980 z M 207.791 175.136 C 209.250 175.924 210.705 176.892 212.136 177.980 C 210.857 178.051 209.471 178.237 207.968 178.554 C 208.950 177.450 209.670 176.624 209.521 176.416 C 209.317 176.132 207.719 176.999 205.900 178.322 C 205.925 178.218 205.950 178.108 205.976 178.001 C 206.618 176.953 207.247 175.981 207.791 175.136 z M 280.583 175.714 C 280.612 175.767 280.650 175.822 280.681 175.875 C 280.619 175.911 280.567 175.943 280.505 175.980 C 280.530 175.890 280.561 175.805 280.583 175.714 z M 274.515 176.101 C 274.531 176.134 274.549 176.188 274.564 176.218 C 274.538 176.192 274.496 176.177 274.464 176.154 C 274.481 176.137 274.499 176.118 274.515 176.101 z M 280.826 176.109 C 281.168 176.632 281.622 177.175 282.205 177.759 L 280.818 182.048 L 280.242 179.554 C 281.189 178.214 280.685 176.980 279.980 177.369 C 280.126 177.103 280.244 176.814 280.347 176.515 C 280.510 176.377 280.661 176.250 280.826 176.109 z M 273.597 177.056 C 273.756 177.584 274.126 178.338 274.830 179.394 C 273.851 179.988 272.926 180.555 272.074 181.082 C 271.704 180.659 271.304 180.243 270.859 179.849 C 271.731 178.966 272.631 178.053 273.597 177.056 z M 308.853 177.951 L 308.855 177.951 C 308.808 178.796 309.022 180.289 309.796 182.855 C 309.885 182.821 309.973 182.778 310.058 182.744 C 309.733 183.882 309.188 184.642 308.802 185.097 C 308.212 185.300 307.524 185.586 306.839 185.910 C 306.834 185.839 306.817 185.786 306.812 185.712 C 306.753 184.917 306.735 183.957 306.708 183.050 C 306.681 182.107 306.686 181.899 306.681 181.257 C 308.178 179.583 308.761 178.549 308.853 177.951 z M 303.044 178.007 C 303.203 178.898 303.861 180.063 305.425 181.287 C 305.430 181.939 305.425 182.151 305.453 183.107 C 305.479 184.027 305.522 184.994 305.583 185.826 C 305.588 185.899 305.605 185.954 305.611 186.021 C 305.402 186.091 305.180 186.203 304.957 186.386 C 304.502 184.694 303.895 183.080 303.595 183.080 C 303.264 183.079 302.757 184.952 302.443 186.779 C 302.234 186.632 302.022 186.489 301.816 186.357 L 301.214 183.751 L 303.044 178.007 z M 140.125 178.650 C 140.245 178.789 140.359 178.930 140.488 179.066 C 140.365 179.050 140.247 179.036 140.125 179.021 L 140.125 178.650 z M 163.035 178.726 C 163.280 179.298 163.947 180.377 164.875 181.611 C 164.719 182.207 164.562 182.916 164.423 183.718 C 163.202 182.140 162.069 180.954 161.611 180.685 C 161.285 180.386 160.942 180.095 160.564 179.832 C 161.431 179.510 162.239 179.114 163.035 178.726 z M 283.226 178.742 C 283.384 179.633 284.044 180.796 285.609 182.019 C 285.614 182.671 285.606 182.885 285.634 183.841 C 285.643 184.151 285.666 184.444 285.679 184.757 C 285.333 184.849 284.987 184.957 284.644 185.097 C 284.878 185.388 285.272 185.818 285.753 186.298 C 285.759 186.381 285.759 186.480 285.765 186.560 C 285.770 186.633 285.787 186.688 285.792 186.755 C 285.584 186.826 285.362 186.937 285.138 187.121 C 284.683 185.428 284.077 183.815 283.777 183.814 C 283.446 183.813 282.940 185.685 282.626 187.511 C 282.418 187.364 282.204 187.224 281.998 187.091 L 281.396 184.486 L 283.226 178.742 z M 299.013 179.886 L 299.876 183.695 L 299.876 183.724 L 299.904 183.724 L 300.324 185.517 C 300.173 185.455 300.033 185.425 299.931 185.406 C 299.929 185.397 299.932 185.385 299.931 185.376 C 299.681 184.240 299.276 183.356 298.804 183.332 C 298.514 183.317 298.229 183.675 297.968 184.171 C 297.722 183.665 297.464 183.257 297.208 183.023 C 297.378 182.406 297.541 181.612 297.523 180.669 C 298.119 180.430 298.611 180.173 299.013 179.886 z M 206.677 180.033 C 208.185 180.217 209.745 180.587 211.324 181.070 C 209.379 181.267 206.761 181.771 204.697 182.542 C 204.730 182.494 204.769 182.444 204.802 182.396 L 205.076 182.380 C 205.076 182.377 205.076 182.343 205.076 182.339 C 205.077 182.283 205.117 182.064 205.134 181.943 C 205.620 181.286 206.141 180.654 206.677 180.033 z M 296.212 180.333 C 296.366 182.297 295.611 183.640 295.611 183.640 C 295.611 183.640 295.118 182.887 294.277 184.285 C 294.236 184.133 294.151 183.933 294.074 183.742 C 295.674 182.895 295.682 181.373 294.847 181.458 C 295.224 181.148 295.561 180.765 295.869 180.343 C 295.921 180.412 295.949 180.459 296.003 180.529 C 296.074 180.462 296.145 180.400 296.212 180.333 z M 275.625 180.492 C 275.817 180.754 275.958 180.971 276.185 181.263 C 276.256 181.197 276.329 181.132 276.396 181.066 C 276.550 183.030 275.792 184.373 275.792 184.373 C 275.792 184.373 275.300 183.619 274.458 185.017 C 274.300 184.434 273.845 183.512 273.173 182.515 C 273.926 181.904 274.785 181.188 275.625 180.492 z M 279.195 180.621 L 280.060 184.429 L 280.060 184.458 L 280.085 184.458 L 280.505 186.251 C 280.355 186.189 280.215 186.160 280.113 186.140 C 280.111 186.131 280.114 186.120 280.113 186.111 C 279.862 184.975 279.460 184.091 278.988 184.066 C 278.697 184.051 278.411 184.410 278.150 184.906 C 277.903 184.400 277.645 183.991 277.390 183.757 C 277.559 183.141 277.723 182.346 277.705 181.404 C 278.301 181.165 278.793 180.907 279.195 180.621 z M 287.435 181.312 C 287.889 182.419 288.463 183.544 289.173 184.507 C 288.441 184.432 287.683 184.428 286.919 184.517 C 286.912 184.264 286.897 184.034 286.890 183.785 C 286.863 182.841 286.868 182.633 286.863 181.992 C 287.086 181.742 287.251 181.534 287.435 181.312 z M 140.125 181.558 C 140.583 182.244 141.095 182.922 141.734 183.535 C 141.177 183.619 140.645 183.760 140.125 183.919 L 140.125 181.558 z M 213.292 181.726 C 215.273 182.444 217.263 183.310 219.201 184.238 C 219.211 184.249 219.227 184.255 219.238 184.263 C 216.910 184.561 214.251 185.395 211.197 186.957 C 209.619 186.396 207.496 185.818 205.365 185.435 C 207.417 183.774 211.633 182.497 213.292 181.726 z M 267.937 182.767 C 268.047 183.006 268.161 183.241 268.283 183.476 C 266.828 184.420 265.550 185.276 264.623 185.966 C 265.612 185.039 266.740 183.945 267.937 182.767 z M 243.595 185.208 C 246.504 186.287 249.349 187.337 251.423 188.052 L 238.861 188.052 C 237.912 187.341 236.984 186.700 236.095 186.195 C 240.326 186.077 244.396 186.486 247.589 188.039 C 246.187 186.927 244.862 186.001 243.595 185.208 z M 140.125 187.083 C 140.178 187.108 140.228 187.137 140.283 187.162 C 140.228 187.207 140.178 187.256 140.125 187.302 L 140.125 187.083 z M 39.720 187.195 C 39.714 187.481 39.717 187.776 39.703 188.052 L 38.873 188.052 C 39.183 187.768 39.458 187.488 39.720 187.195 z M 266.503 187.574 C 266.675 187.733 266.834 187.889 267.023 188.052 L 265.779 188.052 C 266.006 187.907 266.255 187.741 266.503 187.574 z " style="fill:#1a3548;fill-opacity:1" />
 <path style="fill:#ffff00;stroke-width:0.5;marker:none" d="m 85.917,168.492 c 0,1.399 0,2.802 0,3.462 l 2.116,0 c 0,-1.401 0,-2.790 0,-3.462 l -2.116,0 z" id="path3296-9" />
 <path id="path3339-4" d="m 84.421,132.022 0,4.132 4.107,0 a 4.583,4.587 0 0 0 -4.107,-4.132 z m -0.908,0.006 a 4.583,4.587 0 0 0 -4.105,4.126 l 4.105,0 0,-4.126 z m -4.095,5.035 a 4.583,4.587 0 0 0 4.095,4.089 l 0,-4.089 -4.095,0 z m 5.003,0 0,4.085 a 4.583,4.587 0 0 0 4.107,-4.085 l -4.107,0 z" style="fill:#ffff00;stroke-width:0.227;marker:none" />
 <path id="path4165-7" d="m 65.272,145.210 0,1.822 c 0,1.48 1.185,2.667 2.663,2.667 l 72.312,0 c 1.478,0 2.663,-1.186 2.663,-2.667 l 0,-1.689 -76.796,0 c -0.287,0 -0.575,-0.071 -0.843,-0.133 z" style="fill:none;stroke-width:0.5;marker:none" />
 <path id="path4782-2" d="m 103.386,163.202 0,7.757 6.312,0 0,-7.757 -6.312,0 z m 8.458,0 0,7.757 6.312,0 0,-7.757 -6.312,0 z m -8.458,9.117 0,1.437 0.810,0 0,-1.437 -0.810,0 z m 1.664,0 0,1.437 4.648,0 0,-1.437 -4.648,0 z m 6.794,0 0,1.437 4.484,0 0,-1.437 -4.484,0 z m 5.337,0 0,1.437 0.974,0 0,-1.437 -0.974,0 z" style="fill:#ffff00;stroke-width:0.5;marker:none" />
 <path style="fill:#1a3548;fill-rule:nonzero;stroke-width:1;stroke-linecap:butt;marker:none;;filter-blend-mode:normal;filter-gaussianBlur-deviation:0;text-rendering:auto" d="m 212.510,166.224 c -0.378,1.058 -1.111,3.960 -0.894,6.696 -0.547,-0.423 -1.149,-0.796 -1.813,-1.094 -0.083,1.105 -0.054,4.036 0.843,6.594 -0.259,0.102 -0.514,0.224 -0.740,0.381 -1.625,-1.358 -3.896,-2.629 -6.514,-2.699 0.279,0.844 1.100,2.725 2.350,4.481 -1.753,-0.268 -3.726,-0.217 -5.594,0.585 1.102,1.173 5.215,4.735 8.889,4.557 -0.482,0.335 -0.318,0.918 0.281,1.247 0.121,0.603 0.425,1.153 0.843,1.578 l 12.721,0 c -0.004,0.036 -0.022,0.065 -0.025,0.101 4.528,1.176 5.521,0.550 5.441,-0.101 l 0.715,0 c 0.614,-0.270 1.114,-0.739 1.353,-1.324 2.152,-0.743 4.820,-2.304 6.258,-4.990 -0.663,-0.096 -1.997,-0.173 -3.525,-0.076 1.031,-1.545 1.885,-3.494 1.890,-5.652 -0.738,0.265 -2.292,0.969 -3.831,2.011 -0.366,-0.834 -1.082,-1.486 -1.967,-1.756 -0.081,-0.675 -0.362,-1.281 -0.766,-1.782 0.317,-1.003 0.511,-2.079 0.459,-3.208 -0.496,0.203 -1.376,0.645 -2.350,1.247 0.235,-1.302 0.261,-2.697 -0.102,-4.099 -0.728,0.494 -2.284,1.787 -3.627,3.437 -0.272,-0.066 -0.548,-0.101 -0.843,-0.101 -0.264,0 -0.518,0.022 -0.766,0.076 -0.374,-0.589 -1.007,-1.027 -1.762,-1.171 -0.579,-1.554 -1.511,-3.114 -2.963,-4.303 -0.256,0.719 -0.689,2.283 -0.868,4.074 -0.564,-1.676 -1.519,-3.423 -3.091,-4.710 z" id="path4933" />
 <path d="m 73.400,13.193 1.067,4.365 4.201,1.595 -3.821,2.363 -0.219,4.488 -3.429,-2.904 -4.336,1.178 1.702,-4.158 -2.460,-3.760 4.481,0.333 z" id="path5052" style="fill:#e2ecef;fill-rule:nonzero;stroke-width:1;stroke-linecap:butt;marker:none;" />
 <path transform="matrix(0.939,-0.341,0.341,0.939,46.932,119.781)" style="fill:#e2ecef;fill-rule:nonzero;stroke-width:1;stroke-linecap:butt;marker:none;" id="path5054" d="m 253.964,61.637 1.067,4.365 4.201,1.595 -3.821,2.363 -0.219,4.488 -3.429,-2.904 -4.336,1.178 1.702,-4.158 -2.460,-3.760 4.481,0.333 z" />
 <path d="m 253.964,61.637 1.067,4.365 4.201,1.595 -3.821,2.363 -0.219,4.488 -3.429,-2.904 -4.336,1.178 1.702,-4.158 -2.460,-3.760 4.481,0.333 z" id="path5058" style="fill:#e2ecef;fill-rule:nonzero;stroke-width:1;stroke-linecap:butt;marker:none;" transform="matrix(0.939,-0.341,0.341,0.939,19.040,47.115)" />
 <path transform="matrix(0.591,-0.215,0.215,0.591,-106.828,44.772)" style="fill:#e2ecef;fill-rule:nonzero;stroke-width:1;stroke-linecap:butt;marker:none;" id="path5060" d="m 253.964,61.637 1.067,4.365 4.201,1.595 -3.821,2.363 -0.219,4.488 -3.429,-2.904 -4.336,1.178 1.702,-4.158 -2.460,-3.760 4.481,0.333 z" />
 <path d="m 253.964,61.637 1.067,4.365 4.201,1.595 -3.821,2.363 -0.219,4.488 -3.429,-2.904 -4.336,1.178 1.702,-4.158 -2.460,-3.760 4.481,0.333 z" id="path5062" style="fill:#e2ecef;fill-rule:nonzero;stroke-width:1;stroke-linecap:butt;marker:none;" transform="matrix(0.617,0.121,-0.121,0.617,27.686,-41.924)" />
 <path transform="matrix(0.626,-0.058,0.058,0.626,-136.601,29.327)" style="fill:#e2ecef;fill-rule:nonzero;stroke-width:1;stroke-linecap:butt;marker:none;" id="path5064" d="m 253.964,61.637 1.067,4.365 4.201,1.595 -3.821,2.363 -0.219,4.488 -3.429,-2.904 -4.336,1.178 1.702,-4.158 -2.460,-3.760 4.481,0.333 z" />
 <path transform="matrix(0.626,-0.058,0.058,0.626,-149.244,47.924)" style="fill:#e2ecef;fill-rule:nonzero;stroke-width:1;stroke-linecap:butt;marker:none;" id="path5064-7" d="m 253.964,61.637 1.067,4.365 4.201,1.595 -3.821,2.363 -0.219,4.488 -3.429,-2.904 -4.336,1.178 1.702,-4.158 -2.460,-3.760 4.481,0.333 z" />
 <path transform="matrix(0.626,-0.058,0.058,0.626,-147.042,93.432)" style="fill:#e2ecef;fill-rule:nonzero;stroke-width:1;stroke-linecap:butt;marker:none;" id="path5064-4" d="m 253.964,61.637 1.067,4.365 4.201,1.595 -3.821,2.363 -0.219,4.488 -3.429,-2.904 -4.336,1.178 1.702,-4.158 -2.460,-3.760 4.481,0.333 z" />
 <path d="m 253.964,61.637 1.067,4.365 4.201,1.595 -3.821,2.363 -0.219,4.488 -3.429,-2.904 -4.336,1.178 1.702,-4.158 -2.460,-3.760 4.481,0.333 z" id="path5062-4" style="fill:#e2ecef;fill-rule:nonzero;stroke-width:1;stroke-linecap:butt;marker:none;" transform="matrix(0.617,0.121,-0.121,0.617,-135.544,-53.797)" />
 <path d="m 253.964,61.637 1.067,4.365 4.201,1.595 -3.821,2.363 -0.219,4.488 -3.429,-2.904 -4.336,1.178 1.702,-4.158 -2.460,-3.760 4.481,0.333 z" id="path5062-0" style="fill:#e2ecef;fill-rule:nonzero;stroke-width:1;stroke-linecap:butt;marker:none;" transform="matrix(0.617,0.121,-0.121,0.617,60.433,5.656)" />
 <path transform="matrix(0.547,0.311,-0.311,0.547,-55.856,-58.457)" style="fill:#e2ecef;fill-rule:nonzero;stroke-width:1;stroke-linecap:butt;marker:none;" id="path5060-5" d="m 253.964,61.637 1.067,4.365 4.201,1.595 -3.821,2.363 -0.219,4.488 -3.429,-2.904 -4.336,1.178 1.702,-4.158 -2.460,-3.760 4.481,0.333 z" />
 <path transform="matrix(0.591,-0.215,0.215,0.591,28.398,31.801)" style="fill:#e2ecef;fill-rule:nonzero;stroke-width:1;stroke-linecap:butt;marker:none;" id="path5060-93" d="m 253.964,61.637 1.067,4.365 4.201,1.595 -3.821,2.363 -0.219,4.488 -3.429,-2.904 -4.336,1.178 1.702,-4.158 -2.460,-3.760 4.481,0.333 z" />
 <path transform="matrix(0.591,-0.215,0.215,0.591,-0.961,148.507)" style="fill:#e2ecef;fill-rule:nonzero;stroke-width:1;stroke-linecap:butt;marker:none;" id="path5060-2" d="m 253.964,61.637 1.067,4.365 4.201,1.595 -3.821,2.363 -0.219,4.488 -3.429,-2.904 -4.336,1.178 1.702,-4.158 -2.460,-3.760 4.481,0.333 z" />
 <path transform="matrix(0.591,-0.215,0.215,0.591,113.542,120.615)" style="fill:#e2ecef;fill-rule:nonzero;stroke-width:1;stroke-linecap:butt;marker:none;" id="path5060-0" d="m 253.964,61.637 1.067,4.365 4.201,1.595 -3.821,2.363 -0.219,4.488 -3.429,-2.904 -4.336,1.178 1.702,-4.158 -2.460,-3.760 4.481,0.333 z" />
 <path d="m 253.964,61.637 1.067,4.365 4.201,1.595 -3.821,2.363 -0.219,4.488 -3.429,-2.904 -4.336,1.178 1.702,-4.158 -2.460,-3.760 4.481,0.333 z" id="path5062-5" style="fill:#e2ecef;fill-rule:nonzero;stroke-width:1;stroke-linecap:butt;marker:none;" transform="matrix(0.617,0.121,-0.121,0.617,103.739,61.440)" />
 <path d="m 253.964,61.637 1.067,4.365 4.201,1.595 -3.821,2.363 -0.219,4.488 -3.429,-2.904 -4.336,1.178 1.702,-4.158 -2.460,-3.760 4.481,0.333 z" id="path5062-2" style="fill:#e2ecef;fill-rule:nonzero;stroke-width:1;stroke-linecap:butt;marker:none;" transform="matrix(0.617,0.121,-0.121,0.617,147.779,48.962)" />
 <path d="m 253.964,61.637 1.067,4.365 4.201,1.595 -3.821,2.363 -0.219,4.488 -3.429,-2.904 -4.336,1.178 1.702,-4.158 -2.460,-3.760 4.481,0.333 z" id="path5062-7" style="fill:#e2ecef;fill-rule:nonzero;stroke-width:1;stroke-linecap:butt;marker:none;" transform="matrix(0.617,0.121,-0.121,0.617,135.301,-7.555)" />
 <path d="m 253.964,61.637 1.067,4.365 4.201,1.595 -3.821,2.363 -0.219,4.488 -3.429,-2.904 -4.336,1.178 1.702,-4.158 -2.460,-3.760 4.481,0.333 z" id="path5062-1" style="fill:#e2ecef;fill-rule:nonzero;stroke-width:1;stroke-linecap:butt;marker:none;" transform="matrix(0.617,0.121,-0.121,0.617,159.523,-6.087)" />
 <path d="m 253.964,61.637 1.067,4.365 4.201,1.595 -3.821,2.363 -0.219,4.488 -3.429,-2.904 -4.336,1.178 1.702,-4.158 -2.460,-3.760 4.481,0.333 z" id="path5062-8" style="fill:#e2ecef;fill-rule:nonzero;stroke-width:1;stroke-linecap:butt;marker:none;" transform="matrix(0.617,0.121,-0.121,0.617,68.507,19.602)" />
 <path d="m 253.964,61.637 1.067,4.365 4.201,1.595 -3.821,2.363 -0.219,4.488 -3.429,-2.904 -4.336,1.178 1.702,-4.158 -2.460,-3.760 4.481,0.333 z" id="path5062-18" style="fill:#e2ecef;fill-rule:nonzero;stroke-width:1;stroke-linecap:butt;marker:none;" transform="matrix(0.617,0.121,-0.121,0.617,82.453,-67.009)" />
 <path transform="matrix(0.547,0.311,-0.311,0.547,202.481,-87.594)" style="fill:#e2ecef;fill-rule:nonzero;stroke-width:1;stroke-linecap:butt;marker:none;" id="path5060-5-9" d="m 253.964,61.637 1.067,4.365 4.201,1.595 -3.821,2.363 -0.219,4.488 -3.429,-2.904 -4.336,1.178 1.702,-4.158 -2.460,-3.760 4.481,0.333 z" />
 <path id="path5222" d="m 236.997,26.966 a 26.424,26.424 0 0 0 -12.261,35.300 26.424,26.424 0 0 0 35.300,12.261 26.424,26.424 0 0 0 13.368,-14.928 18.350,18.350 0 0 1 -2.695,1.603 18.350,18.350 0 0 1 -24.513,-8.514 18.350,18.350 0 0 1 8.514,-24.513 18.350,18.350 0 0 1 4.633,-1.504 26.424,26.424 0 0 0 -22.346,0.296 z" style="fill:#ecec5e;fill-rule:nonzero;stroke-width:1;stroke-linecap:butt;marker:none;" />
 </g>
</svg>
