<?xml version="1.0" encoding="UTF-8" standalone="no"?>
<!-- Created with Inkscape (http://www.inkscape.org/) -->

<svg
   xmlns:dc="http://purl.org/dc/elements/1.1/"
   xmlns:cc="http://creativecommons.org/ns#"
   xmlns:rdf="http://www.w3.org/1999/02/22-rdf-syntax-ns#"
   xmlns:svg="http://www.w3.org/2000/svg"
   xmlns="http://www.w3.org/2000/svg"
   xmlns:sodipodi="http://sodipodi.sourceforge.net/DTD/sodipodi-0.dtd"
   xmlns:inkscape="http://www.inkscape.org/namespaces/inkscape"
   width="100%"
   height="100%"
   viewBox="0 0 120 90"
   id="ppvs"
   version="1.1"
   inkscape:version="0.91 r13725"
   sodipodi:docname="img004.svg">
  <defs
     id="defs5015">
    <pattern
       y="0"
       x="0"
       height="6"
       width="6"
       patternUnits="userSpaceOnUse"
       id="EMFhbasepattern" />
  </defs>
  <sodipodi:namedview
     id="base"
     pagecolor="#ffffff"
     bordercolor="#666666"
     borderopacity="1.0"
     inkscape:pageopacity="0.0"
     inkscape:pageshadow="2"
     inkscape:zoom="1.6619718"
     inkscape:cx="56.06968"
     inkscape:cy="22.030792"
     inkscape:current-layer="layer1"
     inkscape:document-units="px"
     showgrid="false"
     inkscape:window-width="701"
     inkscape:window-height="640"
     inkscape:window-x="415"
     inkscape:window-y="166"
     inkscape:window-maximized="0" />
  <metadata
     id="metadata5018">
    <rdf:RDF>
      <cc:Work
         rdf:about="">
        <dc:format>image/svg+xml</dc:format>
        <dc:type
           rdf:resource="http://purl.org/dc/dcmitype/StillImage" />
        <dc:title></dc:title>
      </cc:Work>
    </rdf:RDF>
  </metadata>
  <g
     id="layer1"
     inkscape:label="Background"
     inkscape:groupmode="layer">
    <rect
       style="fill:#7eb4db;"
       id="rect0001"
       width="120"
       height="90"
       x="0"
       y="0" />
    <rect
       style="color:#000000;clip-rule:nonzero;display:inline;overflow:visible;visibility:visible;opacity:1;isolation:auto;mix-blend-mode:normal;color-interpolation:sRGB;color-interpolation-filters:linearRGB;solid-color:#000000;solid-opacity:1;fill:#3fa014;fill-opacity:1;fill-rule:nonzero;stroke:#000000;stroke-width:0.5;stroke-linecap:butt;stroke-linejoin:miter;stroke-miterlimit:4;stroke-dasharray:none;stroke-dashoffset:0;stroke-opacity:1;marker:none;marker-start:none;marker-mid:none;marker-end:none;color-rendering:auto;image-rendering:auto;shape-rendering:auto;text-rendering:auto;enable-background:accumulate"
       id="rect4201"
       width="137.78813"
       height="49.338982"
       x="-9.025424"
       y="52.694916" />
    <path
       style="display:inline;overflow:visible;visibility:visible;fill:#5aaf1e;fill-opacity:1;fill-rule:evenodd;stroke:#000000;stroke-width:0.5;stroke-linecap:round;stroke-linejoin:round;stroke-miterlimit:4;stroke-dasharray:none;stroke-dashoffset:0;stroke-opacity:1;marker:none;enable-background:accumulate"
       d="M 14.825124,-9.5639558 C 13.128996,-9.6522181 7.9695123,-3.5095277 7.9487911,2.351389 3.8737733,-1.0570581 -1.9855166,-0.53482571 -2.6855549,0.79199754 -3.2988905,1.9544187 -1.3949967,6.6026247 1.9519521,9.7884868 1.0881964,10.549296 0.53944376,11.285427 0.59271226,11.787702 c 0.054856,0.517628 0.78939374,1.273133 1.87898294,2.039205 -5.0016809,-0.167431 -8.3466264,3.087065 -9.8347534,5.877706 -4.1703338,-0.03452 -7.7091698,2.304344 -7.7558738,3.558611 -0.06603,1.774308 6.7164797,7.254166 12.7931744,6.67739 -1.0242605,1.896966 -1.2761231,3.710455 -0.7995443,4.318315 0.3777712,0.481908 1.6585976,0.762246 3.35817036,0.759703 -1.77924366,1.183129 -2.85034736,2.602401 -2.71852526,3.358685 0.2257406,1.294807 4.5588606,3.805501 9.1551121,4.278331 -1.7857628,2.198203 -2.4886878,4.623439 -1.9589325,5.397893 1.3190543,1.92853 16.0300002,1.957066 16.9509362,-7.557051 2.04447,0.515178 4.689704,2.307507 5.0773,5.957675 8.512444,9.368511 17.531311,2.123605 18.430129,-0.839672 7.210846,2.110705 12.951585,-4.360982 12.393427,-6.117613 -0.338704,-1.065952 -3.743671,-2.61766 -7.595974,-2.958841 1.863988,-2.299651 2.565516,-4.851477 1.99893,-5.6378 -0.05848,-0.08117 -0.174567,-0.16743 -0.279848,-0.239924 3.370743,-1.157379 6.356916,-3.469756 6.756386,-7.597032 -1.76439,-0.951671 -3.409716,-1.512563 -4.917354,-1.759313 0.439328,-0.491914 0.704647,-0.931854 0.679643,-1.279501 -0.07334,-1.019627 -2.533715,-3.04117 -5.756943,-4.318314 2.197384,-2.549588 3.497256,-5.8181667 1.998931,-9.4363138 C 45.013971,6.2404512 41.782128,8.3572591 39.971686,10.988 37.755489,10.084038 35.772856,9.8197568 34.014845,9.9883901 35.726292,6.4011772 35.307732,2.4669057 34.254741,1.8715576 33.141311,1.2420658 28.682279,2.9017704 25.419425,5.9899505 25.286113,5.1748258 25.02247,4.5869324 24.69983,4.3106058 25.564936,1.3657883 25.158342,-1.3830258 24.300035,-1.886971 23.475392,-2.3711503 20.767995,-1.6093055 18.063393,0.07225974 19.023535,-4.8167993 16.256398,-9.4894733 14.825124,-9.5639749 Z"
       id="path3348"
       sodipodi:nodetypes="ccscsccscscscscccscscccsccccsccscc"
       inkscape:connector-curvature="0" />
    <path
       style="display:inline;overflow:visible;visibility:visible;fill:#5e4646;fill-opacity:1;fill-rule:evenodd;stroke:#000000;stroke-width:0.5;stroke-linecap:round;stroke-linejoin:round;stroke-miterlimit:4;stroke-dasharray:none;stroke-dashoffset:0;stroke-opacity:1;marker:none;enable-background:accumulate"
       d="m 15.860327,58.821707 13.551884,0 c 0,0 -6.195153,-10.843078 5.420758,-22.460656 C 24.37868,43.718852 24.37868,42.557093 27.86341,25.517974 23.991457,35.973798 17.409127,38.684563 13.924304,27.066985 c 1.936023,8.906813 6.969553,27.107686 0,16.651867 0.387223,3.485271 5.807976,9.294061 1.936023,15.102855 z"
       id="path3346"
       inkscape:connector-curvature="0" />
    <g
       id="g4168">
      <path
         style="color:#000000;font-style:normal;font-variant:normal;font-weight:normal;font-stretch:normal;font-size:medium;line-height:normal;font-family:sans-serif;text-indent:0;text-align:start;text-decoration:none;text-decoration-line:none;text-decoration-style:solid;text-decoration-color:#000000;letter-spacing:normal;word-spacing:normal;text-transform:none;direction:ltr;block-progression:tb;writing-mode:lr-tb;baseline-shift:baseline;text-anchor:start;white-space:normal;clip-rule:nonzero;display:inline;overflow:visible;visibility:visible;opacity:1;isolation:auto;mix-blend-mode:normal;color-interpolation:sRGB;color-interpolation-filters:linearRGB;solid-color:#000000;solid-opacity:1;fill:#dbac7d;fill-opacity:1;fill-rule:evenodd;stroke:none;stroke-width:0.50000006;stroke-linecap:round;stroke-linejoin:round;stroke-miterlimit:4;stroke-dasharray:none;stroke-dashoffset:0;stroke-opacity:1;marker:none;marker-start:none;marker-mid:none;marker-end:none;color-rendering:auto;image-rendering:auto;shape-rendering:auto;text-rendering:auto;enable-background:accumulate"
         d="m 63.97833,49.56486 0.6211,2.41993 c -1.63218,0.4197 -4.284639,1.61335 -5.132769,2.37764 -0.424061,0.38215 -0.511081,0.68385 -0.509761,0.6543 0.001,-0.0296 -0.12207,-0.0205 0.39453,0.27344 l -1.23633,2.17187 c -0.97659,-0.55564 -1.70262,-1.51822 -1.65625,-2.55664 0.0464,-1.03842 0.65298,-1.78298 1.33594,-2.39844 1.36591,-1.23091 4.21148,-2.43499 6.18354,-2.9421 z"
         id="path5692"
         inkscape:connector-curvature="0"
         sodipodi:nodetypes="ccsccccsc" />
      <rect
         style="color:#000000;clip-rule:nonzero;display:inline;overflow:visible;visibility:visible;opacity:1;isolation:auto;mix-blend-mode:normal;color-interpolation:sRGB;color-interpolation-filters:linearRGB;solid-color:#000000;solid-opacity:1;fill:#dbac7d;fill-opacity:1;fill-rule:evenodd;stroke:none;stroke-width:0.50000006;stroke-linecap:round;stroke-linejoin:round;stroke-miterlimit:4;stroke-dasharray:none;stroke-dashoffset:0;stroke-opacity:1;marker:none;marker-start:none;marker-mid:none;marker-end:none;color-rendering:auto;image-rendering:auto;shape-rendering:auto;text-rendering:auto;enable-background:accumulate"
         id="rect5200"
         width="2.5890167"
         height="5.211657"
         x="69.772614"
         y="58.996391"
         rx="0.73700863"
         ry="0.81358099" />
      <rect
         ry="0.81358099"
         rx="0.73700863"
         y="58.996391"
         x="62.980637"
         height="5.211657"
         width="2.5890167"
         id="rect5184"
         style="color:#000000;clip-rule:nonzero;display:inline;overflow:visible;visibility:visible;opacity:1;isolation:auto;mix-blend-mode:normal;color-interpolation:sRGB;color-interpolation-filters:linearRGB;solid-color:#000000;solid-opacity:1;fill:#dbac7d;fill-opacity:1;fill-rule:evenodd;stroke:none;stroke-width:0.50000006;stroke-linecap:round;stroke-linejoin:round;stroke-miterlimit:4;stroke-dasharray:none;stroke-dashoffset:0;stroke-opacity:1;marker:none;marker-start:none;marker-mid:none;marker-end:none;color-rendering:auto;image-rendering:auto;shape-rendering:auto;text-rendering:auto;enable-background:accumulate" />
      <path
         sodipodi:nodetypes="ccsccccsc"
         inkscape:connector-curvature="0"
         id="path5540"
         d="m 71.80744,49.56486 -0.6211,2.41993 c 1.63218,0.4197 4.28464,1.61335 5.13277,2.37764 0.42406,0.38215 0.51108,0.68385 0.50976,0.6543 -10e-4,-0.0296 0.12207,-0.0205 -0.39453,0.27344 l 1.23633,2.17187 c 0.97659,-0.55564 1.70262,-1.51822 1.65625,-2.55664 -0.0464,-1.03842 -0.65298,-1.78298 -1.33594,-2.39844 -1.36591,-1.23091 -4.21148,-2.43499 -6.18354,-2.9421 z"
         style="color:#000000;font-style:normal;font-variant:normal;font-weight:normal;font-stretch:normal;font-size:medium;line-height:normal;font-family:sans-serif;text-indent:0;text-align:start;text-decoration:none;text-decoration-line:none;text-decoration-style:solid;text-decoration-color:#000000;letter-spacing:normal;word-spacing:normal;text-transform:none;direction:ltr;block-progression:tb;writing-mode:lr-tb;baseline-shift:baseline;text-anchor:start;white-space:normal;clip-rule:nonzero;display:inline;overflow:visible;visibility:visible;opacity:1;isolation:auto;mix-blend-mode:normal;color-interpolation:sRGB;color-interpolation-filters:linearRGB;solid-color:#000000;solid-opacity:1;fill:#dbac7d;fill-opacity:1;fill-rule:evenodd;stroke:none;stroke-width:0.50000006;stroke-linecap:round;stroke-linejoin:round;stroke-miterlimit:4;stroke-dasharray:none;stroke-dashoffset:0;stroke-opacity:1;marker:none;marker-start:none;marker-mid:none;marker-end:none;color-rendering:auto;image-rendering:auto;shape-rendering:auto;text-rendering:auto;enable-background:accumulate" />
      <path
         sodipodi:nodetypes="sssss"
         inkscape:connector-curvature="0"
         id="path3519-7-3"
         d="m 74.726,55.75229 c 0,3.77453 -3.05986,5.49306 -6.83438,5.49306 -3.77453,0 -6.834379,-1.71853 -6.834379,-5.49306 0,-3.77452 3.059849,-6.83438 6.834379,-6.83438 3.77452,0 6.83438,3.05986 6.83438,6.83438 z"
         style="color:#000000;display:inline;overflow:visible;visibility:visible;fill:#93673b;fill-opacity:1;fill-rule:evenodd;stroke:none;stroke-width:0.5;stroke-linecap:round;stroke-linejoin:round;stroke-miterlimit:4;stroke-dasharray:none;stroke-dashoffset:0;stroke-opacity:1;marker:none;enable-background:accumulate" />
      <path
         style="color:#000000;display:inline;overflow:visible;visibility:visible;fill:#dbac7d;fill-opacity:1;fill-rule:evenodd;stroke:none;stroke-width:0.5;marker:none;enable-background:accumulate"
         d="m 72.40064,56.68473 c 0,2.48533 -2.01876,3.6169 -4.50902,3.6169 -2.49027,0 -4.50903,-1.13157 -4.50903,-3.6169 0,-2.48534 2.01876,-4.5001 4.50903,-4.5001 2.49026,0 4.50902,2.01476 4.50902,4.5001 z"
         id="path3539-3-0"
         inkscape:connector-curvature="0"
         sodipodi:nodetypes="sssss" />
      <path
         id="path2411-2"
         d="m 68.10599,30.156921 a 13.923966,11.242662 0 0 0 -11.242176,4.62891 c -0.32435,1.05654 -0.5,2.17746 -0.5,3.339839 0,6.28222 -0.30375,12.4043 11.382806,12.4043 11.59355,0 11.38281,-6.12208 11.38281,-12.4043 0,-1.570549 -0.32025,-3.068249 -0.89648,-4.429679 -3.4e-4,-8.1e-4 -0.002,-10e-4 -0.002,-0.002 a 13.923966,11.242662 0 0 0 -10.125,-3.53711 z"
         style="display:inline;overflow:visible;visibility:visible;fill:#dbac7d;fill-opacity:1;fill-rule:evenodd;stroke:none;stroke-width:0.50000006;stroke-linecap:round;stroke-linejoin:round;stroke-miterlimit:4;stroke-dashoffset:0;stroke-opacity:1;marker:none;enable-background:accumulate"
         inkscape:connector-curvature="0" />
      <ellipse
         ry="2.4749351"
         rx="2.4379888"
         id="path4471-1"
         style="color:#000000;display:inline;overflow:visible;visibility:visible;fill:#ffffff;fill-opacity:1;fill-rule:evenodd;stroke:#000000;stroke-width:0.5;stroke-linecap:round;stroke-linejoin:round;stroke-miterlimit:4;stroke-dasharray:none;stroke-dashoffset:0;stroke-opacity:1;marker:none;enable-background:accumulate"
         cx="63.441429"
         cy="40.635521" />
      <ellipse
         style="display:inline;overflow:visible;visibility:visible;fill:#000000;fill-opacity:1;fill-rule:evenodd;stroke:none;stroke-width:0.49999997;marker:none;enable-background:accumulate"
         id="path4467-4"
         cx="64.032654"
         cy="40.863167"
         rx="1.3086836"
         ry="1.328653" />
      <ellipse
         style="display:inline;overflow:visible;visibility:visible;fill:#ffffff;fill-opacity:1;fill-rule:evenodd;stroke:none;stroke-width:0.5;marker:none;enable-background:accumulate"
         id="path4469-6"
         cx="63.705482"
         cy="40.475639"
         rx="0.55103576"
         ry="0.53318268" />
      <ellipse
         ry="2.4749351"
         rx="2.4379888"
         transform="scale(-1,1)"
         style="color:#000000;display:inline;overflow:visible;visibility:visible;fill:#ffffff;fill-opacity:1;fill-rule:evenodd;stroke:#000000;stroke-width:0.5;stroke-linecap:round;stroke-linejoin:round;stroke-miterlimit:4;stroke-dasharray:none;stroke-dashoffset:0;stroke-opacity:1;marker:none;enable-background:accumulate"
         id="path4490-9"
         cx="-72.109863"
         cy="40.635521" />
      <ellipse
         transform="scale(-1,1)"
         id="path4492-8"
         style="display:inline;overflow:visible;visibility:visible;fill:#000000;fill-opacity:1;fill-rule:evenodd;stroke:none;stroke-width:0.49999997;marker:none;enable-background:accumulate"
         cx="-71.482224"
         cy="40.790352"
         rx="1.3086836"
         ry="1.328653" />
      <ellipse
         transform="scale(-1,1)"
         id="path4494-2"
         style="display:inline;overflow:visible;visibility:visible;fill:#ffffff;fill-opacity:1;fill-rule:evenodd;stroke:none;stroke-width:0.5;marker:none;enable-background:accumulate"
         cx="-71.213432"
         cy="40.402824"
         rx="0.55103576"
         ry="0.53318268" />
      <path
         inkscape:connector-curvature="0"
         id="path4942"
         d="m 65.60206,43.96671 c -1.25147,-1.05387 -3.09574,0.92213 -1.64667,1.976 0.36051,0.30236 -0.73078,0.98831 -0.73078,1.89252 0,0.90422 2.85636,1.16384 4.34348,1.16384"
         style="display:inline;fill:none;fill-rule:evenodd;stroke:#000000;stroke-width:0.5;stroke-linecap:round;stroke-linejoin:miter;stroke-miterlimit:4;stroke-dasharray:none;stroke-opacity:1" />
      <circle
         r="0.6916002"
         cy="45.251106"
         cx="65.042183"
         id="path4944"
         style="color:#000000;clip-rule:nonzero;display:inline;overflow:visible;visibility:visible;opacity:1;isolation:auto;mix-blend-mode:normal;color-interpolation:sRGB;color-interpolation-filters:linearRGB;solid-color:#000000;solid-opacity:1;fill:#000000;fill-opacity:1;fill-rule:evenodd;stroke:none;stroke-width:0.5;stroke-linecap:round;stroke-linejoin:miter;stroke-miterlimit:4;stroke-dasharray:none;stroke-dashoffset:0;stroke-opacity:1;marker:none;marker-start:none;marker-mid:none;marker-end:none;color-rendering:auto;image-rendering:auto;shape-rendering:auto;text-rendering:auto;enable-background:accumulate" />
      <circle
         transform="scale(-1,1)"
         style="color:#000000;clip-rule:nonzero;display:inline;overflow:visible;visibility:visible;opacity:1;isolation:auto;mix-blend-mode:normal;color-interpolation:sRGB;color-interpolation-filters:linearRGB;solid-color:#000000;solid-opacity:1;fill:#000000;fill-opacity:1;fill-rule:evenodd;stroke:none;stroke-width:0.5;stroke-linecap:round;stroke-linejoin:miter;stroke-miterlimit:4;stroke-dasharray:none;stroke-dashoffset:0;stroke-opacity:1;marker:none;marker-start:none;marker-mid:none;marker-end:none;color-rendering:auto;image-rendering:auto;shape-rendering:auto;text-rendering:auto;enable-background:accumulate"
         id="circle4948"
         cx="-70.457771"
         cy="45.251106"
         r="0.6916002" />
      <path
         style="display:inline;fill:none;fill-rule:evenodd;stroke:#000000;stroke-width:0.5;stroke-linecap:round;stroke-linejoin:miter;stroke-miterlimit:4;stroke-dasharray:none;stroke-opacity:1"
         d="m 69.80881,43.96671 c 1.25146,-1.05387 3.09573,0.92213 1.64666,1.976 -0.36051,0.30236 0.73078,0.98831 0.73078,1.89252 0,0.90422 -2.85636,1.16384 -4.34348,1.16384"
         id="path5069"
         inkscape:connector-curvature="0" />
      <path
         style="display:inline;fill:#5c4125;fill-opacity:1;fill-rule:evenodd;stroke:none;stroke-width:0.5;stroke-linecap:round;stroke-linejoin:miter;stroke-miterlimit:4;stroke-dasharray:none;stroke-opacity:1"
         d="m 64.95512,49.45294 c -1.25294,1.35412 -0.75836,3.51495 0.29675,4.23523 0.39566,-0.40336 0.49457,-0.57622 0.65944,-0.69147 0.033,0.69147 1.25293,1.67104 2.20912,1.90153 0.95618,0.23049 1.21996,0.95076 1.08807,1.21006 0.75835,-0.40335 1.78048,-1.75747 1.68157,-3.31327 -0.0989,-1.55579 -1.48374,-2.01677 -0.46161,-3.16921 -2.20653,0.5186 -4.24563,0.43217 -5.47334,-0.17287 z"
         id="path5090"
         inkscape:connector-curvature="0" />
      <path
         inkscape:connector-curvature="0"
         id="path5088"
         d="m 64.95512,49.45294 c -1.25294,1.35412 -0.75836,3.51495 0.29675,4.23523 0.39566,-0.40336 0.49457,-0.57622 0.65944,-0.69147 0.033,0.69147 1.25293,1.67104 2.20912,1.90153 0.95618,0.23049 1.21996,0.95076 1.08807,1.21006 0.75835,-0.40335 1.78048,-1.75747 1.68157,-3.31327 -0.0989,-1.55579 -1.48374,-2.01677 -0.46161,-3.16921"
         style="display:inline;fill:none;fill-rule:evenodd;stroke:#000000;stroke-width:0.5;stroke-linecap:round;stroke-linejoin:miter;stroke-miterlimit:4;stroke-dasharray:none;stroke-opacity:1" />
      <path
         inkscape:connector-curvature="0"
         id="path4531-7"
         d="m 74.85779,39.60707 -5.80496,0.95536 -0.86672,-0.90764 c 0,0 -0.48812,-2.30776 2.99976,-3.015619 3.48787,-0.70784 5.5649,2.549749 3.67192,2.967899 z"
         style="display:inline;fill:#dbac7d;fill-opacity:1;stroke:none" />
      <path
         inkscape:connector-curvature="0"
         id="path4529-1"
         d="m 75.16587,39.60684 c 0,0 -4.21007,0.66567 -5.24183,0.93358 -1.03175,0.2679 -1.51738,-0.36219 -1.68492,-0.86429"
         style="display:inline;fill:none;stroke:#000000;stroke-width:0.5;stroke-linecap:round;stroke-linejoin:miter;stroke-miterlimit:4;stroke-dasharray:none;stroke-opacity:1" />
      <path
         style="display:inline;fill:#dbac7d;fill-opacity:1;stroke:none"
         d="m 60.380101,41.06007 c 0.52572,-0.265 5.914379,-1.72249 5.914379,-1.72249 0,0 -1.84003,-3.179999 -4.46864,-2.12 -2.628606,1.06 -1.445739,3.84249 -1.445739,3.84249 z"
         id="path4347-4-1"
         inkscape:connector-curvature="0"
         sodipodi:nodetypes="cc" />
      <path
         sodipodi:nodetypes="cc"
         inkscape:connector-curvature="0"
         id="path4345-1-9"
         d="m 60.380101,41.06008 c 0.52572,-0.265 5.914379,-1.72249 5.914379,-1.72249"
         style="display:inline;fill:none;stroke:#000000;stroke-width:0.5;stroke-linecap:round;stroke-linejoin:miter;stroke-miterlimit:4;stroke-dasharray:none;stroke-opacity:1" />
      <path
         inkscape:connector-curvature="0"
         id="path5694"
         d="m 68.10615,30.157411 a 13.923966,11.242662 0 0 0 -11.242189,4.62891 c -0.32435,1.05654 -0.5,2.17746 -0.5,3.339839 0,5.17571 -0.189075,10.23304 6.273439,11.85743 -1.767879,0.60838 -3.760973,1.54943 -4.841798,2.52343 -0.68296,0.61546 -1.289538,1.36002 -1.335938,2.39844 -0.04637,1.03842 0.67966,2.001 1.65625,2.55664 l 1.236328,-2.17187 c -0.5166,-0.29394 -0.393531,-0.30304 -0.394531,-0.27344 -0.0013,0.0296 0.0857,-0.27215 0.50977,-0.6543 0.39934,-0.35987 1.2107,-0.81364 2.11523,-1.23828 -0.3377,0.80944 -0.52539,1.69706 -0.52539,2.62891 0,1.84538 0.735119,3.19571 1.923829,4.09765 l 0,3.54297 c 0,0.45073 0.32802,0.81446 0.73633,0.81446 l 1.11523,0 c 0.4083,0 0.73633,-0.36373 0.73633,-0.81446 l 0,-2.41211 c 0.72806,0.16544 1.50285,0.26367 2.32226,0.26367 0.65703,0 1.27951,-0.0718 1.88086,-0.17773 l 0,2.32617 c 0,0.45073 0.32998,0.81446 0.73828,0.81446 l 1.11329,0 c 0.4083,0 0.73828,-0.36373 0.73828,-0.81446 l 0,-3.24414 c 1.44546,-0.88971 2.36328,-2.33328 2.36328,-4.39648 0,-0.93338 -0.18859,-1.8223 -0.52735,-2.63282 0.90729,0.42554 1.72077,0.88144 2.1211,1.24219 0.42406,0.38215 0.51108,0.68385 0.50976,0.6543 -0.001,-0.0296 0.12207,-0.0205 -0.39453,0.27344 l 1.23633,2.17187 c 0.97659,-0.55564 1.70262,-1.51822 1.65625,-2.55664 -0.0464,-1.03842 -0.65298,-1.78298 -1.33594,-2.39844 -1.10911,-0.99949 -3.17609,-1.95911 -4.97656,-2.56445 6.24941,-1.6732 6.11523,-6.68962 6.11523,-11.81641 0,-1.570549 -0.32025,-3.068249 -0.89648,-4.429679 0,0 -0.002,-0.002 -0.002,-0.002 a 13.923966,11.242662 0 0 0 -10.125,-3.53711 z"
         style="color:#000000;font-style:normal;font-variant:normal;font-weight:normal;font-stretch:normal;font-size:medium;line-height:normal;font-family:sans-serif;text-indent:0;text-align:start;text-decoration:none;text-decoration-line:none;text-decoration-style:solid;text-decoration-color:#000000;letter-spacing:normal;word-spacing:normal;text-transform:none;direction:ltr;block-progression:tb;writing-mode:lr-tb;baseline-shift:baseline;text-anchor:start;white-space:normal;clip-rule:nonzero;display:inline;overflow:visible;visibility:visible;opacity:1;isolation:auto;mix-blend-mode:normal;color-interpolation:sRGB;color-interpolation-filters:linearRGB;solid-color:#000000;solid-opacity:1;fill:none;fill-opacity:1;fill-rule:evenodd;stroke:#000000;stroke-width:0.5;stroke-linecap:butt;stroke-linejoin:round;stroke-miterlimit:4;stroke-dasharray:none;stroke-dashoffset:0;stroke-opacity:1;marker:none;marker-start:none;marker-mid:none;marker-end:none;color-rendering:auto;image-rendering:auto;shape-rendering:auto;text-rendering:auto;enable-background:accumulate" />
      <path
         style="display:inline;fill:#714e2f;fill-opacity:1;fill-rule:evenodd;stroke:#000000;stroke-width:0.5;stroke-linecap:butt;stroke-linejoin:round;stroke-miterlimit:4;stroke-dasharray:none;stroke-opacity:1"
         d="m 69.70579,62.56849 c 0,0 1.68874,0.0707 2.42578,0.0469 0.73704,0.45173 2.25755,2.18863 2.13867,3.75781 -0.25776,0.1111 -0.56397,0.18427 -0.88672,0.24219 l -0.79923,-0.83108 -0.47421,0.94827 c -1.12947,0.0189 -2.32313,-0.13238 -3.14062,-0.3125 -0.0476,-0.76082 0.23704,-2.32993 0.73633,-3.85156 z"
         id="path5202"
         inkscape:connector-curvature="0"
         sodipodi:nodetypes="cccccccc" />
      <path
         style="display:inline;fill:#714e2f;fill-opacity:1;fill-rule:evenodd;stroke:#000000;stroke-width:0.5;stroke-linecap:butt;stroke-linejoin:round;stroke-miterlimit:4;stroke-dasharray:none;stroke-opacity:1"
         d="m 76.712,55.07505 c 0,0 0.72555,1.52656 1.09053,2.16734 -0.0556,0.86267 -0.88225,3.01799 -2.32558,3.6451 -0.21854,-0.17613 -0.42614,-0.41281 -0.62798,-0.67123 l 0.36208,-1.0947 -1.05997,0.0231 c -0.54379,-0.99013 -0.96701,-2.11646 -1.18917,-2.92354 0.65068,-0.39713 2.17131,-0.8776 3.75009,-1.14607 z"
         id="path5202-4-6"
         inkscape:connector-curvature="0"
         sodipodi:nodetypes="cccccccc" />
      <path
         sodipodi:nodetypes="cccccccc"
         inkscape:connector-curvature="0"
         id="path5177"
         d="m 65.56303,62.56849 c 0,0 -1.68875,0.0707 -2.42579,0.0469 -0.73704,0.45173 -2.257549,2.18863 -2.138669,3.75781 0.25776,0.1111 0.56397,0.18427 0.886719,0.24219 l 0.79923,-0.83108 0.47421,0.94827 c 1.12947,0.0189 2.32314,-0.13238 3.14062,-0.3125 0.0476,-0.76082 -0.23704,-2.32993 -0.73632,-3.85156 z"
         style="display:inline;fill:#714e2f;fill-opacity:1;fill-rule:evenodd;stroke:#000000;stroke-width:0.5;stroke-linecap:butt;stroke-linejoin:round;stroke-miterlimit:4;stroke-dasharray:none;stroke-opacity:1" />
      <path
         inkscape:connector-curvature="0"
         style="display:inline;overflow:visible;visibility:visible;fill:#93673b;fill-opacity:1;stroke:#000000;stroke-width:0.49999997;stroke-linecap:round;stroke-linejoin:round;stroke-miterlimit:4;stroke-dasharray:none;stroke-dashoffset:0;stroke-opacity:1;marker:none;enable-background:accumulate"
         d="m 58.119934,34.628611 c -2.15464,2.540369 -5.50031,4.879339 -5.70258,7.703259 -0.20227,2.82393 2.54153,3.06086 4.59831,0.8241 2.05678,-2.23675 2.01749,-5.8699 2.762867,-7.792859 -0.520177,-0.19274 -1.703847,-0.77125 -1.658597,-0.7345 z"
         id="path5086" />
      <path
         id="path4910"
         d="m 76.56307,34.440451 c 2.15463,2.54037 5.50031,4.879339 5.70258,7.703259 0.20226,2.82393 -2.54153,3.06085 -4.59832,0.8241 -2.05678,-2.23675 -2.01749,-5.8699 -2.76286,-7.792859 0.52018,-0.19274 1.70384,-0.77125 1.6586,-0.7345 z"
         style="display:inline;overflow:visible;visibility:visible;fill:#93673b;fill-opacity:1;stroke:#000000;stroke-width:0.49999997;stroke-linecap:round;stroke-linejoin:round;stroke-miterlimit:4;stroke-dasharray:none;stroke-dashoffset:0;stroke-opacity:1;marker:none;enable-background:accumulate"
         inkscape:connector-curvature="0" />
      <path
         inkscape:connector-curvature="0"
         id="path4075"
         d="m 64.10599,27.270661 c -2.885999,0.13554 -5.286086,2.88838 -5.667956,4.54102 -0.34322,1.48532 -3.80574,3.90197 -5.50586,-2.37891 -0.8134,-3.00497 -1.78831,2.68902 0.625,5.63477 1.48678,1.8148 5.75701,3.005889 8.259756,0.62695 1.74954,-1.66299 4.44813,-2.09519 5.93164,-2.20898 1.48308,0.11356 4.18526,0.54528 5.93555,2.20898 2.50275,2.378939 6.77103,1.18785 8.25781,-0.62695 2.41331,-2.94575 1.44035,-8.63974 0.62695,-5.63477 -1.70012,6.28088 -5.1646,3.86423 -5.50781,2.37891 -0.5366,-2.32225 -5.05542,-6.79103 -9.31054,-3.14258 -1.22711,-1.05234 -2.47504,-1.45336 -3.64454,-1.39844 z"
         style="display:inline;fill:#3d2c26;fill-opacity:1;fill-rule:evenodd;stroke:#000000;stroke-width:0.5;stroke-linecap:butt;stroke-linejoin:miter;stroke-miterlimit:4;stroke-dasharray:none;stroke-opacity:1" />
      <path
         sodipodi:nodetypes="cccccccc"
         inkscape:connector-curvature="0"
         id="path5721"
         d="m 59.099674,55.07505 c 0,0 -0.72555,1.52656 -1.09053,2.16734 0.0556,0.86267 0.88225,3.01799 2.325577,3.6451 0.21854,-0.17613 0.42614,-0.41281 0.62798,-0.67123 l -0.36208,-1.0947 1.05997,0.0231 C 62.20438,58.15453 62.6276,57.0282 62.84976,56.22112 62.19908,55.82399 60.678451,55.34352 59.099674,55.07505 Z"
         style="display:inline;fill:#714e2f;fill-opacity:1;fill-rule:evenodd;stroke:#000000;stroke-width:0.5;stroke-linecap:butt;stroke-linejoin:round;stroke-miterlimit:4;stroke-dasharray:none;stroke-opacity:1" />
    </g>
    <path
       sodipodi:nodetypes="ccccccccccccccccccccccccccccccccccccccccccccccccccccccscccccsccccccccccccccccccc"
       inkscape:connector-curvature="0"
       id="path4232"
       d="m 14.54662,37.193988 c -0.959554,1.081513 -3.807641,5.06812 -3.34349,8.331893 -0.122799,-0.145155 -0.265448,-0.201302 -0.412211,-0.206007 -0.07481,-1.370783 -0.318269,-2.58077 -0.480911,-3.135907 -1.3638217,1.108082 -2.1541237,2.704558 -2.5648687,4.165947 -0.369904,-2.811922 -2.075542,-5.841305 -2.725171,-6.798275 -1.591025,3.397969 -0.449101,7.986833 0.251908,9.293265 -0.534614,-0.491568 -2.411146,-0.487269 1.419835,4.12017 0.06228,-0.05427 0.124278,-0.106179 0.183202,-0.160233 0.13472,1.60414 -0.526713,2.700999 -0.526713,2.700999 0,0 -0.43205,-0.615346 -1.167932,0.526464 -0.422112,-1.450628 -3.050954,-5.400547 -7.144987,-6.18025 0.176725,1.114181 0.99340102,4.229798 2.67937002,6.36337 -1.27655,-0.122198 -2.64007102,-0.02432 -3.96180302,0.480687 0.913942,1.061434 4.280036,4.239514 7.488496,4.417732 0.065,0.04403 0.139531,0.07134 0.206105,0.114435 -0.282478,0.282636 -0.191391,0.699053 0.229007,0.984264 -0.502603,0.493487 -0.802134,0.973713 -0.664115,1.25894 0.299106,0.618186 2.572047,0.129278 3.916002,-0.526468 0.226755,-0.110624 0.416191,-0.268656 0.595417,-0.389127 0.110221,0.02164 0.200825,0.07581 0.320608,0.09155 1.3888317,0.18232 3.4932097,-0.029 3.8243987,-0.618026 0.0052,0.0028 0.01783,-0.0035 0.023,0 0.04623,0.110578 0.08748,0.20429 0.160322,0.297567 0.174824,0.372852 0.635793,0.69766 1.488537,0.824033 1.353635,0.200761 4.661052,-0.221226 4.717526,-0.595134 0.02182,-0.145156 -0.397981,-0.448568 -1.007629,-0.755365 1.262745,-0.542023 2.326529,-1.124796 2.290064,-1.373388 1.327414,-0.568516 2.68335,-1.501388 3.572493,-2.975676 -0.798216,-0.221367 -2.863571,-0.594953 -4.83203,-0.366238 0.04374,-0.08303 0.110808,-0.184061 0.137395,-0.251786 0.257869,-0.372485 0.502189,-0.8442 0.709919,-1.396279 3.706199,0.08254 4.116467,-2.409818 3.091584,-2.311872 2.182544,-1.680091 2.975235,-5.747506 3.091579,-6.958506 -1.678052,0.522394 -2.991521,1.725599 -3.916002,2.929898 0.701617,-2.748053 0.224596,-6.195041 -0.023,-7.324741 -2.740049,2.56406 -3.371381,7.247786 -3.206085,8.72102 -0.188458,-0.393457 -0.877024,-0.773375 -1.007628,0.206007 -0.01314,-0.596225 -0.8112,-0.504411 -1.122128,-0.274677 0.692162,-1.135436 1.622286,-5.131296 -0.526713,-8.125887 -0.238035,0.296191 -0.597543,0.844076 -0.984728,1.510729 0.392842,-1.925646 0.418777,-4.42339 -0.778619,-6.615158 z M 10.539013,48.43289 c 0.310363,0.524845 0.780716,1.072934 1.419837,1.670955 l -1.21373,3.502142 -0.503815,-2.037192 c 0.829259,-1.094749 0.38761,-2.10309 -0.229007,-1.785407 0.2396,-0.405094 0.400633,-0.869491 0.526712,-1.350498 z m 7.396895,2.426319 c -0.04132,0.690345 0.146313,1.910057 0.824421,4.005719 0.07798,-0.02724 0.154197,-0.0632 0.229007,-0.09155 -0.284662,0.93013 -0.761551,1.550809 -1.099227,1.922743 -0.516777,0.165879 -1.11876,0.399075 -1.717547,0.663805 -0.0059,-0.05794 -0.0183,-0.100299 -0.023,-0.160233 -0.0513,-0.649842 -0.06845,-1.433701 -0.09161,-2.174531 -0.0241,-0.770936 -0.0176,-0.941135 -0.023,-1.464948 1.310084,-1.367801 1.819899,-2.212117 1.900752,-2.700999 z m -5.083933,0.04577 c 0.138475,0.727933 0.714887,1.678919 2.083955,2.67811 0.0052,0.532727 -0.0015,0.70661 0.023,1.487837 0.02347,0.751189 0.0609,1.541324 0.114516,2.220312 0.0045,0.05963 0.01877,0.105356 0.023,0.160233 -0.18285,0.05772 -0.376601,0.147507 -0.572515,0.297567 -0.398047,-1.382296 -0.928526,-2.700413 -1.190832,-2.700997 -0.289874,-6.37e-4 -0.732885,1.529594 -1.007626,3.021456 -0.182498,-0.119846 -0.369306,-0.235361 -0.549614,-0.343348 l -0.526715,-2.128755 z m -3.5266947,1.533616 0.7557197,3.113018 0,0.02282 0.023,0 0.36641,1.46495 c -0.131881,-0.05104 -0.254157,-0.07546 -0.343509,-0.09155 -0.0023,-0.0075 0.0015,-0.01552 0,-0.02282 C 9.9077023,55.996927 9.5551773,55.2742 9.1421753,55.254058 c -0.254011,-0.01247 -0.504246,0.281393 -0.732819,0.686694 -0.215984,-0.413233 -0.440798,-0.747687 -0.66412,-0.938482 0.147978,-0.503736 0.290888,-1.152988 0.274809,-1.922745 0.522794,-0.195681 0.952994,-0.406251 1.305334,-0.640915 z"
       style="display:inline;overflow:visible;visibility:visible;fill:#2b972b;fill-opacity:1;fill-rule:evenodd;stroke:#000000;stroke-width:0.49999997;stroke-linecap:round;stroke-linejoin:round;stroke-miterlimit:4;stroke-dasharray:none;stroke-dashoffset:0;stroke-opacity:1;marker:none;enable-background:accumulate" />
  </g>
</svg>
