<?xml version="1.0" encoding="UTF-8" standalone="no"?>
<!-- Created with Inkscape (http://www.inkscape.org/) -->

<svg
   xmlns:dc="http://purl.org/dc/elements/1.1/"
   xmlns:cc="http://creativecommons.org/ns#"
   xmlns:rdf="http://www.w3.org/1999/02/22-rdf-syntax-ns#"
   xmlns:svg="http://www.w3.org/2000/svg"
   xmlns="http://www.w3.org/2000/svg"
   xmlns:sodipodi="http://sodipodi.sourceforge.net/DTD/sodipodi-0.dtd"
   xmlns:inkscape="http://www.inkscape.org/namespaces/inkscape"
   width="100%"
   height="100%"
   viewBox="0 0 120 90"
   id="ppvs"
   version="1.1"
   inkscape:version="0.91 r13725"
   sodipodi:docname="img004.svg">
  <defs
     id="defs5015">
    <pattern
       y="0"
       x="0"
       height="6"
       width="6"
       patternUnits="userSpaceOnUse"
       id="EMFhbasepattern" />
  </defs>
  <sodipodi:namedview
     id="base"
     pagecolor="#ffffff"
     bordercolor="#666666"
     borderopacity="1.0"
     inkscape:pageopacity="0.0"
     inkscape:pageshadow="2"
     inkscape:zoom="2.962227"
     inkscape:cx="67.681179"
     inkscape:cy="34.361214"
     inkscape:current-layer="layer1"
     inkscape:document-units="px"
     showgrid="false"
     inkscape:window-width="940"
     inkscape:window-height="677"
     inkscape:window-x="190"
     inkscape:window-y="121"
     inkscape:window-maximized="0" />
  <metadata
     id="metadata5018">
    <rdf:RDF>
      <cc:Work
         rdf:about="">
        <dc:format>image/svg+xml</dc:format>
        <dc:type
           rdf:resource="http://purl.org/dc/dcmitype/StillImage" />
        <dc:title></dc:title>
      </cc:Work>
    </rdf:RDF>
  </metadata>
  <g
     id="layer1"
     inkscape:label="Background"
     inkscape:groupmode="layer">
    <rect
       style="fill:#7eb4db;"
       id="rect0001"
       width="120"
       height="90"
       x="0"
       y="0" />
    <g
       id="g4209"
       transform="translate(-55.355933,-128.16102)">
      <path
         id="path2467-3"
         d="m 105.78814,123.42592 c -3.75517,0 -6.797862,2.88977 -6.82823,6.47022 -0.632083,0.28096 -1.179992,0.69736 -1.62071,1.19327 -1.056927,-1.76448 -3.338595,-2.99645 -6.004596,-2.99645 -3.666191,0 -6.642248,2.31896 -6.642248,5.17087 0,0.17825 0.0039,0.35673 0.02656,0.53035 -1.069877,0.62112 -1.78012,1.63665 -1.78012,2.78431 0,1.11008 0.662342,2.08157 1.673844,2.70477 -0.209624,1.77062 0.795345,3.2351 3.50711,3.2351 6.64165,0 25.39997,0 25.39997,0 2.33942,0.0311 3.54553,-0.19982 3.90564,-0.60989 2.24878,-0.17604 3.98535,-1.31986 3.98535,-2.70477 1e-5,-1.03873 -0.98024,-1.92535 -2.41778,-2.38655 0.30125,-0.75486 0.47825,-1.54933 0.47825,-2.38656 0,-3.7654 -3.30187,-6.91643 -7.65188,-7.58395 -1.15297,-2.05248 -3.42366,-3.42072 -6.03116,-3.42072 z"
         style="display:inline;overflow:visible;visibility:visible;fill:#ffffff;fill-opacity:1;fill-rule:evenodd;stroke:#000000;stroke-width:0.5;stroke-linecap:round;stroke-linejoin:round;stroke-miterlimit:4;stroke-dasharray:none;stroke-dashoffset:0;stroke-opacity:1;marker:none;enable-background:accumulate"
         inkscape:connector-curvature="0" />
      <path
         sodipodi:nodetypes="cc"
         id="path3259-9"
         d="m 97.296189,130.96683 c 0.781372,1.31599 0.683702,2.24207 0.683702,2.77821"
         style="display:inline;overflow:visible;visibility:visible;fill:none;stroke:#000000;stroke-width:0.5;stroke-linecap:round;stroke-linejoin:round;stroke-miterlimit:4;stroke-dasharray:none;stroke-dashoffset:0;stroke-opacity:1;marker:none;enable-background:accumulate"
         inkscape:connector-curvature="0" />
      <path
         sodipodi:nodetypes="cssc"
         id="path3498-4"
         d="m 106.38046,142.49952 c -6.29204,-2.39017 -3.96197,-8.93727 -0.68453,-9.72929 3.58764,-0.86698 5.7626,1.36474 5.7626,3.50932 0,2.14459 -3.22315,3.89925 -4.59055,1.16978"
         style="display:inline;overflow:visible;visibility:visible;fill:none;stroke:#000000;stroke-width:0.5;stroke-linecap:round;stroke-linejoin:round;stroke-miterlimit:4;stroke-dasharray:none;stroke-dashoffset:0;stroke-opacity:1;marker:none;enable-background:accumulate"
         inkscape:connector-curvature="0" />
    </g>
    <g
       id="g4205"
       transform="translate(-36.703391,-125.15254)">
      <path
         id="path2452-0"
         d="m 136.80739,131.82878 c -3.20027,0 -5.91554,1.86368 -6.84809,4.45388 -0.11368,-0.006 -0.22988,-0.0287 -0.34528,-0.0287 -3.15295,0 -5.72592,2.14605 -5.72592,4.76997 0,1.20036 0.52697,2.2952 1.4099,3.13209 -2.6048,1.356 -3.3999,2.58201 -0.14386,2.67233 0,0 20.30098,0 25.37818,0 1.4093,0 1.89379,-0.50626 1.69764,-1.23559 1.11962,-0.39204 1.89904,-1.4112 1.89905,-2.58613 -1e-5,-1.51604 -1.32881,-2.7298 -2.96367,-2.7298 -0.0779,0 -0.15407,-0.006 -0.23019,0 0.0296,-0.17621 0.0288,-0.3631 0.0288,-0.54596 0,-2.15745 -2.12016,-3.90793 -4.74762,-3.90793 -0.93716,0 -1.79515,0.21892 -2.53206,0.60343 -0.87469,-2.66399 -3.61656,-4.59756 -6.87685,-4.59756 z"
         style="display:inline;overflow:visible;visibility:visible;fill:#ffffff;fill-opacity:1;fill-rule:evenodd;stroke:#000000;stroke-width:0.5;stroke-linecap:round;stroke-linejoin:round;stroke-miterlimit:4;stroke-dasharray:none;stroke-dashoffset:0;stroke-opacity:1;marker:none;enable-background:accumulate"
         inkscape:connector-curvature="0" />
      <path
         sodipodi:nodetypes="csc"
         id="path3255-8"
         d="m 130.04173,136.25936 c 3.40314,0.85898 3.10397,3.21183 2.46822,4.18285 -0.58174,0.88853 -2.84219,1.12041 -3.14137,-0.74694"
         style="display:inline;overflow:visible;visibility:visible;fill:none;stroke:#000000;stroke-width:0.5;stroke-linecap:round;stroke-linejoin:round;stroke-miterlimit:4;stroke-dasharray:none;stroke-dashoffset:0;stroke-opacity:1;marker:none;enable-background:accumulate"
         inkscape:connector-curvature="0" />
    </g>
    <g
       transform="matrix(1.0335589,0,0,1.0338634,9.9406144,-3.1015412)"
       id="g4185">
      <path
         inkscape:connector-curvature="0"
         style="display:inline;overflow:visible;visibility:visible;fill:#c5a562;fill-opacity:1;fill-rule:evenodd;stroke:#000000;stroke-width:0.48369417;stroke-linecap:round;stroke-linejoin:round;stroke-miterlimit:4;stroke-dasharray:none;stroke-dashoffset:0;stroke-opacity:1;marker:none;enable-background:accumulate"
         d="m 101.62615,32.497059 c -9.451658,0 -15.011028,16.235988 -21.316158,23.560069 l 41.549518,0 c -6.99692,-6.812943 -10.5115,-23.560069 -20.23336,-23.560069 z"
         id="path4187" />
      <path
         inkscape:connector-curvature="0"
         style="display:inline;overflow:visible;visibility:visible;fill:#ffffff;fill-opacity:1;fill-rule:evenodd;stroke:#000000;stroke-width:0.48369417;stroke-linecap:round;stroke-linejoin:round;stroke-miterlimit:4;stroke-dasharray:none;stroke-dashoffset:0;stroke-opacity:1;marker:none;enable-background:accumulate"
         d="m 101.6202,32.485244 c -3.714328,0 -6.809188,2.546775 -9.602788,6.035372 0.47523,1.279311 1.76054,2.220809 3.32303,2.220809 0.71778,0 1.37634,-0.215892 1.93627,-0.548671 0.33172,1.709292 2.17129,3.03075 4.421998,3.03075 2.06454,0 3.78734,-1.111085 4.31733,-2.612714 0.51563,0.263678 1.12026,0.444161 1.75311,0.444161 1.49959,0 2.7716,-0.839548 3.29689,-2.037918 -2.55128,-3.742043 -5.49418,-6.531789 -9.44584,-6.531789 z"
         id="path4189" />
    </g>
    <g
       id="g4179"
       transform="matrix(1.5647748,0,0,1.5698962,-74.840118,-31.946756)">
      <path
         id="path3319-6"
         d="m 101.62615,32.497059 c -9.451658,0 -15.011028,16.235988 -21.316158,23.560069 l 41.549518,0 c -6.99692,-6.812943 -10.5115,-23.560069 -20.23336,-23.560069 z"
         style="display:inline;overflow:visible;visibility:visible;fill:#c5a562;fill-opacity:1;fill-rule:evenodd;stroke:#000000;stroke-width:0.31901321;stroke-linecap:round;stroke-linejoin:round;stroke-miterlimit:4;stroke-dasharray:none;stroke-dashoffset:0;stroke-opacity:1;marker:none;enable-background:accumulate"
         inkscape:connector-curvature="0" />
      <path
         id="path3325-7"
         d="m 101.6202,32.485244 c -3.714328,0 -6.809188,2.546775 -9.602788,6.035372 0.47523,1.279311 1.76054,2.220809 3.32303,2.220809 0.71778,0 1.37634,-0.215892 1.93627,-0.548671 0.33172,1.709292 2.17129,3.03075 4.421998,3.03075 2.06454,0 3.78734,-1.111085 4.31733,-2.612714 0.51563,0.263678 1.12026,0.444161 1.75311,0.444161 1.49959,0 2.7716,-0.839548 3.29689,-2.037918 -2.55128,-3.742043 -5.49418,-6.531789 -9.44584,-6.531789 z"
         style="display:inline;overflow:visible;visibility:visible;fill:#ffffff;fill-opacity:1;fill-rule:evenodd;stroke:#000000;stroke-width:0.31901321;stroke-linecap:round;stroke-linejoin:round;stroke-miterlimit:4;stroke-dasharray:none;stroke-dashoffset:0;stroke-opacity:1;marker:none;enable-background:accumulate"
         inkscape:connector-curvature="0" />
    </g>
    <rect
       style="color:#000000;clip-rule:nonzero;display:inline;overflow:visible;visibility:visible;opacity:1;isolation:auto;mix-blend-mode:normal;color-interpolation:sRGB;color-interpolation-filters:linearRGB;solid-color:#000000;solid-opacity:1;fill:#3fa014;fill-opacity:1;fill-rule:nonzero;stroke:#000000;stroke-width:0.5;stroke-linecap:butt;stroke-linejoin:miter;stroke-miterlimit:4;stroke-dasharray:none;stroke-dashoffset:0;stroke-opacity:1;marker:none;marker-start:none;marker-mid:none;marker-end:none;color-rendering:auto;image-rendering:auto;shape-rendering:auto;text-rendering:auto;enable-background:accumulate"
       id="rect4201"
       width="137.78813"
       height="49.338982"
       x="-9.025424"
       y="52.694916" />
    <path
       id="path4933"
       d="m 30.629759,24.991927 c -0.526463,1.479061 -1.547443,5.535175 -1.244717,9.360444 -0.762754,-0.591848 -1.600706,-1.113948 -2.525,-1.530415 -0.115756,1.54548 -0.07602,5.642165 1.17359,9.218076 -0.36186,0.142923 -0.715956,0.31342 -1.031336,0.533869 -2.262517,-1.89824 -5.4238,-3.675911 -9.068666,-3.77265 0.389469,1.180152 1.531558,3.809926 3.271833,6.264024 -2.44139,-0.375501 -5.188193,-0.303422 -7.788382,0.818594 1.535119,1.640593 7.260244,6.61919 12.376057,6.370796 -0.672075,0.469254 -0.44406,1.284376 0.391197,1.74396 0.168613,0.843352 0.592925,1.611948 1.173594,2.206644 l 17.710568,0 c -0.0059,0.05058 -0.0305,0.09113 -0.03561,0.142362 6.303928,1.643918 7.686778,0.769086 7.575002,-0.142362 l 0.995774,0 c 0.855356,-0.378405 1.551453,-1.032972 1.884862,-1.850734 2.996795,-1.038563 6.711147,-3.221064 8.713027,-6.975844 -0.924214,-0.134726 -2.780429,-0.242121 -4.907746,-0.106709 1.436101,-2.159698 2.624819,-4.884878 2.631691,-7.90121 -1.02829,0.371228 -3.191291,1.354498 -5.334508,2.811694 -0.509755,-1.165726 -1.506977,-2.0777 -2.738381,-2.455784 -0.114,-0.944273 -0.504442,-1.790589 -1.066903,-2.491374 0.441978,-1.403243 0.711462,-2.906404 0.640142,-4.48447 -0.691296,0.284941 -1.916212,0.902815 -3.27183,1.74396 0.327821,-1.820666 0.363416,-3.770303 -0.142245,-5.730159 -1.014075,0.691629 -3.18039,2.499085 -5.050001,4.804793 -0.379816,-0.09268 -0.764196,-0.142361 -1.173591,-0.142361 -0.368539,0 -0.72159,0.02961 -1.066903,0.106709 -0.521682,-0.823307 -1.402949,-1.436624 -2.453875,-1.637186 -0.806407,-2.172513 -2.103565,-4.352699 -4.125352,-6.014885 -0.357727,1.004998 -0.96005,3.191563 -1.209156,5.694565 -0.785206,-2.343749 -2.115208,-4.785533 -4.303171,-6.584341 z"
       style="display:inline;overflow:visible;visibility:visible;fill:#317a31;fill-opacity:1;fill-rule:evenodd;stroke:#000000;stroke-width:0.5;stroke-linecap:round;stroke-linejoin:round;stroke-miterlimit:4;stroke-dasharray:none;stroke-dashoffset:0;stroke-opacity:1;marker:none;enable-background:accumulate"
       inkscape:connector-curvature="0"
       inkscape:transform-center-x="2.9044523"
       inkscape:transform-center-y="-2.0347035" />
    <path
       style="display:inline;overflow:visible;visibility:visible;fill:#5aaf1e;fill-opacity:1;fill-rule:evenodd;stroke:#000000;stroke-width:0.5;stroke-linecap:round;stroke-linejoin:round;stroke-miterlimit:4;stroke-dasharray:none;stroke-dashoffset:0;stroke-opacity:1;marker:none;enable-background:accumulate"
       d="M 14.825124,-9.5639558 C 13.128996,-9.6522181 7.9695123,-3.5095277 7.9487911,2.351389 3.8737733,-1.0570581 -1.9855166,-0.53482571 -2.6855549,0.79199754 -3.2988905,1.9544187 -1.3949967,6.6026247 1.9519521,9.7884868 1.0881964,10.549296 0.53944376,11.285427 0.59271226,11.787702 c 0.054856,0.517628 0.78939374,1.273133 1.87898294,2.039205 -5.0016809,-0.167431 -8.3466264,3.087065 -9.8347534,5.877706 -4.1703338,-0.03452 -7.7091698,2.304344 -7.7558738,3.558611 -0.06603,1.774308 6.7164797,7.254166 12.7931744,6.67739 -1.0242605,1.896966 -1.2761231,3.710455 -0.7995443,4.318315 0.3777712,0.481908 1.6585976,0.762246 3.35817036,0.759703 -1.77924366,1.183129 -2.85034736,2.602401 -2.71852526,3.358685 0.2257406,1.294807 4.5588606,3.805501 9.1551121,4.278331 -1.7857628,2.198203 -2.4886878,4.623439 -1.9589325,5.397893 1.3190543,1.92853 16.0300002,1.957066 16.9509362,-7.557051 2.04447,0.515178 4.689704,2.307507 5.0773,5.957675 8.512444,9.368511 17.531311,2.123605 18.430129,-0.839672 7.210846,2.110705 12.951585,-4.360982 12.393427,-6.117613 -0.338704,-1.065952 -3.743671,-2.61766 -7.595974,-2.958841 1.863988,-2.299651 2.565516,-4.851477 1.99893,-5.6378 -0.05848,-0.08117 -0.174567,-0.16743 -0.279848,-0.239924 3.370743,-1.157379 6.356916,-3.469756 6.756386,-7.597032 -1.76439,-0.951671 -3.409716,-1.512563 -4.917354,-1.759313 0.439328,-0.491914 0.704647,-0.931854 0.679643,-1.279501 -0.07334,-1.019627 -2.533715,-3.04117 -5.756943,-4.318314 2.197384,-2.549588 3.497256,-5.8181667 1.998931,-9.4363138 C 45.013971,6.2404512 41.782128,8.3572591 39.971686,10.988 37.755489,10.084038 35.772856,9.8197568 34.014845,9.9883901 35.726292,6.4011772 35.307732,2.4669057 34.254741,1.8715576 33.141311,1.2420658 28.682279,2.9017704 25.419425,5.9899505 25.286113,5.1748258 25.02247,4.5869324 24.69983,4.3106058 25.564936,1.3657883 25.158342,-1.3830258 24.300035,-1.886971 23.475392,-2.3711503 20.767995,-1.6093055 18.063393,0.07225974 19.023535,-4.8167993 16.256398,-9.4894733 14.825124,-9.5639749 Z"
       id="path3348"
       sodipodi:nodetypes="ccscsccscscscscccscscccsccccsccscc"
       inkscape:connector-curvature="0" />
    <path
       style="display:inline;overflow:visible;visibility:visible;fill:#5e4646;fill-opacity:1;fill-rule:evenodd;stroke:#000000;stroke-width:0.5;stroke-linecap:round;stroke-linejoin:round;stroke-miterlimit:4;stroke-dasharray:none;stroke-dashoffset:0;stroke-opacity:1;marker:none;enable-background:accumulate"
       d="m 15.860327,58.821707 13.551884,0 c 0,0 -6.195153,-10.843078 5.420758,-22.460656 C 24.37868,43.718852 24.37868,42.557093 27.86341,25.517974 23.991457,35.973798 17.409127,38.684563 13.924304,27.066985 c 1.936023,8.906813 6.969553,27.107686 0,16.651867 0.387223,3.485271 5.807976,9.294061 1.936023,15.102855 z"
       id="path3346"
       inkscape:connector-curvature="0" />
    <g
       id="g4168">
      <path
         style="color:#000000;font-style:normal;font-variant:normal;font-weight:normal;font-stretch:normal;font-size:medium;line-height:normal;font-family:sans-serif;text-indent:0;text-align:start;text-decoration:none;text-decoration-line:none;text-decoration-style:solid;text-decoration-color:#000000;letter-spacing:normal;word-spacing:normal;text-transform:none;direction:ltr;block-progression:tb;writing-mode:lr-tb;baseline-shift:baseline;text-anchor:start;white-space:normal;clip-rule:nonzero;display:inline;overflow:visible;visibility:visible;opacity:1;isolation:auto;mix-blend-mode:normal;color-interpolation:sRGB;color-interpolation-filters:linearRGB;solid-color:#000000;solid-opacity:1;fill:#dbac7d;fill-opacity:1;fill-rule:evenodd;stroke:none;stroke-width:0.50000006;stroke-linecap:round;stroke-linejoin:round;stroke-miterlimit:4;stroke-dasharray:none;stroke-dashoffset:0;stroke-opacity:1;marker:none;marker-start:none;marker-mid:none;marker-end:none;color-rendering:auto;image-rendering:auto;shape-rendering:auto;text-rendering:auto;enable-background:accumulate"
         d="m 63.97833,49.56486 0.6211,2.41993 c -1.63218,0.4197 -4.284639,1.61335 -5.132769,2.37764 -0.424061,0.38215 -0.511081,0.68385 -0.509761,0.6543 0.001,-0.0296 -0.12207,-0.0205 0.39453,0.27344 l -1.23633,2.17187 c -0.97659,-0.55564 -1.70262,-1.51822 -1.65625,-2.55664 0.0464,-1.03842 0.65298,-1.78298 1.33594,-2.39844 1.36591,-1.23091 4.21148,-2.43499 6.18354,-2.9421 z"
         id="path5692"
         inkscape:connector-curvature="0"
         sodipodi:nodetypes="ccsccccsc" />
      <rect
         style="color:#000000;clip-rule:nonzero;display:inline;overflow:visible;visibility:visible;opacity:1;isolation:auto;mix-blend-mode:normal;color-interpolation:sRGB;color-interpolation-filters:linearRGB;solid-color:#000000;solid-opacity:1;fill:#dbac7d;fill-opacity:1;fill-rule:evenodd;stroke:none;stroke-width:0.50000006;stroke-linecap:round;stroke-linejoin:round;stroke-miterlimit:4;stroke-dasharray:none;stroke-dashoffset:0;stroke-opacity:1;marker:none;marker-start:none;marker-mid:none;marker-end:none;color-rendering:auto;image-rendering:auto;shape-rendering:auto;text-rendering:auto;enable-background:accumulate"
         id="rect5200"
         width="2.5890167"
         height="5.211657"
         x="69.772614"
         y="58.996391"
         rx="0.73700863"
         ry="0.81358099" />
      <rect
         ry="0.81358099"
         rx="0.73700863"
         y="58.996391"
         x="62.980637"
         height="5.211657"
         width="2.5890167"
         id="rect5184"
         style="color:#000000;clip-rule:nonzero;display:inline;overflow:visible;visibility:visible;opacity:1;isolation:auto;mix-blend-mode:normal;color-interpolation:sRGB;color-interpolation-filters:linearRGB;solid-color:#000000;solid-opacity:1;fill:#dbac7d;fill-opacity:1;fill-rule:evenodd;stroke:none;stroke-width:0.50000006;stroke-linecap:round;stroke-linejoin:round;stroke-miterlimit:4;stroke-dasharray:none;stroke-dashoffset:0;stroke-opacity:1;marker:none;marker-start:none;marker-mid:none;marker-end:none;color-rendering:auto;image-rendering:auto;shape-rendering:auto;text-rendering:auto;enable-background:accumulate" />
      <path
         sodipodi:nodetypes="ccsccccsc"
         inkscape:connector-curvature="0"
         id="path5540"
         d="m 71.80744,49.56486 -0.6211,2.41993 c 1.63218,0.4197 4.28464,1.61335 5.13277,2.37764 0.42406,0.38215 0.51108,0.68385 0.50976,0.6543 -10e-4,-0.0296 0.12207,-0.0205 -0.39453,0.27344 l 1.23633,2.17187 c 0.97659,-0.55564 1.70262,-1.51822 1.65625,-2.55664 -0.0464,-1.03842 -0.65298,-1.78298 -1.33594,-2.39844 -1.36591,-1.23091 -4.21148,-2.43499 -6.18354,-2.9421 z"
         style="color:#000000;font-style:normal;font-variant:normal;font-weight:normal;font-stretch:normal;font-size:medium;line-height:normal;font-family:sans-serif;text-indent:0;text-align:start;text-decoration:none;text-decoration-line:none;text-decoration-style:solid;text-decoration-color:#000000;letter-spacing:normal;word-spacing:normal;text-transform:none;direction:ltr;block-progression:tb;writing-mode:lr-tb;baseline-shift:baseline;text-anchor:start;white-space:normal;clip-rule:nonzero;display:inline;overflow:visible;visibility:visible;opacity:1;isolation:auto;mix-blend-mode:normal;color-interpolation:sRGB;color-interpolation-filters:linearRGB;solid-color:#000000;solid-opacity:1;fill:#dbac7d;fill-opacity:1;fill-rule:evenodd;stroke:none;stroke-width:0.50000006;stroke-linecap:round;stroke-linejoin:round;stroke-miterlimit:4;stroke-dasharray:none;stroke-dashoffset:0;stroke-opacity:1;marker:none;marker-start:none;marker-mid:none;marker-end:none;color-rendering:auto;image-rendering:auto;shape-rendering:auto;text-rendering:auto;enable-background:accumulate" />
      <path
         sodipodi:nodetypes="sssss"
         inkscape:connector-curvature="0"
         id="path3519-7-3"
         d="m 74.726,55.75229 c 0,3.77453 -3.05986,5.49306 -6.83438,5.49306 -3.77453,0 -6.834379,-1.71853 -6.834379,-5.49306 0,-3.77452 3.059849,-6.83438 6.834379,-6.83438 3.77452,0 6.83438,3.05986 6.83438,6.83438 z"
         style="color:#000000;display:inline;overflow:visible;visibility:visible;fill:#93673b;fill-opacity:1;fill-rule:evenodd;stroke:none;stroke-width:0.5;stroke-linecap:round;stroke-linejoin:round;stroke-miterlimit:4;stroke-dasharray:none;stroke-dashoffset:0;stroke-opacity:1;marker:none;enable-background:accumulate" />
      <path
         style="color:#000000;display:inline;overflow:visible;visibility:visible;fill:#dbac7d;fill-opacity:1;fill-rule:evenodd;stroke:none;stroke-width:0.5;marker:none;enable-background:accumulate"
         d="m 72.40064,56.68473 c 0,2.48533 -2.01876,3.6169 -4.50902,3.6169 -2.49027,0 -4.50903,-1.13157 -4.50903,-3.6169 0,-2.48534 2.01876,-4.5001 4.50903,-4.5001 2.49026,0 4.50902,2.01476 4.50902,4.5001 z"
         id="path3539-3-0"
         inkscape:connector-curvature="0"
         sodipodi:nodetypes="sssss" />
      <path
         id="path2411-2"
         d="m 68.10599,30.156921 a 13.923966,11.242662 0 0 0 -11.242176,4.62891 c -0.32435,1.05654 -0.5,2.17746 -0.5,3.339839 0,6.28222 -0.30375,12.4043 11.382806,12.4043 11.59355,0 11.38281,-6.12208 11.38281,-12.4043 0,-1.570549 -0.32025,-3.068249 -0.89648,-4.429679 -3.4e-4,-8.1e-4 -0.002,-10e-4 -0.002,-0.002 a 13.923966,11.242662 0 0 0 -10.125,-3.53711 z"
         style="display:inline;overflow:visible;visibility:visible;fill:#dbac7d;fill-opacity:1;fill-rule:evenodd;stroke:none;stroke-width:0.50000006;stroke-linecap:round;stroke-linejoin:round;stroke-miterlimit:4;stroke-dashoffset:0;stroke-opacity:1;marker:none;enable-background:accumulate"
         inkscape:connector-curvature="0" />
      <ellipse
         ry="2.4749351"
         rx="2.4379888"
         id="path4471-1"
         style="color:#000000;display:inline;overflow:visible;visibility:visible;fill:#ffffff;fill-opacity:1;fill-rule:evenodd;stroke:#000000;stroke-width:0.5;stroke-linecap:round;stroke-linejoin:round;stroke-miterlimit:4;stroke-dasharray:none;stroke-dashoffset:0;stroke-opacity:1;marker:none;enable-background:accumulate"
         cx="63.441429"
         cy="40.635521" />
      <ellipse
         style="display:inline;overflow:visible;visibility:visible;fill:#000000;fill-opacity:1;fill-rule:evenodd;stroke:none;stroke-width:0.49999997;marker:none;enable-background:accumulate"
         id="path4467-4"
         cx="64.032654"
         cy="40.863167"
         rx="1.3086836"
         ry="1.328653" />
      <ellipse
         style="display:inline;overflow:visible;visibility:visible;fill:#ffffff;fill-opacity:1;fill-rule:evenodd;stroke:none;stroke-width:0.5;marker:none;enable-background:accumulate"
         id="path4469-6"
         cx="63.705482"
         cy="40.475639"
         rx="0.55103576"
         ry="0.53318268" />
      <ellipse
         ry="2.4749351"
         rx="2.4379888"
         transform="scale(-1,1)"
         style="color:#000000;display:inline;overflow:visible;visibility:visible;fill:#ffffff;fill-opacity:1;fill-rule:evenodd;stroke:#000000;stroke-width:0.5;stroke-linecap:round;stroke-linejoin:round;stroke-miterlimit:4;stroke-dasharray:none;stroke-dashoffset:0;stroke-opacity:1;marker:none;enable-background:accumulate"
         id="path4490-9"
         cx="-72.109863"
         cy="40.635521" />
      <ellipse
         transform="scale(-1,1)"
         id="path4492-8"
         style="display:inline;overflow:visible;visibility:visible;fill:#000000;fill-opacity:1;fill-rule:evenodd;stroke:none;stroke-width:0.49999997;marker:none;enable-background:accumulate"
         cx="-71.482224"
         cy="40.790352"
         rx="1.3086836"
         ry="1.328653" />
      <ellipse
         transform="scale(-1,1)"
         id="path4494-2"
         style="display:inline;overflow:visible;visibility:visible;fill:#ffffff;fill-opacity:1;fill-rule:evenodd;stroke:none;stroke-width:0.5;marker:none;enable-background:accumulate"
         cx="-71.213432"
         cy="40.402824"
         rx="0.55103576"
         ry="0.53318268" />
      <path
         inkscape:connector-curvature="0"
         id="path4942"
         d="m 65.60206,43.96671 c -1.25147,-1.05387 -3.09574,0.92213 -1.64667,1.976 0.36051,0.30236 -0.73078,0.98831 -0.73078,1.89252 0,0.90422 2.85636,1.16384 4.34348,1.16384"
         style="display:inline;fill:none;fill-rule:evenodd;stroke:#000000;stroke-width:0.5;stroke-linecap:round;stroke-linejoin:miter;stroke-miterlimit:4;stroke-dasharray:none;stroke-opacity:1" />
      <circle
         r="0.6916002"
         cy="45.251106"
         cx="65.042183"
         id="path4944"
         style="color:#000000;clip-rule:nonzero;display:inline;overflow:visible;visibility:visible;opacity:1;isolation:auto;mix-blend-mode:normal;color-interpolation:sRGB;color-interpolation-filters:linearRGB;solid-color:#000000;solid-opacity:1;fill:#000000;fill-opacity:1;fill-rule:evenodd;stroke:none;stroke-width:0.5;stroke-linecap:round;stroke-linejoin:miter;stroke-miterlimit:4;stroke-dasharray:none;stroke-dashoffset:0;stroke-opacity:1;marker:none;marker-start:none;marker-mid:none;marker-end:none;color-rendering:auto;image-rendering:auto;shape-rendering:auto;text-rendering:auto;enable-background:accumulate" />
      <circle
         transform="scale(-1,1)"
         style="color:#000000;clip-rule:nonzero;display:inline;overflow:visible;visibility:visible;opacity:1;isolation:auto;mix-blend-mode:normal;color-interpolation:sRGB;color-interpolation-filters:linearRGB;solid-color:#000000;solid-opacity:1;fill:#000000;fill-opacity:1;fill-rule:evenodd;stroke:none;stroke-width:0.5;stroke-linecap:round;stroke-linejoin:miter;stroke-miterlimit:4;stroke-dasharray:none;stroke-dashoffset:0;stroke-opacity:1;marker:none;marker-start:none;marker-mid:none;marker-end:none;color-rendering:auto;image-rendering:auto;shape-rendering:auto;text-rendering:auto;enable-background:accumulate"
         id="circle4948"
         cx="-70.457771"
         cy="45.251106"
         r="0.6916002" />
      <path
         style="display:inline;fill:none;fill-rule:evenodd;stroke:#000000;stroke-width:0.5;stroke-linecap:round;stroke-linejoin:miter;stroke-miterlimit:4;stroke-dasharray:none;stroke-opacity:1"
         d="m 69.80881,43.96671 c 1.25146,-1.05387 3.09573,0.92213 1.64666,1.976 -0.36051,0.30236 0.73078,0.98831 0.73078,1.89252 0,0.90422 -2.85636,1.16384 -4.34348,1.16384"
         id="path5069"
         inkscape:connector-curvature="0" />
      <path
         style="display:inline;fill:#5c4125;fill-opacity:1;fill-rule:evenodd;stroke:none;stroke-width:0.5;stroke-linecap:round;stroke-linejoin:miter;stroke-miterlimit:4;stroke-dasharray:none;stroke-opacity:1"
         d="m 64.95512,49.45294 c -1.25294,1.35412 -0.75836,3.51495 0.29675,4.23523 0.39566,-0.40336 0.49457,-0.57622 0.65944,-0.69147 0.033,0.69147 1.25293,1.67104 2.20912,1.90153 0.95618,0.23049 1.21996,0.95076 1.08807,1.21006 0.75835,-0.40335 1.78048,-1.75747 1.68157,-3.31327 -0.0989,-1.55579 -1.48374,-2.01677 -0.46161,-3.16921 -2.20653,0.5186 -4.24563,0.43217 -5.47334,-0.17287 z"
         id="path5090"
         inkscape:connector-curvature="0" />
      <path
         inkscape:connector-curvature="0"
         id="path5088"
         d="m 64.95512,49.45294 c -1.25294,1.35412 -0.75836,3.51495 0.29675,4.23523 0.39566,-0.40336 0.49457,-0.57622 0.65944,-0.69147 0.033,0.69147 1.25293,1.67104 2.20912,1.90153 0.95618,0.23049 1.21996,0.95076 1.08807,1.21006 0.75835,-0.40335 1.78048,-1.75747 1.68157,-3.31327 -0.0989,-1.55579 -1.48374,-2.01677 -0.46161,-3.16921"
         style="display:inline;fill:none;fill-rule:evenodd;stroke:#000000;stroke-width:0.5;stroke-linecap:round;stroke-linejoin:miter;stroke-miterlimit:4;stroke-dasharray:none;stroke-opacity:1" />
      <path
         inkscape:connector-curvature="0"
         id="path4531-7"
         d="m 74.85779,39.60707 -5.80496,0.95536 -0.86672,-0.90764 c 0,0 -0.48812,-2.30776 2.99976,-3.015619 3.48787,-0.70784 5.5649,2.549749 3.67192,2.967899 z"
         style="display:inline;fill:#dbac7d;fill-opacity:1;stroke:none" />
      <path
         inkscape:connector-curvature="0"
         id="path4529-1"
         d="m 75.16587,39.60684 c 0,0 -4.21007,0.66567 -5.24183,0.93358 -1.03175,0.2679 -1.51738,-0.36219 -1.68492,-0.86429"
         style="display:inline;fill:none;stroke:#000000;stroke-width:0.5;stroke-linecap:round;stroke-linejoin:miter;stroke-miterlimit:4;stroke-dasharray:none;stroke-opacity:1" />
      <path
         style="display:inline;fill:#dbac7d;fill-opacity:1;stroke:none"
         d="m 60.380101,41.06007 c 0.52572,-0.265 5.914379,-1.72249 5.914379,-1.72249 0,0 -1.84003,-3.179999 -4.46864,-2.12 -2.628606,1.06 -1.445739,3.84249 -1.445739,3.84249 z"
         id="path4347-4-1"
         inkscape:connector-curvature="0"
         sodipodi:nodetypes="cc" />
      <path
         sodipodi:nodetypes="cc"
         inkscape:connector-curvature="0"
         id="path4345-1-9"
         d="m 60.380101,41.06008 c 0.52572,-0.265 5.914379,-1.72249 5.914379,-1.72249"
         style="display:inline;fill:none;stroke:#000000;stroke-width:0.5;stroke-linecap:round;stroke-linejoin:miter;stroke-miterlimit:4;stroke-dasharray:none;stroke-opacity:1" />
      <path
         inkscape:connector-curvature="0"
         id="path5694"
         d="m 68.10615,30.157411 a 13.923966,11.242662 0 0 0 -11.242189,4.62891 c -0.32435,1.05654 -0.5,2.17746 -0.5,3.339839 0,5.17571 -0.189075,10.23304 6.273439,11.85743 -1.767879,0.60838 -3.760973,1.54943 -4.841798,2.52343 -0.68296,0.61546 -1.289538,1.36002 -1.335938,2.39844 -0.04637,1.03842 0.67966,2.001 1.65625,2.55664 l 1.236328,-2.17187 c -0.5166,-0.29394 -0.393531,-0.30304 -0.394531,-0.27344 -0.0013,0.0296 0.0857,-0.27215 0.50977,-0.6543 0.39934,-0.35987 1.2107,-0.81364 2.11523,-1.23828 -0.3377,0.80944 -0.52539,1.69706 -0.52539,2.62891 0,1.84538 0.735119,3.19571 1.923829,4.09765 l 0,3.54297 c 0,0.45073 0.32802,0.81446 0.73633,0.81446 l 1.11523,0 c 0.4083,0 0.73633,-0.36373 0.73633,-0.81446 l 0,-2.41211 c 0.72806,0.16544 1.50285,0.26367 2.32226,0.26367 0.65703,0 1.27951,-0.0718 1.88086,-0.17773 l 0,2.32617 c 0,0.45073 0.32998,0.81446 0.73828,0.81446 l 1.11329,0 c 0.4083,0 0.73828,-0.36373 0.73828,-0.81446 l 0,-3.24414 c 1.44546,-0.88971 2.36328,-2.33328 2.36328,-4.39648 0,-0.93338 -0.18859,-1.8223 -0.52735,-2.63282 0.90729,0.42554 1.72077,0.88144 2.1211,1.24219 0.42406,0.38215 0.51108,0.68385 0.50976,0.6543 -0.001,-0.0296 0.12207,-0.0205 -0.39453,0.27344 l 1.23633,2.17187 c 0.97659,-0.55564 1.70262,-1.51822 1.65625,-2.55664 -0.0464,-1.03842 -0.65298,-1.78298 -1.33594,-2.39844 -1.10911,-0.99949 -3.17609,-1.95911 -4.97656,-2.56445 6.24941,-1.6732 6.11523,-6.68962 6.11523,-11.81641 0,-1.570549 -0.32025,-3.068249 -0.89648,-4.429679 0,0 -0.002,-0.002 -0.002,-0.002 a 13.923966,11.242662 0 0 0 -10.125,-3.53711 z"
         style="color:#000000;font-style:normal;font-variant:normal;font-weight:normal;font-stretch:normal;font-size:medium;line-height:normal;font-family:sans-serif;text-indent:0;text-align:start;text-decoration:none;text-decoration-line:none;text-decoration-style:solid;text-decoration-color:#000000;letter-spacing:normal;word-spacing:normal;text-transform:none;direction:ltr;block-progression:tb;writing-mode:lr-tb;baseline-shift:baseline;text-anchor:start;white-space:normal;clip-rule:nonzero;display:inline;overflow:visible;visibility:visible;opacity:1;isolation:auto;mix-blend-mode:normal;color-interpolation:sRGB;color-interpolation-filters:linearRGB;solid-color:#000000;solid-opacity:1;fill:none;fill-opacity:1;fill-rule:evenodd;stroke:#000000;stroke-width:0.5;stroke-linecap:butt;stroke-linejoin:round;stroke-miterlimit:4;stroke-dasharray:none;stroke-dashoffset:0;stroke-opacity:1;marker:none;marker-start:none;marker-mid:none;marker-end:none;color-rendering:auto;image-rendering:auto;shape-rendering:auto;text-rendering:auto;enable-background:accumulate" />
      <path
         style="display:inline;fill:#714e2f;fill-opacity:1;fill-rule:evenodd;stroke:#000000;stroke-width:0.5;stroke-linecap:butt;stroke-linejoin:round;stroke-miterlimit:4;stroke-dasharray:none;stroke-opacity:1"
         d="m 69.70579,62.56849 c 0,0 1.68874,0.0707 2.42578,0.0469 0.73704,0.45173 2.25755,2.18863 2.13867,3.75781 -0.25776,0.1111 -0.56397,0.18427 -0.88672,0.24219 l -0.79923,-0.83108 -0.47421,0.94827 c -1.12947,0.0189 -2.32313,-0.13238 -3.14062,-0.3125 -0.0476,-0.76082 0.23704,-2.32993 0.73633,-3.85156 z"
         id="path5202"
         inkscape:connector-curvature="0"
         sodipodi:nodetypes="cccccccc" />
      <path
         style="display:inline;fill:#714e2f;fill-opacity:1;fill-rule:evenodd;stroke:#000000;stroke-width:0.5;stroke-linecap:butt;stroke-linejoin:round;stroke-miterlimit:4;stroke-dasharray:none;stroke-opacity:1"
         d="m 76.712,55.07505 c 0,0 0.72555,1.52656 1.09053,2.16734 -0.0556,0.86267 -0.88225,3.01799 -2.32558,3.6451 -0.21854,-0.17613 -0.42614,-0.41281 -0.62798,-0.67123 l 0.36208,-1.0947 -1.05997,0.0231 c -0.54379,-0.99013 -0.96701,-2.11646 -1.18917,-2.92354 0.65068,-0.39713 2.17131,-0.8776 3.75009,-1.14607 z"
         id="path5202-4-6"
         inkscape:connector-curvature="0"
         sodipodi:nodetypes="cccccccc" />
      <path
         sodipodi:nodetypes="cccccccc"
         inkscape:connector-curvature="0"
         id="path5177"
         d="m 65.56303,62.56849 c 0,0 -1.68875,0.0707 -2.42579,0.0469 -0.73704,0.45173 -2.257549,2.18863 -2.138669,3.75781 0.25776,0.1111 0.56397,0.18427 0.886719,0.24219 l 0.79923,-0.83108 0.47421,0.94827 c 1.12947,0.0189 2.32314,-0.13238 3.14062,-0.3125 0.0476,-0.76082 -0.23704,-2.32993 -0.73632,-3.85156 z"
         style="display:inline;fill:#714e2f;fill-opacity:1;fill-rule:evenodd;stroke:#000000;stroke-width:0.5;stroke-linecap:butt;stroke-linejoin:round;stroke-miterlimit:4;stroke-dasharray:none;stroke-opacity:1" />
      <path
         inkscape:connector-curvature="0"
         style="display:inline;overflow:visible;visibility:visible;fill:#93673b;fill-opacity:1;stroke:#000000;stroke-width:0.49999997;stroke-linecap:round;stroke-linejoin:round;stroke-miterlimit:4;stroke-dasharray:none;stroke-dashoffset:0;stroke-opacity:1;marker:none;enable-background:accumulate"
         d="m 58.119934,34.628611 c -2.15464,2.540369 -5.50031,4.879339 -5.70258,7.703259 -0.20227,2.82393 2.54153,3.06086 4.59831,0.8241 2.05678,-2.23675 2.01749,-5.8699 2.762867,-7.792859 -0.520177,-0.19274 -1.703847,-0.77125 -1.658597,-0.7345 z"
         id="path5086" />
      <path
         id="path4910"
         d="m 76.56307,34.440451 c 2.15463,2.54037 5.50031,4.879339 5.70258,7.703259 0.20226,2.82393 -2.54153,3.06085 -4.59832,0.8241 -2.05678,-2.23675 -2.01749,-5.8699 -2.76286,-7.792859 0.52018,-0.19274 1.70384,-0.77125 1.6586,-0.7345 z"
         style="display:inline;overflow:visible;visibility:visible;fill:#93673b;fill-opacity:1;stroke:#000000;stroke-width:0.49999997;stroke-linecap:round;stroke-linejoin:round;stroke-miterlimit:4;stroke-dasharray:none;stroke-dashoffset:0;stroke-opacity:1;marker:none;enable-background:accumulate"
         inkscape:connector-curvature="0" />
      <path
         inkscape:connector-curvature="0"
         id="path4075"
         d="m 64.10599,27.270661 c -2.885999,0.13554 -5.286086,2.88838 -5.667956,4.54102 -0.34322,1.48532 -3.80574,3.90197 -5.50586,-2.37891 -0.8134,-3.00497 -1.78831,2.68902 0.625,5.63477 1.48678,1.8148 5.75701,3.005889 8.259756,0.62695 1.74954,-1.66299 4.44813,-2.09519 5.93164,-2.20898 1.48308,0.11356 4.18526,0.54528 5.93555,2.20898 2.50275,2.378939 6.77103,1.18785 8.25781,-0.62695 2.41331,-2.94575 1.44035,-8.63974 0.62695,-5.63477 -1.70012,6.28088 -5.1646,3.86423 -5.50781,2.37891 -0.5366,-2.32225 -5.05542,-6.79103 -9.31054,-3.14258 -1.22711,-1.05234 -2.47504,-1.45336 -3.64454,-1.39844 z"
         style="display:inline;fill:#3d2c26;fill-opacity:1;fill-rule:evenodd;stroke:#000000;stroke-width:0.5;stroke-linecap:butt;stroke-linejoin:miter;stroke-miterlimit:4;stroke-dasharray:none;stroke-opacity:1" />
      <path
         sodipodi:nodetypes="cccccccc"
         inkscape:connector-curvature="0"
         id="path5721"
         d="m 59.099674,55.07505 c 0,0 -0.72555,1.52656 -1.09053,2.16734 0.0556,0.86267 0.88225,3.01799 2.325577,3.6451 0.21854,-0.17613 0.42614,-0.41281 0.62798,-0.67123 l -0.36208,-1.0947 1.05997,0.0231 C 62.20438,58.15453 62.6276,57.0282 62.84976,56.22112 62.19908,55.82399 60.678451,55.34352 59.099674,55.07505 Z"
         style="display:inline;fill:#714e2f;fill-opacity:1;fill-rule:evenodd;stroke:#000000;stroke-width:0.5;stroke-linecap:butt;stroke-linejoin:round;stroke-miterlimit:4;stroke-dasharray:none;stroke-opacity:1" />
    </g>
    <path
       sodipodi:nodetypes="ccccccccccccccccccccccccccccccccccccccccccccccccccccccscccccsccccccccccccccccccc"
       inkscape:connector-curvature="0"
       id="path4232"
       d="m 14.54662,37.193988 c -0.959554,1.081513 -3.807641,5.06812 -3.34349,8.331893 -0.122799,-0.145155 -0.265448,-0.201302 -0.412211,-0.206007 -0.07481,-1.370783 -0.318269,-2.58077 -0.480911,-3.135907 -1.3638217,1.108082 -2.1541237,2.704558 -2.5648687,4.165947 -0.369904,-2.811922 -2.075542,-5.841305 -2.725171,-6.798275 -1.591025,3.397969 -0.449101,7.986833 0.251908,9.293265 -0.534614,-0.491568 -2.411146,-0.487269 1.419835,4.12017 0.06228,-0.05427 0.124278,-0.106179 0.183202,-0.160233 0.13472,1.60414 -0.526713,2.700999 -0.526713,2.700999 0,0 -0.43205,-0.615346 -1.167932,0.526464 -0.422112,-1.450628 -3.050954,-5.400547 -7.144987,-6.18025 0.176725,1.114181 0.99340102,4.229798 2.67937002,6.36337 -1.27655,-0.122198 -2.64007102,-0.02432 -3.96180302,0.480687 0.913942,1.061434 4.280036,4.239514 7.488496,4.417732 0.065,0.04403 0.139531,0.07134 0.206105,0.114435 -0.282478,0.282636 -0.191391,0.699053 0.229007,0.984264 -0.502603,0.493487 -0.802134,0.973713 -0.664115,1.25894 0.299106,0.618186 2.572047,0.129278 3.916002,-0.526468 0.226755,-0.110624 0.416191,-0.268656 0.595417,-0.389127 0.110221,0.02164 0.200825,0.07581 0.320608,0.09155 1.3888317,0.18232 3.4932097,-0.029 3.8243987,-0.618026 0.0052,0.0028 0.01783,-0.0035 0.023,0 0.04623,0.110578 0.08748,0.20429 0.160322,0.297567 0.174824,0.372852 0.635793,0.69766 1.488537,0.824033 1.353635,0.200761 4.661052,-0.221226 4.717526,-0.595134 0.02182,-0.145156 -0.397981,-0.448568 -1.007629,-0.755365 1.262745,-0.542023 2.326529,-1.124796 2.290064,-1.373388 1.327414,-0.568516 2.68335,-1.501388 3.572493,-2.975676 -0.798216,-0.221367 -2.863571,-0.594953 -4.83203,-0.366238 0.04374,-0.08303 0.110808,-0.184061 0.137395,-0.251786 0.257869,-0.372485 0.502189,-0.8442 0.709919,-1.396279 3.706199,0.08254 4.116467,-2.409818 3.091584,-2.311872 2.182544,-1.680091 2.975235,-5.747506 3.091579,-6.958506 -1.678052,0.522394 -2.991521,1.725599 -3.916002,2.929898 0.701617,-2.748053 0.224596,-6.195041 -0.023,-7.324741 -2.740049,2.56406 -3.371381,7.247786 -3.206085,8.72102 -0.188458,-0.393457 -0.877024,-0.773375 -1.007628,0.206007 -0.01314,-0.596225 -0.8112,-0.504411 -1.122128,-0.274677 0.692162,-1.135436 1.622286,-5.131296 -0.526713,-8.125887 -0.238035,0.296191 -0.597543,0.844076 -0.984728,1.510729 0.392842,-1.925646 0.418777,-4.42339 -0.778619,-6.615158 z M 10.539013,48.43289 c 0.310363,0.524845 0.780716,1.072934 1.419837,1.670955 l -1.21373,3.502142 -0.503815,-2.037192 c 0.829259,-1.094749 0.38761,-2.10309 -0.229007,-1.785407 0.2396,-0.405094 0.400633,-0.869491 0.526712,-1.350498 z m 7.396895,2.426319 c -0.04132,0.690345 0.146313,1.910057 0.824421,4.005719 0.07798,-0.02724 0.154197,-0.0632 0.229007,-0.09155 -0.284662,0.93013 -0.761551,1.550809 -1.099227,1.922743 -0.516777,0.165879 -1.11876,0.399075 -1.717547,0.663805 -0.0059,-0.05794 -0.0183,-0.100299 -0.023,-0.160233 -0.0513,-0.649842 -0.06845,-1.433701 -0.09161,-2.174531 -0.0241,-0.770936 -0.0176,-0.941135 -0.023,-1.464948 1.310084,-1.367801 1.819899,-2.212117 1.900752,-2.700999 z m -5.083933,0.04577 c 0.138475,0.727933 0.714887,1.678919 2.083955,2.67811 0.0052,0.532727 -0.0015,0.70661 0.023,1.487837 0.02347,0.751189 0.0609,1.541324 0.114516,2.220312 0.0045,0.05963 0.01877,0.105356 0.023,0.160233 -0.18285,0.05772 -0.376601,0.147507 -0.572515,0.297567 -0.398047,-1.382296 -0.928526,-2.700413 -1.190832,-2.700997 -0.289874,-6.37e-4 -0.732885,1.529594 -1.007626,3.021456 -0.182498,-0.119846 -0.369306,-0.235361 -0.549614,-0.343348 l -0.526715,-2.128755 z m -3.5266947,1.533616 0.7557197,3.113018 0,0.02282 0.023,0 0.36641,1.46495 c -0.131881,-0.05104 -0.254157,-0.07546 -0.343509,-0.09155 -0.0023,-0.0075 0.0015,-0.01552 0,-0.02282 C 9.9077023,55.996927 9.5551773,55.2742 9.1421753,55.254058 c -0.254011,-0.01247 -0.504246,0.281393 -0.732819,0.686694 -0.215984,-0.413233 -0.440798,-0.747687 -0.66412,-0.938482 0.147978,-0.503736 0.290888,-1.152988 0.274809,-1.922745 0.522794,-0.195681 0.952994,-0.406251 1.305334,-0.640915 z"
       style="display:inline;overflow:visible;visibility:visible;fill:#2b972b;fill-opacity:1;fill-rule:evenodd;stroke:#000000;stroke-width:0.49999997;stroke-linecap:round;stroke-linejoin:round;stroke-miterlimit:4;stroke-dasharray:none;stroke-dashoffset:0;stroke-opacity:1;marker:none;enable-background:accumulate" />
    <path
       inkscape:connector-curvature="0"
       style="display:inline;overflow:visible;visibility:visible;fill:#45a21c;fill-opacity:1;fill-rule:evenodd;stroke:#000000;stroke-width:0.49999997;stroke-linecap:round;stroke-linejoin:round;stroke-miterlimit:4;stroke-dasharray:none;stroke-dashoffset:0;stroke-opacity:1;marker:none;marker-start:none;marker-mid:none;marker-end:none;enable-background:accumulate"
       d="m 110.31586,34.522988 c -2.18287,1.726362 -5.16201,3.648389 -6.3602,7.355841 -0.94223,-1.534325 -2.16773,-2.800155 -3.23745,-4.08519 -0.5882,2.578532 -1.635435,5.748506 -0.4716,9.210446 -1.119546,-0.403619 -2.23865,-0.716395 -3.313936,-1.065172 0.424639,1.159355 0.83189,2.484351 1.440288,3.797001 -3.271415,-2.479019 -6.684258,-2.162956 -9.801599,-2.280716 0.871927,1.185935 1.784936,2.594319 3.008025,3.859633 -0.802669,-0.103526 -1.59886,-0.184146 -2.370732,-0.288189 1.004438,1.692951 2.051048,3.787709 3.849261,5.476105 -2.144182,0.318806 -4.025126,1.217614 -5.863105,1.91729 1.228769,0.719372 2.589774,1.617118 4.142402,2.293217 -1.182176,0.961207 -2.18611,2.06546 -3.211958,3.057648 2.989836,0.38219 6.785571,1.245806 10.617335,-1.027593 -0.454823,0.844508 -0.858478,1.695021 -1.287355,2.506251 1.911128,-0.351577 4.212054,-0.598925 6.385714,-1.629055 2.79134,0.724704 5.2889,0.102206 7.66027,-0.426059 2.39717,0.649364 4.73766,0.366688 6.9465,0.313269 -0.41842,-0.499536 -0.8508,-1.038981 -1.31281,-1.59147 1.77297,-0.127389 3.44458,-0.594987 5.06012,-0.927303 -1.40918,-1.167534 -2.97507,-2.654313 -4.99639,-3.659105 1.00843,0.02045 2.00602,-0.0088 2.9698,0 -1.26392,-1.61761 -2.63702,-3.659312 -4.77972,-5.125309 1.39855,-0.508129 2.67938,-1.189404 3.95123,-1.766867 -2.41168,-1.215984 -5.29108,-3.021105 -9.03683,-2.74433 2.88192,-2.669039 3.19807,-5.940363 3.87474,-8.859598 -1.26536,0.586031 -2.73273,1.17434 -4.14241,2.030081 0.52339,-2.180478 0.30739,-4.319571 0.28041,-6.340826 z"
       id="path3745"
       sodipodi:nodetypes="cccccccccccccccccccccccccccc" />
    <path
       inkscape:connector-curvature="0"
       style="display:inline;fill:none;fill-rule:evenodd;stroke:#000000;stroke-width:0.49999997;stroke-linecap:butt;stroke-linejoin:miter;stroke-miterlimit:4;stroke-dasharray:none;stroke-opacity:1"
       d="m 112.27304,63.374219 c 0.76406,-0.519361 1.46884,-1.089605 2.17762,-1.605705 -2.4036,-0.651537 -5.43912,-1.813402 -8.8847,-0.10702 -0.0533,-0.06874 -0.0992,-0.147859 -0.15245,-0.214116 2.40798,-2.241014 2.55856,-4.922968 3.00511,-7.32204 -0.93617,0.483024 -2.0304,0.972207 -3.07042,1.648539 0.11808,-1.948194 -0.51291,-3.695831 -0.93638,-5.37377 -0.96605,1.215517 -2.21029,2.581405 -2.93978,4.367528 -1.06343,-1.042397 -2.315218,-1.79663 -3.440652,-2.590541 0.07191,1.687981 -0.0026,3.744876 0.82749,5.737713 -1.126849,-0.08378 -2.246108,-0.0367 -3.309984,-0.0428 0.557885,0.708993 1.150537,1.531244 1.850985,2.312214 -1.618982,0.0014 -3.1418,0.423651 -4.594773,0.706508 1.066082,0.902742 2.250183,2.023275 3.767278,2.826063"
       id="path3776"
       sodipodi:nodetypes="cccccccccccccc" />
    <ellipse
       ry="2.0411415"
       rx="1.9962807"
       cy="11.79253"
       cx="4.2446966"
       style="display:inline;overflow:visible;visibility:visible;opacity:1;fill:#a02c2c;fill-opacity:1;fill-rule:evenodd;stroke:#000000;stroke-width:0.5;stroke-linecap:round;stroke-linejoin:round;stroke-miterlimit:4;stroke-dasharray:none;stroke-dashoffset:0;stroke-opacity:1;marker:none;marker-start:none;marker-mid:none;marker-end:none;enable-background:accumulate"
       id="path2603"
       transform="matrix(0.98449416,-0.17541738,0.17541737,0.98449416,0,0)" />
    <ellipse
       ry="2.0411415"
       rx="1.9962807"
       cy="18.889954"
       cx="16.376959"
       style="display:inline;overflow:visible;visibility:visible;opacity:1;fill:#a02c2c;fill-opacity:1;fill-rule:evenodd;stroke:#000000;stroke-width:0.5;stroke-linecap:round;stroke-linejoin:round;stroke-miterlimit:4;stroke-dasharray:none;stroke-dashoffset:0;stroke-opacity:1;marker:none;marker-start:none;marker-mid:none;marker-end:none;enable-background:accumulate"
       id="path2603-9"
       transform="matrix(0.98449416,-0.17541738,0.17541737,0.98449416,0,0)" />
    <ellipse
       ry="2.0411415"
       rx="1.9962807"
       cy="27.707109"
       cx="-1.4113631"
       style="display:inline;overflow:visible;visibility:visible;opacity:1;fill:#a02c2c;fill-opacity:1;fill-rule:evenodd;stroke:#000000;stroke-width:0.5;stroke-linecap:round;stroke-linejoin:round;stroke-miterlimit:4;stroke-dasharray:none;stroke-dashoffset:0;stroke-opacity:1;marker:none;marker-start:none;marker-mid:none;marker-end:none;enable-background:accumulate"
       id="path2603-90"
       transform="matrix(0.98449416,-0.17541738,0.17541737,0.98449416,0,0)" />
    <ellipse
       ry="2.0411415"
       rx="1.9962807"
       cy="25.54751"
       cx="29.997795"
       style="display:inline;overflow:visible;visibility:visible;opacity:1;fill:#a02c2c;fill-opacity:1;fill-rule:evenodd;stroke:#000000;stroke-width:0.5;stroke-linecap:round;stroke-linejoin:round;stroke-miterlimit:4;stroke-dasharray:none;stroke-dashoffset:0;stroke-opacity:1;marker:none;marker-start:none;marker-mid:none;marker-end:none;enable-background:accumulate"
       id="path2603-3"
       transform="matrix(0.98449416,-0.17541738,0.17541737,0.98449416,0,0)" />
    <ellipse
       ry="2.0411415"
       rx="1.9962807"
       cy="36.238411"
       cx="26.68269"
       style="display:inline;overflow:visible;visibility:visible;opacity:1;fill:#a02c2c;fill-opacity:1;fill-rule:evenodd;stroke:#000000;stroke-width:0.5;stroke-linecap:round;stroke-linejoin:round;stroke-miterlimit:4;stroke-dasharray:none;stroke-dashoffset:0;stroke-opacity:1;marker:none;marker-start:none;marker-mid:none;marker-end:none;enable-background:accumulate"
       id="path2603-905"
       transform="matrix(0.98449416,-0.17541738,0.17541737,0.98449416,0,0)" />
    <ellipse
       ry="2.0411415"
       rx="1.9962807"
       cy="34.398384"
       cx="41.590511"
       style="display:inline;overflow:visible;visibility:visible;opacity:1;fill:#a02c2c;fill-opacity:1;fill-rule:evenodd;stroke:#000000;stroke-width:0.5;stroke-linecap:round;stroke-linejoin:round;stroke-miterlimit:4;stroke-dasharray:none;stroke-dashoffset:0;stroke-opacity:1;marker:none;marker-start:none;marker-mid:none;marker-end:none;enable-background:accumulate"
       id="path2603-0"
       transform="matrix(0.98449416,-0.17541738,0.17541737,0.98449416,0,0)" />
    <ellipse
       ry="2.0411415"
       rx="1.9962807"
       cy="46.536655"
       cx="29.078341"
       style="display:inline;overflow:visible;visibility:visible;opacity:1;fill:#a02c2c;fill-opacity:1;fill-rule:evenodd;stroke:#000000;stroke-width:0.5;stroke-linecap:round;stroke-linejoin:round;stroke-miterlimit:4;stroke-dasharray:none;stroke-dashoffset:0;stroke-opacity:1;marker:none;marker-start:none;marker-mid:none;marker-end:none;enable-background:accumulate"
       id="path2603-7"
       transform="matrix(0.98449416,-0.17541738,0.17541737,0.98449416,0,0)" />
    <ellipse
       ry="2.0411415"
       rx="1.9962807"
       cy="31.771336"
       cx="17.549355"
       style="display:inline;overflow:visible;visibility:visible;opacity:1;fill:#a02c2c;fill-opacity:1;fill-rule:evenodd;stroke:#000000;stroke-width:0.5;stroke-linecap:round;stroke-linejoin:round;stroke-miterlimit:4;stroke-dasharray:none;stroke-dashoffset:0;stroke-opacity:1;marker:none;marker-start:none;marker-mid:none;marker-end:none;enable-background:accumulate"
       id="path2603-1"
       transform="matrix(0.98449416,-0.17541738,0.17541737,0.98449416,0,0)" />
    <path
       sodipodi:nodetypes="csc"
       inkscape:connector-curvature="0"
       id="path3474-6"
       d="m 38.80645,70.815988 c -0.144524,-0.449946 -0.988808,-0.795098 -2.009813,-0.795098 -1.021964,0 -1.866472,0.344532 -2.009816,0.795098"
       style="color:#000000;display:inline;overflow:visible;visibility:visible;fill:none;stroke:#000000;stroke-width:0.5;stroke-linecap:round;stroke-linejoin:miter;stroke-miterlimit:4;stroke-dasharray:none;stroke-dashoffset:0;stroke-opacity:1;marker:none;enable-background:accumulate" />
    <path
       sodipodi:nodetypes="csc"
       inkscape:connector-curvature="0"
       id="path3474-6-9"
       d="M 65.813158,83.981758 C 65.668634,83.531812 64.82435,83.18666 63.803345,83.18666 c -1.021964,0 -1.866472,0.344532 -2.009816,0.795098"
       style="color:#000000;display:inline;overflow:visible;visibility:visible;fill:none;stroke:#000000;stroke-width:0.5;stroke-linecap:round;stroke-linejoin:miter;stroke-miterlimit:4;stroke-dasharray:none;stroke-dashoffset:0;stroke-opacity:1;marker:none;enable-background:accumulate" />
    <path
       sodipodi:nodetypes="csc"
       inkscape:connector-curvature="0"
       id="path3474-6-7"
       d="M 75.940674,79.593168 C 75.79615,79.143222 74.951866,78.79807 73.930861,78.79807 c -1.021964,0 -1.866472,0.344532 -2.009816,0.795098"
       style="color:#000000;display:inline;overflow:visible;visibility:visible;fill:none;stroke:#000000;stroke-width:0.5;stroke-linecap:round;stroke-linejoin:miter;stroke-miterlimit:4;stroke-dasharray:none;stroke-dashoffset:0;stroke-opacity:1;marker:none;enable-background:accumulate" />
    <path
       sodipodi:nodetypes="csc"
       inkscape:connector-curvature="0"
       id="path3474-6-91"
       d="m 123.87758,70.140821 c -0.14452,-0.449946 -0.98881,-0.795098 -2.00981,-0.795098 -1.02197,0 -1.86647,0.344532 -2.00982,0.795098"
       style="color:#000000;display:inline;overflow:visible;visibility:visible;fill:none;stroke:#000000;stroke-width:0.5;stroke-linecap:round;stroke-linejoin:miter;stroke-miterlimit:4;stroke-dasharray:none;stroke-dashoffset:0;stroke-opacity:1;marker:none;enable-background:accumulate" />
    <path
       sodipodi:nodetypes="csc"
       inkscape:connector-curvature="0"
       id="path3474-6-4"
       d="m 110.71181,98.497864 c -0.14452,-0.449946 -0.98881,-0.795098 -2.00981,-0.795098 -1.02197,0 -1.86647,0.344532 -2.00982,0.795098"
       style="color:#000000;display:inline;overflow:visible;visibility:visible;fill:none;stroke:#000000;stroke-width:0.5;stroke-linecap:round;stroke-linejoin:miter;stroke-miterlimit:4;stroke-dasharray:none;stroke-dashoffset:0;stroke-opacity:1;marker:none;enable-background:accumulate" />
    <path
       sodipodi:nodetypes="csc"
       inkscape:connector-curvature="0"
       id="path3474-6-6"
       d="m 49.609133,62.376392 c -0.144524,-0.449946 -0.988808,-0.795098 -2.009813,-0.795098 -1.021964,0 -1.866472,0.344532 -2.009816,0.795098"
       style="color:#000000;display:inline;overflow:visible;visibility:visible;fill:none;stroke:#000000;stroke-width:0.5;stroke-linecap:round;stroke-linejoin:miter;stroke-miterlimit:4;stroke-dasharray:none;stroke-dashoffset:0;stroke-opacity:1;marker:none;enable-background:accumulate" />
    <path
       inkscape:connector-curvature="0"
       style="display:inline;overflow:visible;visibility:visible;opacity:1;fill:#65c541;fill-opacity:1;fill-rule:evenodd;stroke:#000000;stroke-width:0.5;stroke-linecap:round;stroke-linejoin:miter;stroke-miterlimit:4;stroke-dasharray:none;stroke-dashoffset:0;stroke-opacity:1;marker:none;marker-start:none;marker-mid:none;marker-end:none;enable-background:accumulate"
       d="m 104.15836,66.07845 c -0.0397,0.0033 -0.073,0.01839 -0.1001,0.03991 -0.56628,0.450035 2.27762,5.140495 4.0338,9.608877 -0.0707,0.173178 -0.14185,0.344091 -0.2102,0.518861 -2.64798,-3.124636 -5.84108,-5.820655 -6.25591,-5.398132 -0.45074,0.459096 2.95843,4.68438 4.70444,8.381577 -4.05185,-2.612796 -10.319994,-4.735651 -10.589996,-4.041121 -0.221142,0.568833 4.104114,2.892447 7.166776,5.448038 -4.860461,0.475204 -11.727169,3.230297 -11.460837,3.971265 0.247773,0.689336 7.115818,-0.989879 11.260647,-0.459008 -4.76053,1.101104 -11.310845,4.843717 -10.94035,5.547817 0.110884,0.21082 0.922018,0.0689 2.051943,-0.20943 -2.068241,1.03379 -3.588624,2.06465 -3.423237,2.38474 0.326381,0.63167 7.584088,-2.26712 10.860264,-1.4967 0.16387,0.0384 0.30548,0.0653 0.46044,0.0996 -1.974982,1.32221 -3.59583,2.76319 -3.503313,3.13312 0.11614,0.46439 3.125893,-1.1717 5.635323,-1.84594 0.81398,0.54336 1.92543,0.53521 3.51332,0.0598 0.84707,0.16278 1.47045,0.16305 1.94184,-0.0898 0.681,-0.0316 1.51133,-0.14713 2.47233,-0.32928 2.36525,0.7439 4.9278,2.09406 5.03476,1.66634 0.0621,-0.24842 -0.65042,-0.9826 -1.72162,-1.83598 4.13687,0.46316 9.67491,2.71587 9.99946,2.12532 0.25556,-0.46502 -2.54645,-2.33336 -5.84554,-3.88145 4.0794,0.11694 7.8802,0.57877 8.04762,-0.011 0.21319,-0.74972 -5.03448,-2.675103 -10.30975,-3.622052 3.19967,-2.590479 10.75957,-4.437959 10.65007,-5.198553 -0.10797,-0.749972 -6.92944,-0.06204 -11.47085,1.636394 2.29765,-3.38039 6.30949,-7.021653 5.93561,-7.543422 -0.26073,-0.363882 -2.37137,0.791058 -4.72446,2.534433 2.10727,-3.52687 4.54208,-6.739006 4.11389,-7.174233 -0.39904,-0.405591 -2.90808,1.54652 -5.53523,4.250653 -0.71635,-3.875856 -2.0305,-7.53304 -2.58245,-7.383767 -0.65981,0.178448 0.28811,6.214399 -0.27024,10.337267 -0.55491,-1.105605 -1.23284,-2.244543 -1.96186,-3.362597 0.57307,-2.438536 1.12348,-4.426046 0.77073,-4.599891 -0.30614,-0.150862 -1.13952,0.980546 -2.07197,2.694079 -2.41166,-3.33307 -4.98041,-6.013937 -5.67535,-5.956906 z"
       id="path4243" />
    <g
       id="g4449">
      <path
         inkscape:connector-curvature="0"
         id="path3488"
         d="m 107.1038,16.598098 c -0.69164,0.16524 -1.24264,0.76587 -1.45024,2.02218 -0.30197,1.82737 0.37147,3.50953 1.50581,3.76422 0.0972,0.0218 0.19397,0.0347 0.29103,0.0346 0.53962,0.47189 1.94842,0.5569 3.34856,0.17134 1.54874,-0.42648 1.77818,-1.07044 1.39766,-1.682 -0.36885,-0.5928 -1.17882,-0.9302 -2.63836,-0.56244 0.0859,-0.25489 0.15331,-0.52074 0.20049,-0.80626 0.30197,-1.82737 -0.5105,-2.66181 -1.64484,-2.9165 -0.35449,-0.0796 -0.69573,-0.10029 -1.01011,-0.0252 z"
         style="display:inline;overflow:visible;visibility:visible;fill:#ffffff;fill-opacity:1;fill-rule:evenodd;stroke:#000000;stroke-width:0.49999997;stroke-linecap:round;stroke-linejoin:round;stroke-miterlimit:4;stroke-dasharray:none;stroke-dashoffset:0;stroke-opacity:1;marker:none;enable-background:accumulate" />
      <path
         inkscape:connector-curvature="0"
         id="path3490"
         style="display:inline;fill:none;stroke:#000000;stroke-width:0.99999994px;stroke-linecap:butt;stroke-linejoin:miter;stroke-opacity:1"
         d="m 102.01838,19.328928 -0.84964,-1.56762 -1.446496,-0.64758" />
      <path
         inkscape:connector-curvature="0"
         id="path3492"
         style="display:inline;fill:none;stroke:#000000;stroke-width:1.60000014;stroke-linecap:round;stroke-linejoin:miter;stroke-miterlimit:4;stroke-dasharray:none;stroke-opacity:1"
         d="m 109.25462,26.579728 0.70883,0.75994"
         sodipodi:nodetypes="cc" />
      <path
         inkscape:connector-curvature="0"
         id="path3494"
         style="display:inline;fill:none;stroke:#000000;stroke-width:0.99999994px;stroke-linecap:butt;stroke-linejoin:miter;stroke-opacity:1"
         d="m 104.48608,18.528868 0.0664,-2.07551 -1.13736,-1.33636" />
      <path
         inkscape:connector-curvature="0"
         style="display:inline;overflow:visible;visibility:visible;fill:#e19c1a;fill-opacity:1;fill-rule:evenodd;stroke:#000000;stroke-width:0.49999997;stroke-linecap:round;stroke-linejoin:round;stroke-miterlimit:4;stroke-dasharray:none;stroke-dashoffset:0;stroke-opacity:1;marker:none;enable-background:accumulate"
         d="m 105.74667,26.486678 c -0.81201,-0.49525 -1.47537,-2.58553 -0.60971,-3.69786 0.86565,-1.11232 2.34356,-1.41602 3.74615,-0.33231 1.40259,1.0837 1.83837,2.86598 0.97271,3.97832 -0.86566,1.11233 -2.70655,1.13556 -4.10915,0.0519 z"
         id="path3496"
         sodipodi:nodetypes="csssc" />
      <path
         inkscape:connector-curvature="0"
         style="display:inline;fill:#000000;fill-opacity:1;fill-rule:evenodd;stroke:none"
         d="m 107.21613,21.793848 -2.47249,2.05666 c -0.0319,0.33051 -0.005,0.6823 0.0662,1.01182 l 3.38863,-2.81552 c -0.33342,-0.15425 -0.66203,-0.23598 -0.98237,-0.25296 z m 1.67776,0.65989 -3.81911,3.17847 c 0.13256,0.28153 0.28742,0.52283 0.46359,0.69288 l 3.95156,-3.27745 c -0.17491,-0.20741 -0.3686,-0.41741 -0.59604,-0.5939 z m 0.99341,1.1438 -3.76392,3.14548 c 0.2664,0.16149 0.54916,0.28511 0.82784,0.37394 l 3.25618,-2.70555 c -0.0694,-0.27389 -0.17113,-0.55097 -0.3201,-0.81387 z m 0.4084,1.60574 -2.48353,2.06765 c 0.81803,0.0405 1.57237,-0.23239 2.04201,-0.83586 0.27728,-0.35629 0.42029,-0.783 0.44152,-1.23179 z"
         id="path3498" />
      <path
         inkscape:connector-curvature="0"
         style="display:inline;overflow:visible;visibility:visible;fill:#ffffff;fill-opacity:1;fill-rule:evenodd;stroke:#000000;stroke-width:0.49999997;stroke-linecap:round;stroke-linejoin:round;stroke-miterlimit:4;stroke-dasharray:none;stroke-dashoffset:0;stroke-opacity:1;marker:none;enable-background:accumulate"
         d="m 111.36637,16.294768 c -0.75198,-0.0373 -1.63263,0.45667 -2.58287,1.7927 -0.85748,1.20563 -1.33278,2.46911 -1.34662,3.40943 l 1.97578,2.36461 c 0.51492,0.18567 1.14943,0.29971 1.84333,0.30794 1.71776,0.0204 2.32095,-0.62501 2.329,-1.42976 0.008,-0.78007 -0.55407,-1.41642 -2.15239,-1.47375 0.23414,-0.25701 0.45735,-0.53222 0.67331,-0.83586 1.38216,-1.94332 1.11636,-3.13537 0.19868,-3.78337 -0.28677,-0.20249 -0.59641,-0.335 -0.93822,-0.35194 z"
         id="path3500" />
      <ellipse
         style="display:inline;overflow:visible;visibility:visible;fill:#e19c1a;fill-opacity:1;fill-rule:evenodd;stroke:#000000;stroke-width:0.50000006;stroke-linecap:round;stroke-linejoin:round;stroke-miterlimit:4;stroke-dasharray:none;stroke-dashoffset:0;stroke-opacity:1;marker:none;enable-background:accumulate"
         id="path3503"
         cx="104.18996"
         cy="21.690296"
         rx="3.3529704"
         ry="3.1381376" />
      <ellipse
         style="display:inline;overflow:visible;visibility:visible;fill:#ffffff;fill-opacity:1;fill-rule:evenodd;stroke:#000000;stroke-width:0.50000006;stroke-linecap:round;stroke-linejoin:round;stroke-miterlimit:4;stroke-dasharray:none;stroke-dashoffset:0;stroke-opacity:1;marker:none;enable-background:accumulate"
         id="path3505"
         cx="102.19762"
         cy="20.773001"
         rx="0.97187555"
         ry="0.96558076" />
      <ellipse
         id="path3507"
         style="display:inline;overflow:visible;visibility:visible;fill:#ffffff;fill-opacity:1;fill-rule:evenodd;stroke:#000000;stroke-width:0.5;stroke-linecap:round;stroke-linejoin:round;stroke-miterlimit:4;stroke-dasharray:none;stroke-dashoffset:0;stroke-opacity:1;marker:none;enable-background:accumulate"
         cx="104.43294"
         cy="20.579885"
         rx="1.4578134"
         ry="1.4483709" />
      <path
         inkscape:connector-curvature="0"
         style="display:inline;fill:#000000;fill-opacity:1;fill-rule:evenodd;stroke:none"
         d="m 102.2053,22.620958 -0.39235,0.35733 c 0.95847,1.05807 2.40276,1.07638 3.28594,0.3086 l -0.35965,-0.38981 c -0.67182,0.58403 -1.74303,0.59697 -2.53394,-0.27612 z"
         id="path3509" />
      <ellipse
         style="display:inline;overflow:visible;visibility:visible;fill:#000000;fill-opacity:1;fill-rule:evenodd;stroke:none;stroke-width:0.5;marker:none;enable-background:accumulate"
         id="path3511"
         cx="102.55853"
         cy="20.705181"
         rx="0.4101215"
         ry="0.40864512" />
      <ellipse
         id="path3513"
         style="display:inline;overflow:visible;visibility:visible;fill:#000000;fill-opacity:1;fill-rule:evenodd;stroke:none;stroke-width:0.5;marker:none;enable-background:accumulate"
         cx="104.03497"
         cy="20.41095"
         rx="0.4101215"
         ry="0.40864512" />
    </g>
    <path
       style="display:inline;overflow:visible;visibility:visible;fill:#7d7d7d;fill-opacity:1;fill-rule:evenodd;stroke:#000000;stroke-width:0.49999997;stroke-linecap:butt;stroke-linejoin:miter;stroke-miterlimit:4;stroke-dasharray:none;stroke-dashoffset:0;stroke-opacity:1;marker:none;enable-background:accumulate"
       d="m 25.82004,58.346802 c 0,1.5472 1.247898,1.949842 3.393711,1.949842 2.145811,0 4.380969,-0.402642 4.380969,-1.949842 0,-1.547201 -1.790565,-3.253317 -3.887339,-2.8029 -2.26922,0.487461 -3.887341,1.255699 -3.887341,2.8029 z"
       id="path2526-3"
       sodipodi:nodetypes="csssc"
       inkscape:connector-curvature="0" />
    <path
       inkscape:connector-curvature="0"
       style="display:inline;overflow:visible;visibility:visible;opacity:1;fill:#48942f;fill-opacity:1;fill-rule:evenodd;stroke:#000000;stroke-width:0.49999991;stroke-linecap:round;stroke-linejoin:miter;stroke-miterlimit:4;stroke-dasharray:none;stroke-dashoffset:0;stroke-opacity:1;marker:none;marker-start:none;marker-mid:none;marker-end:none;enable-background:accumulate"
       d="M 23.707231,55.315101 C 22.998587,55.266302 19.31104,62.233713 17.498888,69.214647 14.538216,62.530694 9.6522385,55.855635 9.0457199,56.192601 8.6432254,56.416197 8.8021682,59.803874 9.5718507,64.019868 6.0149577,61.872342 3.0783528,60.538002 2.8373768,60.895979 c -0.2435529,0.36177 1.2492047,3.038109 3.6127635,6.21268 -0.2908922,1.122448 -0.5838841,2.45568 -0.8418081,3.966282 -2.7244991,-3.55527 -5.2408795,-6.088781 -5.6120597,-5.82658 -0.48314174,0.341275 0.49043445,5.779408 2.5605008,11.372357 -4.587834,-3.067409 -8.9983717,-5.179093 -9.2949758,-4.738481 -0.277437,0.412125 1.6746928,3.842909 4.6299497,7.581567 -5.3326472,-0.841807 -10.0512622,-0.90123 -10.1367842,-0.386087 -0.04252,0.256145 0.853443,1.002632 2.279899,1.965594 -3.524398,-0.335773 -6.179874,-0.277438 -6.243417,0.105291 -0.09608,0.578626 4.384156,3.660688 9.7509548,6.107374 -4.4346568,1.034857 -7.8745028,2.321206 -7.7867358,2.77289 0.191011,0.982961 15.3660893,4.140119 23.0796051,1.263591 7.5381799,2.424069 20.7738659,1.340854 21.2206039,0.456299 7.026924,0.66082 14.611374,-0.141323 14.626435,-0.807297 0.0095,-0.425825 -2.571302,-1.829626 -6.138192,-3.194088 5.189277,-0.937577 9.48484,-2.372473 9.400201,-2.878187 -0.123571,-0.738332 -8.581844,-2.911929 -16.099598,-2.84309 4.733218,-3.115043 8.506415,-6.496917 8.207635,-6.949771 -0.311735,-0.472481 -5.317234,0.24237 -10.697988,1.965594 2.669527,-5.760248 4.267795,-11.698995 3.717989,-11.933948 -0.316275,-0.13515 -1.848125,1.077472 -3.788142,3.018586 1.138438,-3.799478 1.655571,-6.807453 1.262715,-6.949771 -0.480633,-0.174123 -3.459399,2.718664 -6.453868,6.66897 0.635736,-6.333449 0.211978,-12.489472 -0.385821,-12.530651 z"
       id="path12528"
       sodipodi:nodetypes="ccscsccscscscscsccscscscscscc" />
    <path
       style="display:inline;overflow:visible;visibility:visible;fill:#717171;fill-opacity:1;fill-rule:evenodd;stroke:#000000;stroke-width:0.49999997;stroke-linecap:butt;stroke-linejoin:miter;stroke-miterlimit:4;stroke-dasharray:none;stroke-dashoffset:0;stroke-opacity:1;marker:none;enable-background:accumulate"
       d="m 76.805554,91.051735 c 0,2.383198 -1.898149,3.0034 -5.162095,3.0034 -3.263945,0 -6.663794,-0.620202 -6.663794,-3.0034 0,-2.383198 2.723588,-5.011179 5.912944,-4.317388 3.451659,0.75085 5.912945,1.93419 5.912945,4.317388 z"
       id="path2526"
       sodipodi:nodetypes="csssc"
       inkscape:connector-curvature="0" />
    <path
       sodipodi:nodetypes="ccscsccscscscscsccscscscscscc"
       id="path4502"
       d="m 7.0148201,61.729194 c 0.708644,-0.0488 4.3961909,6.918612 6.2083429,13.899546 2.960672,-6.683953 7.846649,-13.359012 8.453168,-13.022046 0.402494,0.223596 0.243551,3.611273 -0.526131,7.827267 3.556893,-2.147526 6.493498,-3.481866 6.734474,-3.123889 0.243553,0.36177 -1.249205,3.038109 -3.612764,6.21268 0.290893,1.122448 0.583884,2.45568 0.841808,3.966282 2.7245,-3.55527 5.24088,-6.088781 5.61206,-5.82658 0.483142,0.341275 -0.490434,5.779408 -2.560501,11.372357 4.587834,-3.067409 8.998372,-5.179093 9.294976,-4.738481 0.277437,0.412125 -1.674693,3.842909 -4.62995,7.581567 5.332648,-0.841807 10.051263,-0.90123 10.136785,-0.386087 0.04252,0.256145 -0.853443,1.002632 -2.279899,1.965594 3.524398,-0.335773 6.179874,-0.277438 6.243417,0.105291 0.09608,0.578626 -4.384156,3.660688 -9.750955,6.107374 4.434657,1.034857 7.874503,2.321206 7.786736,2.77289 -0.191011,0.982956 -15.36609,4.140121 -23.079605,1.263586 -7.53818,2.424075 -20.7738659,1.34086 -21.22060387,0.4563 -7.02692403,0.66082 -14.61137413,-0.14132 -14.62643513,-0.80729 -0.0095,-0.425828 2.571302,-1.829629 6.1381921,-3.194091 -5.1892771,-0.937577 -9.4848401,-2.372473 -9.4002011,-2.878187 0.123571,-0.738332 8.5818441,-2.911929 16.0995981,-2.84309 -4.733218,-3.115043 -8.506415,-6.496917 -8.207635,-6.949771 0.311735,-0.472481 5.317234,0.24237 10.697988,1.965594 -2.669527,-5.760248 -4.267795,-11.698995 -3.717989,-11.933948 0.316275,-0.13515 1.84812503,1.077472 3.788142,3.018586 -1.13843797,-3.799478 -1.65557097,-6.807453 -1.26271497,-6.949771 0.480633,-0.174123 3.45939897,2.718664 6.45386797,6.66897 -0.635736,-6.333449 -0.211978,-12.489472 0.385821,-12.530651 z"
       style="display:inline;overflow:visible;visibility:visible;opacity:1;fill:#53ab36;fill-opacity:1;fill-rule:evenodd;stroke:#000000;stroke-width:0.49999991;stroke-linecap:round;stroke-linejoin:miter;stroke-miterlimit:4;stroke-dasharray:none;stroke-dashoffset:0;stroke-opacity:1;marker:none;marker-start:none;marker-mid:none;marker-end:none;enable-background:accumulate"
       inkscape:connector-curvature="0" />
    <path
       style="display:inline;overflow:visible;visibility:visible;fill:#4ebc36;fill-opacity:1;fill-rule:evenodd;stroke:#000000;stroke-width:0.49999994;stroke-linecap:round;stroke-linejoin:miter;stroke-miterlimit:4;stroke-dashoffset:0;stroke-opacity:1;marker:none;marker-start:none;marker-mid:none;marker-end:none;enable-background:accumulate"
       d="M 5.9199219 80.242188 C 5.3932022 80.309264 4.9352554 83.191597 4.8007812 85.966797 C 2.6560031 84.92763 0.4909465 84.15889 0.19140625 84.501953 C -0.33371316 85.103357 3.1997924 90.522123 5.2128906 92.240234 C 5.6654707 92.626444 6.0781949 92.896604 6.4648438 93.083984 C 6.5758808 93.274085 6.7023382 93.453107 6.8574219 93.605469 C 7.1429176 94.049984 7.6671634 94.382313 8.484375 94.558594 C 9.230793 95.542401 9.9944376 96.435015 10.615234 96.964844 C 11.067814 97.351054 11.480538 97.623167 11.867188 97.810547 C 11.978224 98.000648 12.102728 98.179669 12.257812 98.332031 C 12.666474 98.968315 13.52569 99.396693 15.105469 99.425781 C 17.61344 99.471971 23.549347 97.946565 23.560547 97.253906 C 23.564847 96.985041 22.713115 96.561102 21.53125 96.146484 C 23.692595 94.864476 25.511774 93.519254 25.384766 93.076172 C 25.235577 92.555717 22.311281 92.378718 19.384766 92.517578 C 21.18294 89.838453 22.843006 86.637856 22.431641 86.216797 C 22.117507 85.895265 20.243923 86.694558 18.189453 87.839844 C 17.054187 87.733614 15.524769 87.717833 13.982422 87.791016 C 15.780596 85.111891 17.440662 81.911293 17.029297 81.490234 C 16.516739 80.965604 11.863927 83.417922 9.0214844 85.505859 C 7.9230495 82.860882 6.4389938 80.176097 5.9199219 80.242188 z "
       id="path4404" />
    <path
       inkscape:connector-curvature="0"
       style="display:inline;overflow:visible;visibility:visible;fill:#4ebc36;fill-opacity:1;fill-rule:evenodd;stroke:#000000;stroke-width:0.49999988;stroke-linecap:round;stroke-linejoin:miter;stroke-miterlimit:4;stroke-dashoffset:0;stroke-opacity:1;marker:none;marker-start:none;marker-mid:none;marker-end:none;enable-background:accumulate"
       d="m 7.6642319,86.438656 c -0.667747,-0.0708 -2.517885,4.37193 -3.303506,7.50238 -2.3187781,-1.22347 -4.9332866,-2.24921 -5.2607649,-1.89972 -0.3322954,0.35465 1.0278453,2.65358 2.5531709,4.68828 -2.1192125,0.51903 -4.0945251,1.24041 -4.1054878,1.65702 -0.019227,0.73035 5.6361663,2.487514 8.0588818,2.523894 0.544639,0.008 0.994189,-0.0417 1.376256,-0.13517 0.189286,0.0692 0.381662,0.12261 0.579979,0.13946 0.659659,0.21005 1.515274,0.0111 2.6463531,-0.89052 1.795645,-1.430924 5.092255,-5.970294 4.69578,-6.465094 -0.153899,-0.19205 -1.002484,0.006 -2.078019,0.40435 0.775798,-2.16489 1.272215,-4.17546 0.923975,-4.41367 -0.409054,-0.27981 -2.574624,1.30222 -4.5574041,3.10781 -0.295957,-2.9378 -0.993297,-6.1622 -1.529214,-6.21897 z"
       id="path4404-1"
       inkscape:transform-center-x="7.5892143e-005"
       inkscape:transform-center-y="-3.2197966" />
    <g
       transform="translate(-72.600708,-6.54087)"
       id="g4308">
      <path
         style="display:inline;overflow:visible;visibility:visible;fill:#dbce57;fill-opacity:1;fill-rule:evenodd;stroke:#000000;stroke-width:0.5;stroke-linecap:round;stroke-linejoin:round;stroke-miterlimit:4;stroke-dasharray:none;stroke-dashoffset:0;stroke-opacity:1;marker:none;marker-start:none;marker-mid:none;marker-end:none;enable-background:accumulate"
         d="m 114.09875,66.676246 c 0,1.64039 -0.97281,1.86929 -2.17143,1.86929 -1.19864,0 -2.17143,-0.2289 -2.17143,-1.86929 0,-1.64039 0.97279,-2.97172 2.17143,-2.97172 1.19862,0 2.17143,1.33133 2.17143,2.97172 z"
         id="path3872"
         sodipodi:nodetypes="csssc"
         inkscape:connector-curvature="0" />
      <path
         style="display:inline;overflow:visible;visibility:visible;fill:#d40000;fill-opacity:1;fill-rule:evenodd;stroke:#000000;stroke-width:0.5;stroke-linecap:round;stroke-linejoin:round;stroke-miterlimit:4;stroke-dasharray:none;stroke-dashoffset:0;stroke-opacity:1;marker:none;marker-start:none;marker-mid:none;marker-end:none;enable-background:accumulate"
         d="m 111.7607,59.044936 c -2.20031,0 -3.9869,1.64965 -3.9869,3.68701 0,0.64802 0.18389,1.25946 0.50109,1.78896 0.003,0.002 0.005,0.006 0.007,0.007 0.59761,0.36288 1.92871,0.61814 3.47855,0.61814 1.55,0 2.88623,-0.25526 3.48581,-0.61814 0.002,-0.003 0.006,-0.004 0.007,-0.007 0.31706,-0.52942 0.49382,-1.14109 0.49382,-1.78896 0,-2.03736 -1.78658,-3.68701 -3.9869,-3.68701 z"
         id="path3874"
         inkscape:connector-curvature="0" />
      <ellipse
         style="display:inline;overflow:visible;visibility:visible;fill:#fcfbf0;fill-opacity:1;fill-rule:evenodd;stroke:none;stroke-width:0.5;stroke-linecap:round;stroke-linejoin:round;stroke-miterlimit:4;stroke-dasharray:none;stroke-dashoffset:0;stroke-opacity:1;marker:none;marker-start:none;marker-mid:none;marker-end:none;enable-background:accumulate"
         id="path3876"
         cx="110.43472"
         cy="61.40926"
         rx="0.81900215"
         ry="0.84172207" />
      <ellipse
         id="path3878"
         style="display:inline;overflow:visible;visibility:visible;fill:#fcfbf0;fill-opacity:1;fill-rule:evenodd;stroke:none;stroke-width:0.5;stroke-linecap:round;stroke-linejoin:round;stroke-miterlimit:4;stroke-dasharray:none;stroke-dashoffset:0;stroke-opacity:1;marker:none;marker-start:none;marker-mid:none;marker-end:none;enable-background:accumulate"
         transform="matrix(0.96416285,-0.26531112,0.26462725,0.96435078,0,0)"
         cx="88.14222"
         cy="89.987968"
         rx="0.64664376"
         ry="0.84164017" />
      <ellipse
         id="path3880"
         style="display:inline;overflow:visible;visibility:visible;fill:#fcfbf0;fill-opacity:1;fill-rule:evenodd;stroke:none;stroke-width:0.5;stroke-linecap:round;stroke-linejoin:round;stroke-miterlimit:4;stroke-dasharray:none;stroke-dashoffset:0;stroke-opacity:1;marker:none;marker-start:none;marker-mid:none;marker-end:none;enable-background:accumulate"
         cx="112.07272"
         cy="63.653851"
         rx="0.81900215"
         ry="0.84172207" />
      <ellipse
         transform="matrix(-0.34679455,0.93794112,-0.93762729,-0.34764215,0,0)"
         style="display:inline;overflow:visible;visibility:visible;fill:#fcfbf0;fill-opacity:1;fill-rule:evenodd;stroke:none;stroke-width:0.5;stroke-linecap:round;stroke-linejoin:round;stroke-miterlimit:4;stroke-dasharray:none;stroke-dashoffset:0;stroke-opacity:1;marker:none;marker-start:none;marker-mid:none;marker-end:none;enable-background:accumulate"
         id="path3882"
         cx="17.214819"
         cy="-126.72268"
         rx="0.6473704"
         ry="0.84069556" />
      <ellipse
         transform="matrix(0.9961934,-0.08717063,0.08693078,0.99621435,0,0)"
         style="display:inline;overflow:visible;visibility:visible;fill:#fcfbf0;fill-opacity:1;fill-rule:evenodd;stroke:none;stroke-width:0.5;stroke-linecap:round;stroke-linejoin:round;stroke-miterlimit:4;stroke-dasharray:none;stroke-dashoffset:0;stroke-opacity:1;marker:none;marker-start:none;marker-mid:none;marker-end:none;enable-background:accumulate"
         id="path3884"
         cx="108.62109"
         cy="72.2304"
         rx="0.64658761"
         ry="0.84171325" />
    </g>
  </g>
</svg>
