<?xml version="1.0" encoding="UTF-8" standalone="no"?>
<svg
   xmlns:dc="http://purl.org/dc/elements/1.1/"
   xmlns:cc="http://creativecommons.org/ns#"
   xmlns:rdf="http://www.w3.org/1999/02/22-rdf-syntax-ns#"
   xmlns:svg="http://www.w3.org/2000/svg"
   xmlns="http://www.w3.org/2000/svg"
   xmlns:sodipodi="http://sodipodi.sourceforge.net/DTD/sodipodi-0.dtd"
   xmlns:inkscape="http://www.inkscape.org/namespaces/inkscape"
   height="100%"
   width="100%"
   version="1.1"
   id="svg2"
   viewBox="0 0 40 30"
   inkscape:version="0.91 r13725"
   sodipodi:docname="p006.svg">
  <metadata
     id="metadata103">
    <rdf:RDF>
      <cc:Work
         rdf:about="">
        <dc:format>image/svg+xml</dc:format>
        <dc:type
           rdf:resource="http://purl.org/dc/dcmitype/StillImage" />
        <dc:title />
      </cc:Work>
    </rdf:RDF>
  </metadata>
  <sodipodi:namedview
     pagecolor="#ffffff"
     bordercolor="#666666"
     borderopacity="1"
     objecttolerance="10"
     gridtolerance="10"
     guidetolerance="10"
     inkscape:pageopacity="0"
     inkscape:pageshadow="2"
     inkscape:window-width="1031"
     inkscape:window-height="711"
     id="namedview101"
     showgrid="false"
     inkscape:zoom="5.9314015"
     inkscape:cx="27.46338"
     inkscape:cy="15.604663"
     inkscape:window-x="95"
     inkscape:window-y="199"
     inkscape:window-maximized="0"
     inkscape:current-layer="svg2" />
  <defs
     id="defs4" />
  <rect
     style="fill:#5f717c;stroke-width:4.30000019;stroke-linecap:butt;marker:none;fill-opacity:1"
     id="rect4625"
     width="40"
     height="30"
     x="0"
     y="0"
     rx="0"
     ry="0" />
  <g
     id="g4498"
     transform="translate(1.0115653,-1.2644566)">
    <rect
       transform="scale(-1,1)"
       style="fill:#932e26;stroke:#000000;stroke-width:0.5;stroke-linecap:butt;marker:none"
       id="rect5732"
       width="107.95"
       height="9.6029997"
       x="12.504979"
       y="7.4725223" />
    <rect
       transform="scale(-1,1)"
       style="fill:#800000;stroke:#000000;stroke-width:0.498;stroke-linecap:butt;marker:none"
       id="rect5734"
       width="107.95"
       height="21.834"
       x="12.504979"
       y="16.446526" />
    <rect
       transform="scale(-1,1)"
       y="22.856522"
       x="13.396977"
       height="4.4130001"
       width="9.585"
       id="rect5736"
       style="fill:#a02c2c;stroke-width:0.5;marker:none" />
    <rect
       transform="scale(-1,1)"
       y="17.778526"
       x="18.356976"
       height="4.4130001"
       width="9.585"
       id="rect5738"
       style="fill:#a02c2c;stroke-width:0.5;marker:none" />
    <rect
       transform="scale(-1,1)"
       y="22.856522"
       x="23.940975"
       height="4.4130001"
       width="9.585"
       id="rect5740"
       style="fill:#a02c2c;stroke-width:0.5;marker:none" />
    <rect
       transform="scale(-1,1)"
       y="17.778526"
       x="28.900974"
       height="4.4130001"
       width="9.585"
       id="rect5742"
       style="fill:#a02c2c;stroke-width:0.5;marker:none" />
    <rect
       transform="scale(-1,1)"
       y="22.856522"
       x="34.486973"
       height="4.4130001"
       width="9.585"
       id="rect5744"
       style="fill:#a02c2c;stroke-width:0.5;marker:none" />
    <rect
       transform="scale(-1,1)"
       y="17.778526"
       x="39.44698"
       height="4.4130001"
       width="9.585"
       id="rect5746"
       style="fill:#a02c2c;stroke-width:0.5;marker:none" />
    <rect
       transform="scale(-1,1)"
       y="22.856522"
       x="45.031979"
       height="4.4130001"
       width="9.585"
       id="rect5748"
       style="fill:#a02c2c;stroke-width:0.5;marker:none" />
    <rect
       transform="scale(-1,1)"
       y="17.778526"
       x="49.991978"
       height="4.4130001"
       width="9.585"
       id="rect5750"
       style="fill:#a02c2c;stroke-width:0.5;marker:none" />
    <rect
       transform="scale(-1,1)"
       y="22.856522"
       x="55.576977"
       height="4.4130001"
       width="9.585"
       id="rect5752"
       style="fill:#a02c2c;stroke-width:0.5;marker:none" />
    <rect
       transform="scale(-1,1)"
       y="17.778526"
       x="60.536976"
       height="4.4130001"
       width="9.585"
       id="rect5754"
       style="fill:#a02c2c;stroke-width:0.5;marker:none" />
    <rect
       transform="scale(-1,1)"
       y="22.856522"
       x="66.121979"
       height="4.4130001"
       width="9.585"
       id="rect5756"
       style="fill:#a02c2c;stroke-width:0.5;marker:none" />
    <rect
       transform="scale(-1,1)"
       y="17.778526"
       x="71.081978"
       height="4.4130001"
       width="9.585"
       id="rect5758"
       style="fill:#a02c2c;stroke-width:0.5;marker:none" />
    <rect
       transform="scale(-1,1)"
       y="22.856522"
       x="76.666977"
       height="4.4130001"
       width="9.585"
       id="rect5760"
       style="fill:#a02c2c;stroke-width:0.5;marker:none" />
    <rect
       transform="scale(-1,1)"
       y="17.778526"
       x="81.626984"
       height="4.4130001"
       width="9.585"
       id="rect5762"
       style="fill:#a02c2c;stroke-width:0.5;marker:none" />
    <rect
       transform="scale(-1,1)"
       y="22.856522"
       x="87.211975"
       height="4.4130001"
       width="9.585"
       id="rect5764"
       style="fill:#a02c2c;stroke-width:0.5;marker:none" />
    <rect
       transform="scale(-1,1)"
       style="fill:#a02c2c;stroke-width:0.5;marker:none"
       id="rect5766"
       width="4.0679998"
       height="4.4130001"
       x="13.328977"
       y="17.778526" />
    <rect
       transform="scale(-1,1)"
       style="fill:#a02c2c;stroke-width:0.5;marker:none"
       id="rect5768"
       width="9.585"
       height="4.4130001"
       x="13.396977"
       y="32.978523" />
    <rect
       transform="scale(-1,1)"
       style="fill:#a02c2c;stroke-width:0.5;marker:none"
       id="rect5770"
       width="9.585"
       height="4.4130001"
       x="18.356976"
       y="27.90052" />
    <rect
       transform="scale(-1,1)"
       style="fill:#a02c2c;stroke-width:0.5;marker:none"
       id="rect5772"
       width="9.585"
       height="4.4130001"
       x="23.940975"
       y="32.978523" />
    <rect
       transform="scale(-1,1)"
       style="fill:#a02c2c;stroke-width:0.5;marker:none"
       id="rect5774"
       width="9.585"
       height="4.4130001"
       x="28.900974"
       y="27.90052" />
    <rect
       transform="scale(-1,1)"
       style="fill:#a02c2c;stroke-width:0.5;marker:none"
       id="rect5776"
       width="9.585"
       height="4.4130001"
       x="34.486973"
       y="32.978523" />
    <rect
       transform="scale(-1,1)"
       style="fill:#a02c2c;stroke-width:0.5;marker:none"
       id="rect5778"
       width="9.585"
       height="4.4130001"
       x="39.44698"
       y="27.90052" />
    <rect
       transform="scale(-1,1)"
       style="fill:#a02c2c;stroke-width:0.5;marker:none"
       id="rect5780"
       width="9.585"
       height="4.4130001"
       x="45.031979"
       y="32.978523" />
    <rect
       transform="scale(-1,1)"
       style="fill:#a02c2c;stroke-width:0.5;marker:none"
       id="rect5782"
       width="9.585"
       height="4.4130001"
       x="49.991978"
       y="27.90052" />
    <rect
       transform="scale(-1,1)"
       style="fill:#a02c2c;stroke-width:0.5;marker:none"
       id="rect5784"
       width="9.585"
       height="4.4130001"
       x="55.576977"
       y="32.978523" />
    <rect
       transform="scale(-1,1)"
       style="fill:#a02c2c;stroke-width:0.5;marker:none"
       id="rect5786"
       width="9.585"
       height="4.4130001"
       x="60.536976"
       y="27.90052" />
    <rect
       transform="scale(-1,1)"
       style="fill:#a02c2c;stroke-width:0.5;marker:none"
       id="rect5788"
       width="9.585"
       height="4.4130001"
       x="66.121979"
       y="32.978523" />
    <rect
       transform="scale(-1,1)"
       style="fill:#a02c2c;stroke-width:0.5;marker:none"
       id="rect5790"
       width="9.585"
       height="4.4130001"
       x="71.081978"
       y="27.90052" />
    <rect
       transform="scale(-1,1)"
       style="fill:#a02c2c;stroke-width:0.5;marker:none"
       id="rect5792"
       width="9.585"
       height="4.4130001"
       x="76.666977"
       y="32.978523" />
    <rect
       transform="scale(-1,1)"
       style="fill:#a02c2c;stroke-width:0.5;marker:none"
       id="rect5794"
       width="9.585"
       height="4.4130001"
       x="81.626984"
       y="27.90052" />
    <rect
       transform="scale(-1,1)"
       style="fill:#a02c2c;stroke-width:0.5;marker:none"
       id="rect5796"
       width="9.585"
       height="4.4130001"
       x="87.211975"
       y="32.978523" />
    <rect
       transform="scale(-1,1)"
       y="27.90052"
       x="13.328977"
       height="4.4130001"
       width="4.0679998"
       id="rect5798"
       style="fill:#a02c2c;stroke-width:0.5;marker:none" />
    <rect
       transform="scale(-1,1)"
       style="fill:#a02c2c;stroke-width:0.5;marker:none"
       id="rect5800"
       width="9.585"
       height="4.4130001"
       x="97.593979"
       y="22.856522" />
    <rect
       transform="scale(-1,1)"
       style="fill:#a02c2c;stroke-width:0.5;marker:none"
       id="rect5802"
       width="9.585"
       height="4.4130001"
       x="102.55399"
       y="17.778526" />
    <rect
       transform="scale(-1,1)"
       style="fill:#a02c2c;stroke-width:0.5;marker:none"
       id="rect5804"
       width="9.585"
       height="4.4130001"
       x="108.13898"
       y="22.856522" />
    <rect
       transform="scale(-1,1)"
       y="17.778526"
       x="92.008987"
       height="4.4130001"
       width="9.585"
       id="rect5806"
       style="fill:#a02c2c;stroke-width:0.5;marker:none" />
    <rect
       transform="scale(-1,1)"
       y="32.978523"
       x="97.593979"
       height="4.4130001"
       width="9.585"
       id="rect5808"
       style="fill:#a02c2c;stroke-width:0.5;marker:none" />
    <rect
       transform="scale(-1,1)"
       y="27.90052"
       x="102.55399"
       height="4.4130001"
       width="9.585"
       id="rect5810"
       style="fill:#a02c2c;stroke-width:0.5;marker:none" />
    <rect
       transform="scale(-1,1)"
       y="32.978523"
       x="108.13898"
       height="4.4130001"
       width="9.585"
       id="rect5812"
       style="fill:#a02c2c;stroke-width:0.5;marker:none" />
    <rect
       transform="scale(-1,1)"
       style="fill:#a02c2c;stroke-width:0.5;marker:none"
       id="rect5814"
       width="9.585"
       height="4.4130001"
       x="92.008987"
       y="27.90052" />
    <rect
       transform="scale(-1,1)"
       y="14.488524"
       x="12.504979"
       height="2.5869999"
       width="107.95"
       id="rect5816"
       style="fill:#800000;stroke:#000000;stroke-width:0.498;stroke-linecap:butt;marker:none" />
    <path
       inkscape:connector-curvature="0"
       style="fill:#c2a764;stroke-width:0.49900001;marker:none"
       d="m 2.164021,3.327233 c -8.112,0 -14.625,5.712912 -14.625,12.797307 l 0,2.214801 0,15.947091 0,1.254501 29.28,0 0,-1.254501 0,-15.947091 0,-2.214801 c 0,-7.084395 -6.541,-12.797307 -14.654,-12.797307 z"
       id="rect6184" />
    <path
       inkscape:connector-curvature="0"
       style="fill:#9d813e;stroke-width:0.49900001;marker:none"
       d="m 2.164021,5.542907 c -8.112,0 -14.625,5.712912 -14.625,12.797307 l 0,17.208576 29.28,0 0,-17.208576 c 0,-7.084395 -6.541,-12.797307 -14.654,-12.797307 z"
       id="path6191" />
    <path
       inkscape:connector-curvature="0"
       style="fill:none;stroke:#54452f;stroke-width:0.49987444;stroke-linecap:butt;stroke-opacity:1"
       d="m -8.037979,6.812249 0,28.594242"
       id="path6201" />
    <path
       inkscape:connector-curvature="0"
       id="path6203"
       d="m 12.393021,6.812249 0,28.594242"
       style="fill:none;stroke:#54452f;stroke-width:0.49987444;stroke-linecap:butt;stroke-opacity:1" />
    <path
       inkscape:connector-curvature="0"
       id="path6207"
       d="m 5.641021,3.807383 0,31.709106"
       style="fill:none;stroke:#54452f;stroke-width:0.49987444;stroke-linecap:butt;stroke-opacity:1" />
    <path
       inkscape:connector-curvature="0"
       style="fill:none;stroke:#54452f;stroke-width:0.49987444;stroke-linecap:butt;stroke-opacity:1"
       d="m -1.285979,3.807383 0,31.709106"
       id="path6209" />
    <path
       inkscape:connector-curvature="0"
       id="path6199"
       d="m 2.192021,3.327233 c 8.112,0 14.625,5.712912 14.625,12.797307 l 0,2.214801 0,15.947091 0,1.254501 -29.279,0 0,-1.254501 0,-15.947091 0,-2.214801 c 0,-7.084395 6.541,-12.797307 14.654,-12.797307 z"
       style="fill:none;stroke:#000000;stroke-width:0.49987444;marker:none" />
    <rect
       style="fill:#5d5d5d;stroke:#000000;stroke-width:0.49987444;stroke-linecap:round;marker:none"
       id="rect6213"
       width="6.04"
       height="9.2878466"
       x="-11.022979"
       y="18.794174"
       rx="2.3629999"
       ry="2.063772" />
    <ellipse
       ry="1.662192"
       rx="1.903"
       cy="21.83309"
       cx="-8.067977"
       style="fill:#6d6d6d;stroke:#000000;stroke-width:0.49987444;stroke-linecap:round;marker:none"
       id="path6211" />
    <path
       inkscape:connector-curvature="0"
       style="fill:#000000;stroke-width:0.5;marker:none"
       d="m -8.206979,24.148283 c -0.581,0 -1.042,0.402453 -1.042,0.910539 0,0.316899 0.2,0.573561 0.479,0.737685 l 0,0.885222 c 0,0.252297 0.217,0.442611 0.507,0.442611 l 0.112,0 c 0.289,0 0.535,-0.189441 0.535,-0.442611 l 0,-0.885222 c 0.278,-0.164124 0.45,-0.420786 0.45,-0.737685 0,-0.507213 -0.461,-0.910539 -1.042,-0.910539 z"
       id="rect6215" />
    <rect
       y="7.4725223"
       x="17.057022"
       height="9.6029997"
       width="107.95"
       id="rect5683"
       style="fill:#932e26;stroke:#000000;stroke-width:0.5;stroke-linecap:butt;marker:none" />
    <rect
       y="16.446526"
       x="17.057022"
       height="21.834"
       width="107.95"
       id="rect5131"
       style="fill:#800000;stroke:#000000;stroke-width:0.498;stroke-linecap:butt;marker:none" />
    <rect
       style="fill:#a02c2c;stroke-width:0.5;marker:none"
       id="rect5133"
       width="9.585"
       height="4.4130001"
       x="17.94902"
       y="22.856522" />
    <rect
       style="fill:#a02c2c;stroke-width:0.5;marker:none"
       id="rect5135"
       width="9.585"
       height="4.4130001"
       x="22.909019"
       y="17.778526" />
    <rect
       style="fill:#a02c2c;stroke-width:0.5;marker:none"
       id="rect5137"
       width="9.585"
       height="4.4130001"
       x="28.493019"
       y="22.856522" />
    <rect
       style="fill:#a02c2c;stroke-width:0.5;marker:none"
       id="rect5139"
       width="9.585"
       height="4.4130001"
       x="33.453018"
       y="17.778526" />
    <rect
       style="fill:#a02c2c;stroke-width:0.5;marker:none"
       id="rect5141"
       width="9.585"
       height="4.4130001"
       x="39.039017"
       y="22.856522" />
    <rect
       style="fill:#a02c2c;stroke-width:0.5;marker:none"
       id="rect5143"
       width="9.585"
       height="4.4130001"
       x="43.999023"
       y="17.778526" />
    <rect
       style="fill:#a02c2c;stroke-width:0.5;marker:none"
       id="rect5145"
       width="9.585"
       height="4.4130001"
       x="49.584023"
       y="22.856522" />
    <rect
       style="fill:#a02c2c;stroke-width:0.5;marker:none"
       id="rect5147"
       width="9.585"
       height="4.4130001"
       x="54.544022"
       y="17.778526" />
    <rect
       style="fill:#a02c2c;stroke-width:0.5;marker:none"
       id="rect5149"
       width="9.585"
       height="4.4130001"
       x="60.129021"
       y="22.856522" />
    <rect
       style="fill:#a02c2c;stroke-width:0.5;marker:none"
       id="rect5152"
       width="9.585"
       height="4.4130001"
       x="65.08902"
       y="17.778526" />
    <rect
       style="fill:#a02c2c;stroke-width:0.5;marker:none"
       id="rect5154"
       width="9.585"
       height="4.4130001"
       x="70.674019"
       y="22.856522" />
    <rect
       style="fill:#a02c2c;stroke-width:0.5;marker:none"
       id="rect5156"
       width="9.585"
       height="4.4130001"
       x="75.634018"
       y="17.778526" />
    <rect
       style="fill:#a02c2c;stroke-width:0.5;marker:none"
       id="rect5159"
       width="9.585"
       height="4.4130001"
       x="81.219017"
       y="22.856522" />
    <rect
       style="fill:#a02c2c;stroke-width:0.5;marker:none"
       id="rect5161"
       width="9.585"
       height="4.4130001"
       x="86.179024"
       y="17.778526" />
    <rect
       style="fill:#a02c2c;stroke-width:0.5;marker:none"
       id="rect5163"
       width="9.585"
       height="4.4130001"
       x="91.764015"
       y="22.856522" />
    <rect
       y="17.778526"
       x="17.88102"
       height="4.4130001"
       width="4.0679998"
       id="rect5165"
       style="fill:#a02c2c;stroke-width:0.5;marker:none" />
    <rect
       y="32.978523"
       x="17.94902"
       height="4.4130001"
       width="9.585"
       id="rect5167"
       style="fill:#a02c2c;stroke-width:0.5;marker:none" />
    <rect
       y="27.90052"
       x="22.909019"
       height="4.4130001"
       width="9.585"
       id="rect5169"
       style="fill:#a02c2c;stroke-width:0.5;marker:none" />
    <rect
       y="32.978523"
       x="28.493019"
       height="4.4130001"
       width="9.585"
       id="rect5171"
       style="fill:#a02c2c;stroke-width:0.5;marker:none" />
    <rect
       y="27.90052"
       x="33.453018"
       height="4.4130001"
       width="9.585"
       id="rect5174"
       style="fill:#a02c2c;stroke-width:0.5;marker:none" />
    <rect
       y="32.978523"
       x="39.039017"
       height="4.4130001"
       width="9.585"
       id="rect5176"
       style="fill:#a02c2c;stroke-width:0.5;marker:none" />
    <rect
       y="27.90052"
       x="43.999023"
       height="4.4130001"
       width="9.585"
       id="rect5178"
       style="fill:#a02c2c;stroke-width:0.5;marker:none" />
    <rect
       y="32.978523"
       x="49.584023"
       height="4.4130001"
       width="9.585"
       id="rect5180"
       style="fill:#a02c2c;stroke-width:0.5;marker:none" />
    <rect
       y="27.90052"
       x="54.544022"
       height="4.4130001"
       width="9.585"
       id="rect5182"
       style="fill:#a02c2c;stroke-width:0.5;marker:none" />
    <rect
       y="32.978523"
       x="60.129021"
       height="4.4130001"
       width="9.585"
       id="rect5184"
       style="fill:#a02c2c;stroke-width:0.5;marker:none" />
    <rect
       y="27.90052"
       x="65.08902"
       height="4.4130001"
       width="9.585"
       id="rect5186"
       style="fill:#a02c2c;stroke-width:0.5;marker:none" />
    <rect
       y="32.978523"
       x="70.674019"
       height="4.4130001"
       width="9.585"
       id="rect5188"
       style="fill:#a02c2c;stroke-width:0.5;marker:none" />
    <rect
       y="27.90052"
       x="75.634018"
       height="4.4130001"
       width="9.585"
       id="rect5190"
       style="fill:#a02c2c;stroke-width:0.5;marker:none" />
    <rect
       y="32.978523"
       x="81.219017"
       height="4.4130001"
       width="9.585"
       id="rect5192"
       style="fill:#a02c2c;stroke-width:0.5;marker:none" />
    <rect
       y="27.90052"
       x="86.179024"
       height="4.4130001"
       width="9.585"
       id="rect5194"
       style="fill:#a02c2c;stroke-width:0.5;marker:none" />
    <rect
       y="32.978523"
       x="91.764015"
       height="4.4130001"
       width="9.585"
       id="rect5196"
       style="fill:#a02c2c;stroke-width:0.5;marker:none" />
    <rect
       style="fill:#a02c2c;stroke-width:0.5;marker:none"
       id="rect5198"
       width="4.0679998"
       height="4.4130001"
       x="17.88102"
       y="27.90052" />
    <rect
       y="22.856522"
       x="102.14602"
       height="4.4130001"
       width="9.585"
       id="rect5200"
       style="fill:#a02c2c;stroke-width:0.5;marker:none" />
    <rect
       y="17.778526"
       x="107.10603"
       height="4.4130001"
       width="9.585"
       id="rect5202"
       style="fill:#a02c2c;stroke-width:0.5;marker:none" />
    <rect
       y="22.856522"
       x="112.69102"
       height="4.4130001"
       width="9.585"
       id="rect5204"
       style="fill:#a02c2c;stroke-width:0.5;marker:none" />
    <rect
       style="fill:#a02c2c;stroke-width:0.5;marker:none"
       id="rect5230"
       width="9.585"
       height="4.4130001"
       x="96.561028"
       y="17.778526" />
    <rect
       style="fill:#a02c2c;stroke-width:0.5;marker:none"
       id="rect5232"
       width="9.585"
       height="4.4130001"
       x="102.14602"
       y="32.978523" />
    <rect
       style="fill:#a02c2c;stroke-width:0.5;marker:none"
       id="rect5234"
       width="9.585"
       height="4.4130001"
       x="107.10603"
       y="27.90052" />
    <rect
       style="fill:#a02c2c;stroke-width:0.5;marker:none"
       id="rect5236"
       width="9.585"
       height="4.4130001"
       x="112.69102"
       y="32.978523" />
    <rect
       y="27.90052"
       x="96.561028"
       height="4.4130001"
       width="9.585"
       id="rect5262"
       style="fill:#a02c2c;stroke-width:0.5;marker:none" />
    <rect
       style="fill:#800000;stroke:#000000;stroke-width:0.498;stroke-linecap:butt;marker:none"
       id="rect5264"
       width="107.95"
       height="2.5869999"
       x="17.057022"
       y="14.488524" />
  </g>
  <path
     style="color:#000000;clip-rule:nonzero;display:inline;overflow:visible;visibility:visible;opacity:1;isolation:auto;mix-blend-mode:normal;color-interpolation:sRGB;color-interpolation-filters:linearRGB;solid-color:#000000;solid-opacity:1;fill:none;fill-opacity:1;fill-rule:nonzero;stroke:#f4f4f4;stroke-width:2.5999999;stroke-linecap:butt;stroke-linejoin:miter;stroke-miterlimit:4;stroke-dasharray:none;stroke-dashoffset:0;stroke-opacity:1;marker:none;color-rendering:auto;image-rendering:auto;shape-rendering:auto;text-rendering:auto;enable-background:accumulate"
     d="m 15.558747,-2.8261719 c -15.05589831,0 -11.5019529,7.945976 -11.5019529,8.46875 0,0.3489831 0.1081012,0.5734594 0.3183594,0.7148438 -0.7515345,1.8035377 -1.2483199,3.7649741 -1.2128907,5.5742191 -1.5973101,0.32576 -0.8007034,3.429448 -0.3222656,4.091797 0.3869135,0.535633 1.1347167,0.944672 1.7109375,0.820312 0.7437409,1.51832 1.3386935,1.942526 1.6210938,2.337891 0.070209,-0.491464 0.1539614,-0.793303 0.2285156,-1.00586 0.7073871,0.917032 1.5668401,1.70052 2.5292968,2.359375 0.2264348,0.196031 0.4725938,0.389478 0.7324218,0.580078 0.047139,0.136733 0.106844,0.270201 0.175781,0.400391 -0.472684,0.818157 -0.603632,1.790095 -0.363281,2.755859 -0.137646,0.320724 -0.22781,0.529667 -0.367187,0.861328 -0.5220802,0.432069 -0.8709,1.067304 -0.9082035,1.798829 -0.00882,0.172991 -0.00149,0.345256 0.023437,0.509765 -0.028233,0.0898 -0.084427,0.229217 -0.1035156,0.302735 -0.409003,1.5753 -0.8966884,3.670336 -0.9121094,4.972656 0,1.840362 2.248179,2.248488 3.9199223,2.298828 l 0,5.992187 c 0,0.672872 0.543579,1.214844 1.21875,1.214844 l 7.255859,0 c 0.675171,0 1.21875,-0.541972 1.21875,-1.214844 l 0,-4 3.457031,0 c 1.18315,0 2.134766,-0.95357 2.134766,-2.136718 l 0,-5.332032 c 0,-0.796813 -0.436543,-1.480564 -1.080078,-1.847656 l 6.568359,1.908203 c 0.648381,0.188311 1.320144,-0.179998 1.507813,-0.826171 l 0.123047,-0.423829 c 0.653558,0.280923 1.302277,0.198391 1.542969,-0.255859 0.103808,-0.195836 0.06983,-0.453003 -0.0059,-0.681641 0.60683,0.06172 1.166749,-0.08731 1.398438,-0.521484 0.218638,-0.409596 0.0943,-0.943538 -0.244141,-1.388672 0.577815,-0.02939 1.057545,-0.239167 1.234375,-0.648437 0.25255,-0.584687 -0.216136,-1.320382 -1.023438,-1.769532 0.28236,-0.133812 0.506229,-0.336794 0.574219,-0.595703 0.156126,-0.590925 -0.438457,-1.25056 -1.339843,-1.492187 l 1.935546,-6.666016 c 0.187669,-0.646173 -0.18365,-1.317549 -0.832031,-1.505859 l -9.433594,-2.742188 c -0.08189,-1.1155803 -0.22628,-2.282954 -0.480468,-3.4023435 0.342382,-0.093853 0.515625,-0.3082056 0.515625,-0.7226563 0,-1.881987 3.241446,-8.7832031 -11.814454,-8.7832031 z m 7.273438,29.7929689 1.541016,0.447265 c -0.03243,-0.0014 -0.06291,-0.0098 -0.0957,-0.0098 l -1.294921,0 c -0.04232,-0.13249 -0.09224,-0.277308 -0.150391,-0.4375 z"
     id="path4661"
     inkscape:connector-curvature="0" />
  <path
     style="color:#000000;font-style:normal;font-variant:normal;font-weight:normal;font-stretch:normal;font-size:medium;line-height:normal;font-family:Sans;-inkscape-font-specification:Sans;text-indent:0;text-align:start;text-decoration:none;text-decoration-line:none;letter-spacing:normal;word-spacing:normal;text-transform:none;direction:ltr;block-progression:tb;writing-mode:lr-tb;baseline-shift:baseline;text-anchor:start;display:inline;overflow:visible;visibility:visible;fill:#5c4832;fill-opacity:1;stroke:#000000;stroke-width:0.5;stroke-miterlimit:4;stroke-dasharray:none;stroke-opacity:1;marker:none;enable-background:accumulate"
     d="m 17.514567,20.961296 -0.21875,1.28125 c 3.335109,0.58002 5.543116,1.9048 6.71875,3.25 1.175634,1.34519 1.310269,2.60312 0.78125,3.34375 l 1.03125,0.75 c 0.971493,-1.36009 0.612752,-3.30669 -0.8125,-4.9375 -1.425252,-1.63082 -3.932758,-3.06711 -7.5,-3.6875 z"
     id="path4672"
     inkscape:connector-curvature="0" />
  <path
     inkscape:connector-curvature="0"
     sodipodi:nodetypes="csccsc"
     id="path4654"
     d="m 19.765657,35.900436 c 1.508186,0 2.736797,0.94963 2.736797,2.11534 0,0.19573 -0.04065,1.08813 -0.105205,1.26803 -1.754357,0.47405 -3.508715,0.46451 -5.263072,0 -0.06288,-0.17772 -0.105205,-1.07495 -0.105205,-1.26803 0,-1.16571 1.228611,-2.11534 2.736797,-2.11534 z"
     style="display:inline;overflow:visible;visibility:visible;fill:#9d9d9d;fill-opacity:1;fill-rule:evenodd;stroke:none;stroke-width:0.5;marker:none;enable-background:accumulate" />
  <path
     inkscape:connector-curvature="0"
     id="path4656"
     d="m 19.779288,35.912946 c 1.508185,0 2.736797,0.94963 2.736797,2.11535 0,0.0653 -0.02661,0.25487 -0.03514,0.42307 -1.806106,0.4546 -3.6324,0.44677 -5.438507,0 -0.009,-0.16811 0,-0.35871 0,-0.42307 0,-1.16572 1.228612,-2.11534 2.736797,-2.11535 z"
     style="display:inline;overflow:visible;visibility:visible;fill:#476181;fill-opacity:1;fill-rule:evenodd;stroke:none;stroke-width:0.5;marker:none;enable-background:accumulate" />
  <path
     inkscape:connector-curvature="0"
     style="display:inline;overflow:visible;visibility:visible;fill:none;stroke:#000000;stroke-width:0.5;stroke-linecap:round;stroke-linejoin:miter;stroke-miterlimit:4;stroke-dasharray:none;stroke-dashoffset:0;stroke-opacity:1;marker:none;enable-background:accumulate"
     d="m 19.765658,35.900436 c 1.508186,0 2.736797,0.94963 2.736797,2.11535 0,0.19572 -0.04064,1.08812 -0.105205,1.26802 -1.754357,0.47405 -3.508714,0.46451 -5.263071,0 -0.06288,-0.17772 -0.105205,-1.07495 -0.105205,-1.26802 0,-1.16572 1.228611,-2.11534 2.736797,-2.11535 z"
     id="path4658"
     sodipodi:nodetypes="csccsc" />
  <path
     style="display:inline;overflow:visible;visibility:visible;fill:#9d9d9d;fill-opacity:1;fill-rule:evenodd;stroke:none;stroke-width:0.5;marker:none;enable-background:accumulate"
     d="m 11.516298,35.900436 c -1.508186,0 -2.7367976,0.94963 -2.7367976,2.11534 0,0.19573 0.04065,1.08813 0.105205,1.26803 1.7543576,0.47405 3.5087156,0.46451 5.2630726,0 0.06288,-0.17772 0.105205,-1.07495 0.105205,-1.26803 0,-1.16571 -1.228611,-2.11534 -2.736797,-2.11534 z"
     id="path3507-3-5"
     sodipodi:nodetypes="csccsc"
     inkscape:connector-curvature="0" />
  <path
     style="display:inline;overflow:visible;visibility:visible;fill:#476181;fill-opacity:1;fill-rule:evenodd;stroke:none;stroke-width:0.5;marker:none;enable-background:accumulate"
     d="m 11.502667,35.912946 c -1.5081853,0 -2.7367976,0.94963 -2.7367976,2.11535 0,0.0653 0.02661,0.25487 0.03514,0.42307 1.8061066,0.4546 3.6324006,0.44677 5.4385076,0 0.009,-0.16811 0,-0.35871 0,-0.42307 0,-1.16572 -1.228612,-2.11534 -2.736797,-2.11535 z"
     id="path3512-3"
     inkscape:connector-curvature="0" />
  <path
     sodipodi:nodetypes="csccsc"
     id="path3517-2-6"
     d="m 11.516297,35.900436 c -1.508186,0 -2.7367976,0.94963 -2.7367976,2.11535 0,0.19572 0.04064,1.08812 0.105205,1.26802 1.7543576,0.47405 3.5087146,0.46451 5.2630716,0 0.06288,-0.17772 0.105205,-1.07495 0.105205,-1.26802 0,-1.16572 -1.228611,-2.11534 -2.736797,-2.11535 z"
     style="display:inline;overflow:visible;visibility:visible;fill:none;stroke:#000000;stroke-width:0.5;stroke-linecap:round;stroke-linejoin:miter;stroke-miterlimit:4;stroke-dasharray:none;stroke-dashoffset:0;stroke-opacity:1;marker:none;enable-background:accumulate"
     inkscape:connector-curvature="0" />
  <path
     sodipodi:nodetypes="ccccc"
     style="display:inline;overflow:visible;visibility:visible;fill:#ffc78f;fill-opacity:1;fill-rule:evenodd;stroke:#000000;stroke-width:0.5;stroke-linecap:butt;stroke-linejoin:miter;stroke-miterlimit:4;stroke-dasharray:none;stroke-dashoffset:0;stroke-opacity:1;marker:none;enable-background:accumulate"
     d="m 20.945583,29.282556 0.818077,1.4552 c 0.499402,0.88833 1.352224,1.20295 2.05205,0.70686 0.989927,-0.84703 1.799994,-2.61973 0.781586,-4.63557 -0.214046,-0.378 -3.651713,2.47351 -3.651713,2.47351 z"
     id="path3537-8-6"
     inkscape:connector-curvature="0" />
  <path
     style="display:inline;overflow:visible;visibility:visible;fill:#265881;fill-opacity:1;stroke:#000000;stroke-width:0.5;stroke-linecap:round;stroke-linejoin:miter;stroke-miterlimit:4;stroke-dashoffset:0;stroke-opacity:1;marker:none;enable-background:accumulate"
     d="m 23.017532,28.510136 c -1.026289,0.6966 -1.837012,1.28606 -2.227661,0.56328 l -1.733439,-3.20728 c -0.623494,-1.1536 -0.299225,-2.64312 0.727064,-3.33971 1.026288,-0.69659 2.35446,-0.32867 2.977952,0.82495 l 1.733441,3.20727 c 0.338901,0.62705 -0.451068,1.2549 -1.477357,1.95149 z"
     id="path4398-2"
     sodipodi:nodetypes="cccsccc"
     inkscape:connector-curvature="0" />
  <path
     style="display:inline;fill:#989898;fill-opacity:1;stroke:#000000;stroke-width:0.5;stroke-linecap:butt;stroke-linejoin:miter;stroke-miterlimit:4;stroke-dasharray:none;stroke-opacity:1"
     d="m 22.180212,1.531776 c -1.477603,-1.80595028 -5.417876,-3.5298203 -8.45517,-2.9552003 0.328356,0.16418 0.902979,0.49253002 0.902979,0.49253002 0,0 -4.6790753,-0.0821 -7.2238356,2.46267028 -2.5447596,2.54476 -5.1716086,8.4551696 -3.9402736,12.47754 1.231336,4.02236 2.298493,4.59698 2.708938,5.17161 0.164179,-1.14925 0.410446,-1.39552 0.410446,-1.39552 0,0 2.9552049,5.33579 9.1118822,5.33579 6.156678,0 8.619349,-4.84325 8.619349,-4.84325 l 0.328356,1.4776 c 0,0 2.791027,-3.28356 2.791027,-7.38801 0,-4.1044504 -0.82089,-11.2462003 -5.253698,-10.83576 z"
     id="path4548"
     inkscape:connector-curvature="0" />
  <path
     inkscape:connector-curvature="0"
     style="color:#000000;display:inline;overflow:visible;visibility:visible;fill:#162a41;fill-opacity:1;stroke:none;stroke-width:0.5;marker:none;enable-background:accumulate"
     d="m 17.899718,21.083056 c -0.616155,0.004 -1.349521,0.0309 -2.262383,0.0309 l -0.0666,0 c -1.369298,0 -2.353116,-0.0294 -3.094133,0 -1.235003,0.049 -1.800844,0.28343 -2.195819,1.23734 -0.5381503,1.29964 -2.0574626,4.37185 -2.3289226,6.55789 -0.0118,0.0947 -0.02633,0.18731 -0.0333,0.27841 -0.02586,0.27616 -0.03117,0.53887 0,0.77333 0.01995,0.14936 0.04582,0.26128 0.0666,0.40214 0.232693,1.57552 0.500871,2.6566 0.698672,3.43362 l 0,3.16855 5.6547346,0 c 0,0 0.001,-2.75325 0.001,-2.76642 0,-1.15553 2.553988,-1.12425 2.528518,0 l 0.0024,2.76642 5.653257,0 0,-3.16855 c 0.197801,-0.77702 0.465978,-1.8581 0.698673,-3.43362 0.02232,-0.1515 0.04499,-0.23994 0.0666,-0.40214 0.03117,-0.23446 0.02586,-0.49717 0,-0.77333 -0.0082,-0.092 -0.02137,-0.18307 -0.0333,-0.27841 -0.271468,-2.18604 -1.79078,-5.25825 -2.328919,-6.55789 -0.473983,-1.14469 -1.179174,-1.27904 -3.027581,-1.26828 z"
     id="path3509-5-7-8"
     sodipodi:nodetypes="csscscccccccsscccccccscc" />
  <path
     style="display:inline;fill:#dce7f3;fill-opacity:1;stroke:none"
     d="m 17.906047,21.072186 c -0.616143,0.004 -1.35298,0.0315 -2.265842,0.0315 l -0.06294,0 c -1.369287,0 -2.374526,-0.0294 -3.11553,0 -1.235004,0.049 -1.776449,0.30491 -2.171435,1.25882 -0.4857693,1.17317 -1.7576616,3.77869 -2.2029046,5.88496 1.5317693,2.20298 5.3184346,3.39881 5.3184346,3.39881 l 2.202904,-2.2344 2.202904,2.2344 c 0,0 3.786689,-1.19583 5.318434,-3.39881 -0.445221,-2.10627 -1.717138,-4.71179 -2.202906,-5.88496 -0.473984,-1.1447 -1.172691,-1.30106 -3.021123,-1.29029 z"
     id="path4279-2-6-9"
     inkscape:connector-curvature="0" />
  <path
     id="path4287-7-7-8"
     d="m 8.0874004,28.247436 c 1.5317573,2.20297 5.3184346,3.3988 5.3184346,3.3988 l 2.202904,-2.2344 2.202905,2.2344 c 0,0 3.786677,-1.19583 5.318435,-3.3988"
     style="display:inline;fill:none;stroke:#000000;stroke-width:0.5;stroke-linecap:round;stroke-linejoin:miter;stroke-miterlimit:4;stroke-dasharray:none;stroke-opacity:1"
     inkscape:connector-curvature="0"
     sodipodi:nodetypes="ccccc" />
  <path
     style="color:#000000;display:inline;overflow:visible;visibility:visible;fill:#2c4875;fill-opacity:1;fill-rule:evenodd;stroke:#000000;stroke-width:0.49999997;stroke-linecap:round;stroke-linejoin:round;stroke-miterlimit:4;stroke-dashoffset:0;stroke-opacity:1;marker:none;enable-background:accumulate"
     d="m 17.531374,30.178626 c 0,1.45296 -1.933073,2.06004 -1.933073,2.06004 -0.179438,0 -1.933074,-0.55558 -1.933074,-2.06004 0,-2.01946 1.745121,-5.25309 1.933074,-5.25309 0.187952,0 1.933073,3.23363 1.933073,5.25309 z"
     id="path4299-8-9-4"
     inkscape:connector-curvature="0"
     sodipodi:nodetypes="csczc" />
  <path
     sodipodi:nodetypes="csscscccccccsscccccccscc"
     id="path4378-8-1-6-9"
     d="m 17.899722,21.083056 c -0.616156,0.004 -1.34952,0.0309 -2.262382,0.0309 l -0.0666,0 c -1.3693,0 -2.353118,-0.0294 -3.094134,0 -1.235004,0.049 -1.800845,0.28342 -2.195819,1.23734 -0.5381513,1.29964 -2.0574636,4.37184 -2.3289236,6.55789 -0.0118,0.0947 -0.02633,0.18731 -0.0333,0.2784 -0.02586,0.27616 -0.03117,0.53888 0,0.77334 0.01995,0.14936 0.04582,0.26127 0.0666,0.40213 0.232694,1.57553 0.500871,2.6566 0.698672,3.43362 l 0,3.16856 5.6547346,0 c 0,0 10e-4,-2.75326 10e-4,-2.76642 0,-1.15553 2.553988,-1.12425 2.528518,0 l 0.0024,2.76642 5.653258,0 0,-3.16856 c 0.197801,-0.77702 0.465978,-1.85809 0.698671,-3.43362 0.02232,-0.15149 0.04499,-0.23993 0.0666,-0.40213 0.03117,-0.23446 0.02587,-0.49718 0,-0.77334 -0.0082,-0.092 -0.02137,-0.18307 -0.0333,-0.2784 -0.271476,-2.18604 -1.7908,-5.25825 -2.328938,-6.55789 -0.473984,-1.14469 -1.179174,-1.27904 -3.027583,-1.26827 z"
     style="color:#000000;display:inline;overflow:visible;visibility:visible;fill:none;stroke:#000000;stroke-width:0.5;stroke-linecap:round;stroke-linejoin:miter;stroke-miterlimit:4;stroke-dasharray:none;stroke-dashoffset:0;stroke-opacity:1;marker:none;enable-background:accumulate"
     inkscape:connector-curvature="0" />
  <path
     id="path4623"
     d="m 12.46174,21.103656 c -1.235004,0.049 -1.776448,0.30491 -2.171435,1.25882 -0.5006703,1.20915 -1.8847426,4.27725 -2.1714356,5.38143 -0.409003,1.5753 -0.897205,3.67001 -0.912626,4.97233 0,2.92703 5.6960756,2.23439 5.6960756,2.23439 l 0,-5.69614 c 0,-0.96033 0.380286,-2.29601 -0.06294,-2.51763 -1.292745,-0.58174 -1.01949,-3.48197 -0.283232,-5.6332 -0.02349,7.8e-4 -0.07192,-8.9e-4 -0.09435,0 z m 6.199592,0 c 0.736258,2.15123 1.009513,5.05146 -0.283234,5.6332 -0.443211,0.22162 -0.06294,1.5573 -0.06294,2.51763 l 0,5.69614 c 0,0 5.696075,0.69264 5.696075,-2.23439 -0.01535,-1.30232 -0.503622,-3.39703 -0.912625,-4.97233 -0.286693,-1.10418 -1.670765,-4.17228 -2.171435,-5.38143 -0.394987,-0.95391 -0.936432,-1.20983 -2.171435,-1.25882 -0.02244,-8.9e-4 -0.07085,7.8e-4 -0.09435,0 z"
     style="display:inline;fill:#265881;fill-opacity:1;stroke:none"
     inkscape:connector-curvature="0" />
  <path
     inkscape:connector-curvature="0"
     style="color:#000000;display:inline;overflow:visible;visibility:visible;fill:#fbf836;fill-opacity:1;fill-rule:evenodd;stroke:none;stroke-width:0.5;marker:none;enable-background:accumulate"
     d="m 7.9208164,28.555046 c -0.282387,1.1462 -0.54789,2.37459 -0.65625,3.40625 l 5.6250006,0 0,-2.71875 c 0,-0.22022 0.03702,-0.44577 0.0625,-0.6875 l -5.0312506,0 z m 10.3437506,0 c 0.02548,0.24173 0.0625,0.46728 0.0625,0.6875 l 0,2.71875 5.625,0 c -0.10834,-1.03166 -0.373852,-2.26005 -0.65625,-3.40625 l -5.03125,0 z"
     id="rect4625-6" />
  <path
     inkscape:connector-curvature="0"
     style="display:inline;fill:none;stroke:#000000;stroke-width:0.5;stroke-linecap:butt;stroke-linejoin:miter;stroke-miterlimit:4;stroke-dasharray:none;stroke-opacity:1"
     d="m 12.46174,21.103656 c -1.235004,0.049 -1.776448,0.30491 -2.171435,1.25882 -0.5006703,1.20915 -1.8847426,4.27725 -2.1714356,5.38143 -0.409003,1.5753 -0.897205,3.67001 -0.912626,4.97233 0,2.92703 5.6960756,2.23439 5.6960756,2.23439 l 0,-5.69614 c 0,-0.96033 0.380286,-2.29601 -0.06294,-2.51763 -1.292745,-0.58174 -1.01949,-3.48197 -0.283232,-5.6332 -0.02349,7.8e-4 -0.07192,-8.9e-4 -0.09435,0 z m 6.199592,0 c 0.736258,2.15123 1.009513,5.05146 -0.283234,5.6332 -0.443211,0.22162 -0.06294,1.5573 -0.06294,2.51763 l 0,5.69614 c 0,0 5.696075,0.69264 5.696075,-2.23439 -0.01535,-1.30232 -0.503622,-3.39703 -0.912625,-4.97233 -0.286693,-1.10418 -1.670765,-4.17228 -2.171435,-5.38143 -0.394987,-0.95391 -0.936432,-1.20983 -2.171435,-1.25882 -0.02244,-8.9e-4 -0.07085,7.8e-4 -0.09435,0 z"
     id="path4303-9-6-3" />
  <path
     style="color:#000000;display:inline;overflow:visible;visibility:visible;fill:#2c4875;fill-opacity:1;fill-rule:evenodd;stroke:#000000;stroke-width:0.5;stroke-linecap:round;stroke-linejoin:round;stroke-miterlimit:4;stroke-dashoffset:0;stroke-opacity:1;marker:none;enable-background:accumulate"
     d="m 17.297335,24.112776 c 0,1.20354 -1.056168,2.17921 -1.699034,2.17921 -0.642854,0 -1.699022,-0.97567 -1.699022,-2.17921 0,-1.20355 0.760677,-1.51437 1.699022,-1.51437 0.938357,0 1.699034,0.31082 1.699034,1.51437 z"
     id="path4297-7-3-9"
     inkscape:connector-curvature="0"
     sodipodi:nodetypes="szsss" />
  <path
     style="color:#000000;font-style:normal;font-variant:normal;font-weight:normal;font-stretch:normal;font-size:medium;line-height:normal;font-family:Sans;-inkscape-font-specification:Sans;text-indent:0;text-align:start;text-decoration:none;text-decoration-line:none;letter-spacing:normal;word-spacing:normal;text-transform:none;direction:ltr;block-progression:tb;writing-mode:lr-tb;baseline-shift:baseline;text-anchor:start;display:inline;overflow:visible;visibility:visible;fill:#5c4832;fill-opacity:1;stroke:#000000;stroke-width:0.5;stroke-miterlimit:4;stroke-dasharray:none;stroke-opacity:1;marker:none;enable-background:accumulate"
     d="m 10.702067,20.492546 c -1.4091513,1.17429 -1.7882966,3.12176 -0.8125003,4.84375 0.9757963,1.72199 3.1462173,3.25837 6.6562503,4.1875 l 0.34375,-1.25 c -3.292284,-0.87149 -5.150216,-2.28347 -5.875,-3.5625 -0.724784,-1.27903 -0.491667,-2.39236 0.5,-3.21875 l -0.8125,-1 z"
     id="path4670"
     inkscape:connector-curvature="0" />
  <path
     style="display:inline;fill:#bdd2e9;fill-opacity:1;stroke:#000000;stroke-width:0.5;stroke-linecap:butt;stroke-linejoin:miter;stroke-miterlimit:4;stroke-dasharray:none;stroke-opacity:1"
     d="m 17.906051,21.072186 c -0.616144,0.004 -1.35298,0.0315 -2.265842,0.0315 l -0.06294,0 c -1.369287,0 -2.374525,-0.0294 -3.11553,0 -0.642535,0.0255 -1.103506,0.10803 -1.447623,0.31471 l 1.762326,4.21703 2.832296,-2.61204 2.832309,2.61204 1.762315,-4.21703 c -0.481883,-0.30421 -1.169774,-0.35275 -2.297311,-0.34618 z"
     id="path4289-4-0-5"
     inkscape:connector-curvature="0" />
  <path
     inkscape:connector-curvature="0"
     style="display:inline;overflow:visible;visibility:visible;fill:#ffc78f;fill-opacity:1;fill-rule:evenodd;stroke:#000000;stroke-width:0.5;stroke-linecap:round;stroke-linejoin:round;stroke-miterlimit:4;stroke-dashoffset:0;stroke-opacity:1;marker:none;enable-background:accumulate"
     d="M 15.983317,4.430046 C 14.07933,5.8278656 9.9786357,6.1184756 8.2333164,6.2737956 c -0.111582,0.98303 0.2543,6.0473004 -2.6874996,10.6250004 0.967844,1.70152 2.3637946,3.10269 4.0624999,4.09375 0.5404623,1.86736 3.1703133,3.1875 6.0312503,3.1875 2.822407,0 5.517939,-1.31738 6.0625,-3.1875 1.507133,-0.88816 2.796619,-2.0987 3.75,-3.5625 -2.936745,-4.95116 -3.888439,-9.0869104 -3.4375,-11.6250004 -0.476002,0.62125 -2.384517,2.34094 -3.8125,1.875 l 0.3125,-1.25 c 0,0 -0.646453,1.09374 -3.34375,1.09375 0.317333,-0.77657 0.495188,-2.1618696 0.8125,-3.0937496 z"
     id="path2422-1" />
  <path
     style="fill:#265881;fill-opacity:1;stroke:none"
     d="m 4.0572617,5.6432022 c 0,1.986542 3.241201,0.104555 11.6055893,0.104555 8.364388,0 11.710143,2.091097 11.710143,0.209109 0,-1.881987 3.2412,-8.7826071 -11.814698,-8.7826071 -15.05589931,0 -11.5010343,7.9461691 -11.5010343,8.4689431 z"
     id="path4369"
     inkscape:connector-curvature="0" />
  <path
     inkscape:connector-curvature="0"
     style="fill:#fbf836;fill-opacity:1;stroke:none"
     d="m 15.608317,3.3186562 c -4.488012,0.03268 -9.0267073,0.391862 -11.8437503,0.9375 0.10616,0.723549 0.28125,1.254239 0.28125,1.375 0,1.986542 3.260612,0.125 11.6250003,0.125 8.364388,0 11.6875,2.069488 11.6875,0.1875 0,-0.323557 0.105346,-0.815335 0.1875,-1.375 -2.401508,-0.937733 -7.115183,-1.285114 -11.9375,-1.25 z"
     id="path4371" />
  <path
     inkscape:connector-curvature="0"
     id="path4377"
     d="m 4.0572617,5.6432022 c 0,1.986542 3.241201,0.104555 11.6055893,0.104555 8.364388,0 11.710143,2.091097 11.710143,0.209109 0,-1.881987 3.2412,-8.7826071 -11.814698,-8.7826071 -15.05589931,0 -11.5010343,7.9461691 -11.5010343,8.4689431 z"
     style="fill:none;stroke:#000000;stroke-width:0.5;stroke-linecap:butt;stroke-linejoin:miter;stroke-miterlimit:4;stroke-dasharray:none;stroke-opacity:1" />
  <path
     inkscape:connector-curvature="0"
     style="fill:#265881;fill-opacity:1;stroke:#000000;stroke-width:0.5;stroke-linecap:butt;stroke-linejoin:miter;stroke-miterlimit:4;stroke-dasharray:none;stroke-opacity:1"
     d="m 11.295817,4.7561562 c -1.7774333,0.05228 -3.3630313,0.247671 -3.7812503,0.875 -2.718426,3.345755 -1.150103,4.9374998 0,4.9374998 1.127338,0 4.4484663,-1.5340958 8.1250003,-1.5937498 3.676534,0.059654 6.997662,1.5937498 8.125,1.5937498 1.150103,0 2.718426,-1.5917448 0,-4.9374998 -0.785697,-1.178544 -5.622407,-0.852935 -8.125,-0.8125 -1.170484,-0.01891 -2.781973,-0.108435 -4.34375,-0.0625 z"
     id="path3596" />
  <path
     style="display:inline;overflow:visible;visibility:visible;fill:#ffffff;fill-opacity:1;fill-rule:evenodd;stroke:#000000;stroke-width:0.49999997;stroke-linecap:round;stroke-linejoin:round;stroke-miterlimit:4;stroke-dashoffset:0;stroke-opacity:1;marker:none;enable-background:accumulate"
     d="m 13.073286,13.478316 c 0,1.06363 -0.863239,1.92687 -1.926873,1.92687 -1.063633,0 -1.9268723,-0.86324 -1.9268723,-1.92687 0,-1.06364 0.8632393,-1.19283 1.9268723,-1.19283 1.063634,0 1.926873,0.12919 1.926873,1.19283 z"
     id="path3456-9"
     sodipodi:nodetypes="csssc"
     inkscape:connector-curvature="0" />
  <circle
     style="display:inline;overflow:visible;visibility:visible;fill:#000000;fill-opacity:1;fill-rule:evenodd;stroke:none;stroke-width:0.5;marker:none;enable-background:accumulate"
     id="path3458-6"
     cx="11.713181"
     cy="13.386565"
     r="1.1770828" />
  <circle
     style="display:inline;overflow:visible;visibility:visible;fill:#ffffff;fill-opacity:1;fill-rule:evenodd;stroke:none;stroke-width:0.5;marker:none;enable-background:accumulate"
     id="path3460-3"
     cx="11.3619"
     cy="13.131644"
     r="0.42570049" />
  <path
     inkscape:connector-curvature="0"
     sodipodi:nodetypes="csssc"
     id="path4409"
     d="m 18.208669,13.478316 c 0,1.06363 0.863239,1.92687 1.926873,1.92687 1.063633,0 1.926872,-0.86324 1.926872,-1.92687 0,-1.06364 -0.863239,-1.19283 -1.926872,-1.19283 -1.063634,0 -1.926873,0.12919 -1.926873,1.19283 z"
     style="display:inline;overflow:visible;visibility:visible;fill:#ffffff;fill-opacity:1;fill-rule:evenodd;stroke:#000000;stroke-width:0.49999997;stroke-linecap:round;stroke-linejoin:round;stroke-miterlimit:4;stroke-dashoffset:0;stroke-opacity:1;marker:none;enable-background:accumulate" />
  <circle
     transform="scale(-1,1)"
     id="path4411"
     style="display:inline;overflow:visible;visibility:visible;fill:#000000;fill-opacity:1;fill-rule:evenodd;stroke:none;stroke-width:0.5;marker:none;enable-background:accumulate"
     cx="-20.518795"
     cy="13.386565"
     r="1.1770828" />
  <circle
     transform="scale(-1,1)"
     id="path4413-3"
     style="display:inline;overflow:visible;visibility:visible;fill:#ffffff;fill-opacity:1;fill-rule:evenodd;stroke:none;stroke-width:0.5;marker:none;enable-background:accumulate"
     cx="-20.078392"
     cy="13.131644"
     r="0.42570049" />
  <path
     style="display:inline;fill:none;stroke:#000000;stroke-width:0.5;stroke-linecap:round;stroke-linejoin:miter;stroke-miterlimit:4;stroke-dasharray:none;stroke-opacity:1"
     d="M 8.9426436,11.816704 13.39134,10.644988"
     id="path4415-1"
     inkscape:connector-curvature="0" />
  <path
     inkscape:connector-curvature="0"
     id="path4417-3"
     d="M 22.349136,11.778057 17.880798,10.683635"
     style="display:inline;fill:none;stroke:#000000;stroke-width:0.5;stroke-linecap:round;stroke-linejoin:miter;stroke-miterlimit:4;stroke-dasharray:none;stroke-opacity:1" />
  <path
     style="display:inline;fill:none;stroke:#000000;stroke-width:0.5;stroke-linecap:round;stroke-linejoin:miter;stroke-miterlimit:4;stroke-dasharray:none;stroke-opacity:1"
     d="m 14.468739,16.190956 c -0.393522,2.06599 -0.37241,3.09877 1.103297,3.09877 1.475707,0 1.623489,-0.89978 1.278946,-3.04979"
     id="path4381-6"
     sodipodi:nodetypes="csc"
     inkscape:connector-curvature="0" />
  <path
     style="display:inline;overflow:visible;visibility:visible;fill:none;stroke:#000000;stroke-width:0.5;stroke-linecap:round;stroke-linejoin:round;stroke-miterlimit:4;stroke-dasharray:none;stroke-dashoffset:0;stroke-opacity:1;marker:none;enable-background:accumulate"
     d="m 11.944599,20.531325 c 1.07786,0.720574 2.25851,1.100057 3.46875,1.100057 1.30104,0 2.547,-0.495795 3.6875,-1.33163"
     id="path4383-0"
     sodipodi:nodetypes="csc"
     inkscape:connector-curvature="0" />
  <path
     style="display:inline;fill:#ffc78f;fill-opacity:1;fill-rule:evenodd;stroke:#000000;stroke-width:0.5;stroke-linecap:butt;stroke-linejoin:miter;stroke-miterlimit:4;stroke-dasharray:none;stroke-opacity:1"
     d="m 4.0485788,11.986786 c -2.73538,-0.72095 -1.758093,3.27518 -1.207861,4.03692 0.528368,0.73146 1.732314,1.23896 2.248801,0.45341 -0.614052,-1.04863 -1.207288,-3.38001 -1.04094,-4.49033 z"
     id="path3688-2"
     sodipodi:nodetypes="cscc"
     inkscape:connector-curvature="0" />
  <path
     style="display:inline;fill:none;stroke:#000000;stroke-width:0.5;stroke-linecap:butt;stroke-linejoin:miter;stroke-miterlimit:4;stroke-dasharray:none;stroke-opacity:1"
     d="m 4.0405208,13.204416 c -0.476784,-0.14836 -0.872463,0.15863 -0.840319,0.50283"
     id="path3690-5"
     inkscape:connector-curvature="0" />
  <path
     inkscape:connector-curvature="0"
     sodipodi:nodetypes="cscc"
     id="path4589"
     d="m 27.233376,11.986786 c 2.73538,-0.72095 1.758093,3.27518 1.207861,4.03692 -0.528368,0.73146 -1.732314,1.23896 -2.248801,0.45341 0.614052,-1.04863 1.207288,-3.38001 1.04094,-4.49033 z"
     style="display:inline;fill:#ffc78f;fill-opacity:1;fill-rule:evenodd;stroke:#000000;stroke-width:0.5;stroke-linecap:butt;stroke-linejoin:miter;stroke-miterlimit:4;stroke-dasharray:none;stroke-opacity:1" />
  <path
     inkscape:connector-curvature="0"
     id="path4591"
     d="m 27.241434,13.204416 c 0.476784,-0.14836 0.872463,0.15863 0.840319,0.50283"
     style="display:inline;fill:none;stroke:#000000;stroke-width:0.5;stroke-linecap:butt;stroke-linejoin:miter;stroke-miterlimit:4;stroke-dasharray:none;stroke-opacity:1" />
  <rect
     style="color:#000000;display:inline;overflow:visible;visibility:visible;fill:#5c4832;fill-opacity:1;fill-rule:evenodd;stroke:#000000;stroke-width:0.5;stroke-opacity:1;marker:none;enable-background:accumulate"
     id="rect4660"
     width="10.80368"
     height="9.6032715"
     x="15.608891"
     y="27.404335"
     rx="2.1356466"
     ry="2.1356466" />
  <path
     style="display:inline;fill:none;stroke:#000000;stroke-width:0.5;stroke-linecap:butt;stroke-linejoin:miter;stroke-miterlimit:4;stroke-dasharray:none;stroke-opacity:1"
     d="m 15.508857,29.405016 c 0,0 4.301466,2.70092 5.701943,2.70092 1.400477,0 5.101738,-2.70092 5.101738,-2.70092"
     id="path4662"
     inkscape:connector-curvature="0" />
  <rect
     style="color:#000000;display:inline;overflow:visible;visibility:visible;fill:#5c4832;fill-opacity:1;fill-rule:evenodd;stroke:#000000;stroke-width:0.5;stroke-linecap:round;stroke-linejoin:miter;stroke-miterlimit:4;stroke-dasharray:none;stroke-dashoffset:0;stroke-opacity:1;marker:none;enable-background:accumulate"
     id="rect4664"
     width="2.2007499"
     height="5.5018744"
     x="17.509537"
     y="29.50506"
     rx="0.63513535"
     ry="0.63513535" />
  <rect
     ry="0.63513535"
     rx="0.63513535"
     y="29.50506"
     x="22.411205"
     height="5.5018744"
     width="2.2007499"
     id="rect4666"
     style="color:#000000;display:inline;overflow:visible;visibility:visible;fill:#5c4832;fill-opacity:1;fill-rule:evenodd;stroke:#000000;stroke-width:0.5;stroke-linecap:round;stroke-linejoin:miter;stroke-miterlimit:4;stroke-dasharray:none;stroke-dashoffset:0;stroke-opacity:1;marker:none;enable-background:accumulate" />
  <rect
     style="color:#000000;clip-rule:nonzero;display:inline;overflow:visible;visibility:visible;opacity:1;isolation:auto;mix-blend-mode:normal;color-interpolation:sRGB;color-interpolation-filters:linearRGB;solid-color:#000000;solid-opacity:1;fill:#65c1df;fill-opacity:1;fill-rule:nonzero;stroke:#000000;stroke-width:0.5;stroke-linecap:round;stroke-linejoin:miter;stroke-miterlimit:4;stroke-dasharray:none;stroke-dashoffset:0;stroke-opacity:1;marker:none;marker-start:none;marker-mid:none;marker-end:none;color-rendering:auto;image-rendering:auto;shape-rendering:auto;text-rendering:auto;enable-background:accumulate"
     id="rect4969"
     width="13.839072"
     height="17.469816"
     x="26.269173"
     y="2.0586827"
     rx="1.2187234"
     ry="1.2145746"
     transform="matrix(0.96031824,0.27890659,-0.27890659,0.96031824,0,0)" />
  <rect
     ry="0.50892353"
     rx="0.51066196"
     y="3.6652098"
     x="27.653084"
     height="4.0138106"
     width="11.071259"
     id="rect4971"
     style="color:#000000;clip-rule:nonzero;display:inline;overflow:visible;visibility:visible;opacity:1;isolation:auto;mix-blend-mode:normal;color-interpolation:sRGB;color-interpolation-filters:linearRGB;solid-color:#000000;solid-opacity:1;fill:#c7e8f3;fill-opacity:1;fill-rule:nonzero;stroke:none;stroke-width:0.49999997;stroke-linecap:round;stroke-linejoin:miter;stroke-miterlimit:4;stroke-dasharray:none;stroke-dashoffset:0;stroke-opacity:1;marker:none;marker-start:none;marker-mid:none;marker-end:none;color-rendering:auto;image-rendering:auto;shape-rendering:auto;text-rendering:auto;enable-background:accumulate"
     transform="matrix(0.96031824,0.27890659,-0.27890659,0.96031824,0,0)" />
  <rect
     style="color:#000000;clip-rule:nonzero;display:inline;overflow:visible;visibility:visible;opacity:1;isolation:auto;mix-blend-mode:normal;color-interpolation:sRGB;color-interpolation-filters:linearRGB;solid-color:#000000;solid-opacity:1;fill:#5994a7;fill-opacity:1;fill-rule:nonzero;stroke:none;stroke-width:0.49999997;stroke-linecap:round;stroke-linejoin:miter;stroke-miterlimit:4;stroke-dasharray:none;stroke-dashoffset:0;stroke-opacity:1;marker:none;marker-start:none;marker-mid:none;marker-end:none;color-rendering:auto;image-rendering:auto;shape-rendering:auto;text-rendering:auto;enable-background:accumulate"
     id="rect4977"
     width="11.071259"
     height="9.2963543"
     x="27.653084"
     y="8.6632967"
     rx="0.9381066"
     ry="0.93491298"
     transform="matrix(0.96031824,0.27890659,-0.27890659,0.96031824,0,0)" />
  <path
     inkscape:connector-curvature="0"
     style="display:inline;overflow:visible;visibility:visible;fill:#1c6e1c;fill-opacity:1;fill-rule:evenodd;stroke:none;stroke-width:0.49999997;stroke-linecap:round;stroke-linejoin:round;stroke-miterlimit:4;stroke-dasharray:none;stroke-dashoffset:0;stroke-opacity:1;marker:none;enable-background:accumulate"
     d="m 31.325984,18.752412 c -0.553387,0.239826 -2.272478,1.217879 -2.380454,2.395323 -0.04269,-0.06614 -0.104579,-0.106264 -0.172405,-0.12764 0.101212,-0.478282 0.107738,-0.923247 0.08719,-1.1348 -0.743978,0.194321 -1.269252,0.631989 -1.605166,1.075669 0.10695,-1.010374 -0.385454,-2.274585 -0.592545,-2.689166 -1.076755,0.945782 -1.002189,2.666649 -0.805929,3.207522 -0.19978,-0.240079 -1.06984,-0.493215 0.254154,1.597778 0.03436,-0.01018 0.06525,-0.01785 0.09797,-0.02819 -0.09654,0.566081 -0.510435,0.850816 -0.510435,0.850816 0,0 -0.140205,-0.269746 -0.595593,0.02088 -0.04925,-0.520027 -0.800434,-2.050554 -2.409873,-2.912776 l -0.229246,0.789331 c 0.07936,0.489728 0.234744,1.064628 0.545444,1.583967 -0.294987,-0.108728 -0.607131,-0.198625 -0.928909,-0.263641 l -0.225255,0.775588 c 0.573951,0.615416 1.381518,1.326029 2.30773,1.636517 0.02582,0.02399 0.05515,0.04487 0.08184,0.0685 -0.06395,0.02341 -0.0824,0.07059 -0.09439,0.118716 l 6.548789,1.901974 c 0.547298,-0.02098 1.00907,-0.06944 1.015932,-0.149311 0.197059,-0.0043 0.395945,-0.04618 0.596164,-0.07439 0.05001,-0.07617 0.101522,-0.153825 0.128306,-0.246045 l 0.187715,-0.646333 c -0.35917,-0.129504 -0.753395,-0.262024 -1.16571,-0.344703 0.02861,-0.02253 0.06918,-0.04725 0.08818,-0.06677 0.15675,-0.09236 0.316051,-0.222668 0.467393,-0.383185 0.310692,0.09638 0.5656,0.138464 0.794662,0.159183 L 34.0832,21.488713 c -1.300004,0.599818 -1.959019,1.915999 -2.02294,2.40076 -0.04854,-0.159921 -0.329264,-0.380876 -0.48717,-0.06392 0.05348,-0.20528 -0.327103,-0.28138 -0.494427,-0.244991 0.434418,-0.294335 1.262371,-1.533401 0.560349,-2.8464 -0.140041,0.06911 -0.361335,0.20582 -0.607469,0.381257 0.373646,-0.60467 0.633513,-1.452691 0.294272,-2.363001 z m -2.977901,3.298422 c 0.09223,0.221152 0.256415,0.47033 0.494228,0.760881 l -0.91322,1.032063 -0.03248,-0.763956 c 0.494124,-0.261939 0.39064,-0.666293 0.07249,-0.641015 0.151545,-0.106085 0.272658,-0.240705 0.379012,-0.387965 z m 3.198164,1.82652 c -0.08769,0.230203 -0.120722,0.670982 -0.01338,1.478316 0.03876,0.0021 0.07605,-2.06e-4 0.113636,1.71e-4 -0.224659,0.279229 -0.507583,0.427612 -0.701454,0.509036 -0.256689,-0.01317 -0.558403,-0.01574 -0.863068,-0.0061 0.0029,-0.02052 0.0016,-0.03709 0.0047,-0.05835 0.04058,-0.228877 0.108841,-0.499246 0.17158,-0.755384 0.06518,-0.266625 0.08497,-0.324108 0.134075,-0.503843 0.744762,-0.290292 1.067392,-0.508024 1.15347,-0.664075 z m -2.369862,-0.670413 c -0.0079,0.267312 0.1661,0.668301 0.703468,1.19444 -0.05006,0.18277 -0.07065,0.241839 -0.136468,0.512079 -0.06321,0.25985 -0.122867,0.535956 -0.165218,0.775143 -0.0031,0.02123 -0.0049,0.03812 -0.0075,0.05751 -0.09079,-0.005 -0.18852,6.3e-5 -0.294502,0.02486 -0.04794,-0.525875 -0.164423,-1.04958 -0.286315,-1.08521 -0.134736,-0.03936 -0.490219,0.423479 -0.765939,0.895924 -0.07288,-0.0656 -0.149986,-0.128761 -0.223117,-0.190008 l -0.03393,-0.800154 1.210006,-1.384281 z m -1.791026,0.04646 0.04135,1.166163 -0.0016,0.0057 0.0113,0.0033 0.02573,0.550255 c -0.05626,-0.03527 -0.111349,-0.05922 -0.151267,-0.07677 -2.47e-4,-0.0031 0.0027,-0.0068 0.0025,-0.0085 -0.0098,-0.346579 -0.102761,-0.639705 -0.29277,-0.702357 -0.116898,-0.03853 -0.26087,0.02761 -0.407346,0.135182 -0.05947,-0.170318 -0.130722,-0.31622 -0.215633,-0.411549 0.118775,-0.152065 0.248125,-0.352639 0.316996,-0.617732 0.262471,0.0037 0.483945,-0.01107 0.671043,-0.04369 z"
     id="path4232" />
  <path
     inkscape:connector-curvature="0"
     style="display:inline;overflow:visible;visibility:visible;fill:#1ca21c;fill-opacity:1;fill-rule:evenodd;stroke:none;stroke-width:0.49999994;stroke-linecap:round;stroke-linejoin:miter;stroke-miterlimit:4;stroke-dasharray:none;stroke-dashoffset:0;stroke-opacity:1;marker:none;enable-background:accumulate"
     d="m 27.559972,17.026384 c -0.07835,0.101997 -0.133518,0.269266 -0.147896,0.467029 l -0.02487,-0.0072 c -0.0613,-0.209922 -0.306926,-0.220763 -0.217722,-0.260071 -0.744445,-0.342641 -1.189956,-0.510648 -1.337386,-0.361542 -0.02149,0.02124 -0.0346,0.05423 -0.04369,0.08869 -0.05164,0.193582 0.691818,0.597014 1.208471,0.66113 0.01799,0.01137 0.0357,0.01953 0.05385,0.03091 -0.53974,0.112549 -0.803417,0.23354 -0.729635,0.441209 0.07573,0.212998 1.077891,0.296257 1.461554,0.05766 0.09148,0.06749 0.18414,0.143263 0.275894,0.214347 -0.978666,0.298384 -1.519972,0.417273 -1.433645,0.66024 0.08109,0.228285 1.610937,0.137284 1.992858,-0.205571 0.106497,0.09017 0.208914,0.182678 0.314752,0.276327 -1.08214,0.377906 -2.045307,0.878942 -1.957743,1.125352 0.08032,0.226184 1.996602,-0.234762 2.484139,-0.650377 0.1152,0.108735 0.23093,0.218389 0.344173,0.329595 -1.163766,0.440869 -2.556827,1.381775 -2.467403,1.633443 0.08128,0.228676 2.407018,-0.655048 2.938528,-1.153647 0.06683,0.06904 0.135281,0.135185 0.200953,0.204492 0.0611,0.06447 0.120418,0.127963 0.180478,0.192589 -1.208492,0.451378 -2.962372,1.615417 -2.871559,1.870956 0.08306,0.233635 2.809417,-0.868152 3.317405,-1.386577 0.13022,0.146233 0.255348,0.294376 0.378516,0.437981 -1.23593,0.477216 -3.327143,2.061757 -3.235373,2.320016 0.08336,0.234728 3.112952,-1.264234 3.64216,-1.835039 0.0922,0.111977 0.177779,0.21929 0.264061,0.327201 -1.223205,0.498349 -3.232793,2.578971 -3.066079,2.777747 0.160572,0.191543 3.012123,-1.586095 3.513974,-2.197338 0.108795,0.14398 0.213446,0.270205 0.306048,0.399038 -1.163998,0.455964 -2.445588,1.821577 -2.280101,2.018883 0.152903,0.18229 2.147587,-0.828854 2.69065,-1.371768 l 0.400987,-1.380661 c -0.151495,0.150229 -0.301334,0.308313 -0.42795,0.504977 -0.0893,-0.12458 -0.184355,-0.262381 -0.287889,-0.399734 0.197055,-0.0295 0.578119,-0.432657 0.942693,-0.886337 l 0.407376,-1.402656 c -0.522606,0.301659 -1.335939,1.003091 -1.766947,1.756362 -0.09407,-0.118176 -0.187183,-0.243888 -0.288393,-0.367083 0.476638,-0.08514 1.878139,-2.14022 1.567361,-2.35711 -0.218466,-0.152472 -1.394682,0.7638 -1.99855,1.853122 -0.116921,-0.136413 -0.237858,-0.275936 -0.361237,-0.415067 0.513198,-0.261408 1.551933,-1.977488 1.319077,-2.110119 -0.226978,-0.129286 -1.203828,0.527797 -1.806971,1.574743 -0.07211,-0.07775 -0.140231,-0.154331 -0.213881,-0.232097 -0.03801,-0.04005 -0.08002,-0.07791 -0.11836,-0.1179 0.466201,-0.238808 1.148974,-1.609151 0.93848,-1.716644 -0.234183,-0.119622 -0.8583,0.166128 -1.442646,1.206379 -0.118243,-0.117252 -0.239643,-0.231334 -0.36029,-0.346217 0.354087,-0.26627 0.58344,-1.262028 0.34934,-1.511968 l -0.138047,-0.04009 c -0.220568,0.01825 -0.518233,0.407829 -0.759311,1.038008 -0.110929,-0.09864 -0.221676,-0.198448 -0.333645,-0.293725 0.21574,-0.248517 0.271812,-0.789749 0.14632,-1.019216 l -0.325648,-0.09458 c -0.190836,0.08337 -0.324447,0.330397 -0.424041,0.625412 -0.0822,-0.06358 -0.162448,-0.126424 -0.244804,-0.187452 0.05714,-0.192808 -0.0023,-0.470062 -0.10938,-0.664027 l -0.419483,-0.121831 z"
     id="path3458-9" />
  <path
     inkscape:connector-curvature="0"
     sodipodi:nodetypes="csssc"
     id="path3872"
     d="m 31.535237,25.685813 c -0.236109,0.81296 -0.749496,0.786867 -1.341474,0.614937 -0.591965,-0.171925 -1.039441,-0.424957 -0.803348,-1.237861 0.236109,-0.81296 0.908169,-1.333207 1.500134,-1.161282 0.591979,0.17193 0.880797,0.971245 0.644688,1.784206 z"
     style="display:inline;overflow:visible;visibility:visible;fill:#cec77e;fill-opacity:1;fill-rule:evenodd;stroke:none;stroke-width:0.5;stroke-linecap:round;stroke-linejoin:round;stroke-miterlimit:4;stroke-dasharray:none;stroke-dashoffset:0;stroke-opacity:1;marker:none;marker-start:none;marker-mid:none;marker-end:none;enable-background:accumulate" />
  <path
     inkscape:connector-curvature="0"
     id="path3874"
     d="m 31.478945,21.56848 c -1.086675,-0.315604 -2.206458,0.245672 -2.499705,1.255366 -0.09327,0.321146 -0.09042,0.650556 -0.01002,0.958452 9.02e-4,0.0012 0.002,0.0036 0.0034,0.004 0.242926,0.265559 0.863569,0.582993 1.62899,0.805296 0.765506,0.222327 1.462161,0.287538 1.810524,0.193647 0.0013,-0.0012 0.0032,-6.32e-4 0.005,-0.0016 0.232785,-0.216891 0.408119,-0.494673 0.50137,-0.815749 0.293246,-1.009694 -0.35166,-2.083491 -1.438335,-2.399096 z"
     style="display:inline;overflow:visible;visibility:visible;fill:#b84646;fill-opacity:1;fill-rule:evenodd;stroke:none;stroke-width:0.5;stroke-linecap:round;stroke-linejoin:round;stroke-miterlimit:4;stroke-dasharray:none;stroke-dashoffset:0;stroke-opacity:1;marker:none;marker-start:none;marker-mid:none;marker-end:none;enable-background:accumulate" />
  <ellipse
     ry="0.43438315"
     rx="0.42119685"
     cy="13.153054"
     cx="35.563477"
     id="path3876"
     style="display:inline;overflow:visible;visibility:visible;fill:#fcfbf0;fill-opacity:1;fill-rule:evenodd;stroke:none;stroke-width:0.5;stroke-linecap:round;stroke-linejoin:round;stroke-miterlimit:4;stroke-dasharray:none;stroke-dashoffset:0;stroke-opacity:1;marker:none;marker-start:none;marker-mid:none;marker-end:none;enable-background:accumulate"
     transform="matrix(0.96031824,0.27890659,-0.27890659,0.96031824,0,0)" />
  <ellipse
     ry="0.43423593"
     rx="0.33263764"
     cy="22.907988"
     cx="29.751728"
     transform="matrix(0.99991233,0.01324106,-0.01571987,0.99987644,0,0)"
     style="display:inline;overflow:visible;visibility:visible;fill:#fcfbf0;fill-opacity:1;fill-rule:evenodd;stroke:none;stroke-width:0.5;stroke-linecap:round;stroke-linejoin:round;stroke-miterlimit:4;stroke-dasharray:none;stroke-dashoffset:0;stroke-opacity:1;marker:none;marker-start:none;marker-mid:none;marker-end:none;enable-background:accumulate"
     id="path3878" />
  <ellipse
     ry="0.43438315"
     rx="0.42119685"
     cy="14.311416"
     cx="36.405869"
     style="display:inline;overflow:visible;visibility:visible;fill:#fcfbf0;fill-opacity:1;fill-rule:evenodd;stroke:none;stroke-width:0.5;stroke-linecap:round;stroke-linejoin:round;stroke-miterlimit:4;stroke-dasharray:none;stroke-dashoffset:0;stroke-opacity:1;marker:none;marker-start:none;marker-mid:none;marker-end:none;enable-background:accumulate"
     id="path3880"
     transform="matrix(0.96031824,0.27890659,-0.27890659,0.96031824,0,0)" />
  <ellipse
     ry="0.43253493"
     rx="0.33394641"
     cy="-38.867241"
     cx="-1.0910259"
     id="path3882"
     style="display:inline;overflow:visible;visibility:visible;fill:#fcfbf0;fill-opacity:1;fill-rule:evenodd;stroke:none;stroke-width:0.5;stroke-linecap:round;stroke-linejoin:round;stroke-miterlimit:4;stroke-dasharray:none;stroke-dashoffset:0;stroke-opacity:1;marker:none;marker-start:none;marker-mid:none;marker-end:none;enable-background:accumulate"
     transform="matrix(-0.59372612,0.80466719,-0.80278736,-0.59626542,0,0)" />
  <ellipse
     ry="0.43436733"
     rx="0.33253622"
     cy="16.950457"
     cx="36.318027"
     id="path3884"
     style="display:inline;overflow:visible;visibility:visible;fill:#fcfbf0;fill-opacity:1;fill-rule:evenodd;stroke:none;stroke-width:0.5;stroke-linecap:round;stroke-linejoin:round;stroke-miterlimit:4;stroke-dasharray:none;stroke-dashoffset:0;stroke-opacity:1;marker:none;marker-start:none;marker-mid:none;marker-end:none;enable-background:accumulate"
     transform="matrix(0.98103359,0.1938378,-0.19466325,0.98087013,0,0)" />
  <path
     sodipodi:type="star"
     style="color:#000000;clip-rule:nonzero;display:inline;overflow:visible;visibility:visible;opacity:1;isolation:auto;mix-blend-mode:normal;color-interpolation:sRGB;color-interpolation-filters:linearRGB;solid-color:#000000;solid-opacity:1;fill:#afdf65;fill-opacity:1;fill-rule:nonzero;stroke:none;stroke-width:0.5;stroke-linecap:round;stroke-linejoin:miter;stroke-miterlimit:4;stroke-dasharray:none;stroke-dashoffset:0;stroke-opacity:1;marker:none;marker-start:none;marker-mid:none;marker-end:none;color-rendering:auto;image-rendering:auto;shape-rendering:auto;text-rendering:auto;enable-background:accumulate"
     id="path5095"
     sodipodi:sides="5"
     sodipodi:cx="159.84714"
     sodipodi:cy="168.96715"
     sodipodi:r1="2.3792267"
     sodipodi:r2="1.1896133"
     sodipodi:arg1="-1.5707963"
     sodipodi:arg2="-0.9424778"
     inkscape:flatsided="false"
     inkscape:rounded="0"
     inkscape:randomized="0"
     d="m 159.84714,166.58792 0.69923,1.41681 1.56355,0.2272 -1.13139,1.10283 0.26708,1.55722 -1.39847,-0.73522 -1.39848,0.73522 0.26709,-1.55722 -1.13139,-1.10283 1.56354,-0.2272 z"
     inkscape:transform-center-y="-0.064260549"
     transform="matrix(0.89343544,0.50011844,-0.49992941,0.88995435,-33.326953,-207.62964)"
     inkscape:transform-center-x="-0.17048084" />
  <path
     style="display:inline;overflow:visible;visibility:visible;fill:#b9a179;fill-opacity:1;fill-rule:evenodd;stroke:none;stroke-width:0.5;stroke-linecap:round;stroke-linejoin:round;stroke-miterlimit:4;stroke-dasharray:none;stroke-dashoffset:0;stroke-opacity:1;marker:none;enable-background:accumulate"
     d="m 28.152286,15.233267 c -0.361411,-0.317562 -0.919218,-0.282392 -1.237513,0.07793 -6.31e-4,-0.0032 -0.0076,-0.0052 -0.0087,-0.0071 -0.153853,-0.455187 -0.655898,-0.702859 -1.112287,-0.549535 -0.456386,0.153311 -0.704556,0.653974 -0.550721,1.109171 4.39e-4,0.0011 -0.0081,0.0068 -0.0071,0.0086 -0.472156,-0.09483 -0.931506,0.205532 -1.026465,0.676407 -0.09493,0.47087 0.214644,0.936376 0.686799,1.031209 0.0058,0.001 0.01154,-0.0028 0.01606,-0.0015 -0.0044,0.0049 -0.0093,0.01103 -0.01405,0.01684 -0.318306,0.360368 -0.28293,0.916662 0.07848,1.234224 0.36143,0.317551 0.910849,0.275233 1.229189,-0.08525 0.0048,-0.0062 0.0093,-0.01103 0.01405,-0.01684 0.0016,0.005 -0.0014,0.01027 -2.8e-5,0.01587 0.15385,0.455201 0.655898,0.702859 1.112288,0.549535 0.456385,-0.15331 0.697209,-0.645664 0.543374,-1.10086 0.0014,6.29e-4 0.0056,-0.009 0.0071,-0.0086 0.472156,0.09483 0.938848,-0.213828 1.033822,-0.684699 0.09493,-0.470871 -0.214654,-0.936395 -0.686814,-1.031214 -0.0028,-6.25e-4 -0.0059,-0.0063 -0.0087,-0.0071 0.318307,-0.360368 0.291225,-0.909366 -0.07016,-1.226904 z"
     id="path3399"
     sodipodi:nodetypes="csssssssssssssssssssc"
     inkscape:connector-curvature="0" />
  <ellipse
     ry="0.97993469"
     rx="0.98052108"
     cy="-4.7412653"
     cx="31.180853"
     style="display:inline;overflow:visible;visibility:visible;fill:#d7ce5a;fill-opacity:1;fill-rule:evenodd;stroke:none;stroke-width:0.50000006;stroke-linecap:round;stroke-linejoin:round;stroke-miterlimit:4;stroke-dasharray:none;stroke-dashoffset:0;stroke-opacity:1;marker:none;enable-background:accumulate"
     id="path3412"
     transform="matrix(0.7512211,0.66005064,-0.66202131,0.74948501,0,0)" />
  <path
     inkscape:transform-center-x="0.10144168"
     transform="matrix(0.58360463,0.02631936,-0.02532922,0.58187942,-56.287187,-82.383819)"
     inkscape:transform-center-y="-0.032417306"
     d="m 159.84714,166.58792 0.69923,1.41681 1.56355,0.2272 -1.13139,1.10283 0.26708,1.55722 -1.39847,-0.73522 -1.39848,0.73522 0.26709,-1.55722 -1.13139,-1.10283 1.56354,-0.2272 z"
     inkscape:randomized="0"
     inkscape:rounded="0"
     inkscape:flatsided="false"
     sodipodi:arg2="-0.9424778"
     sodipodi:arg1="-1.5707963"
     sodipodi:r2="1.1896133"
     sodipodi:r1="2.3792267"
     sodipodi:cy="168.96715"
     sodipodi:cx="159.84714"
     sodipodi:sides="5"
     id="path5097"
     style="color:#000000;clip-rule:nonzero;display:inline;overflow:visible;visibility:visible;opacity:1;isolation:auto;mix-blend-mode:normal;color-interpolation:sRGB;color-interpolation-filters:linearRGB;solid-color:#000000;solid-opacity:1;fill:#afdf65;fill-opacity:1;fill-rule:nonzero;stroke:none;stroke-width:0.5;stroke-linecap:round;stroke-linejoin:miter;stroke-miterlimit:4;stroke-dasharray:none;stroke-dashoffset:0;stroke-opacity:1;marker:none;marker-start:none;marker-mid:none;marker-end:none;color-rendering:auto;image-rendering:auto;shape-rendering:auto;text-rendering:auto;enable-background:accumulate"
     sodipodi:type="star" />
  <path
     style="color:#000000;clip-rule:nonzero;display:inline;overflow:visible;visibility:visible;opacity:1;isolation:auto;mix-blend-mode:normal;color-interpolation:sRGB;color-interpolation-filters:linearRGB;solid-color:#000000;solid-opacity:1;fill:none;fill-opacity:1;fill-rule:nonzero;stroke:#80d0db;stroke-width:0.30000001;stroke-linecap:round;stroke-linejoin:miter;stroke-miterlimit:4;stroke-dasharray:none;stroke-dashoffset:0;stroke-opacity:1;marker:none;marker-start:none;marker-mid:none;marker-end:none;color-rendering:auto;image-rendering:auto;shape-rendering:auto;text-rendering:auto;enable-background:accumulate"
     d="m 26.081983,12.224961 8.765516,2.545781"
     id="path5099"
     inkscape:connector-curvature="0" />
  <path
     inkscape:connector-curvature="0"
     id="path5101"
     d="m 25.840352,13.056931 8.765517,2.545782"
     style="color:#000000;clip-rule:nonzero;display:inline;overflow:visible;visibility:visible;opacity:1;isolation:auto;mix-blend-mode:normal;color-interpolation:sRGB;color-interpolation-filters:linearRGB;solid-color:#000000;solid-opacity:1;fill:none;fill-opacity:1;fill-rule:nonzero;stroke:#80d0db;stroke-width:0.30000001;stroke-linecap:round;stroke-linejoin:miter;stroke-miterlimit:4;stroke-dasharray:none;stroke-dashoffset:0;stroke-opacity:1;marker:none;marker-start:none;marker-mid:none;marker-end:none;color-rendering:auto;image-rendering:auto;shape-rendering:auto;text-rendering:auto;enable-background:accumulate" />
  <path
     style="color:#000000;clip-rule:nonzero;display:inline;overflow:visible;visibility:visible;opacity:1;isolation:auto;mix-blend-mode:normal;color-interpolation:sRGB;color-interpolation-filters:linearRGB;solid-color:#000000;solid-opacity:1;fill:none;fill-opacity:1;fill-rule:nonzero;stroke:#80d0db;stroke-width:0.30000001;stroke-linecap:round;stroke-linejoin:miter;stroke-miterlimit:4;stroke-dasharray:none;stroke-dashoffset:0;stroke-opacity:1;marker:none;marker-start:none;marker-mid:none;marker-end:none;color-rendering:auto;image-rendering:auto;shape-rendering:auto;text-rendering:auto;enable-background:accumulate"
     d="m 25.60266,13.875341 8.765517,2.545782"
     id="path5103"
     inkscape:connector-curvature="0" />
  <path
     style="display:inline;overflow:visible;visibility:visible;fill:#265881;fill-opacity:1;stroke:#000000;stroke-width:0.49999997;stroke-linecap:round;stroke-linejoin:miter;stroke-miterlimit:4;stroke-dashoffset:0;stroke-opacity:1;marker:none;enable-background:accumulate"
     d="m 15.390368,27.278085 c -0.07056,1.38393 -0.09292,2.499719 -0.961634,2.457935 L 10.573932,29.550593 C 9.1874137,29.483893 8.1279972,28.316067 8.1985586,26.932137 8.2691306,25.548214 9.4421687,24.487765 10.828697,24.55447 l 3.854792,0.18542 c 0.753655,0.03626 0.77745,1.154271 0.706879,2.538195 z"
     id="path4398-1-1"
     sodipodi:nodetypes="cccsccc"
     inkscape:connector-curvature="0" />
  <path
     style="display:inline;overflow:visible;visibility:visible;fill:#ffc78f;fill-opacity:1;fill-rule:evenodd;stroke:#000000;stroke-width:0.49999997;stroke-linecap:round;stroke-linejoin:miter;stroke-miterlimit:4;stroke-dasharray:none;stroke-dashoffset:0;stroke-opacity:1;marker:none;enable-background:accumulate"
     d="m 21.141594,24.412928 c -0.281141,1.319957 -1.288727,0.609452 -2.876153,0.944943 0.469515,0.175537 0.871795,0.468541 1.118673,0.792015 0.271666,0.355964 0.367251,0.772375 0.250406,1.150537 -0.167981,0.543707 -0.753336,0.865017 -1.46632,0.883529 -0.02602,0.07607 -0.06619,0.148429 -0.09802,0.222394 0.261686,0.584106 0.236683,1.180571 -0.119623,1.565318 -0.361939,0.390838 -0.975515,0.436928 -1.588594,0.20398 0.01474,0.260635 -0.01544,0.510909 -0.177885,0.68742 -0.408537,0.44388 -1.237667,0.325252 -1.866833,-0.263095 -0.157283,-0.147081 -0.271678,-0.285419 -0.370275,-0.453076 -0.01181,-0.0047 -0.01241,-0.02945 -0.02406,-0.03413 -0.564424,-0.225039 -1.100249,-0.621288 -1.474916,-1.152889 -0.828869,-1.176056 -0.757081,-2.721984 0.05898,-3.820165 -0.305954,-0.637269 0.01496,-1.547581 0.819745,-2.162397 0.884416,-0.675572 1.989412,-0.741276 2.468977,-0.111534 0.160028,0.21016 0.204807,0.506297 0.194292,0.781728 0.883851,-0.475994 1.216327,-0.59 2.449106,-1.048056 1.232777,-0.458057 2.98362,0.493521 2.702479,1.81348 z"
     id="path4821-8"
     inkscape:connector-curvature="0"
     sodipodi:nodetypes="zccsccsccsccscssczz"
     inkscape:transform-center-x="-0.2350993"
     inkscape:transform-center-y="0.25309026" />
  <path
     style="display:inline;overflow:visible;visibility:visible;fill:#ffc78f;fill-opacity:1;fill-rule:evenodd;stroke:#000000;stroke-width:0.5;stroke-linecap:round;stroke-linejoin:miter;stroke-miterlimit:4;stroke-dasharray:none;stroke-dashoffset:0;stroke-opacity:1;marker:none;enable-background:accumulate"
     d="m 35.592282,20.966496 c 0.948155,0.221757 1.576974,0.912099 1.41609,1.521032 -0.06799,0.258909 -0.291994,0.462634 -0.574354,0.596446 0.807301,0.44915 1.275032,1.184376 1.022482,1.769063 -0.17683,0.40927 -0.656309,0.619657 -1.234124,0.649042 0.338443,0.445134 0.46409,0.979079 0.245452,1.388675 -0.231689,0.434177 -0.792294,0.583989 -1.399124,0.522273 0.07569,0.228638 0.109408,0.485265 0.0056,0.681101 -0.260954,0.492492 -1.001524,0.569258 -1.707889,0.194829 -0.70634,-0.374415 -1.102374,-1.065309 -0.841467,-1.557815 0.13052,-0.246244 0.374341,-0.40457 0.691493,-0.443293 -0.219295,-0.388949 -0.247111,-0.835172 -0.06444,-1.177426 0.16456,-0.308289 0.481941,-0.458068 0.872362,-0.511877 -0.343742,-0.394239 -0.50304,-0.827319 -0.335806,-1.214467 0.09628,-0.222724 0.31248,-0.407272 0.553107,-0.522535 -0.49864,-0.31253 -0.777817,-0.763847 -0.665697,-1.18817 0.16086,-0.608942 1.068097,-0.928639 2.016252,-0.70688 z"
     id="path3525-3"
     inkscape:connector-curvature="0" />
</svg>
