<?xml version="1.0" encoding="UTF-8" standalone="no"?>
<svg
   xmlns:dc="http://purl.org/dc/elements/1.1/"
   xmlns:cc="http://creativecommons.org/ns#"
   xmlns:rdf="http://www.w3.org/1999/02/22-rdf-syntax-ns#"
   xmlns:svg="http://www.w3.org/2000/svg"
   xmlns="http://www.w3.org/2000/svg"
   version="1.1"
   id="ppvs"
   viewBox="0 0 80 60"
   height="100%"
   width="100%">
  <metadata
     id="metadata283">
    <rdf:RDF>
      <cc:Work
         rdf:about="">
        <dc:format>image/svg+xml</dc:format>
        <dc:type
           rdf:resource="http://purl.org/dc/dcmitype/StillImage" />
        <dc:title></dc:title>
      </cc:Work>
    </rdf:RDF>
  </metadata>
  <defs
     id="defs5015" />
  <path
     id="path3706"
     d="M 33.050781 -2.0332031 L 33.076172 1.1914062 L 30.697266 3.3710938 L 33.773438 4.34375 L 35.109375 7.2792969 L 36.984375 4.6542969 L 40.191406 4.2910156 L 38.273438 1.6953125 L 38.917969 -1.4648438 L 35.857422 -0.44335938 L 33.050781 -2.0332031 z M -3.3183594 -0.234375 L -2.8105469 7.53125 L -8.921875 12.351562 L -1.3789062 14.269531 L 1.3164062 21.570312 L 5.4726562 14.990234 L 13.248047 14.681641 L 8.2734375 8.6972656 L 10.384766 1.2050781 L 3.1542969 4.0878906 L -3.3183594 -0.234375 z M 76.681641 -0.234375 L 77.189453 7.53125 L 71.078125 12.351562 L 78.621094 14.269531 L 81.316406 21.570312 L 85.472656 14.990234 L 93.248047 14.681641 L 88.273438 8.6972656 L 90.384766 1.2050781 L 83.154297 4.0878906 L 76.681641 -0.234375 z M 17.542969 1.0175781 L 16.173828 3.0605469 L 13.740234 3.4101562 L 15.259766 5.34375 L 14.841797 7.765625 L 17.148438 6.9179688 L 19.324219 8.0644531 L 19.230469 5.6074219 L 20.994141 3.8945312 L 18.626953 3.2226562 L 17.542969 1.0175781 z M 55.439453 2.15625 L 55.908203 8.1914062 L 51.738281 12.580078 L 57.623047 14 L 60.507812 19.322266 L 63.677734 14.164062 L 69.630859 13.064453 L 65.703125 8.4570312 L 66.498047 2.4550781 L 60.902344 4.765625 L 55.439453 2.15625 z M 46.525391 2.5429688 L 46.230469 5.015625 L 44.195312 6.453125 L 46.455078 7.4980469 L 47.193359 9.8769531 L 48.886719 8.0507812 L 51.376953 8.0839844 L 50.162109 5.9101562 L 50.964844 3.5507812 L 48.521484 4.0351562 L 46.525391 2.5429688 z M 72.259766 2.6992188 L 71.158203 3.5527344 L 69.789062 3.3046875 L 70.257812 4.6152344 L 69.599609 5.84375 L 70.992188 5.8007812 L 71.955078 6.8066406 L 72.345703 5.46875 L 73.599609 4.8632812 L 72.449219 4.0800781 L 72.259766 2.6992188 z M 25.552734 4.8769531 L 25.466797 6.4921875 L 24.208984 7.5117188 L 25.720703 8.09375 L 26.300781 9.6035156 L 27.320312 8.3457031 L 28.9375 8.2617188 L 28.056641 6.9023438 L 28.474609 5.3398438 L 26.910156 5.7578125 L 25.552734 4.8769531 z M 39.072266 7.8925781 L 37.005859 8.9570312 L 34.830078 8.1347656 L 35.205078 10.429688 L 33.751953 12.244141 L 36.048828 12.597656 L 37.326172 14.539062 L 38.371094 12.462891 L 40.613281 11.849609 L 38.960938 10.214844 L 39.072266 7.8925781 z M 22.626953 11.949219 L 20.9375 13.240234 L 18.847656 12.847656 L 19.552734 14.853516 L 18.535156 16.720703 L 20.660156 16.669922 L 22.121094 18.214844 L 22.728516 16.177734 L 24.650391 15.265625 L 22.900391 14.058594 L 22.626953 11.949219 z M 32.542969 16.017578 L 28.8125 19.529297 L 23.707031 19.111328 L 25.896484 23.742188 L 23.919922 28.46875 L 29.001953 27.820312 L 32.886719 31.160156 L 33.837891 26.125 L 38.214844 23.462891 L 33.722656 21.001953 L 32.542969 16.017578 z M 50.605469 16.570312 L 46.666016 18.794922 L 42.376953 17.357422 L 43.275391 21.792969 L 40.583984 25.427734 L 45.078125 25.943359 L 47.705078 29.626953 L 49.583984 25.511719 L 53.898438 24.152344 L 50.564453 21.09375 L 50.605469 16.570312 z M 13.728516 17.669922 L 13.673828 18.582031 L 12.958984 19.152344 L 13.810547 19.486328 L 14.130859 20.341797 L 14.712891 19.636719 L 15.625 19.595703 L 15.134766 18.824219 L 15.376953 17.943359 L 14.492188 18.173828 L 13.728516 17.669922 z M 55.296875 17.796875 L 54.917969 18.617188 L 54.054688 18.882812 L 54.716797 19.498047 L 54.705078 20.400391 L 55.494141 19.960938 L 56.347656 20.251953 L 56.173828 19.365234 L 56.714844 18.642578 L 55.818359 18.535156 L 55.296875 17.796875 z M 75.507812 18.304688 L 74.810547 20.167969 L 72.958984 20.896484 L 74.513672 22.136719 L 74.634766 24.123047 L 76.294922 23.025391 L 78.220703 23.525391 L 77.691406 21.607422 L 78.761719 19.929688 L 76.773438 19.841797 L 75.507812 18.304688 z M 64.742188 18.849609 L 64.195312 22.851562 L 60.857422 25.125 L 64.494141 26.880859 L 65.625 30.759766 L 68.419922 27.84375 L 72.457031 27.966797 L 70.546875 24.40625 L 71.912109 20.605469 L 67.935547 21.322266 L 64.742188 18.849609 z M 10.423828 23.898438 L 9.9960938 28.5625 L 6.2460938 31.367188 L 10.548828 33.214844 L 12.056641 37.650391 L 15.144531 34.126953 L 19.828125 34.0625 L 17.431641 30.039062 L 18.818359 25.564453 L 14.25 26.599609 L 10.423828 23.898438 z M 4.8300781 24.916016 L 3.5058594 26.228516 L 1.6445312 26.123047 L 2.4824219 27.787109 L 1.8066406 29.525391 L 3.6503906 29.242188 L 5.09375 30.421875 L 5.3945312 28.582031 L 6.9628906 27.572266 L 5.3046875 26.71875 L 4.8300781 24.916016 z M 57.361328 28.591797 L 56.716797 29.832031 L 55.363281 30.183594 L 56.34375 31.179688 L 56.259766 32.576172 L 57.509766 31.951172 L 58.810547 32.460938 L 58.603516 31.080078 L 59.492188 30 L 58.113281 29.769531 L 57.361328 28.591797 z M 81.582031 30.466797 L 78.494141 31.925781 L 75.341797 30.607422 L 75.775391 33.996094 L 73.548828 36.585938 L 76.904297 37.220703 L 78.679688 40.138672 L 80.320312 37.142578 L 83.644531 36.355469 L 81.302734 33.869141 L 81.582031 30.466797 z M 50.396484 31.984375 L 49.96875 32.8125 L 49.068359 33.050781 L 49.724609 33.712891 L 49.671875 34.644531 L 50.503906 34.224609 L 51.373047 34.5625 L 51.232422 33.640625 L 51.822266 32.917969 L 50.900391 32.769531 L 50.396484 31.984375 z M 24.152344 32.289062 L 24.101562 34.337891 L 22.546875 35.671875 L 24.480469 36.351562 L 25.267578 38.244141 L 26.513672 36.615234 L 28.556641 36.451172 L 27.392578 34.763672 L 27.867188 32.769531 L 25.902344 33.355469 L 24.152344 32.289062 z M 40.677734 33.050781 L 40.546875 35.242188 L 38.830078 36.609375 L 40.873047 37.412109 L 41.644531 39.466797 L 43.039062 37.771484 L 45.230469 37.673828 L 44.050781 35.824219 L 44.632812 33.708984 L 42.509766 34.259766 L 40.677734 33.050781 z M 68.941406 34.609375 L 68.474609 36.015625 L 67.119141 36.609375 L 68.310547 37.488281 L 68.457031 38.962891 L 69.662109 38.099609 L 71.109375 38.414062 L 70.660156 37.003906 L 71.408203 35.724609 L 69.925781 35.716797 L 68.941406 34.609375 z M 58.943359 34.917969 L 58.603516 35.884766 L 57.658203 36.277344 L 58.472656 36.900391 L 58.554688 37.921875 L 59.398438 37.339844 L 60.394531 37.578125 L 60.101562 36.595703 L 60.634766 35.720703 L 59.611328 35.695312 L 58.943359 34.917969 z M 6.9199219 36.722656 L 6.6132812 38.162109 L 5.3398438 38.898438 L 6.6132812 39.634766 L 6.9199219 41.074219 L 8.0136719 40.089844 L 9.4785156 40.244141 L 8.8789062 38.898438 L 9.4785156 37.552734 L 8.0136719 37.707031 L 6.9199219 36.722656 z M 51.609375 37.880859 L 51.638672 44.697266 L 46.595703 49.283203 L 53.085938 51.361328 L 55.888672 57.576172 L 59.873047 52.044922 L 66.648438 51.300781 L 62.617188 45.802734 L 64.003906 39.128906 L 57.529297 41.261719 L 51.609375 37.880859 z M 34.576172 38.644531 L 33.050781 39.650391 L 31.279297 39.191406 L 31.765625 40.955078 L 30.783203 42.496094 L 32.609375 42.578125 L 33.771484 43.990234 L 34.414062 42.279297 L 36.115234 41.609375 L 34.685547 40.46875 L 34.576172 38.644531 z M 23.162109 39.015625 L 22.09375 42.466797 L 18.814453 43.982422 L 21.765625 46.066406 L 22.195312 49.654297 L 25.087891 47.490234 L 28.632812 48.191406 L 27.46875 44.769531 L 29.230469 41.615234 L 25.617188 41.666016 L 23.162109 39.015625 z M 14.332031 40.216797 L 14.044922 41.244141 L 13.091797 41.720703 L 13.980469 42.308594 L 14.136719 43.363281 L 14.972656 42.701172 L 16.023438 42.876953 L 15.652344 41.876953 L 16.144531 40.931641 L 15.078125 40.978516 L 14.332031 40.216797 z M 75.828125 41.628906 L 73.650391 44.007812 L 70.423828 43.982422 L 72.013672 46.791016 L 70.992188 49.849609 L 74.152344 49.205078 L 76.748047 51.123047 L 77.111328 47.917969 L 79.736328 46.041016 L 76.800781 44.705078 L 75.828125 41.628906 z M 5.2792969 42.78125 L 4.1621094 46.427734 L 0.703125 48.039062 L 3.8261719 50.230469 L 4.2890625 54.015625 L 7.3378906 51.722656 L 11.082031 52.453125 L 9.84375 48.84375 L 11.695312 45.507812 L 7.8808594 45.572266 L 5.2792969 42.78125 z M 40.773438 47.128906 L 39.181641 48.783203 L 36.886719 48.707031 L 37.966797 50.732422 L 37.185547 52.890625 L 39.445312 52.490234 L 41.257812 53.900391 L 41.574219 51.626953 L 43.474609 50.339844 L 41.410156 49.335938 L 40.773438 47.128906 z M 15.207031 50.744141 L 14.599609 53.492188 L 12.152344 54.880859 L 14.576172 56.306641 L 15.140625 59.064453 L 17.246094 57.199219 L 20.042969 57.515625 L 18.919922 54.935547 L 20.083984 52.373047 L 17.283203 52.644531 L 15.207031 50.744141 z M 25.169922 51.355469 L 24.830078 54.560547 L 22.222656 56.453125 L 25.164062 57.765625 L 26.158203 60.830078 L 28.316406 58.4375 L 31.539062 58.439453 L 29.929688 55.646484 L 30.927734 52.583984 L 27.775391 53.25 L 25.169922 51.355469 z M 71.826172 51.912109 L 69.527344 53.759766 L 66.617188 53.291016 L 67.664062 56.046875 L 66.318359 58.669922 L 69.263672 58.525391 L 71.341797 60.617188 L 72.115234 57.771484 L 74.746094 56.441406 L 72.277344 54.826172 L 71.826172 51.912109 z M 49.066406 54.433594 L 47.630859 55.285156 L 46.039062 54.789062 L 46.404297 56.416016 L 45.441406 57.777344 L 47.101562 57.933594 L 48.099609 59.269531 L 48.759766 57.738281 L 50.339844 57.203125 L 49.085938 56.101562 L 49.066406 54.433594 z M 6.2910156 55.298828 L 6.1191406 56.332031 L 5.2382812 56.898438 L 6.1679688 57.378906 L 6.4335938 58.392578 L 7.1796875 57.65625 L 8.2246094 57.716797 L 7.7539062 56.78125 L 8.1347656 55.804688 L 7.0996094 55.962891 L 6.2910156 55.298828 z M 33.050781 57.966797 L 33.076172 61.191406 L 30.697266 63.371094 L 33.773438 64.34375 L 35.109375 67.279297 L 36.984375 64.654297 L 40.191406 64.291016 L 38.273438 61.695312 L 38.917969 58.535156 L 35.857422 59.556641 L 33.050781 57.966797 z "
     style="fill:white" />
</svg>
