<?xml version="1.0" encoding="UTF-8" standalone="no"?>
<!-- Created with Inkscape (http://www.inkscape.org/) -->

<svg
   xmlns:dc="http://purl.org/dc/elements/1.1/"
   xmlns:cc="http://creativecommons.org/ns#"
   xmlns:rdf="http://www.w3.org/1999/02/22-rdf-syntax-ns#"
   xmlns:svg="http://www.w3.org/2000/svg"
   xmlns="http://www.w3.org/2000/svg"
   xmlns:sodipodi="http://sodipodi.sourceforge.net/DTD/sodipodi-0.dtd"
   xmlns:inkscape="http://www.inkscape.org/namespaces/inkscape"
   width="100%"
   height="100%"
   viewBox="0 0 40 30"
   id="ppvs"
   version="1.1"
   inkscape:version="0.91 r13725"
   sodipodi:docname="p012.svg">
  <defs
     id="defs5015" />
  <sodipodi:namedview
     id="base"
     pagecolor="#ffffff"
     bordercolor="#666666"
     borderopacity="1.0"
     inkscape:pageopacity="0.0"
     inkscape:pageshadow="2"
     inkscape:zoom="10.425892"
     inkscape:cx="23.008082"
     inkscape:cy="13.867594"
     inkscape:current-layer="layer1"
     inkscape:document-units="px"
     showgrid="false"
     inkscape:window-width="696"
     inkscape:window-height="640"
     inkscape:window-x="256"
     inkscape:window-y="19"
     inkscape:window-maximized="0" />
  <metadata
     id="metadata5018">
    <rdf:RDF>
      <cc:Work
         rdf:about="">
        <dc:format>image/svg+xml</dc:format>
        <dc:type
           rdf:resource="http://purl.org/dc/dcmitype/StillImage" />
        <dc:title></dc:title>
      </cc:Work>
    </rdf:RDF>
  </metadata>
  <g
     id="layer1"
     inkscape:label="Background"
     inkscape:groupmode="layer">
    <rect
       y="0"
       x="0"
       height="30"
       width="40"
       id="rect4629"
       style="fill:#9d6f33;fill-opacity:1" />
    <path
       style="color:#000000;clip-rule:nonzero;display:inline;overflow:visible;visibility:visible;opacity:1;isolation:auto;mix-blend-mode:normal;color-interpolation:sRGB;color-interpolation-filters:linearRGB;solid-color:#000000;solid-opacity:1;fill:#ffff00;fill-opacity:0.13812154;fill-rule:nonzero;stroke:none;stroke-width:0.5;stroke-linecap:round;stroke-linejoin:round;stroke-miterlimit:4;stroke-dasharray:none;stroke-dashoffset:0;stroke-opacity:1;marker:none;marker-start:none;marker-mid:none;marker-end:none;color-rendering:auto;image-rendering:auto;shape-rendering:auto;text-rendering:auto;enable-background:accumulate"
       d="M 0.87695312 0 L 16.871094 14.367188 A 5.7353167 5.7353167 0 0 1 17.259766 14.015625 L 4.3261719 0 L 0.87695312 0 z M 9.3066406 0 L 18.068359 13.457031 A 5.7353167 5.7353167 0 0 1 18.535156 13.216797 L 11.595703 0 L 9.3066406 0 z M 15.255859 0 L 19.458984 12.882812 A 5.7353167 5.7353167 0 0 1 19.974609 12.769531 L 17.097656 0 L 15.255859 0 z M 20.275391 0 L 20.955078 12.691406 A 5.7353167 5.7353167 0 0 1 21.482422 12.71875 L 21.994141 0 L 20.275391 0 z M 25.175781 0 L 22.449219 12.904297 A 5.7353167 5.7353167 0 0 1 22.951172 13.068359 L 27.021484 0 L 25.175781 0 z M 30.693359 0 L 23.837891 13.494141 A 5.7353167 5.7353167 0 0 1 24.279297 13.783203 L 32.992188 0 L 30.693359 0 z M 37.980469 0 L 25.025391 14.421875 A 5.7353167 5.7353167 0 0 1 25.375 14.818359 L 40 1.3222656 L 40 0 L 37.980469 0 z M 0 4.8515625 L 0 7.4511719 L 15.957031 15.558594 A 5.7353167 5.7353167 0 0 1 16.238281 15.117188 L 0 4.8515625 z M 40 6.4667969 L 25.921875 15.632812 A 5.7353167 5.7353167 0 0 1 26.15625 16.103516 L 40 8.8359375 L 40 6.4667969 z M 0 11.603516 L 0 13.691406 L 15.386719 16.943359 A 5.7353167 5.7353167 0 0 1 15.544922 16.445312 L 0 11.603516 z M 40 12.619141 L 26.476562 17.03125 A 5.7353167 5.7353167 0 0 1 26.582031 17.544922 L 40 14.521484 L 40 12.619141 z M 0 17.292969 L 0 19.238281 L 15.183594 18.425781 A 5.7353167 5.7353167 0 0 1 15.210938 17.904297 L 0 17.292969 z M 40 17.806641 L 26.650391 18.521484 A 5.7353167 5.7353167 0 0 1 26.619141 19.042969 L 40 19.580078 L 40 17.806641 z M 15.267578 19.396484 L 0 22.837891 L 0 24.921875 L 15.380859 19.904297 A 5.7353167 5.7353167 0 0 1 15.267578 19.396484 z M 26.429688 20.001953 A 5.7353167 5.7353167 0 0 1 26.261719 20.496094 L 40 24.775391 L 40 22.869141 L 26.429688 20.001953 z M 15.714844 20.816406 L 0 29.066406 L 0 30 L 2.5566406 30 L 15.953125 21.277344 A 5.7353167 5.7353167 0 0 1 15.714844 20.816406 z M 25.832031 21.371094 A 5.7353167 5.7353167 0 0 1 25.544922 21.804688 L 38.507812 30 L 40 30 L 40 28.570312 L 25.832031 21.371094 z M 16.503906 22.076172 L 7.9160156 30 L 10.078125 30 L 16.849609 22.462891 A 5.7353167 5.7353167 0 0 1 16.503906 22.076172 z M 24.912109 22.542969 A 5.7353167 5.7353167 0 0 1 24.519531 22.886719 L 31.083984 30 L 33.212891 30 L 24.912109 22.542969 z M 17.589844 23.087891 L 13.220703 30 L 14.65625 30 L 18.025391 23.369141 A 5.7353167 5.7353167 0 0 1 17.589844 23.087891 z M 23.712891 23.425781 A 5.7353167 5.7353167 0 0 1 23.248047 23.658203 L 26.578125 30 L 27.992188 30 L 23.712891 23.425781 z M 18.898438 23.785156 L 16.962891 30 L 18.111328 30 L 19.390625 23.947266 A 5.7353167 5.7353167 0 0 1 18.898438 23.785156 z M 22.333984 23.978516 A 5.7353167 5.7353167 0 0 1 21.826172 24.085938 L 23.158203 30 L 24.298828 30 L 22.333984 23.978516 z M 20.34375 24.130859 L 20.107422 30 L 21.171875 30 L 20.859375 24.158203 A 5.7353167 5.7353167 0 0 1 20.34375 24.130859 z "
       id="path9054" />
    <circle
       style="color:#000000;clip-rule:nonzero;display:inline;overflow:visible;visibility:visible;opacity:1;isolation:auto;mix-blend-mode:normal;color-interpolation:sRGB;color-interpolation-filters:linearRGB;solid-color:#000000;solid-opacity:1;fill:#efee22;fill-opacity:0.1160221;fill-rule:nonzero;stroke:none;stroke-width:1;stroke-linecap:butt;stroke-linejoin:miter;stroke-miterlimit:4;stroke-dasharray:none;stroke-dashoffset:0;stroke-opacity:1;marker:none;marker-start:none;marker-mid:none;marker-end:none;color-rendering:auto;image-rendering:auto;shape-rendering:auto;text-rendering:auto;enable-background:accumulate"
       id="path4347"
       cx="19.950331"
       cy="17.722872"
       r="15.825984" />
    <path
       style="color:#000000;clip-rule:nonzero;display:inline;overflow:visible;visibility:visible;opacity:1;isolation:auto;mix-blend-mode:normal;color-interpolation:sRGB;color-interpolation-filters:linearRGB;solid-color:#000000;solid-opacity:1;fill:#b3b3b3;fill-opacity:1;fill-rule:evenodd;stroke:#000000;stroke-width:0.5;stroke-linecap:round;stroke-linejoin:round;stroke-miterlimit:4;stroke-dasharray:none;stroke-dashoffset:0;stroke-opacity:1;marker:none;color-rendering:auto;image-rendering:auto;shape-rendering:auto;text-rendering:auto;enable-background:accumulate"
       d="m 23.583032,30.297704 c 5.030158,3.362998 12.010272,1.942484 11.849435,-4.254332 -0.126218,-4.862944 1.30258,-1.608598 1.029759,1.396126 -0.27282,3.004725 -4.682935,8.962549 -13.424206,4.517983"
       id="path5336"
       inkscape:connector-curvature="0"
       sodipodi:nodetypes="cssc" />
    <path
       inkscape:connector-curvature="0"
       style="color:#000000;display:inline;overflow:visible;visibility:visible;fill:#b3b3b3;fill-opacity:1;fill-rule:evenodd;stroke:#000000;stroke-width:0.49999997;stroke-linecap:round;stroke-linejoin:round;stroke-miterlimit:4;stroke-dasharray:none;stroke-dashoffset:0;stroke-opacity:1;marker:none;enable-background:accumulate"
       d="m 20.236108,22.987233 c -3.73076,0 -6.753906,3.023321 -6.753906,6.753907 0,2.05646 0.921338,3.49177 2.371094,4.36914 l 0,2.958982 3.201172,0 0,-1.968752 c 0.385212,0.0404 0.776834,0.0703 1.18164,0.0703 0.47354,0 0.936774,-0.0286 1.382813,-0.084 l 0,1.982422 3.199219,0 0,-3.087892 c 1.333547,-0.88654 2.173828,-2.28017 2.173828,-4.24023 0,-3.730585 -3.02511,-6.753906 -6.75586,-6.753906 z"
       id="path3519-7-1" />
    <path
       sodipodi:nodetypes="sssss"
       inkscape:connector-curvature="0"
       id="path3539-3-1"
       d="m 24.693799,30.66318 c 0,2.45641 -1.995349,3.5748 -4.456732,3.5748 -2.461393,0 -4.456744,-1.11839 -4.456744,-3.5748 0,-2.4564 1.995351,-4.447711 4.456744,-4.447711 2.461383,0 4.456732,1.991311 4.456732,4.447711 z"
       style="color:#000000;display:inline;overflow:visible;visibility:visible;fill:#cfcfcf;fill-opacity:1;fill-rule:evenodd;stroke:none;stroke-width:0.5;marker:none;enable-background:accumulate" />
    <path
       id="path2437-6"
       d="m 20.382522,5.73701 c -5.348458,0 -9.687249,4.338886 -9.687249,9.687458 0,1.104067 0.09078,2.020458 0.302726,2.815418 -0.184852,0.365942 -0.302726,0.726318 -0.302726,1.120112 0,2.032666 2.627056,4.064871 6.296712,4.874001 0.457898,0.81779 1.896589,1.422847 3.602445,1.422847 1.789134,-2e-6 3.25499,-0.664624 3.632717,-1.543939 3.442283,-0.868198 5.842624,-2.800511 5.842624,-4.752909 0,-0.405081 -0.107472,-0.774944 -0.302728,-1.150386 0.206501,-0.788814 0.302728,-1.694377 0.302728,-2.785144 0,-5.348572 -4.338794,-9.687458 -9.687249,-9.687458 z"
       style="display:inline;overflow:visible;visibility:visible;fill:#b3b3b3;fill-opacity:1;fill-rule:evenodd;stroke:#000000;stroke-width:0.5;stroke-linecap:round;stroke-linejoin:round;stroke-miterlimit:4;stroke-dashoffset:0;stroke-opacity:1;marker:none;enable-background:accumulate"
       inkscape:connector-curvature="0" />
    <rect
       style="display:inline;overflow:visible;visibility:visible;fill:#ffffff;fill-opacity:1;fill-rule:evenodd;stroke:#000000;stroke-width:0.5;stroke-linecap:round;stroke-linejoin:round;stroke-miterlimit:4;stroke-dasharray:none;stroke-dashoffset:0;stroke-opacity:1;marker:none;enable-background:accumulate"
       id="rect3430-4"
       width="4.8636923"
       height="2.5239611"
       x="17.94766"
       y="23.343252"
       ry="1.0700195" />
    <path
       style="display:inline;fill:none;stroke:#000000;stroke-width:0.5;stroke-linecap:round;stroke-linejoin:miter;stroke-miterlimit:4;stroke-dasharray:none;stroke-opacity:1"
       d="m 20.433949,25.478842 0,0.280788"
       id="path3436-2"
       inkscape:connector-curvature="0" />
    <path
       style="color:#000000;display:inline;overflow:visible;visibility:visible;fill:#b3b3b3;fill-opacity:1;fill-rule:evenodd;stroke:#000000;stroke-width:0.5;stroke-linecap:round;stroke-linejoin:round;stroke-miterlimit:4;stroke-dasharray:none;stroke-dashoffset:0;stroke-opacity:1;marker:none;enable-background:accumulate"
       d="m 17.404065,7.271048 c 0.0037,-0.07657 0.03812,-0.151268 0.03812,-0.228732 0,-2.669818 -2.171665,-4.841482 -4.841484,-4.841482 -2.669818,0 -4.841482,2.171664 -4.841482,4.841482 0,2.631818 2.109816,4.78108 4.727117,4.841483"
       id="path4565-6"
       inkscape:connector-curvature="0"
       sodipodi:nodetypes="csssc" />
    <path
       style="color:#000000;display:inline;overflow:visible;visibility:visible;fill:#464646;fill-opacity:1;fill-rule:evenodd;stroke:none;stroke-width:0.96666664;marker:none;enable-background:accumulate"
       d="m 12.753191,4.488148 c -1.631948,0 -2.935388,1.341562 -2.935388,2.973509 0,1.397163 0.950231,2.517209 2.249193,2.821022 C 13.04314,8.987055 14.280673,7.899211 15.688578,7.080438 15.50176,5.623185 14.258034,4.488148 12.753191,4.488148 Z"
       id="path4567-4"
       inkscape:connector-curvature="0" />
    <path
       sodipodi:nodetypes="csssc"
       inkscape:connector-curvature="0"
       id="path5075"
       d="m 23.50643,7.271048 c -0.0037,-0.07657 -0.03812,-0.151268 -0.03812,-0.228732 0,-2.669818 2.171665,-4.841482 4.841484,-4.841482 2.669818,0 4.841482,2.171664 4.841482,4.841482 0,2.631818 -2.109816,4.78108 -4.727117,4.841483"
       style="color:#000000;display:inline;overflow:visible;visibility:visible;fill:#b3b3b3;fill-opacity:1;fill-rule:evenodd;stroke:#000000;stroke-width:0.5;stroke-linecap:round;stroke-linejoin:round;stroke-miterlimit:4;stroke-dasharray:none;stroke-dashoffset:0;stroke-opacity:1;marker:none;enable-background:accumulate" />
    <path
       inkscape:connector-curvature="0"
       id="path5077-9"
       d="m 28.157304,4.488148 c 1.631948,0 2.935388,1.341562 2.935388,2.973509 0,1.397163 -0.950231,2.517209 -2.249193,2.821022 -0.976144,-1.295624 -2.213677,-2.383468 -3.621582,-3.202241 0.186818,-1.457253 1.430544,-2.59229 2.935387,-2.59229 z"
       style="color:#000000;display:inline;overflow:visible;visibility:visible;fill:#464646;fill-opacity:1;fill-rule:evenodd;stroke:none;stroke-width:0.96666664;marker:none;enable-background:accumulate" />
    <path
       style="display:inline;overflow:visible;visibility:visible;fill:#b3b3b3;fill-opacity:1;stroke:#000000;stroke-width:0.5;stroke-linecap:round;stroke-linejoin:round;stroke-miterlimit:4;stroke-dasharray:none;stroke-dashoffset:0;stroke-opacity:1;marker:none;enable-background:accumulate"
       d="m 16.550441,21.633472 c -0.05518,0.183437 -0.111074,0.349323 -0.111074,0.551554 0,1.160165 0.973871,2.127417 2.165958,2.127419 0.753913,0 1.390864,-0.375194 1.777196,-0.945519 0.384964,0.577827 1.01739,0.945519 1.777196,0.945519 1.192087,-2e-6 2.165959,-0.967254 2.165959,-2.127419 0,-0.202231 -0.05589,-0.368123 -0.111075,-0.551554"
       sodipodi:nodetypes="csscssc"
       id="path220-2"
       inkscape:connector-curvature="0" />
    <path
       style="display:inline;overflow:visible;visibility:visible;fill:#d1d1d1;fill-opacity:1;fill-rule:evenodd;stroke:#000000;stroke-width:0.5;stroke-linecap:round;stroke-linejoin:round;stroke-miterlimit:4;stroke-dashoffset:0;stroke-opacity:1;marker:none;enable-background:accumulate"
       d="m 21.973659,19.815537 c 0,0.860768 -0.69129,2.305141 -1.543057,2.305141 -0.851767,0 -1.543057,-1.444373 -1.543057,-2.305141 0,-0.860765 0.69129,-0.677981 1.543057,-0.677981 0.851767,0 1.543057,-0.182784 1.543057,0.677981 z"
       id="path3434-4"
       sodipodi:nodetypes="csssc"
       inkscape:connector-curvature="0" />
    <path
       id="path3442-6"
       d="m 23.689318,21.382479 3.175459,-0.802253"
       style="display:inline;fill:none;stroke:#000000;stroke-width:0.5;stroke-linecap:round;stroke-linejoin:miter;stroke-miterlimit:4;stroke-dasharray:none;stroke-opacity:1"
       inkscape:connector-curvature="0" />
    <path
       id="path3445-3"
       d="m 24.006864,22.666082 2.46098,0.401127"
       style="display:inline;fill:none;stroke:#000000;stroke-width:0.5;stroke-linecap:round;stroke-linejoin:miter;stroke-miterlimit:4;stroke-dasharray:none;stroke-opacity:1"
       inkscape:connector-curvature="0" />
    <path
       style="display:inline;fill:none;stroke:#000000;stroke-width:0.5;stroke-linecap:round;stroke-linejoin:miter;stroke-miterlimit:4;stroke-dasharray:none;stroke-opacity:1"
       d="M 17.033125,21.382479 13.857666,20.580226"
       id="path3438-4"
       inkscape:connector-curvature="0" />
    <path
       style="display:inline;fill:none;stroke:#000000;stroke-width:0.5;stroke-linecap:round;stroke-linejoin:miter;stroke-miterlimit:4;stroke-dasharray:none;stroke-opacity:1"
       d="m 16.715579,22.666082 -2.46098,0.401127"
       id="path3440-5"
       inkscape:connector-curvature="0" />
    <ellipse
       style="color:#000000;clip-rule:nonzero;display:inline;overflow:visible;visibility:visible;opacity:1;isolation:auto;mix-blend-mode:normal;color-interpolation:sRGB;color-interpolation-filters:linearRGB;solid-color:#000000;solid-opacity:1;fill:#191919;fill-opacity:1;fill-rule:evenodd;stroke:#000000;stroke-width:0.5;stroke-linecap:round;stroke-linejoin:round;stroke-miterlimit:4;stroke-dasharray:none;stroke-dashoffset:0;stroke-opacity:1;marker:none;marker-start:none;marker-mid:none;marker-end:none;color-rendering:auto;image-rendering:auto;shape-rendering:auto;text-rendering:auto;enable-background:accumulate"
       id="path5118"
       cx="24.273436"
       cy="15.733289"
       rx="1.9272727"
       ry="2.5090909" />
    <ellipse
       style="color:#000000;clip-rule:nonzero;display:inline;overflow:visible;visibility:visible;opacity:1;isolation:auto;mix-blend-mode:normal;color-interpolation:sRGB;color-interpolation-filters:linearRGB;solid-color:#000000;solid-opacity:1;fill:#f7f7f7;fill-opacity:1;fill-rule:evenodd;stroke:none;stroke-width:0.5;stroke-linecap:round;stroke-linejoin:round;stroke-miterlimit:4;stroke-dasharray:none;stroke-dashoffset:0;stroke-opacity:1;marker:none;marker-start:none;marker-mid:none;marker-end:none;color-rendering:auto;image-rendering:auto;shape-rendering:auto;text-rendering:auto;enable-background:accumulate"
       id="path5120"
       cx="24.747984"
       cy="14.841092"
       rx="0.97375178"
       ry="1.2300023" />
    <ellipse
       ry="0.63860387"
       rx="0.50556141"
       cy="16.82099"
       cx="23.565191"
       id="ellipse5122"
       style="color:#000000;clip-rule:nonzero;display:inline;overflow:visible;visibility:visible;opacity:1;isolation:auto;mix-blend-mode:normal;color-interpolation:sRGB;color-interpolation-filters:linearRGB;solid-color:#000000;solid-opacity:1;fill:#f7f7f7;fill-opacity:1;fill-rule:evenodd;stroke:none;stroke-width:0.5;stroke-linecap:round;stroke-linejoin:round;stroke-miterlimit:4;stroke-dasharray:none;stroke-dashoffset:0;stroke-opacity:1;marker:none;marker-start:none;marker-mid:none;marker-end:none;color-rendering:auto;image-rendering:auto;shape-rendering:auto;text-rendering:auto;enable-background:accumulate" />
    <ellipse
       ry="2.5090909"
       rx="1.9272727"
       cy="15.733289"
       cx="-16.399168"
       id="ellipse5124"
       style="color:#000000;clip-rule:nonzero;display:inline;overflow:visible;visibility:visible;opacity:1;isolation:auto;mix-blend-mode:normal;color-interpolation:sRGB;color-interpolation-filters:linearRGB;solid-color:#000000;solid-opacity:1;fill:#191919;fill-opacity:1;fill-rule:evenodd;stroke:#000000;stroke-width:0.5;stroke-linecap:round;stroke-linejoin:round;stroke-miterlimit:4;stroke-dasharray:none;stroke-dashoffset:0;stroke-opacity:1;marker:none;marker-start:none;marker-mid:none;marker-end:none;color-rendering:auto;image-rendering:auto;shape-rendering:auto;text-rendering:auto;enable-background:accumulate"
       transform="scale(-1,1)" />
    <ellipse
       ry="1.2300023"
       rx="0.97375178"
       cy="14.841092"
       cx="16.77696"
       id="ellipse5126"
       style="color:#000000;clip-rule:nonzero;display:inline;overflow:visible;visibility:visible;opacity:1;isolation:auto;mix-blend-mode:normal;color-interpolation:sRGB;color-interpolation-filters:linearRGB;solid-color:#000000;solid-opacity:1;fill:#f7f7f7;fill-opacity:1;fill-rule:evenodd;stroke:none;stroke-width:0.5;stroke-linecap:round;stroke-linejoin:round;stroke-miterlimit:4;stroke-dasharray:none;stroke-dashoffset:0;stroke-opacity:1;marker:none;marker-start:none;marker-mid:none;marker-end:none;color-rendering:auto;image-rendering:auto;shape-rendering:auto;text-rendering:auto;enable-background:accumulate" />
    <ellipse
       style="color:#000000;clip-rule:nonzero;display:inline;overflow:visible;visibility:visible;opacity:1;isolation:auto;mix-blend-mode:normal;color-interpolation:sRGB;color-interpolation-filters:linearRGB;solid-color:#000000;solid-opacity:1;fill:#f7f7f7;fill-opacity:1;fill-rule:evenodd;stroke:none;stroke-width:0.5;stroke-linecap:round;stroke-linejoin:round;stroke-miterlimit:4;stroke-dasharray:none;stroke-dashoffset:0;stroke-opacity:1;marker:none;marker-start:none;marker-mid:none;marker-end:none;color-rendering:auto;image-rendering:auto;shape-rendering:auto;text-rendering:auto;enable-background:accumulate"
       id="ellipse5128"
       cx="15.594167"
       cy="16.82099"
       rx="0.50556141"
       ry="0.63860387" />
    <path
       inkscape:connector-curvature="0"
       id="path4550-1-3"
       d="m 16.193861,36.381142 c -0.431,0 -0.76664,0.29182 -0.875,0.6875 -0.88784,0.43787 -1.5,1.18679 -1.5,2.03125 0,0.19599 0.0342,0.38 0.0937,0.5625 0.01,0.009 0.0212,0.022 0.0313,0.0312 0.6607,0.60198 1.79345,0.96875 3.0625,0.96875 1.52287,0 2.22313,-0.50025 2.78125,-1.3125 0.009,-0.0722 0.0313,-0.1449 0.0313,-0.21875 0,-0.65403 -0.23139,-1.26823 -0.65625,-1.71875 0.004,-0.0332 0,-0.0596 0,-0.0937 0,-0.5172 -0.4203,-0.9375 -0.9375,-0.9375 l -2.03125,0 z"
       style="color:#000000;display:inline;overflow:visible;visibility:visible;fill:#ff5707;fill-opacity:1;fill-rule:evenodd;stroke:none;stroke-width:0.5;marker:none;enable-background:accumulate" />
    <path
       inkscape:connector-curvature="0"
       style="color:#000000;display:inline;overflow:visible;visibility:visible;fill:#f8ffff;fill-opacity:1;fill-rule:evenodd;stroke:none;stroke-width:0.5;marker:none;enable-background:accumulate"
       d="m 19.725111,38.391872 c -0.54791,0.75635 -1.25588,1.21875 -2.71875,1.21875 -1.26905,0 -2.4018,-0.36677 -3.0625,-0.96875 -0.0101,-0.009 -0.0214,-0.022 -0.0313,-0.0312 -0.0466,0.16003 -0.0937,0.33052 -0.0937,0.5 0,0.19598 0.0342,0.37999 0.0937,0.5625 0.01,0.009 0.0212,0.022 0.0313,0.0312 0.6607,0.60198 1.79345,0.96875 3.0625,0.96875 1.52287,0 2.22313,-0.50025 2.78125,-1.3125 0.009,-0.0722 0.0313,-0.14491 0.0313,-0.21875 0,-0.25606 -0.0251,-0.51359 -0.0937,-0.75 z"
       id="path4554-4-8" />
    <path
       style="color:#000000;display:inline;overflow:visible;visibility:visible;fill:none;stroke:#000000;stroke-width:0.5;stroke-linecap:round;stroke-linejoin:miter;stroke-miterlimit:4;stroke-dasharray:none;stroke-dashoffset:0;stroke-opacity:1;marker:none;enable-background:accumulate"
       d="m 16.193861,36.381142 c -0.431,0 -0.76664,0.29182 -0.875,0.6875 -0.88784,0.43787 -1.5,1.18679 -1.5,2.03125 0,0.19599 0.0342,0.38 0.0937,0.5625 0.01,0.009 0.0212,0.022 0.0313,0.0312 0.6607,0.60198 1.79345,0.96875 3.0625,0.96875 1.52287,0 2.22313,-0.50025 2.78125,-1.3125 0.009,-0.0722 0.0313,-0.1449 0.0313,-0.21875 0,-0.65403 -0.23139,-1.26823 -0.65625,-1.71875 0.004,-0.0332 0,-0.0596 0,-0.0937 0,-0.5172 -0.4203,-0.9375 -0.9375,-0.9375 l -2.03125,0 z"
       id="path4542-5-2"
       inkscape:connector-curvature="0" />
    <path
       style="display:inline;fill:none;stroke:#000000;stroke-width:0.5;stroke-linecap:round;stroke-linejoin:miter;stroke-miterlimit:4;stroke-dasharray:none;stroke-opacity:1"
       d="m 15.844871,37.659692 c 0.52811,-0.22633 1.65977,-0.15089 1.99927,0"
       id="path4565-9-9"
       inkscape:connector-curvature="0" />
    <path
       style="color:#000000;display:inline;overflow:visible;visibility:visible;fill:#ff5707;fill-opacity:1;fill-rule:evenodd;stroke:none;stroke-width:0.5;marker:none;enable-background:accumulate"
       d="m 24.47874,36.381142 c 0.431,0 0.76664,0.29182 0.875,0.6875 0.88784,0.43787 1.5,1.18679 1.5,2.03125 0,0.19599 -0.0342,0.38 -0.0937,0.5625 -0.01,0.009 -0.0212,0.022 -0.0313,0.0312 -0.6607,0.60198 -1.79345,0.96875 -3.0625,0.96875 -1.52287,0 -2.22313,-0.50025 -2.78125,-1.3125 -0.009,-0.0722 -0.0313,-0.1449 -0.0313,-0.21875 0,-0.65403 0.23139,-1.26823 0.65625,-1.71875 -0.004,-0.0332 0,-0.0596 0,-0.0937 0,-0.5172 0.4203,-0.9375 0.9375,-0.9375 l 2.03125,0 z"
       id="path5296"
       inkscape:connector-curvature="0" />
    <path
       id="path5298"
       d="m 20.94749,38.391872 c 0.54791,0.75635 1.25588,1.21875 2.71875,1.21875 1.26905,0 2.4018,-0.36677 3.0625,-0.96875 0.0101,-0.009 0.0214,-0.022 0.0313,-0.0312 0.0466,0.16003 0.0937,0.33052 0.0937,0.5 0,0.19598 -0.0342,0.37999 -0.0937,0.5625 -0.01,0.009 -0.0212,0.022 -0.0313,0.0312 -0.6607,0.60198 -1.79345,0.96875 -3.0625,0.96875 -1.52287,0 -2.22313,-0.50025 -2.78125,-1.3125 -0.009,-0.0722 -0.0313,-0.14491 -0.0313,-0.21875 0,-0.25606 0.0251,-0.51359 0.0937,-0.75 z"
       style="color:#000000;display:inline;overflow:visible;visibility:visible;fill:#f8ffff;fill-opacity:1;fill-rule:evenodd;stroke:none;stroke-width:0.5;marker:none;enable-background:accumulate"
       inkscape:connector-curvature="0" />
    <path
       inkscape:connector-curvature="0"
       id="path5300"
       d="m 24.47874,36.381142 c 0.431,0 0.76664,0.29182 0.875,0.6875 0.88784,0.43787 1.5,1.18679 1.5,2.03125 0,0.19599 -0.0342,0.38 -0.0937,0.5625 -0.01,0.009 -0.0212,0.022 -0.0313,0.0312 -0.6607,0.60198 -1.79345,0.96875 -3.0625,0.96875 -1.52287,0 -2.22313,-0.50025 -2.78125,-1.3125 -0.009,-0.0722 -0.0313,-0.1449 -0.0313,-0.21875 0,-0.65403 0.23139,-1.26823 0.65625,-1.71875 -0.004,-0.0332 0,-0.0596 0,-0.0937 0,-0.5172 0.4203,-0.9375 0.9375,-0.9375 l 2.03125,0 z"
       style="color:#000000;display:inline;overflow:visible;visibility:visible;fill:none;stroke:#000000;stroke-width:0.5;stroke-linecap:round;stroke-linejoin:miter;stroke-miterlimit:4;stroke-dasharray:none;stroke-dashoffset:0;stroke-opacity:1;marker:none;enable-background:accumulate" />
    <path
       inkscape:connector-curvature="0"
       id="path5302"
       d="m 24.82773,37.659692 c -0.52811,-0.22633 -1.65977,-0.15089 -1.99927,0"
       style="display:inline;fill:none;stroke:#000000;stroke-width:0.5;stroke-linecap:round;stroke-linejoin:miter;stroke-miterlimit:4;stroke-dasharray:none;stroke-opacity:1" />
  </g>
</svg>
